<svg width="1580" height="1000" viewBox="0 0 1580 1000" fill="none" xmlns="http://www.w3.org/2000/svg">
<path fill-rule="evenodd" clip-rule="evenodd" d="M1210 850H372.346C337.778 850 310 822.222 310 787.654V212.346C310 177.778 337.778 150 372.346 150H1210C1244.57 150 1272.35 177.778 1272.35 212.346V787.037C1272.35 822.222 1244.57 850 1210 850ZM374.844 241.982C387.799 241.982 398.301 231.48 398.301 218.525C398.301 205.57 387.799 195.068 374.844 195.068C361.889 195.068 351.387 205.57 351.387 218.525C351.387 231.48 361.889 241.982 374.844 241.982ZM1229.12 218.525C1229.12 231.48 1218.62 241.982 1205.66 241.982C1192.71 241.982 1182.21 231.48 1182.21 218.525C1182.21 205.57 1192.71 195.068 1205.66 195.068C1218.62 195.068 1229.12 205.57 1229.12 218.525ZM374.843 803.71C387.798 803.71 398.3 793.208 398.3 780.253C398.3 767.298 387.798 756.796 374.843 756.796C361.888 756.796 351.386 767.298 351.386 780.253C351.386 793.208 361.888 803.71 374.843 803.71ZM1229.12 780.253C1229.12 793.208 1218.62 803.71 1205.66 803.71C1192.71 803.71 1182.21 793.208 1182.21 780.253C1182.21 767.298 1192.71 756.796 1205.66 756.796C1218.62 756.796 1229.12 767.298 1229.12 780.253Z" fill="#4D916B"/>
<path d="M531.597 353.701H359.375V610.491H531.597V353.701Z" fill="#303231"/>
<path d="M1051.45 656.212C1050.22 656.212 1048.98 654.978 1048.98 653.743V649.422C1048.98 648.188 1050.22 646.953 1051.45 646.953C1052.69 646.953 1053.92 648.188 1053.92 649.422V653.743C1053.92 655.595 1052.69 656.212 1051.45 656.212Z" fill="#FEF6EB"/>
<path d="M1057.63 656.212C1056.39 656.212 1055.16 654.978 1055.16 653.743V649.422C1055.16 648.188 1056.39 646.953 1057.63 646.953C1058.86 646.953 1060.09 648.188 1060.09 649.422V653.743C1060.09 655.595 1058.86 656.212 1057.63 656.212Z" fill="#FEF6EB"/>
<path d="M1063.17 656.212C1061.94 656.212 1060.7 654.978 1060.7 653.743V649.422C1060.7 648.188 1061.94 646.953 1063.17 646.953C1064.41 646.953 1065.64 648.188 1065.64 649.422V653.743C1065.64 655.595 1065.02 656.212 1063.17 656.212Z" fill="#FEF6EB"/>
<path d="M1069.34 656.212C1068.11 656.212 1066.88 654.978 1066.88 653.743V649.422C1066.88 648.188 1068.11 646.953 1069.34 646.953C1070.58 646.953 1071.81 648.188 1071.81 649.422V653.743C1071.81 655.595 1070.58 656.212 1069.34 656.212Z" fill="#FEF6EB"/>
<path d="M1075.52 656.212C1074.28 656.212 1073.05 654.978 1073.05 653.743V649.422C1073.05 648.188 1074.28 646.953 1075.52 646.953C1076.75 646.953 1077.99 648.188 1077.99 649.422V653.743C1077.99 655.595 1076.75 656.212 1075.52 656.212Z" fill="#FEF6EB"/>
<path d="M1081.69 656.212C1080.45 656.212 1079.22 654.978 1079.22 653.743V649.422C1079.22 648.188 1080.45 646.953 1081.69 646.953C1082.92 646.953 1084.16 648.188 1084.16 649.422V653.743C1084.16 655.595 1082.92 656.212 1081.69 656.212Z" fill="#FEF6EB"/>
<path d="M1087.86 656.212C1086.63 656.212 1085.39 654.978 1085.39 653.743V649.422C1085.39 648.188 1086.63 646.953 1087.86 646.953C1089.09 646.953 1090.33 648.188 1090.33 649.422V653.743C1089.71 655.595 1089.09 656.212 1087.86 656.212Z" fill="#FEF6EB"/>
<path d="M1093.41 656.212C1092.17 656.212 1090.94 654.978 1090.94 653.743V649.422C1090.94 648.188 1092.17 646.953 1093.41 646.953C1094.64 646.953 1095.88 648.188 1095.88 649.422V653.743C1095.88 655.595 1094.64 656.212 1093.41 656.212Z" fill="#FEF6EB"/>
<path d="M1099.58 656.212C1098.34 656.212 1097.11 654.978 1097.11 653.743V649.422C1097.11 648.188 1098.34 646.953 1099.58 646.953C1100.81 646.953 1102.05 648.188 1102.05 649.422V653.743C1102.05 655.595 1100.81 656.212 1099.58 656.212Z" fill="#FEF6EB"/>
<path d="M1105.75 656.212C1104.52 656.212 1103.28 654.978 1103.28 653.743V649.422C1103.28 648.188 1104.52 646.953 1105.75 646.953C1106.98 646.953 1108.22 648.188 1108.22 649.422V653.743C1108.22 655.595 1106.98 656.212 1105.75 656.212Z" fill="#FEF6EB"/>
<path d="M1111.92 656.212C1110.69 656.212 1109.45 654.978 1109.45 653.743V649.422C1109.45 648.188 1110.69 646.953 1111.92 646.953C1113.16 646.953 1114.39 648.188 1114.39 649.422V653.743C1113.77 655.595 1113.16 656.212 1111.92 656.212Z" fill="#FEF6EB"/>
<path d="M1117.53 656.212C1116.29 656.212 1115.06 654.978 1115.06 653.743V649.422C1115.06 648.188 1116.29 646.953 1117.53 646.953C1118.76 646.953 1120 648.188 1120 649.422V653.743C1120 655.595 1118.76 656.212 1117.53 656.212Z" fill="#FEF6EB"/>
<path d="M1123.7 656.212C1122.47 656.212 1121.23 654.978 1121.23 653.743V649.422C1121.23 648.188 1122.47 646.953 1123.7 646.953C1124.93 646.953 1126.17 648.188 1126.17 649.422V653.743C1126.17 655.595 1124.93 656.212 1123.7 656.212Z" fill="#FEF6EB"/>
<path d="M1129.87 656.212C1128.64 656.212 1127.4 654.978 1127.4 653.743V649.422C1127.4 648.188 1128.64 646.953 1129.87 646.953C1131.11 646.953 1132.34 648.188 1132.34 649.422V653.743C1132.34 655.595 1131.11 656.212 1129.87 656.212Z" fill="#FEF6EB"/>
<path d="M1136.04 656.212C1134.81 656.212 1133.57 654.978 1133.57 653.743V649.422C1133.57 648.188 1134.81 646.953 1136.04 646.953C1137.28 646.953 1138.51 648.188 1138.51 649.422V653.743C1138.51 655.595 1137.28 656.212 1136.04 656.212Z" fill="#FEF6EB"/>
<path d="M1141.59 656.212C1140.36 656.212 1139.12 654.978 1139.12 653.743V649.422C1139.12 648.188 1140.36 646.953 1141.59 646.953C1142.82 646.953 1144.06 648.188 1144.06 649.422V653.743C1144.06 655.595 1143.44 656.212 1141.59 656.212Z" fill="#FEF6EB"/>
<path d="M1147.76 656.212C1146.53 656.212 1145.29 654.978 1145.29 653.743V649.422C1145.29 648.188 1146.53 646.953 1147.76 646.953C1149 646.953 1150.23 648.188 1150.23 649.422V653.743C1150.23 655.595 1149 656.212 1147.76 656.212Z" fill="#FEF6EB"/>
<path d="M1158.85 540.174C1158.85 538.94 1160.08 537.705 1161.32 537.705H1165.64C1166.87 537.705 1168.11 538.94 1168.11 540.174C1168.11 541.409 1166.87 542.643 1165.64 542.643H1161.32C1160.08 542.026 1158.85 541.409 1158.85 540.174Z" fill="#FEF6EB"/>
<path d="M1158.85 545.721C1158.85 544.487 1160.08 543.252 1161.32 543.252H1165.64C1166.87 543.252 1168.11 544.487 1168.11 545.721C1168.11 546.956 1166.87 548.19 1165.64 548.19H1161.32C1160.08 548.19 1158.85 546.956 1158.85 545.721Z" fill="#FEF6EB"/>
<path d="M1158.85 551.893C1158.85 550.658 1160.08 549.424 1161.32 549.424H1165.64C1166.87 549.424 1168.11 550.658 1168.11 551.893C1168.11 553.128 1166.87 554.362 1165.64 554.362H1161.32C1160.08 554.362 1158.85 553.128 1158.85 551.893Z" fill="#FEF6EB"/>
<path d="M1158.85 558.065C1158.85 556.83 1160.08 555.596 1161.32 555.596H1165.64C1166.87 555.596 1168.11 556.83 1168.11 558.065C1168.11 559.299 1166.87 560.534 1165.64 560.534H1161.32C1160.08 560.534 1158.85 559.299 1158.85 558.065Z" fill="#FEF6EB"/>
<path d="M1158.85 564.237C1158.85 563.002 1160.08 561.768 1161.32 561.768H1165.64C1166.87 561.768 1168.11 563.002 1168.11 564.237C1168.11 565.471 1166.87 566.706 1165.64 566.706H1161.32C1160.08 566.089 1158.85 565.471 1158.85 564.237Z" fill="#FEF6EB"/>
<path d="M1158.85 569.813C1158.85 568.578 1160.08 567.344 1161.32 567.344H1165.64C1166.87 567.344 1168.11 568.578 1168.11 569.813C1168.11 571.047 1166.87 572.282 1165.64 572.282H1161.32C1160.08 572.282 1158.85 571.047 1158.85 569.813Z" fill="#FEF6EB"/>
<path d="M1158.85 575.985C1158.85 574.75 1160.08 573.516 1161.32 573.516H1165.64C1166.87 573.516 1168.11 574.75 1168.11 575.985C1168.11 577.219 1166.87 578.454 1165.64 578.454H1161.32C1160.08 578.454 1158.85 577.219 1158.85 575.985Z" fill="#FEF6EB"/>
<path d="M1158.85 582.157C1158.85 580.922 1160.08 579.688 1161.32 579.688H1165.64C1166.87 579.688 1168.11 580.922 1168.11 582.157C1168.11 583.391 1166.87 584.626 1165.64 584.626H1161.32C1160.08 584.626 1158.85 583.391 1158.85 582.157Z" fill="#FEF6EB"/>
<path d="M1158.85 588.329C1158.85 587.094 1160.08 585.859 1161.32 585.859H1165.64C1166.87 585.859 1168.11 587.094 1168.11 588.329C1168.11 589.563 1166.87 590.798 1165.64 590.798H1161.32C1160.08 590.18 1158.85 589.563 1158.85 588.329Z" fill="#FEF6EB"/>
<path d="M1158.85 593.875C1158.85 592.641 1160.08 591.406 1161.32 591.406H1165.64C1166.87 591.406 1168.11 592.641 1168.11 593.875C1168.11 595.11 1166.87 596.344 1165.64 596.344H1161.32C1160.08 596.344 1158.85 595.727 1158.85 593.875Z" fill="#FEF6EB"/>
<path d="M1158.85 600.047C1158.85 598.813 1160.08 597.578 1161.32 597.578H1165.64C1166.87 597.578 1168.11 598.813 1168.11 600.047C1168.11 601.282 1166.87 602.516 1165.64 602.516H1161.32C1160.08 602.516 1158.85 601.282 1158.85 600.047Z" fill="#FEF6EB"/>
<path d="M1158.85 606.219C1158.85 604.985 1160.08 603.75 1161.32 603.75H1165.64C1166.87 603.75 1168.11 604.985 1168.11 606.219C1168.11 607.454 1166.87 608.688 1165.64 608.688H1161.32C1160.08 608.688 1158.85 607.454 1158.85 606.219Z" fill="#FEF6EB"/>
<path d="M1158.85 612.391C1158.85 611.156 1160.08 609.922 1161.32 609.922H1165.64C1166.87 609.922 1168.11 611.156 1168.11 612.391C1168.11 613.626 1166.87 614.86 1165.64 614.86H1161.32C1160.08 614.86 1158.85 613.626 1158.85 612.391Z" fill="#FEF6EB"/>
<path d="M1158.85 617.957C1158.85 616.723 1160.08 615.488 1161.32 615.488H1165.64C1166.87 615.488 1168.11 616.723 1168.11 617.957C1168.11 619.192 1166.87 620.427 1165.64 620.427H1161.32C1160.08 620.427 1158.85 619.809 1158.85 617.957Z" fill="#FEF6EB"/>
<path d="M1158.85 624.139C1158.85 622.904 1160.08 621.67 1161.32 621.67H1165.64C1166.87 621.67 1168.11 622.904 1168.11 624.139C1168.11 625.374 1166.87 626.608 1165.64 626.608H1161.32C1160.08 626.608 1158.85 625.374 1158.85 624.139Z" fill="#FEF6EB"/>
<path d="M1158.85 630.311C1158.85 629.076 1160.08 627.842 1161.32 627.842H1165.64C1166.87 627.842 1168.11 629.076 1168.11 630.311C1168.11 631.545 1166.87 632.78 1165.64 632.78H1161.32C1160.08 632.78 1158.85 631.545 1158.85 630.311Z" fill="#FEF6EB"/>
<path d="M1158.85 636.483C1158.85 635.248 1160.08 634.014 1161.32 634.014H1165.64C1166.87 634.014 1168.11 635.248 1168.11 636.483C1168.11 637.717 1166.87 638.952 1165.64 638.952H1161.32C1160.08 638.952 1158.85 637.717 1158.85 636.483Z" fill="#FEF6EB"/>
<path d="M1032.32 540.75C1032.32 539.516 1033.56 538.281 1034.79 538.281H1039.11C1040.35 538.281 1041.58 539.516 1041.58 540.75C1041.58 541.985 1040.35 543.219 1039.11 543.219H1034.79C1033.56 543.219 1032.32 541.985 1032.32 540.75Z" fill="#FEF6EB"/>
<path d="M1032.32 546.297C1032.32 545.063 1033.56 543.828 1034.79 543.828H1039.11C1040.35 543.828 1041.58 545.063 1041.58 546.297C1041.58 547.532 1040.35 548.766 1039.11 548.766H1034.79C1033.56 548.766 1032.32 548.149 1032.32 546.297Z" fill="#FEF6EB"/>
<path d="M1032.32 552.469C1032.32 551.235 1033.56 550 1034.79 550H1039.11C1040.35 550 1041.58 551.235 1041.58 552.469C1041.58 553.704 1040.35 554.938 1039.11 554.938H1034.79C1033.56 554.938 1032.32 553.704 1032.32 552.469Z" fill="#FEF6EB"/>
<path d="M1032.32 558.641C1032.32 557.406 1033.56 556.172 1034.79 556.172H1039.11C1040.35 556.172 1041.58 557.406 1041.58 558.641C1041.58 559.876 1040.35 561.11 1039.11 561.11H1034.79C1033.56 561.11 1032.32 559.876 1032.32 558.641Z" fill="#FEF6EB"/>
<path d="M1032.32 564.813C1032.32 563.578 1033.56 562.344 1034.79 562.344H1039.11C1040.35 562.344 1041.58 563.578 1041.58 564.813C1041.58 566.047 1040.35 567.282 1039.11 567.282H1034.79C1033.56 567.282 1032.32 566.047 1032.32 564.813Z" fill="#FEF6EB"/>
<path d="M1032.32 570.985C1032.32 569.75 1033.56 568.516 1034.79 568.516H1039.11C1040.35 568.516 1041.58 569.75 1041.58 570.985C1041.58 572.219 1040.35 573.454 1039.11 573.454H1034.79C1033.56 572.837 1032.32 572.219 1032.32 570.985Z" fill="#FEF6EB"/>
<path d="M1032.32 576.561C1032.32 575.326 1033.56 574.092 1034.79 574.092H1039.11C1040.35 574.092 1041.58 575.326 1041.58 576.561C1041.58 577.796 1040.35 579.03 1039.11 579.03H1034.79C1033.56 579.03 1032.32 577.796 1032.32 576.561Z" fill="#FEF6EB"/>
<path d="M1032.32 582.733C1032.32 581.498 1033.56 580.264 1034.79 580.264H1039.11C1040.35 580.264 1041.58 581.498 1041.58 582.733C1041.58 583.967 1040.35 585.202 1039.11 585.202H1034.79C1033.56 585.202 1032.32 583.967 1032.32 582.733Z" fill="#FEF6EB"/>
<path d="M1032.32 588.905C1032.32 587.67 1033.56 586.436 1034.79 586.436H1039.11C1040.35 586.436 1041.58 587.67 1041.58 588.905C1041.58 590.139 1040.35 591.374 1039.11 591.374H1034.79C1033.56 591.374 1032.32 590.139 1032.32 588.905Z" fill="#FEF6EB"/>
<path d="M1032.32 595.077C1032.32 593.842 1033.56 592.607 1034.79 592.607H1039.11C1040.35 592.607 1041.58 593.842 1041.58 595.077C1041.58 596.311 1040.35 597.546 1039.11 597.546H1034.79C1033.56 596.928 1032.32 596.311 1032.32 595.077Z" fill="#FEF6EB"/>
<path d="M1032.32 600.623C1032.32 599.389 1033.56 598.154 1034.79 598.154H1039.11C1040.35 598.154 1041.58 599.389 1041.58 600.623C1041.58 601.858 1040.35 603.093 1039.11 603.093H1034.79C1033.56 603.093 1032.32 601.858 1032.32 600.623Z" fill="#FEF6EB"/>
<path d="M1032.32 606.795C1032.32 605.561 1033.56 604.326 1034.79 604.326H1039.11C1040.35 604.326 1041.58 605.561 1041.58 606.795C1041.58 608.03 1040.35 609.264 1039.11 609.264H1034.79C1033.56 609.264 1032.32 608.03 1032.32 606.795Z" fill="#FEF6EB"/>
<path d="M1032.32 612.967C1032.32 611.733 1033.56 610.498 1034.79 610.498H1039.11C1040.35 610.498 1041.58 611.733 1041.58 612.967C1041.58 614.202 1040.35 615.436 1039.11 615.436H1034.79C1033.56 615.436 1032.32 614.202 1032.32 612.967Z" fill="#FEF6EB"/>
<path d="M1032.32 619.139C1032.32 617.904 1033.56 616.67 1034.79 616.67H1039.11C1040.35 616.67 1041.58 617.904 1041.58 619.139C1041.58 620.374 1040.35 621.608 1039.11 621.608H1034.79C1033.56 620.991 1032.32 620.374 1032.32 619.139Z" fill="#FEF6EB"/>
<path d="M1032.32 624.715C1032.32 623.481 1033.56 622.246 1034.79 622.246H1039.11C1040.35 622.246 1041.58 623.481 1041.58 624.715C1041.58 625.95 1040.35 627.184 1039.11 627.184H1034.79C1033.56 627.184 1032.32 626.567 1032.32 624.715Z" fill="#FEF6EB"/>
<path d="M1032.32 630.887C1032.32 629.653 1033.56 628.418 1034.79 628.418H1039.11C1040.35 628.418 1041.58 629.653 1041.58 630.887C1041.58 632.122 1040.35 633.356 1039.11 633.356H1034.79C1033.56 633.356 1032.32 632.122 1032.32 630.887Z" fill="#FEF6EB"/>
<path d="M1032.32 637.059C1032.32 635.824 1033.56 634.59 1034.79 634.59H1039.11C1040.35 634.59 1041.58 635.824 1041.58 637.059C1041.58 638.294 1040.35 639.528 1039.11 639.528H1034.79C1033.56 639.528 1032.32 638.294 1032.32 637.059Z" fill="#FEF6EB"/>
<path d="M1052.06 529.689C1050.82 529.689 1049.59 528.454 1049.59 527.22V522.899C1049.59 521.664 1050.82 520.43 1052.06 520.43C1053.29 520.43 1054.53 521.664 1054.53 522.899V527.22C1054.53 528.454 1053.29 529.689 1052.06 529.689Z" fill="#FEF6EB"/>
<path d="M1058.23 529.689C1057 529.689 1055.76 528.454 1055.76 527.22V522.899C1055.76 521.664 1057 520.43 1058.23 520.43C1059.47 520.43 1060.7 521.664 1060.7 522.899V527.22C1060.7 528.454 1059.47 529.689 1058.23 529.689Z" fill="#FEF6EB"/>
<path d="M1063.78 529.689C1062.54 529.689 1061.31 528.454 1061.31 527.22V522.899C1061.31 521.664 1062.54 520.43 1063.78 520.43C1065.01 520.43 1066.25 521.664 1066.25 522.899V527.22C1066.25 528.454 1065.63 529.689 1063.78 529.689Z" fill="#FEF6EB"/>
<path d="M1069.95 529.689C1068.72 529.689 1067.48 528.454 1067.48 527.22V522.899C1067.48 521.664 1068.72 520.43 1069.95 520.43C1071.18 520.43 1072.42 521.664 1072.42 522.899V527.22C1072.42 528.454 1071.18 529.689 1069.95 529.689Z" fill="#FEF6EB"/>
<path d="M1076.12 529.689C1074.89 529.689 1073.65 528.454 1073.65 527.22V522.899C1073.65 521.664 1074.89 520.43 1076.12 520.43C1077.36 520.43 1078.59 521.664 1078.59 522.899V527.22C1078.59 528.454 1077.36 529.689 1076.12 529.689Z" fill="#FEF6EB"/>
<path d="M1082.29 529.689C1081.06 529.689 1079.82 528.454 1079.82 527.22V522.899C1079.82 521.664 1081.06 520.43 1082.29 520.43C1083.53 520.43 1084.76 521.664 1084.76 522.899V527.22C1084.76 528.454 1083.53 529.689 1082.29 529.689Z" fill="#FEF6EB"/>
<path d="M1088.47 529.689C1087.23 529.689 1086 528.454 1086 527.22V522.899C1086 521.664 1087.23 520.43 1088.47 520.43C1089.7 520.43 1090.93 521.664 1090.93 522.899V527.22C1090.32 528.454 1089.7 529.689 1088.47 529.689Z" fill="#FEF6EB"/>
<path d="M1094.01 529.689C1092.78 529.689 1091.54 528.454 1091.54 527.22V522.899C1091.54 521.664 1092.78 520.43 1094.01 520.43C1095.25 520.43 1096.48 521.664 1096.48 522.899V527.22C1096.48 528.454 1095.25 529.689 1094.01 529.689Z" fill="#FEF6EB"/>
<path d="M1100.18 529.689C1098.95 529.689 1097.71 528.454 1097.71 527.22V522.899C1097.71 521.664 1098.95 520.43 1100.18 520.43C1101.42 520.43 1102.65 521.664 1102.65 522.899V527.22C1102.65 528.454 1101.42 529.689 1100.18 529.689Z" fill="#FEF6EB"/>
<path d="M1106.36 529.689C1105.12 529.689 1103.89 528.454 1103.89 527.22V522.899C1103.89 521.664 1105.12 520.43 1106.36 520.43C1107.59 520.43 1108.82 521.664 1108.82 522.899V527.22C1108.82 528.454 1107.59 529.689 1106.36 529.689Z" fill="#FEF6EB"/>
<path d="M1112.53 529.689C1111.29 529.689 1110.06 528.454 1110.06 527.22V522.899C1110.06 521.664 1111.29 520.43 1112.53 520.43C1113.76 520.43 1115 521.664 1115 522.899V527.22C1114.38 528.454 1113.76 529.689 1112.53 529.689Z" fill="#FEF6EB"/>
<path d="M1118.13 529.689C1116.9 529.689 1115.66 528.454 1115.66 527.22V522.899C1115.66 521.664 1116.9 520.43 1118.13 520.43C1119.37 520.43 1120.6 521.664 1120.6 522.899V527.22C1120.6 528.454 1119.37 529.689 1118.13 529.689Z" fill="#FEF6EB"/>
<path d="M1124.31 529.689C1123.07 529.689 1121.84 528.454 1121.84 527.22V522.899C1121.84 521.664 1123.07 520.43 1124.31 520.43C1125.54 520.43 1126.77 521.664 1126.77 522.899V527.22C1126.77 528.454 1125.54 529.689 1124.31 529.689Z" fill="#FEF6EB"/>
<path d="M1130.48 529.689C1129.24 529.689 1128.01 528.454 1128.01 527.22V522.899C1128.01 521.664 1129.24 520.43 1130.48 520.43C1131.71 520.43 1132.95 521.664 1132.95 522.899V527.22C1132.95 528.454 1131.71 529.689 1130.48 529.689Z" fill="#FEF6EB"/>
<path d="M1136.65 529.689C1135.41 529.689 1134.18 528.454 1134.18 527.22V522.899C1134.18 521.664 1135.41 520.43 1136.65 520.43C1137.88 520.43 1139.12 521.664 1139.12 522.899V527.22C1139.12 528.454 1137.88 529.689 1136.65 529.689Z" fill="#FEF6EB"/>
<path d="M1142.2 529.689C1140.96 529.689 1139.73 528.454 1139.73 527.22V522.899C1139.73 521.664 1140.96 520.43 1142.2 520.43C1143.43 520.43 1144.66 521.664 1144.66 522.899V527.22C1144.66 528.454 1144.05 529.689 1142.2 529.689Z" fill="#FEF6EB"/>
<path d="M1148.37 529.689C1147.13 529.689 1145.9 528.454 1145.9 527.22V522.899C1145.9 521.664 1147.13 520.43 1148.37 520.43C1149.6 520.43 1150.84 521.664 1150.84 522.899V527.22C1150.84 528.454 1149.6 529.689 1148.37 529.689Z" fill="#FEF6EB"/>
<path d="M1161.23 525.938H1039V650.629H1161.23V525.938Z" fill="#343637"/>
<path d="M483.578 810.512C482.736 810.512 481.895 809.671 481.895 808.829V805.883C481.895 805.041 482.736 804.199 483.578 804.199C484.42 804.199 485.262 805.041 485.262 805.883V808.829C485.262 810.091 484.42 810.512 483.578 810.512Z" fill="#FEF6EB"/>
<path d="M487.777 810.512C486.936 810.512 486.094 809.671 486.094 808.829V805.883C486.094 805.041 486.936 804.199 487.777 804.199C488.619 804.199 489.461 805.041 489.461 805.883V808.829C489.461 810.091 488.619 810.512 487.777 810.512Z" fill="#FEF6EB"/>
<path d="M491.586 810.512C490.744 810.512 489.902 809.671 489.902 808.829V805.883C489.902 805.041 490.744 804.199 491.586 804.199C492.428 804.199 493.269 805.041 493.269 805.883V808.829C493.269 810.091 492.848 810.512 491.586 810.512Z" fill="#FEF6EB"/>
<path d="M495.785 810.512C494.943 810.512 494.102 809.671 494.102 808.829V805.883C494.102 805.041 494.943 804.199 495.785 804.199C496.627 804.199 497.469 805.041 497.469 805.883V808.829C497.469 810.091 496.627 810.512 495.785 810.512Z" fill="#FEF6EB"/>
<path d="M500.023 810.512C499.182 810.512 498.34 809.671 498.34 808.829V805.883C498.34 805.041 499.182 804.199 500.023 804.199C500.865 804.199 501.707 805.041 501.707 805.883V808.829C501.707 810.091 500.865 810.512 500.023 810.512Z" fill="#FEF6EB"/>
<path d="M504.164 810.512C503.322 810.512 502.48 809.671 502.48 808.829V805.883C502.48 805.041 503.322 804.199 504.164 804.199C505.006 804.199 505.847 805.041 505.847 805.883V808.829C505.847 810.091 505.006 810.512 504.164 810.512Z" fill="#FEF6EB"/>
<path d="M508.363 810.512C507.521 810.512 506.68 809.671 506.68 808.829V805.883C506.68 805.041 507.521 804.199 508.363 804.199C509.205 804.199 510.047 805.041 510.047 805.883V808.829C509.626 810.091 509.205 810.512 508.363 810.512Z" fill="#FEF6EB"/>
<path d="M512.23 810.512C511.389 810.512 510.547 809.671 510.547 808.829V805.883C510.547 805.041 511.389 804.199 512.23 804.199C513.072 804.199 513.914 805.041 513.914 805.883V808.829C513.914 810.091 513.072 810.512 512.23 810.512Z" fill="#FEF6EB"/>
<path d="M516.371 810.512C515.529 810.512 514.688 809.671 514.688 808.829V805.883C514.688 805.041 515.529 804.199 516.371 804.199C517.213 804.199 518.055 805.041 518.055 805.883V808.829C518.055 810.091 517.213 810.512 516.371 810.512Z" fill="#FEF6EB"/>
<path d="M520.609 810.512C519.768 810.512 518.926 809.671 518.926 808.829V805.883C518.926 805.041 519.768 804.199 520.609 804.199C521.451 804.199 522.293 805.041 522.293 805.883V808.829C522.293 810.091 521.451 810.512 520.609 810.512Z" fill="#FEF6EB"/>
<path d="M524.809 810.512C523.967 810.512 523.125 809.671 523.125 808.829V805.883C523.125 805.041 523.967 804.199 524.809 804.199C525.65 804.199 526.492 805.041 526.492 805.883V808.829C526.071 810.091 525.65 810.512 524.809 810.512Z" fill="#FEF6EB"/>
<path d="M528.617 810.512C527.775 810.512 526.934 809.671 526.934 808.829V805.883C526.934 805.041 527.775 804.199 528.617 804.199C529.459 804.199 530.301 805.041 530.301 805.883V808.829C530.301 810.091 529.459 810.512 528.617 810.512Z" fill="#FEF6EB"/>
<path d="M532.816 810.512C531.975 810.512 531.133 809.671 531.133 808.829V805.883C531.133 805.041 531.975 804.199 532.816 804.199C533.658 804.199 534.5 805.041 534.5 805.883V808.829C534.5 810.091 533.658 810.512 532.816 810.512Z" fill="#FEF6EB"/>
<path d="M537.055 810.512C536.213 810.512 535.371 809.671 535.371 808.829V805.883C535.371 805.041 536.213 804.199 537.055 804.199C537.896 804.199 538.738 805.041 538.738 805.883V808.829C538.738 810.091 537.896 810.512 537.055 810.512Z" fill="#FEF6EB"/>
<path d="M541.254 810.512C540.412 810.512 539.57 809.671 539.57 808.829V805.883C539.57 805.041 540.412 804.199 541.254 804.199C542.096 804.199 542.937 805.041 542.937 805.883V808.829C542.937 810.091 542.096 810.512 541.254 810.512Z" fill="#FEF6EB"/>
<path d="M545.023 810.512C544.182 810.512 543.34 809.671 543.34 808.829V805.883C543.34 805.041 544.182 804.199 545.023 804.199C545.865 804.199 546.707 805.041 546.707 805.883V808.829C546.707 810.091 546.286 810.512 545.023 810.512Z" fill="#FEF6EB"/>
<path d="M549.262 810.512C548.42 810.512 547.578 809.671 547.578 808.829V805.883C547.578 805.041 548.42 804.199 549.262 804.199C550.103 804.199 550.945 805.041 550.945 805.883V808.829C550.945 810.091 550.103 810.512 549.262 810.512Z" fill="#FEF6EB"/>
<path d="M556.895 731.4C556.895 730.559 557.736 729.717 558.578 729.717H561.524C562.366 729.717 563.208 730.559 563.208 731.4C563.208 732.242 562.366 733.084 561.524 733.084H558.578C557.736 732.663 556.895 732.242 556.895 731.4Z" fill="#FEF6EB"/>
<path d="M556.895 735.189C556.895 734.348 557.736 733.506 558.578 733.506H561.524C562.366 733.506 563.208 734.348 563.208 735.189C563.208 736.031 562.366 736.873 561.524 736.873H558.578C557.736 736.873 556.895 736.031 556.895 735.189Z" fill="#FEF6EB"/>
<path d="M556.895 739.408C556.895 738.566 557.736 737.725 558.578 737.725H561.524C562.366 737.725 563.208 738.566 563.208 739.408C563.208 740.25 562.366 741.092 561.524 741.092H558.578C557.736 741.092 556.895 740.25 556.895 739.408Z" fill="#FEF6EB"/>
<path d="M556.895 743.598C556.895 742.756 557.736 741.914 558.578 741.914H561.524C562.366 741.914 563.208 742.756 563.208 743.598C563.208 744.439 562.366 745.281 561.524 745.281H558.578C557.736 745.281 556.895 744.439 556.895 743.598Z" fill="#FEF6EB"/>
<path d="M556.895 747.816C556.895 746.975 557.736 746.133 558.578 746.133H561.524C562.366 746.133 563.208 746.975 563.208 747.816C563.208 748.658 562.366 749.5 561.524 749.5H558.578C557.736 749.079 556.895 748.658 556.895 747.816Z" fill="#FEF6EB"/>
<path d="M556.895 751.605C556.895 750.764 557.736 749.922 558.578 749.922H561.524C562.366 749.922 563.208 750.764 563.208 751.605C563.208 752.447 562.366 753.289 561.524 753.289H558.578C557.736 753.289 556.895 752.447 556.895 751.605Z" fill="#FEF6EB"/>
<path d="M556.895 755.805C556.895 754.963 557.736 754.121 558.578 754.121H561.524C562.366 754.121 563.208 754.963 563.208 755.805C563.208 756.646 562.366 757.488 561.524 757.488H558.578C557.736 757.488 556.895 756.646 556.895 755.805Z" fill="#FEF6EB"/>
<path d="M556.895 760.023C556.895 759.182 557.736 758.34 558.578 758.34H561.524C562.366 758.34 563.208 759.182 563.208 760.023C563.208 760.865 562.366 761.707 561.524 761.707H558.578C557.736 761.707 556.895 760.865 556.895 760.023Z" fill="#FEF6EB"/>
<path d="M556.895 764.242C556.895 763.4 557.736 762.559 558.578 762.559H561.524C562.366 762.559 563.208 763.4 563.208 764.242C563.208 765.084 562.366 765.926 561.524 765.926H558.578C557.736 765.505 556.895 765.084 556.895 764.242Z" fill="#FEF6EB"/>
<path d="M556.895 768.002C556.895 767.16 557.736 766.318 558.578 766.318H561.524C562.366 766.318 563.208 767.16 563.208 768.002C563.208 768.844 562.366 769.685 561.524 769.685H558.578C557.736 769.685 556.895 769.264 556.895 768.002Z" fill="#FEF6EB"/>
<path d="M556.895 772.221C556.895 771.379 557.736 770.537 558.578 770.537H561.524C562.366 770.537 563.208 771.379 563.208 772.221C563.208 773.062 562.366 773.904 561.524 773.904H558.578C557.736 773.904 556.895 773.062 556.895 772.221Z" fill="#FEF6EB"/>
<path d="M556.895 776.42C556.895 775.578 557.736 774.736 558.578 774.736H561.524C562.366 774.736 563.208 775.578 563.208 776.42C563.208 777.262 562.366 778.103 561.524 778.103H558.578C557.736 778.103 556.895 777.262 556.895 776.42Z" fill="#FEF6EB"/>
<path d="M556.895 780.639C556.895 779.797 557.736 778.955 558.578 778.955H561.524C562.366 778.955 563.208 779.797 563.208 780.639C563.208 781.48 562.366 782.322 561.524 782.322H558.578C557.736 782.322 556.895 781.48 556.895 780.639Z" fill="#FEF6EB"/>
<path d="M556.895 784.428C556.895 783.586 557.736 782.744 558.578 782.744H561.524C562.366 782.744 563.208 783.586 563.208 784.428C563.208 785.269 562.366 786.111 561.524 786.111H558.578C557.736 786.111 556.895 785.69 556.895 784.428Z" fill="#FEF6EB"/>
<path d="M556.895 788.646C556.895 787.805 557.736 786.963 558.578 786.963H561.524C562.366 786.963 563.208 787.805 563.208 788.646C563.208 789.488 562.366 790.33 561.524 790.33H558.578C557.736 790.33 556.895 789.488 556.895 788.646Z" fill="#FEF6EB"/>
<path d="M556.895 792.836C556.895 791.994 557.736 791.152 558.578 791.152H561.524C562.366 791.152 563.208 791.994 563.208 792.836C563.208 793.678 562.366 794.519 561.524 794.519H558.578C557.736 794.519 556.895 793.678 556.895 792.836Z" fill="#FEF6EB"/>
<path d="M556.895 797.055C556.895 796.213 557.736 795.371 558.578 795.371H561.524C562.366 795.371 563.208 796.213 563.208 797.055C563.208 797.896 562.366 798.738 561.524 798.738H558.578C557.736 798.738 556.895 797.896 556.895 797.055Z" fill="#FEF6EB"/>
<path d="M470.566 731.791C470.566 730.949 471.408 730.107 472.25 730.107H475.196C476.038 730.107 476.88 730.949 476.88 731.791C476.88 732.633 476.038 733.474 475.196 733.474H472.25C471.408 733.474 470.566 732.633 470.566 731.791Z" fill="#FEF6EB"/>
<path d="M470.566 735.58C470.566 734.738 471.408 733.896 472.25 733.896H475.196C476.038 733.896 476.88 734.738 476.88 735.58C476.88 736.422 476.038 737.263 475.196 737.263H472.25C471.408 737.263 470.566 736.843 470.566 735.58Z" fill="#FEF6EB"/>
<path d="M470.566 739.799C470.566 738.957 471.408 738.115 472.25 738.115H475.196C476.038 738.115 476.88 738.957 476.88 739.799C476.88 740.64 476.038 741.482 475.196 741.482H472.25C471.408 741.482 470.566 740.64 470.566 739.799Z" fill="#FEF6EB"/>
<path d="M470.566 743.988C470.566 743.146 471.408 742.305 472.25 742.305H475.196C476.038 742.305 476.88 743.146 476.88 743.988C476.88 744.83 476.038 745.672 475.196 745.672H472.25C471.408 745.672 470.566 744.83 470.566 743.988Z" fill="#FEF6EB"/>
<path d="M470.566 748.207C470.566 747.365 471.408 746.523 472.25 746.523H475.196C476.038 746.523 476.88 747.365 476.88 748.207C476.88 749.049 476.038 749.89 475.196 749.89H472.25C471.408 749.89 470.566 749.049 470.566 748.207Z" fill="#FEF6EB"/>
<path d="M470.566 752.435C470.566 751.594 471.408 750.752 472.25 750.752H475.196C476.038 750.752 476.88 751.594 476.88 752.435C476.88 753.277 476.038 754.119 475.196 754.119H472.25C471.408 753.698 470.566 753.277 470.566 752.435Z" fill="#FEF6EB"/>
<path d="M470.566 756.195C470.566 755.353 471.408 754.512 472.25 754.512H475.196C476.038 754.512 476.88 755.353 476.88 756.195C476.88 757.037 476.038 757.879 475.196 757.879H472.25C471.408 757.879 470.566 757.037 470.566 756.195Z" fill="#FEF6EB"/>
<path d="M470.566 760.414C470.566 759.572 471.408 758.73 472.25 758.73H475.196C476.038 758.73 476.88 759.572 476.88 760.414C476.88 761.256 476.038 762.097 475.196 762.097H472.25C471.408 762.097 470.566 761.256 470.566 760.414Z" fill="#FEF6EB"/>
<path d="M470.566 764.633C470.566 763.791 471.408 762.949 472.25 762.949H475.196C476.038 762.949 476.88 763.791 476.88 764.633C476.88 765.474 476.038 766.316 475.196 766.316H472.25C471.408 766.316 470.566 765.474 470.566 764.633Z" fill="#FEF6EB"/>
<path d="M470.566 768.832C470.566 767.99 471.408 767.148 472.25 767.148H475.196C476.038 767.148 476.88 767.99 476.88 768.832C476.88 769.674 476.038 770.515 475.196 770.515H472.25C471.408 770.095 470.566 769.674 470.566 768.832Z" fill="#FEF6EB"/>
<path d="M470.566 772.611C470.566 771.769 471.408 770.928 472.25 770.928H475.196C476.038 770.928 476.88 771.769 476.88 772.611C476.88 773.453 476.038 774.295 475.196 774.295H472.25C471.408 774.295 470.566 773.453 470.566 772.611Z" fill="#FEF6EB"/>
<path d="M470.566 776.81C470.566 775.969 471.408 775.127 472.25 775.127H475.196C476.038 775.127 476.88 775.969 476.88 776.81C476.88 777.652 476.038 778.494 475.196 778.494H472.25C471.408 778.494 470.566 777.652 470.566 776.81Z" fill="#FEF6EB"/>
<path d="M470.566 781.029C470.566 780.187 471.408 779.346 472.25 779.346H475.196C476.038 779.346 476.88 780.187 476.88 781.029C476.88 781.871 476.038 782.713 475.196 782.713H472.25C471.408 782.713 470.566 781.871 470.566 781.029Z" fill="#FEF6EB"/>
<path d="M470.566 785.248C470.566 784.406 471.408 783.564 472.25 783.564H475.196C476.038 783.564 476.88 784.406 476.88 785.248C476.88 786.09 476.038 786.931 475.196 786.931H472.25C471.408 786.511 470.566 786.09 470.566 785.248Z" fill="#FEF6EB"/>
<path d="M470.566 789.037C470.566 788.195 471.408 787.354 472.25 787.354H475.196C476.038 787.354 476.88 788.195 476.88 789.037C476.88 789.879 476.038 790.72 475.196 790.72H472.25C471.408 790.72 470.566 790.3 470.566 789.037Z" fill="#FEF6EB"/>
<path d="M470.566 793.226C470.566 792.385 471.408 791.543 472.25 791.543H475.196C476.038 791.543 476.88 792.385 476.88 793.226C476.88 794.068 476.038 794.91 475.196 794.91H472.25C471.408 794.91 470.566 794.068 470.566 793.226Z" fill="#FEF6EB"/>
<path d="M470.566 797.445C470.566 796.603 471.408 795.762 472.25 795.762H475.196C476.038 795.762 476.88 796.603 476.88 797.445C476.88 798.287 476.038 799.129 475.196 799.129H472.25C471.408 799.129 470.566 798.287 470.566 797.445Z" fill="#FEF6EB"/>
<path d="M484.008 724.243C483.166 724.243 482.324 723.401 482.324 722.559V719.613C482.324 718.771 483.166 717.93 484.008 717.93C484.849 717.93 485.691 718.771 485.691 719.613V722.559C485.691 723.401 484.849 724.243 484.008 724.243Z" fill="#FEF6EB"/>
<path d="M488.207 724.243C487.365 724.243 486.523 723.401 486.523 722.559V719.613C486.523 718.771 487.365 717.93 488.207 717.93C489.049 717.93 489.89 718.771 489.89 719.613V722.559C489.89 723.401 489.049 724.243 488.207 724.243Z" fill="#FEF6EB"/>
<path d="M492.016 724.243C491.174 724.243 490.332 723.401 490.332 722.559V719.613C490.332 718.771 491.174 717.93 492.016 717.93C492.857 717.93 493.699 718.771 493.699 719.613V722.559C493.699 723.401 493.278 724.243 492.016 724.243Z" fill="#FEF6EB"/>
<path d="M496.215 724.243C495.373 724.243 494.531 723.401 494.531 722.559V719.613C494.531 718.771 495.373 717.93 496.215 717.93C497.057 717.93 497.898 718.771 497.898 719.613V722.559C497.898 723.401 497.057 724.243 496.215 724.243Z" fill="#FEF6EB"/>
<path d="M500.453 724.243C499.611 724.243 498.77 723.401 498.77 722.559V719.613C498.77 718.771 499.611 717.93 500.453 717.93C501.295 717.93 502.137 718.771 502.137 719.613V722.559C502.137 723.401 501.295 724.243 500.453 724.243Z" fill="#FEF6EB"/>
<path d="M504.594 724.243C503.752 724.243 502.91 723.401 502.91 722.559V719.613C502.91 718.771 503.752 717.93 504.594 717.93C505.435 717.93 506.277 718.771 506.277 719.613V722.559C506.277 723.401 505.435 724.243 504.594 724.243Z" fill="#FEF6EB"/>
<path d="M508.793 724.243C507.951 724.243 507.109 723.401 507.109 722.559V719.613C507.109 718.771 507.951 717.93 508.793 717.93C509.635 717.93 510.476 718.771 510.476 719.613V722.559C510.055 723.401 509.635 724.243 508.793 724.243Z" fill="#FEF6EB"/>
<path d="M512.66 724.243C511.818 724.243 510.977 723.401 510.977 722.559V719.613C510.977 718.771 511.818 717.93 512.66 717.93C513.502 717.93 514.344 718.771 514.344 719.613V722.559C514.344 723.401 513.502 724.243 512.66 724.243Z" fill="#FEF6EB"/>
<path d="M516.801 724.243C515.959 724.243 515.117 723.401 515.117 722.559V719.613C515.117 718.771 515.959 717.93 516.801 717.93C517.642 717.93 518.484 718.771 518.484 719.613V722.559C518.484 723.401 517.642 724.243 516.801 724.243Z" fill="#FEF6EB"/>
<path d="M521.039 724.243C520.197 724.243 519.355 723.401 519.355 722.559V719.613C519.355 718.771 520.197 717.93 521.039 717.93C521.881 717.93 522.722 718.771 522.722 719.613V722.559C522.722 723.401 521.881 724.243 521.039 724.243Z" fill="#FEF6EB"/>
<path d="M525.238 724.243C524.396 724.243 523.555 723.401 523.555 722.559V719.613C523.555 718.771 524.396 717.93 525.238 717.93C526.08 717.93 526.922 718.771 526.922 719.613V722.559C526.501 723.401 526.08 724.243 525.238 724.243Z" fill="#FEF6EB"/>
<path d="M529.047 724.243C528.205 724.243 527.363 723.401 527.363 722.559V719.613C527.363 718.771 528.205 717.93 529.047 717.93C529.889 717.93 530.73 718.771 530.73 719.613V722.559C530.73 723.401 529.889 724.243 529.047 724.243Z" fill="#FEF6EB"/>
<path d="M533.246 724.243C532.404 724.243 531.562 723.401 531.562 722.559V719.613C531.562 718.771 532.404 717.93 533.246 717.93C534.088 717.93 534.93 718.771 534.93 719.613V722.559C534.93 723.401 534.088 724.243 533.246 724.243Z" fill="#FEF6EB"/>
<path d="M537.484 724.243C536.643 724.243 535.801 723.401 535.801 722.559V719.613C535.801 718.771 536.643 717.93 537.484 717.93C538.326 717.93 539.168 718.771 539.168 719.613V722.559C539.168 723.401 538.326 724.243 537.484 724.243Z" fill="#FEF6EB"/>
<path d="M541.684 724.243C540.842 724.243 540 723.401 540 722.559V719.613C540 718.771 540.842 717.93 541.684 717.93C542.525 717.93 543.367 718.771 543.367 719.613V722.559C543.367 723.401 542.525 724.243 541.684 724.243Z" fill="#FEF6EB"/>
<path d="M545.453 724.243C544.611 724.243 543.77 723.401 543.77 722.559V719.613C543.77 718.771 544.611 717.93 545.453 717.93C546.295 717.93 547.137 718.771 547.137 719.613V722.559C547.137 723.401 546.716 724.243 545.453 724.243Z" fill="#FEF6EB"/>
<path d="M549.691 724.243C548.85 724.243 548.008 723.401 548.008 722.559V719.613C548.008 718.771 548.85 717.93 549.691 717.93C550.533 717.93 551.375 718.771 551.375 719.613V722.559C551.375 723.401 550.533 724.243 549.691 724.243Z" fill="#FEF6EB"/>
<path d="M558.431 721.689H475.098V806.706H558.431V721.689Z" fill="#343637"/>
<path d="M995.304 503.205L802.578 310.479L611.847 501.21L804.573 693.936L995.304 503.205Z" fill="#252728"/>
<path d="M911.123 514.795L794.609 398.281L698.047 494.844L814.56 611.357L911.123 514.795Z" fill="#9BA3B4"/>
<path d="M761.576 457.14L763.209 451.025L761.725 449.541L757.85 453.415L756.622 452.187L766.097 442.712L769.134 445.749C769.845 446.46 770.321 447.18 770.562 447.911C770.812 448.651 770.851 449.35 770.677 450.01C770.503 450.67 770.148 451.267 769.614 451.802C768.961 452.455 768.197 452.841 767.32 452.962C766.453 453.091 765.564 452.864 764.654 452.28L763.047 458.612L761.576 457.14ZM762.717 448.548L764.526 450.357C765.192 451.023 765.854 451.359 766.513 451.366C767.182 451.364 767.792 451.086 768.345 450.533C768.907 449.971 769.175 449.37 769.151 448.729C769.135 448.097 768.789 447.443 768.114 446.768L766.306 444.96L762.717 448.548Z" fill="white"/>
<path d="M769.937 465.501L770.385 457.304L766.063 461.627L764.834 460.399L774.309 450.924L775.537 452.152L771.147 456.543L779.425 456.04L780.977 457.592L771.968 458.071L771.543 467.107L769.937 465.501Z" fill="white"/>
<path d="M780.039 460.896C780.936 460.125 781.908 459.792 782.955 459.896C784.002 460.001 784.985 460.512 785.903 461.43C786.515 462.042 786.928 462.682 787.142 463.349C787.375 464.017 787.413 464.653 787.257 465.259C787.111 465.874 786.797 466.421 786.317 466.901C785.755 467.463 785.108 467.786 784.377 467.87C783.654 467.963 782.977 467.812 782.346 467.416L782.278 467.484C782.718 468.214 782.896 468.963 782.812 469.731C782.728 470.499 782.342 471.227 781.653 471.916C781.137 472.433 780.553 472.782 779.902 472.965C779.26 473.139 778.588 473.11 777.884 472.878C777.18 472.645 776.5 472.201 775.843 471.544C774.889 470.59 774.356 469.558 774.242 468.447C774.138 467.328 774.512 466.27 775.364 465.274L776.552 466.462C776.071 467.068 775.848 467.733 775.881 468.455C775.915 469.178 776.247 469.854 776.877 470.484C777.506 471.114 778.146 471.427 778.797 471.425C779.465 471.423 780.062 471.159 780.588 470.633C781.267 469.953 781.532 469.239 781.381 468.49C781.23 467.741 780.7 466.912 779.791 466.003L779.481 465.693L780.514 464.66L780.838 464.984C781.675 465.802 782.436 466.292 783.122 466.452C783.817 466.603 784.445 466.398 785.007 465.836C785.487 465.355 785.715 464.813 785.69 464.208C785.674 463.612 785.378 463.026 784.802 462.45C784.244 461.892 783.649 461.587 783.017 461.535C782.385 461.483 781.793 461.671 781.241 462.097L780.039 460.896Z" fill="white"/>
<path d="M795.638 473.694L790.9 468.956L787.801 472.055C788.298 471.972 788.839 472.042 789.425 472.266C790.021 472.481 790.552 472.822 791.02 473.29C791.767 474.037 792.216 474.803 792.367 475.588C792.526 476.364 792.456 477.1 792.156 477.797C791.873 478.493 791.456 479.118 790.903 479.671C790.25 480.323 789.544 480.786 788.785 481.06C788.025 481.333 787.244 481.368 786.441 481.163C785.647 480.967 784.881 480.5 784.143 479.762C783.198 478.817 782.678 477.808 782.583 476.733C782.487 475.659 782.784 474.651 783.474 473.709L784.675 474.911C784.275 475.544 784.12 476.195 784.208 476.863C784.296 477.531 784.627 478.153 785.203 478.729C785.914 479.44 786.663 479.762 787.449 479.696C788.244 479.621 788.994 479.23 789.701 478.523C790.408 477.816 790.772 477.093 790.793 476.352C790.822 475.603 790.486 474.877 789.784 474.175C789.307 473.698 788.771 473.397 788.176 473.273C787.598 473.149 787.029 473.205 786.468 473.442L785.307 472.281L790.854 466.734L796.725 472.606L795.638 473.694Z" fill="white"/>
<path d="M796.03 481.372C795.725 480.668 795.628 479.992 795.739 479.341C795.85 478.69 796.177 478.093 796.721 477.549C797.21 477.06 797.771 476.742 798.404 476.595C799.045 476.439 799.718 476.487 800.421 476.737C801.143 476.987 801.846 477.455 802.53 478.138C803.213 478.822 803.676 479.521 803.917 480.233C804.177 480.946 804.229 481.623 804.073 482.264C803.935 482.906 803.621 483.472 803.132 483.961C802.606 484.487 802.005 484.809 801.327 484.929C800.658 485.04 799.986 484.947 799.31 484.652C799.696 485.382 799.833 486.126 799.722 486.885C799.629 487.644 799.279 488.327 798.672 488.935C798.082 489.524 797.422 489.896 796.69 490.052C795.967 490.199 795.218 490.13 794.442 489.843C793.684 489.557 792.964 489.072 792.28 488.388C791.596 487.704 791.111 486.984 790.825 486.226C790.556 485.468 790.496 484.728 790.643 484.005C790.799 483.273 791.171 482.613 791.76 482.023C792.368 481.416 793.051 481.057 793.81 480.946C794.569 480.835 795.309 480.977 796.03 481.372ZM801.795 482.923C802.348 482.37 802.594 481.764 802.533 481.105C802.472 480.446 802.126 479.802 801.496 479.172C800.876 478.551 800.236 478.21 799.577 478.149C798.918 478.088 798.307 478.339 797.745 478.9C797.238 479.408 797.014 480 797.075 480.677C797.145 481.363 797.477 482.003 798.071 482.597C798.674 483.2 799.314 483.532 799.991 483.593C800.686 483.654 801.287 483.43 801.795 482.923ZM797.119 483.549C796.453 482.883 795.75 482.497 795.01 482.391C794.279 482.276 793.601 482.532 792.976 483.157C792.396 483.737 792.131 484.406 792.183 485.165C792.243 485.932 792.62 486.662 793.313 487.355C794.006 488.048 794.732 488.42 795.49 488.472C796.248 488.523 796.917 488.259 797.497 487.679C798.105 487.072 798.36 486.403 798.263 485.671C798.175 484.931 797.794 484.224 797.119 483.549Z" fill="white"/>
<path d="M804.545 489.887C804.241 489.184 804.144 488.507 804.254 487.856C804.365 487.206 804.692 486.609 805.236 486.065C805.725 485.575 806.286 485.257 806.919 485.111C807.561 484.955 808.233 485.002 808.937 485.253C809.658 485.503 810.361 485.97 811.045 486.654C811.729 487.338 812.192 488.036 812.433 488.749C812.692 489.461 812.744 490.138 812.588 490.78C812.45 491.422 812.137 491.987 811.648 492.476C811.122 493.002 810.52 493.325 809.843 493.445C809.174 493.555 808.501 493.463 807.825 493.167C808.211 493.897 808.348 494.642 808.237 495.401C808.144 496.16 807.794 496.843 807.187 497.45C806.598 498.039 805.937 498.412 805.205 498.568C804.482 498.715 803.733 498.645 802.957 498.359C802.2 498.073 801.479 497.588 800.795 496.904C800.111 496.22 799.626 495.499 799.34 494.741C799.072 493.984 799.011 493.244 799.158 492.521C799.314 491.789 799.687 491.128 800.276 490.539C800.883 489.932 801.566 489.573 802.325 489.462C803.084 489.351 803.824 489.492 804.545 489.887ZM810.31 491.438C810.863 490.885 811.109 490.279 811.048 489.62C810.987 488.961 810.642 488.317 810.012 487.687C809.391 487.066 808.751 486.725 808.092 486.664C807.433 486.603 806.823 486.854 806.261 487.416C805.753 487.923 805.53 488.516 805.591 489.193C805.66 489.879 805.992 490.519 806.586 491.113C807.189 491.716 807.829 492.047 808.506 492.108C809.201 492.169 809.803 491.946 810.31 491.438ZM805.635 492.064C804.969 491.398 804.266 491.012 803.526 490.907C802.795 490.792 802.116 491.047 801.491 491.672C800.911 492.252 800.647 492.922 800.698 493.68C800.759 494.447 801.136 495.178 801.828 495.87C802.521 496.563 803.247 496.936 804.005 496.987C804.764 497.039 805.433 496.774 806.013 496.194C806.62 495.587 806.875 494.918 806.779 494.187C806.691 493.447 806.31 492.739 805.635 492.064Z" fill="white"/>
<path d="M809.258 505.013C808.637 504.392 808.188 503.725 807.91 503.013C807.651 502.3 807.577 501.61 807.687 500.941C807.807 500.263 808.121 499.662 808.629 499.136L809.938 500.446C809.539 500.935 809.343 501.491 809.349 502.114C809.374 502.737 809.693 503.354 810.305 503.966C810.89 504.551 811.494 504.865 812.116 504.908C812.758 504.951 813.309 504.741 813.771 504.279C814.134 503.916 814.329 503.523 814.358 503.098C814.387 502.674 814.311 502.254 814.132 501.839C813.953 501.425 813.679 500.897 813.311 500.258C812.854 499.473 812.517 498.811 812.302 498.27C812.097 497.738 812.031 497.165 812.105 496.55C812.198 495.936 812.539 495.334 813.128 494.745C813.644 494.228 814.232 493.901 814.892 493.763C815.552 493.626 816.224 493.682 816.91 493.932C817.604 494.192 818.257 494.628 818.869 495.239C819.751 496.121 820.249 497.063 820.363 498.065C820.486 499.076 820.216 499.985 819.554 500.791L818.204 499.441C818.522 499.034 818.65 498.527 818.589 497.923C818.537 497.309 818.236 496.727 817.688 496.178C817.175 495.665 816.62 495.383 816.024 495.331C815.438 495.27 814.904 495.479 814.424 495.96C814.079 496.304 813.893 496.679 813.864 497.086C813.845 497.501 813.916 497.907 814.077 498.304C814.256 498.701 814.53 499.228 814.898 499.886C815.346 500.679 815.674 501.351 815.879 501.901C816.094 502.442 816.16 503.024 816.076 503.648C816.002 504.262 815.666 504.868 815.068 505.466C814.605 505.929 814.049 506.242 813.398 506.407C812.747 506.572 812.057 506.543 811.326 506.319C810.595 506.096 809.906 505.661 809.258 505.013Z" fill="white"/>
<path d="M852.878 512.128L848.275 507.525C848.416 507.442 848.53 507.369 848.65 507.307C850.204 506.507 851.764 505.723 853.308 504.905C854.486 504.283 855.622 503.588 856.681 502.778C856.962 502.563 857.225 502.313 857.457 502.047C858.127 501.273 858.009 500.263 857.203 499.629C856.583 499.142 855.882 498.818 855.121 498.646C854.388 498.481 853.64 498.332 852.895 498.534C852.403 498.668 851.918 498.841 851.454 499.052C850.012 499.706 848.641 500.492 847.302 501.333C846.245 501.996 845.193 502.664 844.108 503.348L839.378 498.618C839.663 498.451 839.944 498.32 840.187 498.137C840.572 497.848 840.976 497.8 841.452 497.833C843.202 497.946 844.949 497.877 846.689 497.64C846.994 497.599 847.299 497.552 847.606 497.45C847.527 497.44 847.447 497.417 847.369 497.42C846.177 497.478 844.989 497.394 843.803 497.288C842.522 497.174 841.246 497.012 839.988 496.739C838.701 496.461 837.453 496.086 836.307 495.416C835.138 494.73 834.101 493.878 833.142 492.927C832.566 492.355 832.023 491.751 831.609 491.05C830.952 489.935 830.55 488.753 830.812 487.438C831.03 486.345 831.561 485.417 832.338 484.626C833.769 483.167 835.531 482.295 837.474 481.75C838.605 481.433 839.76 481.262 840.934 481.394C842.431 481.562 843.835 482.031 845.137 482.803C846.487 483.605 847.68 484.612 848.804 485.697C850.1 486.947 851.366 488.226 852.645 489.493C852.711 489.559 852.767 489.634 852.867 489.747C851.848 490.347 850.853 490.933 849.831 491.536C849.682 491.326 849.554 491.144 849.426 490.962C848.563 489.735 847.556 488.643 846.363 487.733C845.458 487.043 844.478 486.479 843.373 486.167C842.323 485.87 841.27 485.775 840.211 486.133C838.722 486.636 837.887 487.987 838.139 489.536C838.304 490.549 838.764 491.428 839.455 492.185C840.358 493.173 841.476 493.849 842.702 494.34C843.408 494.623 844.147 494.819 844.865 495.073C845.136 495.17 845.346 495.089 845.566 494.954C846.193 494.568 846.823 494.185 847.453 493.804C848.959 492.893 850.464 491.984 851.969 491.076C853.821 489.959 855.673 488.842 857.526 487.726C857.596 487.685 857.672 487.651 857.756 487.61L862.48 492.333C861.518 492.874 860.577 493.394 859.646 493.93C858.713 494.468 857.733 494.926 856.779 495.555C856.955 495.669 857.087 495.762 857.226 495.842C858.509 496.578 859.751 497.375 860.901 498.307C861.767 499.006 862.543 499.792 863.15 500.736C864.082 502.18 864.069 503.772 863.102 505.153C862.605 505.859 861.994 506.457 861.329 506.998C860.071 508.025 858.677 508.842 857.271 509.642C855.857 510.447 854.446 511.26 853.034 512.069C852.992 512.093 852.947 512.106 852.883 512.131L852.878 512.128Z" fill="white"/>
<path d="M833.598 463.548C833.871 463.707 838.087 467.883 838.361 468.279C835.814 469.808 833.264 471.329 830.723 472.864C830.731 472.892 830.738 472.922 830.746 472.95C830.895 472.973 831.045 473.002 831.195 473.02C833.05 473.245 834.906 473.467 836.761 473.699C836.903 473.717 837.069 473.779 837.169 473.879C838.877 475.575 840.577 477.281 842.278 478.984C842.319 479.025 842.352 479.072 842.428 479.164C841.825 479.186 841.292 479.023 840.75 478.967C840.206 478.911 839.663 478.831 839.121 478.759C838.567 478.685 838.012 478.608 837.457 478.531C836.903 478.456 836.348 478.381 835.795 478.303C835.241 478.225 834.687 478.143 834.132 478.066C833.589 477.991 833.046 477.918 832.503 477.846C831.95 477.773 831.398 477.701 830.795 477.622C830.336 481.309 829.912 484.979 829.458 488.685C829.377 488.627 829.309 488.589 829.256 488.539C827.642 486.933 826.031 485.324 824.414 483.721C824.249 483.556 824.192 483.397 824.218 483.158C824.453 480.981 824.673 478.803 824.896 476.625C824.902 476.568 824.904 476.509 824.914 476.385C824.74 476.471 824.605 476.53 824.479 476.605C823.022 477.478 821.568 478.355 820.112 479.23C820.092 479.242 820.067 479.246 820.046 479.253C819.79 479.117 815.674 475.027 815.329 474.56C815.395 474.503 815.458 474.437 815.533 474.39C815.807 474.222 816.091 474.071 816.357 473.894C816.578 473.748 816.801 473.708 817.064 473.728C818.36 473.831 819.657 473.826 820.952 473.72C821.64 473.664 822.324 473.575 823.01 473.497C823.163 473.48 823.313 473.449 823.463 473.362C823.165 473.36 822.868 473.355 822.571 473.358C821.093 473.372 819.62 473.301 818.162 473.043C816.611 472.771 815.077 472.432 813.628 471.793C812.602 471.341 811.611 470.815 810.725 470.123C810.334 469.816 809.991 469.444 809.646 469.082C808.798 468.191 808.022 467.241 807.465 466.136C806.743 464.705 806.669 463.26 807.425 461.819C807.686 461.322 808.027 460.877 808.426 460.48C810.033 458.882 811.915 457.73 814.101 457.122C816.004 456.592 817.853 456.831 819.621 457.704C820.671 458.223 821.634 458.881 822.54 459.623C824.436 461.172 826.157 462.905 827.832 464.686C828.085 464.955 828.338 465.224 828.589 465.494C828.604 465.509 828.606 465.537 828.631 465.604C827.747 466.156 826.812 466.637 825.89 467.164C825.758 467.033 825.628 466.927 825.528 466.799C824.556 465.543 823.397 464.487 822.078 463.61C820.877 462.81 819.585 462.207 818.147 461.985C817.16 461.833 816.173 461.812 815.231 462.213C814.044 462.718 813.408 463.727 813.645 465.071C813.795 465.92 814.203 466.638 814.69 467.317C815.62 468.612 816.874 469.489 818.332 470.101C819.147 470.444 819.984 470.71 820.834 470.946C821.044 471.004 821.19 470.979 821.363 470.87C821.897 470.537 822.441 470.218 822.982 469.894C824.449 469.014 825.917 468.135 827.386 467.255C828.813 466.4 830.239 465.543 831.667 464.69C832.308 464.306 832.954 463.929 833.597 463.547L833.598 463.548Z" fill="white"/>
<path d="M864.121 523.565C862.49 524.632 860.891 525.676 859.287 526.723L854.966 522.401C857.176 520.988 859.36 519.592 861.542 518.196C861.536 518.18 861.531 518.164 861.526 518.147C861.138 518.154 860.75 518.175 860.364 518.163C859.203 518.131 858.092 517.887 857.088 517.283C856.311 516.817 855.845 516.145 855.886 515.199C855.908 514.682 856.133 514.237 856.406 513.812C856.823 513.162 857.39 512.654 857.986 512.179C859.499 510.974 861.183 510.039 862.874 509.118C864.231 508.379 865.583 507.634 866.936 506.888C867.059 506.821 867.173 506.741 867.341 506.635C866.742 505.993 866.141 505.409 865.539 504.796L866.391 503.944C868.221 505.64 870.041 507.328 871.9 509.053C871.681 509.189 871.509 509.308 871.327 509.408C869.29 510.512 867.25 511.611 865.215 512.719C863.721 513.532 862.26 514.4 860.852 515.352C860.33 515.706 859.807 516.059 859.383 516.535C859.312 516.615 859.231 516.688 859.174 516.777C858.999 517.052 859.106 517.406 859.424 517.499C859.647 517.564 859.893 517.575 860.127 517.562C860.894 517.519 861.626 517.3 862.35 517.064C863.062 516.832 863.763 516.564 864.47 516.313C864.546 516.286 864.625 516.264 864.731 516.23C864.829 516.383 864.924 516.531 865.019 516.679C865.487 517.412 865.926 518.164 866.428 518.871C867.175 519.926 868.041 520.877 869.109 521.623C870.023 522.261 871.019 522.699 872.142 522.785C873.18 522.865 874.118 522.596 874.958 521.974C875.685 521.435 876.164 520.743 876.345 519.847C876.44 519.379 876.407 518.923 876.271 518.471C876.014 517.608 875.529 516.878 874.935 516.215C873.965 515.133 872.828 514.251 871.622 513.45C871.255 513.206 870.882 512.973 870.512 512.734C870.445 512.691 870.384 512.641 870.3 512.577C870.713 512.31 871.099 512.06 871.485 511.811C872.015 511.471 872.546 511.131 873.076 510.793C873.156 510.741 873.244 510.701 873.324 510.651C873.463 510.564 873.575 510.576 873.705 510.691C874.44 511.335 875.184 511.968 875.922 512.607C876.867 513.427 877.828 514.228 878.75 515.075C880.095 516.31 881.381 517.602 882.375 519.152C882.886 519.948 883.308 520.788 883.506 521.72C883.839 523.285 883.429 524.649 882.439 525.886C881.126 527.527 877.96 529.31 875.926 529.71C874.064 530.075 872.303 529.835 870.612 529.007C869.515 528.469 868.533 527.762 867.61 526.96C866.482 525.982 865.458 524.9 864.405 523.847C864.322 523.764 864.239 523.681 864.121 523.563L864.121 523.565Z" fill="white"/>
<path d="M799.415 443.352C801.263 443.409 802.813 442.759 804.054 441.394C804.728 440.653 805.091 439.784 805.05 438.763C805.021 438.033 804.787 437.364 804.457 436.724C803.938 435.718 803.229 434.852 802.437 434.056C799.191 430.795 795.934 427.547 792.681 424.294C792.616 424.229 792.541 424.174 792.471 424.114C792.399 424.148 792.343 424.168 792.292 424.196C791.528 424.631 790.762 425.062 790.001 425.504C787.634 426.872 785.272 428.246 782.906 429.612C781.373 430.497 779.832 431.37 778.296 432.25C777.059 432.959 775.824 433.67 774.589 434.384C774.473 434.452 774.371 434.542 774.237 434.639L774.445 434.847C775.928 436.33 777.411 437.813 778.894 439.296C779.18 439.582 779.472 439.864 779.755 440.153C779.891 440.293 780.011 440.317 780.192 440.209C780.978 439.741 781.774 439.29 782.564 438.831C784.023 437.984 785.481 437.134 786.941 436.287C786.993 436.257 787.059 436.252 787.15 436.226C787.131 436.322 787.126 436.382 787.108 436.436C786.822 437.293 786.538 438.151 786.248 439.007C785.637 440.809 785.028 442.611 784.408 444.409C784.329 444.636 784.375 444.783 784.542 444.944C784.996 445.383 785.433 445.839 785.882 446.284C787.612 448.008 789.343 449.731 791.076 451.454C791.147 451.525 791.229 451.582 791.349 451.683C791.808 450.001 792.247 448.373 792.696 446.749C793.145 445.126 793.565 443.495 794.047 441.855C794.602 442.083 795.083 442.289 795.569 442.481C796.806 442.969 798.075 443.315 799.413 443.355L799.415 443.352ZM794.451 437.694C793.577 437.553 792.797 437.176 792.045 436.734C791.221 436.25 790.483 435.648 789.781 435C789.722 434.946 789.678 434.877 789.601 434.784C789.712 434.705 789.801 434.63 789.899 434.574C791.226 433.833 792.556 433.098 793.88 432.352C794.034 432.265 794.14 432.27 794.256 432.386C795.03 433.162 795.839 433.906 796.423 434.847C796.645 435.202 796.827 435.575 796.866 436.002C796.893 436.301 796.824 436.576 796.643 436.808C796.085 437.522 795.362 437.84 794.45 437.693L794.451 437.694Z" fill="white"/>
<path d="M815.044 455.561C815.159 455.561 815.275 455.55 815.404 455.543C815.571 454.738 815.543 453.964 815.357 453.19C815.133 452.252 814.727 451.396 814.192 450.599C813.262 449.211 812.113 448.03 810.806 446.994C809.366 445.854 807.775 445.026 805.979 444.615C804.565 444.291 803.142 444.243 801.731 444.58C799.328 445.154 797.324 446.391 795.795 448.342C794.949 449.42 794.576 450.667 794.68 452.046C794.754 453.024 795.049 453.943 795.524 454.791C795.866 455.4 796.266 455.984 796.696 456.535C797.699 457.82 798.893 458.913 800.242 459.828C801.744 460.849 803.391 461.499 805.196 461.727C805.324 461.743 805.452 461.748 805.573 461.757C805.601 461.698 805.625 461.669 805.632 461.636C805.86 460.559 806.463 459.703 807.221 458.942C808.083 458.076 809.078 457.391 810.155 456.819C811.682 456.007 813.304 455.559 815.044 455.561ZM805.215 456.291C804.202 456.629 803.219 456.551 802.297 455.986C802.056 455.839 801.843 455.643 801.685 455.522C801.339 455.138 801.055 454.817 800.895 454.408C800.671 453.836 800.729 453.294 801.029 452.763C801.296 452.29 801.655 451.896 802.067 451.552C802.932 450.835 803.86 450.222 804.936 449.862C805.59 449.644 806.253 449.562 806.939 449.706C807.734 449.874 808.345 450.325 808.854 450.935C808.998 451.108 809.13 451.294 809.244 451.489C809.533 451.983 809.571 452.496 809.339 453.028C809.17 453.413 808.938 453.761 808.644 454.056C807.66 455.045 806.548 455.847 805.211 456.292L805.215 456.291Z" fill="white"/>
<path d="M873.075 506.33C874.958 508.213 878.011 508.213 879.894 506.33C881.777 504.448 881.777 501.395 879.894 499.512C878.011 497.629 874.958 497.629 873.075 499.512C871.192 501.395 871.192 504.448 873.075 506.33Z" fill="white"/>
<path d="M1134.69 169.141H911.23V366.671H1134.69V169.141Z" fill="#3A3B3C"/>
<path d="M581.629 206.512L581.629 199.375L610.391 199.375C617.863 199.375 623.922 205.933 623.922 214.023L623.922 225.916C623.922 229.096 621.539 231.675 618.601 231.675L612.934 231.675L612.934 214.023C612.934 212.503 611.796 211.271 610.391 211.271L586.024 211.271C583.597 211.271 581.629 209.14 581.629 206.512Z" fill="white"/>
<path d="M581.629 314.331L581.629 300.01C581.629 291.919 587.686 285.361 595.159 285.361L610.391 285.361C617.863 285.361 623.922 291.919 623.922 300.01L623.922 306.504C623.922 309.684 621.539 312.264 618.601 312.264L612.934 312.264L612.934 300.01C612.934 298.489 611.796 297.257 610.391 297.257L595.159 297.257C593.755 297.257 592.616 298.489 592.616 300.01L592.616 314.331C592.616 315.85 593.755 317.083 595.159 317.083L643.357 317.083L643.357 323.219C643.357 326.4 640.975 328.978 638.036 328.978L595.159 328.978C587.686 328.978 581.629 322.42 581.629 314.331Z" fill="white"/>
<path d="M622.618 348.021C620.551 349.793 611.664 357.405 609.781 359.019L603.016 351.696C606.214 347.321 612.734 338.4 615.967 333.979C616.004 333.927 616.066 333.927 616.109 333.974L623.326 341.788C624.871 343.46 624.723 346.218 623.009 347.686L622.618 348.021Z" fill="white"/>
<path d="M592.857 337.798C594.494 340.036 601.525 349.657 603.016 351.696L596.252 359.02C593.078 356.3 587.316 351.364 583.009 347.675C581.3 346.211 581.157 343.464 582.698 341.796L590 333.891L592.857 337.798Z" fill="white"/>
<path d="M583.41 370.018C585.478 368.246 594.364 360.633 596.248 359.02L603.013 366.343C599.815 370.718 593.294 379.639 590.062 384.06C590.025 384.112 589.963 384.112 589.92 384.065L582.702 376.251C581.158 374.579 581.306 371.821 583.019 370.353L583.41 370.018Z" fill="white"/>
<path d="M613.175 380.242C611.538 378.004 604.507 368.383 603.016 366.344L609.78 359.02C612.931 361.72 618.633 366.604 622.928 370.285C624.746 371.841 624.887 374.562 623.248 376.337L616.031 384.149L613.175 380.242Z" fill="white"/>
<path d="M623.922 416.209L623.922 395.769C623.922 392.587 621.54 390.008 618.601 390.008L612.934 390.008L612.934 416.209C612.934 417.73 611.796 418.962 610.391 418.962L595.16 418.962C593.756 418.962 592.616 417.73 592.616 416.209L592.616 402.438C592.616 400.614 593.983 399.135 595.668 399.135C597.353 399.135 598.718 400.614 598.718 402.438L598.718 414.142L602.849 414.142C605.048 414.142 606.832 412.211 606.832 409.83L606.832 400.881C606.832 393.347 601.191 387.239 594.232 387.239C587.274 387.239 581.632 393.346 581.631 400.879L581.629 416.209C581.629 424.299 587.688 430.858 595.16 430.858L610.391 430.858C617.864 430.858 623.922 424.299 623.922 416.209Z" fill="white"/>
<path d="M623.922 263.429L623.922 242.99C623.922 239.808 621.54 237.229 618.601 237.229L612.934 237.229L612.934 263.429C612.934 264.95 611.796 266.183 610.391 266.183L595.16 266.183C593.756 266.183 592.616 264.95 592.616 263.429L592.616 249.659C592.616 247.835 593.983 246.356 595.668 246.356C597.353 246.356 598.718 247.835 598.718 249.659L598.718 261.363L602.849 261.363C605.048 261.363 606.832 259.432 606.832 257.051L606.832 248.102C606.832 240.568 601.191 234.46 594.232 234.46C587.274 234.46 581.632 240.566 581.631 248.099L581.629 263.429C581.629 271.52 587.688 278.078 595.16 278.078L610.391 278.078C617.864 278.078 623.922 271.52 623.922 263.429Z" fill="white"/>
<path d="M1255.39 293.857L1255.39 339.232C1255.39 340.476 1253.99 341.719 1252.59 341.719L1207.84 341.719C1206.44 341.719 1205.04 340.476 1205.04 339.232L1205.04 293.857C1205.04 292.614 1206.44 291.371 1207.84 291.371L1252.59 291.371C1254.69 291.371 1255.39 292.614 1255.39 293.857ZM1252.59 338.611L1252.59 293.857L1208.54 293.857L1208.54 338.611L1252.59 338.611Z" fill="#FFFAE8"/>
<path d="M1255.39 293.857L1255.39 339.232C1255.39 340.476 1253.99 341.719 1252.59 341.719L1207.84 341.719C1206.44 341.719 1205.04 340.476 1205.04 339.232L1205.04 293.857C1205.04 292.614 1206.44 291.371 1207.84 291.371L1252.59 291.371C1254.69 291.371 1255.39 292.614 1255.39 293.857ZM1252.59 338.611L1252.59 293.857L1208.54 293.857L1208.54 338.611L1252.59 338.611Z" fill="#FFF4D9" fill-opacity="0.2"/>
<rect x="1206.97" y="293.496" width="46.2963" height="46.2963" fill="white"/>
<rect x="1212.75" y="285.781" width="34.7222" height="5.78704" fill="#FFFAE8"/>
<rect x="1212.75" y="341.719" width="34.7222" height="5.78704" fill="#FFFAE8"/>
<circle cx="1230.11" cy="316.644" r="16.1651" stroke="#ECD7BC" stroke-width="6.25"/>
<circle cx="4.82253" cy="4.82253" r="3.125" transform="matrix(1 0 0 -1 1226.25 320.508)" stroke="#BE813A" stroke-width="3.39506"/>
<path fill-rule="evenodd" clip-rule="evenodd" d="M424.813 218.51C424.813 246.806 401.874 269.745 373.578 269.745C345.282 269.745 322.344 246.806 322.344 218.51C322.344 190.214 345.282 167.275 373.578 167.275C401.874 167.275 424.813 190.214 424.813 218.51ZM397.03 218.506C397.03 231.461 386.528 241.963 373.573 241.963C360.619 241.963 350.117 231.461 350.117 218.506C350.117 205.551 360.619 195.049 373.573 195.049C386.528 195.049 397.03 205.551 397.03 218.506Z" fill="#FFDFA3"/>
<path fill-rule="evenodd" clip-rule="evenodd" d="M424.813 781.498C424.813 809.794 401.874 832.733 373.578 832.733C345.282 832.733 322.344 809.794 322.344 781.498C322.344 753.202 345.282 730.264 373.578 730.264C401.874 730.264 424.813 753.202 424.813 781.498ZM397.03 781.494C397.03 794.449 386.528 804.951 373.573 804.951C360.619 804.951 350.117 794.449 350.117 781.494C350.117 768.539 360.619 758.037 373.573 758.037C386.528 758.037 397.03 768.539 397.03 781.494Z" fill="#FFDFA3"/>
<path fill-rule="evenodd" clip-rule="evenodd" d="M1258.13 218.51C1258.13 246.806 1235.19 269.745 1206.9 269.745C1178.6 269.745 1155.66 246.806 1155.66 218.51C1155.66 190.214 1178.6 167.275 1206.9 167.275C1235.19 167.275 1258.13 190.214 1258.13 218.51ZM1230.35 218.506C1230.35 231.461 1219.85 241.963 1206.89 241.963C1193.94 241.963 1183.43 231.461 1183.43 218.506C1183.43 205.551 1193.94 195.049 1206.89 195.049C1219.85 195.049 1230.35 205.551 1230.35 218.506Z" fill="#FFDFA3"/>
<path fill-rule="evenodd" clip-rule="evenodd" d="M1258.13 781.498C1258.13 809.794 1235.19 832.733 1206.9 832.733C1178.6 832.733 1155.66 809.794 1155.66 781.498C1155.66 753.202 1178.6 730.264 1206.9 730.264C1235.19 730.264 1258.13 753.202 1258.13 781.498ZM1230.35 781.494C1230.35 794.449 1219.85 804.951 1206.89 804.951C1193.94 804.951 1183.43 794.449 1183.43 781.494C1183.43 768.539 1193.94 758.037 1206.89 758.037C1219.85 758.037 1230.35 768.539 1230.35 781.494Z" fill="#FFDFA3"/>
</svg>
