<svg width="1580" height="1000" viewBox="0 0 1580 1000" fill="none" xmlns="http://www.w3.org/2000/svg">
<rect x="169.943" y="150" width="1230.83" height="700" rx="64.1667" fill="#4B5F43"/>
<circle cx="239.917" cy="214.173" r="37.9167" fill="white" stroke="#F5CF9A" stroke-width="29.1667"/>
<circle cx="239.917" cy="785.833" r="37.9167" fill="white" stroke="#F5CF9A" stroke-width="29.1667"/>
<circle cx="1342.42" cy="214.173" r="37.9167" fill="white" stroke="#F5CF9A" stroke-width="29.1667"/>
<circle cx="1342.42" cy="785.833" r="37.9167" fill="white" stroke="#F5CF9A" stroke-width="29.1667"/>
<rect x="1173.3" y="389.16" width="169.167" height="262.5" fill="#372F30"/>
<path d="M408.793 360.043L408.793 354.981L393.913 354.981L393.913 360.043L408.793 360.043Z" fill="#E4E2DF"/>
<path d="M408.793 368.646L408.793 363.585L393.913 363.585L393.913 368.646L408.793 368.646Z" fill="#E4E2DF"/>
<path d="M408.793 377.172L408.793 372.11L393.913 372.11L393.913 377.172L408.793 377.172Z" fill="#E4E2DF"/>
<path d="M408.793 385.726L408.793 380.665L393.913 380.665L393.913 385.726L408.793 385.726Z" fill="#E4E2DF"/>
<path d="M408.793 394.32L408.793 389.259L393.913 389.259L393.913 394.32L408.793 394.32Z" fill="#E4E2DF"/>
<path d="M408.793 402.857L408.793 397.795L393.913 397.795L393.913 402.857L408.793 402.857Z" fill="#E4E2DF"/>
<path d="M408.793 410.98L408.793 405.919L393.913 405.919L393.913 410.98L408.793 410.98Z" fill="#E4E2DF"/>
<path d="M408.793 419.584L408.793 414.522L393.913 414.522L393.913 419.584L408.793 419.584Z" fill="#E4E2DF"/>
<path d="M408.793 428.109L408.793 423.048L393.913 423.048L393.913 428.109L408.793 428.109Z" fill="#E4E2DF"/>
<path d="M408.793 436.664L408.793 431.603L393.913 431.603L393.913 436.664L408.793 436.664Z" fill="#E4E2DF"/>
<path d="M408.793 445.258L408.793 440.196L393.913 440.196L393.913 445.258L408.793 445.258Z" fill="#E4E2DF"/>
<path d="M408.793 453.794L408.793 448.732L393.913 448.732L393.913 453.794L408.793 453.794Z" fill="#E4E2DF"/>
<path d="M391.62 470.841L396.682 470.841L396.682 458.644L391.62 458.644L391.62 470.841Z" fill="#E4E2DF"/>
<path d="M383.007 470.841L388.068 470.841L388.068 458.644L383.007 458.644L383.007 470.841Z" fill="#E4E2DF"/>
<path d="M374.511 470.841L379.572 470.841L379.572 458.644L374.511 458.644L374.511 470.841Z" fill="#E4E2DF"/>
<path d="M365.956 470.841L371.018 470.841L371.018 458.644L365.956 458.644L365.956 470.841Z" fill="#E4E2DF"/>
<path d="M357.323 470.841L362.385 470.841L362.385 458.644L357.323 458.644L357.323 470.841Z" fill="#E4E2DF"/>
<path d="M348.827 470.841L353.889 470.841L353.889 458.644L348.827 458.644L348.827 470.841Z" fill="#E4E2DF"/>
<path d="M340.644 470.841L345.705 470.841L345.705 458.644L340.644 458.644L340.644 470.841Z" fill="#E4E2DF"/>
<path d="M332.03 470.841L337.092 470.841L337.092 458.644L332.03 458.644L332.03 470.841Z" fill="#E4E2DF"/>
<path d="M323.534 470.841L328.596 470.841L328.596 458.644L323.534 458.644L323.534 470.841Z" fill="#E4E2DF"/>
<path d="M314.98 470.841L320.041 470.841L320.041 458.644L314.98 458.644L314.98 470.841Z" fill="#E4E2DF"/>
<path d="M306.347 470.841L311.408 470.841L311.408 458.644L306.347 458.644L306.347 470.841Z" fill="#E4E2DF"/>
<path d="M297.851 470.841L302.912 470.841L302.912 458.644L297.851 458.644L297.851 470.841Z" fill="#E4E2DF"/>
<path d="M292.934 360.043L292.934 354.981L280.737 354.981L280.737 360.043L292.934 360.043Z" fill="#E4E2DF"/>
<path d="M292.934 368.646L292.934 363.585L280.737 363.585L280.737 368.646L292.934 368.646Z" fill="#E4E2DF"/>
<path d="M292.934 377.172L292.934 372.11L280.737 372.11L280.737 377.172L292.934 377.172Z" fill="#E4E2DF"/>
<path d="M292.934 385.726L292.934 380.665L280.737 380.665L280.737 385.726L292.934 385.726Z" fill="#E4E2DF"/>
<path d="M292.934 394.32L292.934 389.259L280.737 389.259L280.737 394.32L292.934 394.32Z" fill="#E4E2DF"/>
<path d="M292.934 402.857L292.934 397.795L280.737 397.795L280.737 402.857L292.934 402.857Z" fill="#E4E2DF"/>
<path d="M292.934 410.98L292.934 405.919L280.737 405.919L280.737 410.98L292.934 410.98Z" fill="#E4E2DF"/>
<path d="M292.934 419.584L292.934 414.522L280.737 414.522L280.737 419.584L292.934 419.584Z" fill="#E4E2DF"/>
<path d="M292.934 428.109L292.934 423.048L280.737 423.048L280.737 428.109L292.934 428.109Z" fill="#E4E2DF"/>
<path d="M292.934 436.664L292.934 431.603L280.737 431.603L280.737 436.664L292.934 436.664Z" fill="#E4E2DF"/>
<path d="M292.934 445.258L292.934 440.196L280.737 440.196L280.737 445.258L292.934 445.258Z" fill="#E4E2DF"/>
<path d="M292.934 453.794L292.934 448.732L280.737 448.732L280.737 453.794L292.934 453.794Z" fill="#E4E2DF"/>
<path d="M391.62 348.876L396.682 348.876L396.682 336.68L391.62 336.68L391.62 348.876Z" fill="#E4E2DF"/>
<path d="M383.007 348.876L388.068 348.876L388.068 336.68L383.007 336.68L383.007 348.876Z" fill="#E4E2DF"/>
<path d="M374.511 348.876L379.572 348.876L379.572 336.68L374.511 336.68L374.511 348.876Z" fill="#E4E2DF"/>
<path d="M365.956 348.876L371.018 348.876L371.018 336.68L365.956 336.68L365.956 348.876Z" fill="#E4E2DF"/>
<path d="M357.323 348.876L362.385 348.876L362.385 336.68L357.323 336.68L357.323 348.876Z" fill="#E4E2DF"/>
<path d="M348.827 348.876L353.889 348.876L353.889 336.68L348.827 336.68L348.827 348.876Z" fill="#E4E2DF"/>
<path d="M340.644 348.877L345.705 348.877L345.705 336.681L340.644 336.681L340.644 348.877Z" fill="#E4E2DF"/>
<path d="M332.03 348.877L337.092 348.877L337.092 336.681L332.03 336.681L332.03 348.877Z" fill="#E4E2DF"/>
<path d="M323.534 348.877L328.596 348.877L328.596 336.681L323.534 336.681L323.534 348.877Z" fill="#E4E2DF"/>
<path d="M314.98 348.877L320.041 348.877L320.041 336.681L314.98 336.681L314.98 348.877Z" fill="#E4E2DF"/>
<path d="M306.347 348.877L311.408 348.877L311.408 336.681L306.347 336.681L306.347 348.877Z" fill="#E4E2DF"/>
<path d="M297.851 348.877L302.912 348.877L302.912 336.681L297.851 336.681L297.851 348.877Z" fill="#E4E2DF"/>
<rect x="402.719" y="342.773" width="121.964" height="115.865" transform="rotate(90 402.719 342.773)" fill="#2E2E31"/>
<path d="M689.492 223.821L689.492 219.2L675.907 219.2L675.907 223.821L689.492 223.821Z" fill="#E4E2DF"/>
<path d="M689.492 231.683L689.492 227.062L675.907 227.062L675.907 231.683L689.492 231.683Z" fill="#E4E2DF"/>
<path d="M689.492 239.476L689.492 234.854L675.907 234.854L675.907 239.476L689.492 239.476Z" fill="#E4E2DF"/>
<path d="M689.492 247.269L689.492 242.647L675.907 242.647L675.907 247.269L689.492 247.269Z" fill="#E4E2DF"/>
<path d="M689.492 255.111L689.492 250.489L675.907 250.489L675.907 255.111L689.492 255.111Z" fill="#E4E2DF"/>
<path d="M689.492 262.905L689.492 258.283L675.907 258.283L675.907 262.905L689.492 262.905Z" fill="#E4E2DF"/>
<path d="M689.492 270.306L689.492 265.685L675.907 265.685L675.907 270.306L689.492 270.306Z" fill="#E4E2DF"/>
<path d="M689.492 278.167L689.492 273.546L675.907 273.546L675.907 278.167L689.492 278.167Z" fill="#E4E2DF"/>
<path d="M689.492 285.96L689.492 281.339L675.907 281.339L675.907 285.96L689.492 285.96Z" fill="#E4E2DF"/>
<path d="M689.492 293.753L689.492 289.132L675.907 289.132L675.907 293.753L689.492 293.753Z" fill="#E4E2DF"/>
<path d="M689.492 301.595L689.492 296.974L675.907 296.974L675.907 301.595L689.492 301.595Z" fill="#E4E2DF"/>
<path d="M689.492 309.389L689.492 304.768L675.907 304.768L675.907 309.389L689.492 309.389Z" fill="#E4E2DF"/>
<path d="M673.66 325.002L678.281 325.002L678.281 313.866L673.66 313.866L673.66 325.002Z" fill="#E4E2DF"/>
<path d="M665.808 325.002L670.43 325.002L670.43 313.866L665.808 313.866L665.808 325.002Z" fill="#E4E2DF"/>
<path d="M658.035 325.002L662.656 325.002L662.656 313.866L658.035 313.866L658.035 325.002Z" fill="#E4E2DF"/>
<path d="M650.183 325.002L654.805 325.002L654.805 313.866L650.183 313.866L650.183 325.002Z" fill="#E4E2DF"/>
<path d="M642.332 325.002L646.953 325.002L646.953 313.866L642.332 313.866L642.332 325.002Z" fill="#E4E2DF"/>
<path d="M634.539 325.002L639.16 325.002L639.16 313.866L634.539 313.866L634.539 325.002Z" fill="#E4E2DF"/>
<path d="M627.197 325.002L631.818 325.002L631.818 313.866L627.197 313.866L627.197 325.002Z" fill="#E4E2DF"/>
<path d="M619.344 325.002L623.965 325.002L623.965 313.866L619.344 313.866L619.344 325.002Z" fill="#E4E2DF"/>
<path d="M611.572 325.002L616.193 325.002L616.193 313.866L611.572 313.866L611.572 325.002Z" fill="#E4E2DF"/>
<path d="M603.779 325.002L608.4 325.002L608.4 313.866L603.779 313.866L603.779 325.002Z" fill="#E4E2DF"/>
<path d="M595.928 325.002L600.549 325.002L600.549 313.866L595.928 313.866L595.928 325.002Z" fill="#E4E2DF"/>
<path d="M588.076 325.002L592.697 325.002L592.697 313.866L588.076 313.866L588.076 325.002Z" fill="#E4E2DF"/>
<path d="M583.73 223.82L583.73 219.199L572.595 219.199L572.595 223.82L583.73 223.82Z" fill="#E4E2DF"/>
<path d="M583.73 231.682L583.73 227.061L572.595 227.061L572.595 231.682L583.73 231.682Z" fill="#E4E2DF"/>
<path d="M583.73 239.475L583.73 234.854L572.595 234.854L572.595 239.475L583.73 239.475Z" fill="#E4E2DF"/>
<path d="M583.73 247.268L583.73 242.646L572.595 242.646L572.595 247.268L583.73 247.268Z" fill="#E4E2DF"/>
<path d="M583.73 255.11L583.73 250.488L572.595 250.488L572.595 255.11L583.73 255.11Z" fill="#E4E2DF"/>
<path d="M583.73 262.904L583.73 258.282L572.595 258.282L572.595 262.904L583.73 262.904Z" fill="#E4E2DF"/>
<path d="M583.73 270.306L583.73 265.685L572.595 265.685L572.595 270.306L583.73 270.306Z" fill="#E4E2DF"/>
<path d="M583.73 278.167L583.73 273.546L572.595 273.546L572.595 278.167L583.73 278.167Z" fill="#E4E2DF"/>
<path d="M583.73 285.96L583.73 281.339L572.595 281.339L572.595 285.96L583.73 285.96Z" fill="#E4E2DF"/>
<path d="M583.73 293.753L583.73 289.132L572.595 289.132L572.595 293.753L583.73 293.753Z" fill="#E4E2DF"/>
<path d="M583.73 301.595L583.73 296.974L572.595 296.974L572.595 301.595L583.73 301.595Z" fill="#E4E2DF"/>
<path d="M583.73 309.389L583.73 304.768L572.595 304.768L572.595 309.389L583.73 309.389Z" fill="#E4E2DF"/>
<path d="M673.66 213.623L678.281 213.623L678.281 202.487L673.66 202.487L673.66 213.623Z" fill="#E4E2DF"/>
<path d="M665.806 213.623L670.428 213.623L670.428 202.487L665.806 202.487L665.806 213.623Z" fill="#E4E2DF"/>
<path d="M658.035 213.623L662.656 213.623L662.656 202.487L658.035 202.487L658.035 213.623Z" fill="#E4E2DF"/>
<path d="M650.181 213.623L654.803 213.623L654.803 202.487L650.181 202.487L650.181 213.623Z" fill="#E4E2DF"/>
<path d="M642.332 213.623L646.953 213.623L646.953 202.487L642.332 202.487L642.332 213.623Z" fill="#E4E2DF"/>
<path d="M634.539 213.623L639.16 213.623L639.16 202.487L634.539 202.487L634.539 213.623Z" fill="#E4E2DF"/>
<path d="M627.195 213.623L631.816 213.623L631.816 202.487L627.195 202.487L627.195 213.623Z" fill="#E4E2DF"/>
<path d="M619.342 213.623L623.963 213.623L623.963 202.487L619.342 202.487L619.342 213.623Z" fill="#E4E2DF"/>
<path d="M611.57 213.623L616.191 213.623L616.191 202.487L611.57 202.487L611.57 213.623Z" fill="#E4E2DF"/>
<path d="M603.777 213.623L608.398 213.623L608.398 202.487L603.777 202.487L603.777 213.623Z" fill="#E4E2DF"/>
<path d="M595.926 213.623L600.547 213.623L600.547 202.487L595.926 202.487L595.926 213.623Z" fill="#E4E2DF"/>
<path d="M588.074 213.623L592.695 213.623L592.695 202.487L588.074 202.487L588.074 213.623Z" fill="#E4E2DF"/>
<rect x="683.848" y="208.087" width="111.358" height="105.79" transform="rotate(90 683.848 208.087)" fill="#2E2E31"/>
<path d="M683.296 727.491L694.963 727.491L694.963 715.825L683.296 715.825L683.296 727.491Z" fill="#E4E2DF"/>
<path d="M660.013 727.491L671.68 727.491L671.68 715.825L660.013 715.825L660.013 727.491Z" fill="#E4E2DF"/>
<path d="M636.654 727.491L648.32 727.491L648.32 715.825L636.654 715.825L636.654 727.491Z" fill="#E4E2DF"/>
<path d="M613.296 727.491L624.963 727.491L624.963 715.825L613.296 715.825L613.296 727.491Z" fill="#E4E2DF"/>
<path d="M683.296 838.331L694.963 838.331L694.963 826.664L683.296 826.664L683.296 838.331Z" fill="#E4E2DF"/>
<path d="M660.013 838.331L671.68 838.331L671.68 826.664L660.013 826.664L660.013 838.331Z" fill="#E4E2DF"/>
<path d="M636.654 838.331L648.32 838.331L648.32 826.664L636.654 826.664L636.654 838.331Z" fill="#E4E2DF"/>
<path d="M613.296 838.331L624.963 838.331L624.963 826.664L613.296 826.664L613.296 838.331Z" fill="#E4E2DF"/>
<rect x="700.824" y="721.661" width="110.833" height="93.3333" transform="rotate(90 700.824 721.661)" fill="#2E2E31"/>
<rect x="735.803" y="762.5" width="29.1667" height="35" fill="#2E2E31"/>
<rect x="181.604" y="669.18" width="46.6667" height="46.6667" rx="5.83333" fill="#FFFBF8"/>
<circle cx="204.898" cy="692.512" r="4.95833" fill="#FDD476" stroke="#B77256" stroke-width="1.75"/>
<circle cx="204.924" cy="692.519" r="17.5" stroke="#E6B45D" stroke-width="1.75"/>
<path d="M662.335 488.929L879.271 274.705C883.794 270.238 891.062 270.215 895.614 274.654L1115.26 488.879C1119.9 493.398 1119.96 500.825 1115.42 505.43L895.769 727.789C891.182 732.433 883.677 732.409 879.118 727.737L662.182 505.377C657.702 500.785 657.77 493.437 662.335 488.929Z" fill="#D9D9D9"/>
<path d="M709.25 491.275L878.228 327.016C882.736 322.634 889.905 322.612 894.44 326.966L1065.53 491.226C1070.25 495.758 1070.32 503.286 1065.69 507.906L894.596 678.402C890.024 682.959 882.619 682.936 878.075 678.351L709.095 507.853C704.528 503.245 704.598 495.797 709.25 491.275Z" fill="#C7C7C7"/>
<path d="M493.687 640H333.27C326.827 640 321.604 645.223 321.604 651.667V815C321.604 821.443 326.827 826.667 333.27 826.667H493.687C500.13 826.667 505.354 821.443 505.354 815V651.667C505.354 645.223 500.13 640 493.687 640Z" fill="#AA8C8A"/>
<circle cx="353.713" cy="672.09" r="8.75" fill="#D9D9D9"/>
<rect x="508.322" y="517.499" width="11.6667" height="35" fill="white"/>
<path d="M517.072 535.005C517.072 541.448 514.461 546.671 511.239 546.671C508.018 546.671 508.331 541.448 508.331 535.005C508.331 528.561 508.018 523.338 511.239 523.338C514.461 523.338 517.072 528.561 517.072 535.005Z" fill="#BFADA9"/>
<rect width="11.6667" height="35" transform="matrix(-1 0 0 1 461.623 517.499)" fill="white"/>
<path d="M452.873 535.005C452.873 541.448 455.484 546.671 458.706 546.671C461.928 546.671 461.615 541.448 461.615 535.005C461.615 528.561 461.928 523.338 458.706 523.338C455.484 523.338 452.873 528.561 452.873 535.005Z" fill="#BFADA9"/>
<rect x="459.562" y="521.298" width="50.75" height="27.4167" rx="2.625" fill="#B58423" stroke="#3F301B" stroke-width="4.08333"/>
<circle cx="484.935" cy="534.993" r="5.83333" fill="#2C2A27"/>
<rect x="689.162" y="663.33" width="11.6667" height="35" fill="white"/>
<path d="M697.912 680.836C697.912 687.279 695.301 692.502 692.079 692.502C688.858 692.502 689.17 687.279 689.17 680.836C689.17 674.392 688.858 669.169 692.079 669.169C695.301 669.169 697.912 674.392 697.912 680.836Z" fill="#BFADA9"/>
<rect width="11.6667" height="35" transform="matrix(-1 0 0 1 642.463 663.33)" fill="white"/>
<path d="M633.713 680.836C633.713 687.279 636.324 692.502 639.546 692.502C642.767 692.502 642.455 687.279 642.455 680.836C642.455 674.392 642.767 669.169 639.546 669.169C636.324 669.169 633.713 674.392 633.713 680.836Z" fill="#BFADA9"/>
<rect x="640.48" y="667.128" width="50.75" height="27.4167" rx="2.625" fill="#B58423" stroke="#3F301B" stroke-width="4.08333"/>
<circle cx="665.853" cy="680.843" r="5.83333" fill="#2C2A27"/>
<rect x="567.751" y="378.667" width="50.1667" height="38.5" rx="1.75" fill="#D9D9D9" stroke="#EFAB6D" stroke-width="2.33333"/>
<rect x="623.777" y="518.667" width="50.1667" height="38.5" rx="1.75" transform="rotate(90 623.777 518.667)" fill="#D9D9D9" stroke="#EFAB6D" stroke-width="2.33333"/>
<path d="M784.292 535.6L789.999 529.893C791.293 528.598 792.561 527.68 793.803 527.138C795.053 526.588 796.254 526.423 797.405 526.644C798.558 526.849 799.631 527.448 800.625 528.442C801.325 529.142 801.803 529.944 802.061 530.849C802.319 531.739 802.351 532.686 802.157 533.692C801.964 534.683 801.551 535.691 800.918 536.716L800.499 537.575L795.136 542.939L793.464 541.314L797.513 537.265C798.334 536.444 798.891 535.635 799.183 534.839C799.469 534.035 799.533 533.278 799.375 532.568C799.218 531.858 798.877 531.24 798.352 530.716C797.764 530.128 797.119 529.743 796.418 529.563C795.716 529.383 794.966 529.454 794.168 529.776C793.37 530.084 792.534 530.675 791.658 531.552L788.236 534.973L801.863 548.6L799.578 550.885L784.292 535.6ZM809.653 540.81L798.533 538.072L800.902 535.682L811.966 538.245L812.092 538.371L809.653 540.81Z" fill="white"/>
<path d="M801.519 518.373L816.804 533.658L814.519 535.943L799.234 520.658L801.519 518.373ZM811.926 507.966L811.891 522.257L811.572 529.988L809.03 528.205L809.101 522.213L809.179 510.712L811.926 507.966ZM825.009 525.453L811.174 524.381L810.929 521.413L827.733 522.73L825.009 525.453Z" fill="white"/>
<path d="M823.776 509.491L825.339 507.928C826.104 507.162 826.624 506.419 826.897 505.698C827.171 504.962 827.235 504.275 827.087 503.639C826.941 502.987 826.619 502.413 826.122 501.916C825.535 501.328 824.931 500.945 824.311 500.767C823.691 500.589 823.058 500.62 822.413 500.859C821.768 501.098 821.106 501.557 820.428 502.236C819.812 502.851 819.376 503.504 819.119 504.195C818.863 504.871 818.797 505.539 818.921 506.199C819.052 506.851 819.384 507.443 819.916 507.975L817.726 510.166C816.949 509.389 816.463 508.461 816.268 507.382C816.073 506.303 816.185 505.176 816.605 504.001C817.032 502.818 817.774 501.698 818.832 500.64C819.874 499.598 820.95 498.851 822.06 498.398C823.164 497.939 824.254 497.814 825.332 498.024C826.403 498.226 827.415 498.804 828.367 499.756C828.752 500.141 829.062 500.656 829.298 501.302C829.534 501.934 829.628 502.651 829.58 503.455C829.54 504.252 829.307 505.108 828.881 506.024C828.448 506.933 827.761 507.857 826.822 508.796L824.951 510.667L823.776 509.491ZM825.371 511.087L824.206 509.921L826.077 508.051C827.174 506.953 828.197 506.161 829.146 505.674C830.096 505.187 830.968 504.93 831.763 504.905C832.567 504.871 833.282 505.003 833.91 505.299C834.538 505.58 835.08 505.948 835.535 506.403C836.249 507.117 836.744 507.888 837.021 508.718C837.305 509.539 837.391 510.391 837.279 511.273C837.175 512.147 836.889 513.014 836.422 513.873C835.955 514.732 835.331 515.552 834.549 516.333C833.799 517.083 832.998 517.695 832.146 518.169C831.302 518.636 830.449 518.943 829.587 519.091C828.718 519.232 827.879 519.182 827.07 518.942C826.254 518.694 825.506 518.231 824.827 517.552L827.018 515.361C827.55 515.893 828.145 516.228 828.805 516.367C829.472 516.497 830.162 516.43 830.876 516.165C831.59 515.884 832.283 515.409 832.953 514.738C833.624 514.067 834.099 513.389 834.378 512.705C834.657 512.005 834.717 511.315 834.558 510.635C834.406 509.947 834.012 509.284 833.375 508.647C832.738 508.01 832.067 507.639 831.361 507.533C830.648 507.42 829.917 507.542 829.169 507.898C828.421 508.24 827.676 508.782 826.934 509.524L825.371 511.087Z" fill="white"/>
<path d="M838.312 497.6L836.16 498.954L829.413 490.478L838.258 481.634L840.053 483.429L833.068 490.415L836.704 495.093C836.859 494.616 837.107 494.067 837.448 493.446C837.798 492.816 838.288 492.186 838.92 491.554C839.717 490.757 840.554 490.165 841.43 489.779C842.299 489.385 843.179 489.191 844.069 489.197C844.967 489.195 845.849 489.391 846.716 489.784C847.583 490.177 848.404 490.762 849.181 491.539C849.916 492.274 850.477 493.064 850.864 493.909C851.259 494.745 851.462 495.62 851.474 496.532C851.479 497.437 851.265 498.358 850.83 499.297C850.403 500.228 849.728 501.155 848.804 502.078C848.11 502.773 847.367 503.348 846.575 503.804C845.784 504.244 844.969 504.534 844.13 504.674C843.292 504.798 842.456 504.752 841.623 504.535C840.792 504.303 839.979 503.87 839.186 503.235L841.27 501.151C841.939 501.63 842.611 501.924 843.287 502.031C843.963 502.139 844.632 502.066 845.293 501.811C845.954 501.541 846.593 501.098 847.209 500.483C847.729 499.962 848.111 499.419 848.352 498.856C848.594 498.292 848.702 497.722 848.678 497.145C848.653 496.568 848.498 495.994 848.213 495.425C847.936 494.849 847.532 494.294 847 493.762C846.517 493.279 845.994 492.906 845.431 492.643C844.868 492.38 844.283 492.245 843.675 492.237C843.075 492.221 842.478 492.342 841.884 492.6C841.283 492.852 840.706 493.254 840.153 493.806C839.419 494.54 838.95 495.184 838.746 495.738C838.55 496.284 838.405 496.905 838.312 497.6Z" fill="white"/>
<path d="M849.556 470.294L849.745 470.105L851.393 471.753L851.204 471.942C850.044 473.103 849.241 474.241 848.795 475.359C848.343 476.469 848.168 477.533 848.27 478.551C848.365 479.562 848.656 480.516 849.144 481.414C849.639 482.304 850.244 483.106 850.958 483.82L853.205 486.067C853.884 486.746 854.576 487.257 855.283 487.6C855.982 487.937 856.668 488.125 857.341 488.167C858.014 488.208 858.638 488.122 859.215 487.909C859.799 487.689 860.309 487.362 860.743 486.927C861.248 486.422 861.614 485.888 861.841 485.326C862.06 484.756 862.15 484.183 862.111 483.607C862.072 483.016 861.91 482.435 861.625 481.866C861.341 481.297 860.943 480.757 860.432 480.247C859.977 479.792 859.476 479.417 858.93 479.124C858.377 478.823 857.805 478.639 857.216 478.57C856.62 478.495 856.03 478.56 855.446 478.765C854.863 478.956 854.303 479.32 853.767 479.857C853.159 480.464 852.724 481.166 852.461 481.961C852.199 482.74 852.112 483.514 852.199 484.28C852.287 485.031 852.556 485.679 853.006 486.224L851.835 487.373C851.162 486.479 850.699 485.605 850.446 484.752C850.194 483.885 850.118 483.051 850.218 482.251C850.318 481.436 850.569 480.668 850.968 479.947C851.368 479.211 851.884 478.527 852.516 477.895C853.376 477.035 854.261 476.436 855.172 476.1C856.083 475.763 856.981 475.635 857.866 475.715C858.744 475.789 859.579 476.032 860.371 476.444C861.163 476.842 861.874 477.355 862.504 477.985C863.225 478.706 863.786 479.496 864.187 480.355C864.588 481.214 864.797 482.11 864.815 483.044C864.841 483.97 864.656 484.897 864.259 485.826C863.862 486.755 863.225 487.658 862.349 488.534C861.418 489.465 860.437 490.11 859.406 490.469C858.369 490.82 857.337 490.942 856.313 490.833C855.288 490.723 854.315 490.437 853.393 489.973C852.471 489.509 851.653 488.92 850.939 488.206L850.026 487.293C848.948 486.215 848.014 485.036 847.223 483.755C846.431 482.475 845.916 481.115 845.676 479.675C845.444 478.227 845.616 476.718 846.193 475.148C846.769 473.577 847.89 471.959 849.556 470.294Z" fill="white"/>
<path d="M876.828 465.362C877.759 466.293 878.305 467.328 878.467 468.469C878.629 469.594 878.464 470.739 877.971 471.904C877.486 473.061 876.726 474.156 875.692 475.19C874.658 476.224 873.559 476.988 872.394 477.48C871.23 477.973 870.085 478.139 868.959 477.976C867.827 477.807 866.795 477.257 865.864 476.326C865.255 475.717 864.829 475.03 864.586 474.266C864.343 473.486 864.274 472.667 864.377 471.808C864.489 470.94 864.774 470.074 865.235 469.208C865.696 468.327 866.329 467.484 867.134 466.679C868.191 465.621 869.317 464.86 870.509 464.395C871.695 463.923 872.84 463.765 873.943 463.922C875.054 464.07 876.016 464.55 876.828 465.362ZM874.584 467.522C874.017 466.955 873.378 466.593 872.668 466.435C871.951 466.271 871.221 466.315 870.479 466.567C869.737 466.819 869.038 467.273 868.383 467.928C867.712 468.599 867.254 469.302 867.01 470.036C866.773 470.762 866.741 471.48 866.914 472.19C867.08 472.892 867.446 473.526 868.013 474.093C868.601 474.681 869.235 475.055 869.915 475.214C870.596 475.359 871.294 475.299 872.007 475.033C872.721 474.753 873.418 474.273 874.097 473.594C874.776 472.916 875.251 472.223 875.524 471.517C875.789 470.803 875.845 470.11 875.693 469.437C875.541 468.748 875.172 468.11 874.584 467.522ZM869.255 458.594C869.997 459.336 870.444 460.226 870.597 461.262C870.75 462.299 870.615 463.372 870.193 464.481C869.77 465.589 869.073 466.629 868.102 467.6C867.116 468.587 866.064 469.295 864.947 469.726C863.839 470.148 862.77 470.279 861.741 470.119C860.712 469.958 859.827 469.507 859.085 468.765C858.196 467.876 857.657 466.903 857.468 465.846C857.287 464.781 857.415 463.701 857.852 462.607C858.289 461.512 858.996 460.475 859.975 459.497C860.962 458.51 862.002 457.798 863.097 457.362C864.192 456.925 865.267 456.801 866.324 456.99C867.389 457.171 868.366 457.705 869.255 458.594ZM867.096 460.816C866.585 460.305 866.012 459.976 865.375 459.829C864.738 459.682 864.091 459.713 863.433 459.923C862.768 460.126 862.147 460.516 861.571 461.092C860.995 461.668 860.598 462.282 860.381 462.933C860.165 463.569 860.13 464.206 860.277 464.842C860.432 465.471 860.779 466.055 861.318 466.594C861.843 467.119 862.42 467.459 863.049 467.614C863.685 467.761 864.329 467.726 864.98 467.509C865.632 467.292 866.245 466.895 866.821 466.319C867.398 465.743 867.79 465.133 868 464.49C868.217 463.839 868.252 463.195 868.104 462.558C867.957 461.922 867.621 461.341 867.096 460.816Z" fill="white"/>
<path d="M887.075 454.464L876.252 443.64L878.525 441.367L889.349 452.19C890.357 453.198 890.974 454.281 891.201 455.44C891.428 456.599 891.314 457.77 890.857 458.955C890.401 460.125 889.644 461.239 888.586 462.297C887.528 463.354 886.428 464.133 885.285 464.632C884.142 465.131 883.009 465.284 881.886 465.092C880.762 464.9 879.7 464.303 878.699 463.302L880.984 461.017C881.628 461.661 882.29 462.055 882.972 462.2C883.653 462.344 884.329 462.278 884.998 462C885.676 461.715 886.322 461.264 886.938 460.648C887.538 460.049 887.962 459.4 888.212 458.702C888.463 457.99 888.502 457.271 888.33 456.547C888.152 455.816 887.733 455.122 887.075 454.464Z" fill="white"/>
<path d="M1109.17 819.486L1109.17 826.68L1079.27 826.68C1071.5 826.68 1065.2 820.069 1065.2 811.915L1065.2 799.927C1065.2 796.721 1067.68 794.121 1070.73 794.121L1076.62 794.121L1076.62 811.915C1076.62 813.447 1077.81 814.689 1079.27 814.689L1104.6 814.689C1107.12 814.689 1109.17 816.837 1109.17 819.486Z" fill="white"/>
<path d="M1109.17 710.803L1109.17 725.238C1109.17 733.393 1102.87 740.004 1095.1 740.004L1079.27 740.004C1071.5 740.004 1065.2 733.393 1065.2 725.238L1065.2 718.692C1065.2 715.486 1067.68 712.886 1070.73 712.886L1076.62 712.886L1076.62 725.238C1076.62 726.771 1077.81 728.013 1079.27 728.013L1095.1 728.013C1096.56 728.013 1097.74 726.771 1097.74 725.238L1097.74 710.803C1097.74 709.271 1096.56 708.029 1095.1 708.029L1045 708.029L1045 701.843C1045 698.637 1047.48 696.038 1050.53 696.038L1095.1 696.038C1102.87 696.038 1109.17 702.649 1109.17 710.803Z" fill="white"/>
<path d="M1066.56 676.844C1068.71 675.058 1077.94 667.385 1079.9 665.758L1086.93 673.139C1083.61 677.55 1076.83 686.542 1073.47 690.998C1073.43 691.05 1073.37 691.05 1073.32 691.003L1065.82 683.127C1064.21 681.441 1064.37 678.662 1066.15 677.182L1066.56 676.844Z" fill="white"/>
<path d="M1097.49 687.151C1095.79 684.895 1088.48 675.197 1086.93 673.141L1093.97 665.758C1097.26 668.5 1103.25 673.475 1107.73 677.194C1109.51 678.67 1109.66 681.439 1108.05 683.12L1100.46 691.089L1097.49 687.151Z" fill="white"/>
<path d="M1107.31 654.67C1105.16 656.457 1095.93 664.131 1093.97 665.757L1086.94 658.375C1090.26 653.964 1097.04 644.972 1100.4 640.516C1100.44 640.464 1100.5 640.464 1100.55 640.511L1108.05 648.387C1109.65 650.073 1109.5 652.853 1107.72 654.332L1107.31 654.67Z" fill="white"/>
<path d="M1076.37 644.364C1078.08 646.621 1085.38 656.319 1086.93 658.374L1079.9 665.757C1076.63 663.035 1070.7 658.111 1066.23 654.402C1064.35 652.833 1064.2 650.09 1065.9 648.301L1073.4 640.426L1076.37 644.364Z" fill="white"/>
<path d="M1065.2 608.112L1065.2 628.716C1065.2 631.923 1067.68 634.522 1070.73 634.522L1076.62 634.522L1076.62 608.112C1076.62 606.579 1077.81 605.337 1079.27 605.337L1095.1 605.337C1096.56 605.337 1097.74 606.579 1097.74 608.112L1097.74 621.993C1097.74 623.831 1096.32 625.323 1094.57 625.323C1092.82 625.323 1091.4 623.831 1091.4 621.993L1091.4 610.195L1087.11 610.195C1084.82 610.195 1082.97 612.142 1082.97 614.542L1082.97 623.562C1082.97 631.157 1088.83 637.313 1096.07 637.313C1103.3 637.313 1109.16 631.158 1109.16 623.565L1109.17 608.112C1109.17 599.957 1102.87 593.346 1095.1 593.346L1079.27 593.346C1071.5 593.346 1065.2 599.957 1065.2 608.112Z" fill="white"/>
<path d="M1065.2 762.114L1065.2 782.717C1065.2 785.925 1067.68 788.524 1070.73 788.524L1076.62 788.524L1076.62 762.114C1076.62 760.581 1077.81 759.339 1079.27 759.339L1095.1 759.339C1096.56 759.339 1097.74 760.581 1097.74 762.114L1097.74 775.995C1097.74 777.833 1096.32 779.325 1094.57 779.325C1092.82 779.325 1091.4 777.833 1091.4 775.995L1091.4 764.197L1087.11 764.197C1084.82 764.197 1082.97 766.144 1082.97 768.544L1082.97 777.564C1082.97 785.159 1088.83 791.315 1096.07 791.315C1103.3 791.315 1109.16 785.16 1109.16 777.567L1109.17 762.114C1109.17 753.959 1102.87 747.348 1095.1 747.348L1079.27 747.348C1071.5 747.348 1065.2 753.959 1065.2 762.114Z" fill="white"/>
<path d="M869.175 419.895L863.178 425.892C863.07 425.707 862.975 425.56 862.894 425.403C861.852 423.379 860.83 421.346 859.765 419.334C858.954 417.8 858.049 416.32 856.993 414.94C856.714 414.573 856.388 414.232 856.041 413.93C855.033 413.056 853.717 413.209 852.891 414.26C852.256 415.068 851.834 415.981 851.61 416.973C851.395 417.927 851.201 418.902 851.465 419.873C851.639 420.514 851.864 421.146 852.139 421.75C852.991 423.628 854.015 425.414 855.111 427.16C855.975 428.536 856.844 429.906 857.736 431.32L851.574 437.482C851.357 437.111 851.185 436.745 850.948 436.428C850.57 435.927 850.508 435.401 850.551 434.781C850.698 432.501 850.609 430.224 850.3 427.958C850.246 427.561 850.185 427.162 850.052 426.763C850.039 426.865 850.008 426.97 850.012 427.071C850.089 428.625 849.979 430.173 849.841 431.717C849.692 433.386 849.481 435.048 849.126 436.688C848.763 438.365 848.275 439.99 847.402 441.483C846.509 443.007 845.398 444.358 844.159 445.607C843.414 446.358 842.628 447.065 841.713 447.604C840.261 448.46 838.722 448.984 837.008 448.642C835.585 448.359 834.375 447.666 833.345 446.654C831.444 444.79 830.308 442.494 829.598 439.964C829.185 438.49 828.962 436.985 829.134 435.455C829.353 433.505 829.964 431.675 830.97 429.98C832.015 428.22 833.326 426.666 834.74 425.202C836.368 423.513 838.036 421.865 839.686 420.198C839.772 420.113 839.869 420.039 840.017 419.91C840.798 421.237 841.562 422.533 842.347 423.864C842.074 424.058 841.836 424.225 841.6 424.392C840.001 425.516 838.578 426.829 837.393 428.383C836.494 429.562 835.759 430.838 835.352 432.278C834.966 433.646 834.842 435.018 835.309 436.398C835.963 438.337 837.724 439.425 839.741 439.097C841.062 438.882 842.207 438.283 843.192 437.382C844.48 436.205 845.361 434.749 846.001 433.151C846.369 432.232 846.625 431.269 846.956 430.334C847.081 429.981 846.976 429.707 846.8 429.421C846.298 428.604 845.799 427.784 845.302 426.962C844.116 425 842.931 423.04 841.748 421.078C840.293 418.666 838.838 416.253 837.384 413.839C837.33 413.748 837.286 413.649 837.232 413.539L843.386 407.385C844.091 408.639 844.767 409.864 845.467 411.078C846.167 412.293 846.763 413.57 847.584 414.812C847.732 414.583 847.853 414.411 847.957 414.23C848.916 412.559 849.954 410.94 851.168 409.442C852.08 408.314 853.103 407.304 854.333 406.512C856.214 405.298 858.289 405.316 860.087 406.575C861.008 407.222 861.786 408.019 862.492 408.885C863.829 410.524 864.894 412.34 865.936 414.171C866.985 416.014 868.044 417.852 869.098 419.692C869.128 419.746 869.146 419.805 869.179 419.888L869.175 419.895Z" fill="white"/>
<path d="M805.867 445.004C806.075 444.649 811.515 439.156 812.031 438.798C814.023 442.117 816.004 445.439 818.004 448.75C818.041 448.739 818.079 448.73 818.116 448.72C818.146 448.526 818.183 448.33 818.207 448.135C818.5 445.719 818.789 443.3 819.092 440.884C819.115 440.698 819.196 440.481 819.326 440.352C821.535 438.127 823.758 435.912 825.977 433.696C826.03 433.643 826.092 433.599 826.212 433.5C826.239 434.285 826.027 434.98 825.954 435.686C825.882 436.395 825.778 437.103 825.684 437.809C825.588 438.53 825.487 439.253 825.387 439.976C825.288 440.698 825.191 441.421 825.089 442.142C824.988 442.864 824.881 443.585 824.78 444.308C824.683 445.015 824.588 445.722 824.494 446.431C824.399 447.151 824.306 447.87 824.203 448.656C829.006 449.254 833.788 449.807 838.616 450.398C838.539 450.503 838.491 450.592 838.425 450.66C836.332 452.763 834.236 454.862 832.148 456.968C831.933 457.183 831.726 457.259 831.415 457.224C828.578 456.918 825.741 456.632 822.903 456.34C822.829 456.333 822.753 456.33 822.591 456.318C822.703 456.544 822.779 456.72 822.877 456.884C824.015 458.782 825.158 460.677 826.297 462.574C826.313 462.6 826.319 462.632 826.328 462.659C826.15 462.993 820.822 468.355 820.213 468.805C820.14 468.718 820.053 468.636 819.992 468.539C819.773 468.183 819.576 467.812 819.345 467.465C819.155 467.177 819.103 466.887 819.129 466.544C819.264 464.856 819.257 463.166 819.119 461.479C819.046 460.583 818.93 459.691 818.828 458.798C818.806 458.599 818.766 458.404 818.653 458.208C818.65 458.596 818.644 458.983 818.648 459.369C818.666 461.295 818.572 463.215 818.237 465.114C817.882 467.134 817.441 469.132 816.608 471.02C816.02 472.358 815.334 473.648 814.433 474.802C814.033 475.313 813.548 475.759 813.077 476.208C811.916 477.314 810.678 478.324 809.238 479.05C807.374 479.991 805.492 480.087 803.614 479.101C802.967 478.762 802.388 478.318 801.87 477.798C799.787 475.705 798.288 473.252 797.495 470.404C796.805 467.925 797.116 465.517 798.253 463.213C798.93 461.845 799.786 460.591 800.753 459.41C802.771 456.941 805.03 454.698 807.349 452.516C807.7 452.186 808.051 451.857 808.402 451.529C808.421 451.51 808.458 451.507 808.545 451.475C809.264 452.627 809.891 453.845 810.578 455.046C810.407 455.218 810.27 455.387 810.102 455.517C808.466 456.784 807.09 458.294 805.948 460.012C804.906 461.576 804.12 463.26 803.831 465.134C803.633 466.419 803.605 467.705 804.127 468.932C804.786 470.479 806.1 471.308 807.852 470.999C808.957 470.804 809.892 470.272 810.777 469.638C812.465 468.425 813.607 466.792 814.404 464.893C814.851 463.831 815.198 462.74 815.505 461.633C815.581 461.36 815.548 461.169 815.406 460.943C814.972 460.248 814.557 459.539 814.135 458.835C812.988 456.924 811.843 455.011 810.697 453.097C809.582 451.238 808.466 449.381 807.354 447.519C806.854 446.684 806.363 445.843 805.866 445.005L805.867 445.004Z" fill="white"/>
<path d="M884.04 405.254C885.429 407.379 886.789 409.462 888.153 411.551L882.523 417.182C880.682 414.302 878.863 411.456 877.044 408.614C877.023 408.621 877.003 408.628 876.981 408.635C876.99 409.14 877.018 409.645 877.002 410.149C876.96 411.661 876.642 413.108 875.856 414.417C875.247 415.428 874.373 416.036 873.139 415.982C872.467 415.953 871.886 415.661 871.333 415.306C870.486 414.762 869.824 414.023 869.206 413.246C867.636 411.276 866.418 409.082 865.218 406.879C864.255 405.111 863.284 403.349 862.313 401.586C862.225 401.427 862.12 401.278 861.983 401.059C861.147 401.84 860.386 402.622 859.588 403.407L858.477 402.296C860.686 399.912 862.885 397.542 865.133 395.12C865.31 395.405 865.466 395.629 865.595 395.866C867.034 398.519 868.466 401.177 869.909 403.829C870.968 405.775 872.099 407.678 873.34 409.513C873.8 410.193 874.261 410.875 874.881 411.426C874.985 411.52 875.08 411.625 875.196 411.699C875.553 411.927 876.015 411.787 876.137 411.373C876.221 411.083 876.235 410.762 876.218 410.458C876.163 409.458 875.877 408.504 875.569 407.561C875.267 406.633 874.919 405.721 874.592 404.8C874.556 404.701 874.527 404.598 874.484 404.459C874.683 404.331 874.875 404.207 875.068 404.083C876.023 403.474 877.003 402.903 877.924 402.249C879.299 401.275 880.537 400.147 881.509 398.755C882.341 397.565 882.91 396.267 883.023 394.804C883.127 393.452 882.777 392.229 881.966 391.136C881.264 390.189 880.363 389.565 879.196 389.329C878.586 389.205 877.991 389.248 877.403 389.425C876.279 389.76 875.328 390.392 874.464 391.166C873.054 392.429 871.905 393.91 870.861 395.481C870.543 395.96 870.24 396.445 869.928 396.928C869.873 397.015 869.807 397.095 869.724 397.204C869.376 396.666 869.05 396.163 868.727 395.661C868.283 394.969 867.84 394.278 867.4 393.587C867.332 393.483 867.28 393.369 867.215 393.265C867.102 393.083 867.117 392.938 867.266 392.768C868.105 391.81 868.931 390.842 869.764 389.88C870.831 388.649 871.876 387.396 872.978 386.196C874.588 384.444 876.271 382.768 878.289 381.473C879.328 380.807 880.421 380.257 881.636 379.999C883.674 379.565 885.451 380.1 887.063 381.39C889.2 383.099 891.523 387.224 892.044 389.875C892.521 392.301 892.208 394.595 891.129 396.798C890.428 398.226 889.508 399.506 888.463 400.709C887.189 402.179 885.778 403.512 884.406 404.884C884.298 404.992 884.19 405.101 884.037 405.254L884.04 405.254Z" fill="white"/>
<path d="M779.598 489.578C779.672 487.169 778.825 485.151 777.047 483.533C776.082 482.655 774.95 482.182 773.62 482.235C772.669 482.273 771.797 482.578 770.963 483.008C769.653 483.685 768.524 484.608 767.487 485.64C763.239 489.869 759.008 494.112 754.769 498.35C754.685 498.435 754.613 498.532 754.536 498.623C754.579 498.717 754.605 498.791 754.642 498.857C755.208 499.853 755.77 500.85 756.345 501.842C758.128 504.925 759.918 508.003 761.697 511.085C762.85 513.083 763.989 515.089 765.135 517.09C766.058 518.702 766.985 520.312 767.915 521.92C768.003 522.071 768.12 522.205 768.247 522.379L768.517 522.108C770.45 520.176 772.383 518.243 774.314 516.312C774.687 515.939 775.054 515.559 775.431 515.189C775.613 515.013 775.645 514.857 775.504 514.621C774.894 513.597 774.306 512.56 773.708 511.53C772.604 509.629 771.497 507.731 770.395 505.829C770.355 505.76 770.348 505.674 770.314 505.555C770.439 505.581 770.517 505.587 770.589 505.611C771.705 505.983 772.822 506.354 773.938 506.731C776.285 507.526 778.633 508.32 780.976 509.128C781.271 509.231 781.462 509.171 781.672 508.954C782.245 508.363 782.838 507.793 783.417 507.208C785.664 504.954 787.909 502.698 790.153 500.441C790.245 500.349 790.321 500.242 790.451 500.085C788.26 499.487 786.14 498.916 784.024 498.33C781.91 497.746 779.784 497.199 777.647 496.571C777.946 495.848 778.213 495.221 778.464 494.588C779.1 492.976 779.55 491.323 779.602 489.579L779.598 489.578ZM772.227 496.044C772.044 497.183 771.553 498.198 770.976 499.179C770.346 500.252 769.561 501.214 768.718 502.128C768.647 502.205 768.557 502.263 768.436 502.363C768.333 502.218 768.235 502.102 768.163 501.974C767.197 500.246 766.239 498.512 765.267 496.788C765.154 496.588 765.16 496.449 765.312 496.298C766.322 495.29 767.292 494.236 768.517 493.475C768.98 493.186 769.466 492.948 770.023 492.898C770.412 492.862 770.771 492.952 771.073 493.188C772.003 493.915 772.417 494.857 772.226 496.046L772.227 496.044Z" fill="white"/>
<path d="M795.482 469.26C795.482 469.11 795.467 468.958 795.458 468.791C794.409 468.573 793.402 468.61 792.392 468.851C791.171 469.144 790.056 469.673 789.017 470.37C787.209 471.581 785.67 473.078 784.32 474.781C782.835 476.657 781.757 478.729 781.222 481.069C780.8 482.911 780.736 484.766 781.175 486.603C781.923 489.734 783.535 492.346 786.076 494.338C787.481 495.439 789.106 495.925 790.903 495.79C792.176 495.694 793.374 495.309 794.478 494.69C795.272 494.244 796.033 493.723 796.751 493.164C798.425 491.856 799.848 490.301 801.041 488.544C802.371 486.586 803.217 484.441 803.514 482.089C803.535 481.923 803.542 481.755 803.554 481.598C803.477 481.561 803.439 481.531 803.396 481.522C801.993 481.225 800.877 480.439 799.887 479.451C798.759 478.328 797.866 477.031 797.12 475.629C796.062 473.64 795.479 471.527 795.482 469.26ZM796.433 482.065C796.874 483.385 796.772 484.665 796.036 485.866C795.843 486.18 795.589 486.458 795.43 486.664C794.93 487.114 794.512 487.485 793.979 487.693C793.234 487.985 792.528 487.909 791.837 487.519C791.22 487.171 790.706 486.702 790.259 486.165C789.325 485.039 788.526 483.83 788.058 482.428C787.773 481.576 787.666 480.712 787.854 479.819C788.072 478.783 788.66 477.987 789.455 477.324C789.68 477.136 789.923 476.964 790.176 476.816C790.82 476.439 791.489 476.39 792.181 476.692C792.684 476.913 793.136 477.215 793.522 477.597C794.809 478.88 795.854 480.328 796.434 482.069L796.433 482.065Z" fill="white"/>
<path d="M861.585 393.582C864.038 391.129 864.038 387.152 861.585 384.699C859.132 382.246 855.154 382.246 852.701 384.699C850.248 387.152 850.248 391.129 852.701 393.582C855.154 396.035 859.132 396.035 861.585 393.582Z" fill="white"/>
</svg>
