<svg width="1587" height="1004" viewBox="0 0 1587 1004" fill="none" xmlns="http://www.w3.org/2000/svg">
<path d="M1214.84 853.401H373.835C339.129 853.401 311.24 825.512 311.24 790.806V213.196C311.24 178.489 339.129 150.601 373.835 150.601H1214.84C1249.55 150.601 1277.44 178.489 1277.44 213.196V790.186C1277.44 825.512 1249.55 853.401 1214.84 853.401Z" fill="#4D916B"/>
<path d="M376.307 270.834C404.716 270.834 427.746 247.804 427.746 219.395C427.746 190.985 404.716 167.955 376.307 167.955C347.897 167.955 324.867 190.985 324.867 219.395C324.867 247.804 347.897 270.834 376.307 270.834Z" fill="#C79F7D"/>
<path d="M376.322 242.931C389.329 242.931 399.873 232.387 399.873 219.381C399.873 206.374 389.329 195.83 376.322 195.83C363.315 195.83 352.771 206.374 352.771 219.381C352.771 232.387 363.315 242.931 376.322 242.931Z" fill="white"/>
<path d="M1210.45 270.834C1238.86 270.834 1261.89 247.804 1261.89 219.395C1261.89 190.985 1238.86 167.955 1210.45 167.955C1182.04 167.955 1159.01 190.985 1159.01 219.395C1159.01 247.804 1182.04 270.834 1210.45 270.834Z" fill="#C79F7D"/>
<path d="M1210.47 242.931C1223.47 242.931 1234.02 232.387 1234.02 219.381C1234.02 206.374 1223.47 195.83 1210.47 195.83C1197.46 195.83 1186.92 206.374 1186.92 219.381C1186.92 232.387 1197.46 242.931 1210.47 242.931Z" fill="white"/>
<path d="M376.307 834.819C404.716 834.819 427.746 811.789 427.746 783.38C427.746 754.971 404.716 731.94 376.307 731.94C347.897 731.94 324.867 754.971 324.867 783.38C324.867 811.789 347.897 834.819 376.307 834.819Z" fill="#C79F7D"/>
<path d="M376.322 806.917C389.329 806.917 399.873 796.373 399.873 783.366C399.873 770.359 389.329 759.815 376.322 759.815C363.315 759.815 352.771 770.359 352.771 783.366C352.771 796.373 363.315 806.917 376.322 806.917Z" fill="white"/>
<path d="M1210.45 834.819C1238.86 834.819 1261.89 811.789 1261.89 783.38C1261.89 754.971 1238.86 731.94 1210.45 731.94C1182.04 731.94 1159.01 754.971 1159.01 783.38C1159.01 811.789 1182.04 834.819 1210.45 834.819Z" fill="#C79F7D"/>
<path d="M1210.47 806.917C1223.47 806.917 1234.02 796.373 1234.02 783.366C1234.02 770.359 1223.47 759.815 1210.47 759.815C1197.46 759.815 1186.92 770.359 1186.92 783.366C1186.92 796.373 1197.46 806.917 1210.47 806.917Z" fill="white"/>
<path d="M808.94 617.901H548.023V788.953H808.94V617.901Z" fill="#2C2D2D"/>
<path d="M510.78 294.387H337.869V552.204H510.78V294.387Z" fill="#303231"/>
<path d="M846.05 286.954H546.709V583.196H846.05V286.954Z" fill="#252728"/>
<path d="M789.644 361.313H608.676V511.294H789.644V361.313Z" fill="#9BA3B4"/>
<path d="M1139.19 169.817H914.836V368.138H1139.19V169.817Z" fill="#3A3B3C"/>
<path d="M1261.94 325.997H1175.8V429.496H1261.94V325.997Z" fill="#323437"/>
<path d="M1013.52 676.761C1012.28 676.761 1011.04 675.522 1011.04 674.282V669.944C1011.04 668.704 1012.28 667.465 1013.52 667.465C1014.76 667.465 1016 668.704 1016 669.944V674.282C1016 676.141 1014.76 676.761 1013.52 676.761Z" fill="#FEF6EB"/>
<path d="M1019.7 676.761C1018.46 676.761 1017.22 675.522 1017.22 674.282V669.944C1017.22 668.704 1018.46 667.465 1019.7 667.465C1020.94 667.465 1022.18 668.704 1022.18 669.944V674.282C1022.18 676.141 1020.94 676.761 1019.7 676.761Z" fill="#FEF6EB"/>
<path d="M1025.27 676.761C1024.03 676.761 1022.79 675.522 1022.79 674.282V669.944C1022.79 668.704 1024.03 667.465 1025.27 667.465C1026.51 667.465 1027.75 668.704 1027.75 669.944V674.282C1027.75 676.141 1027.13 676.761 1025.27 676.761Z" fill="#FEF6EB"/>
<path d="M1031.44 676.761C1030.2 676.761 1028.96 675.522 1028.96 674.282V669.944C1028.96 668.704 1030.2 667.465 1031.44 667.465C1032.68 667.465 1033.92 668.704 1033.92 669.944V674.282C1033.92 676.141 1032.68 676.761 1031.44 676.761Z" fill="#FEF6EB"/>
<path d="M1037.7 676.761C1036.46 676.761 1035.22 675.522 1035.22 674.282V669.944C1035.22 668.704 1036.46 667.465 1037.7 667.465C1038.94 667.465 1040.18 668.704 1040.18 669.944V674.282C1040.18 676.141 1038.94 676.761 1037.7 676.761Z" fill="#FEF6EB"/>
<path d="M1043.88 676.761C1042.64 676.761 1041.4 675.522 1041.4 674.282V669.944C1041.4 668.704 1042.64 667.465 1043.88 667.465C1045.11 667.465 1046.35 668.704 1046.35 669.944V674.282C1046.35 676.141 1045.11 676.761 1043.88 676.761Z" fill="#FEF6EB"/>
<path d="M1050.13 676.761C1048.89 676.761 1047.65 675.522 1047.65 674.282V669.944C1047.65 668.704 1048.89 667.465 1050.13 667.465C1051.37 667.465 1052.61 668.704 1052.61 669.944V674.282C1051.99 676.141 1051.37 676.761 1050.13 676.761Z" fill="#FEF6EB"/>
<path d="M1055.62 676.761C1054.38 676.761 1053.14 675.522 1053.14 674.282V669.944C1053.14 668.704 1054.38 667.465 1055.62 667.465C1056.86 667.465 1058.1 668.704 1058.1 669.944V674.282C1058.1 676.141 1056.86 676.761 1055.62 676.761Z" fill="#FEF6EB"/>
<path d="M1061.86 676.761C1060.62 676.761 1059.38 675.522 1059.38 674.282V669.944C1059.38 668.704 1060.62 667.465 1061.86 667.465C1063.1 667.465 1064.34 668.704 1064.34 669.944V674.282C1064.34 676.141 1063.1 676.761 1061.86 676.761Z" fill="#FEF6EB"/>
<path d="M1068.05 676.761C1066.81 676.761 1065.57 675.522 1065.57 674.282V669.944C1065.57 668.704 1066.81 667.465 1068.05 667.465C1069.29 667.465 1070.53 668.704 1070.53 669.944V674.282C1070.53 676.141 1069.29 676.761 1068.05 676.761Z" fill="#FEF6EB"/>
<path d="M1074.23 676.761C1072.99 676.761 1071.75 675.522 1071.75 674.282V669.944C1071.75 668.704 1072.99 667.465 1074.23 667.465C1075.47 667.465 1076.71 668.704 1076.71 669.944V674.282C1076.09 676.141 1075.47 676.761 1074.23 676.761Z" fill="#FEF6EB"/>
<path d="M1079.86 676.761C1078.62 676.761 1077.38 675.522 1077.38 674.282V669.944C1077.38 668.704 1078.62 667.465 1079.86 667.465C1081.1 667.465 1082.34 668.704 1082.34 669.944V674.282C1082.34 676.141 1081.1 676.761 1079.86 676.761Z" fill="#FEF6EB"/>
<path d="M1086.09 676.761C1084.85 676.761 1083.62 675.522 1083.62 674.282V669.944C1083.62 668.704 1084.85 667.465 1086.09 667.465C1087.33 667.465 1088.57 668.704 1088.57 669.944V674.282C1088.57 676.141 1087.33 676.761 1086.09 676.761Z" fill="#FEF6EB"/>
<path d="M1092.29 676.761C1091.05 676.761 1089.81 675.522 1089.81 674.282V669.944C1089.81 668.704 1091.05 667.465 1092.29 667.465C1093.53 667.465 1094.77 668.704 1094.77 669.944V674.282C1094.77 676.141 1093.53 676.761 1092.29 676.761Z" fill="#FEF6EB"/>
<path d="M1098.47 676.761C1097.23 676.761 1095.99 675.522 1095.99 674.282V669.944C1095.99 668.704 1097.23 667.465 1098.47 667.465C1099.71 667.465 1100.95 668.704 1100.95 669.944V674.282C1100.95 676.141 1099.71 676.761 1098.47 676.761Z" fill="#FEF6EB"/>
<path d="M1104.02 676.761C1102.78 676.761 1101.54 675.522 1101.54 674.282V669.944C1101.54 668.704 1102.78 667.465 1104.02 667.465C1105.26 667.465 1106.5 668.704 1106.5 669.944V674.282C1106.5 676.141 1105.88 676.761 1104.02 676.761Z" fill="#FEF6EB"/>
<path d="M1110.21 676.761C1108.97 676.761 1107.73 675.522 1107.73 674.282V669.944C1107.73 668.704 1108.97 667.465 1110.21 667.465C1111.45 667.465 1112.69 668.704 1112.69 669.944V674.282C1112.69 676.141 1111.45 676.761 1110.21 676.761Z" fill="#FEF6EB"/>
<path d="M1121.34 560.24C1121.34 559 1122.58 557.761 1123.82 557.761H1128.16C1129.4 557.761 1130.64 559 1130.64 560.24C1130.64 561.479 1129.4 562.719 1128.16 562.719H1123.82C1122.58 562.099 1121.34 561.479 1121.34 560.24Z" fill="#FEF6EB"/>
<path d="M1121.34 565.809C1121.34 564.57 1122.58 563.33 1123.82 563.33H1128.16C1129.4 563.33 1130.64 564.57 1130.64 565.809C1130.64 567.049 1129.4 568.288 1128.16 568.288H1123.82C1122.58 568.288 1121.34 567.049 1121.34 565.809Z" fill="#FEF6EB"/>
<path d="M1121.34 572.025C1121.34 570.785 1122.58 569.546 1123.82 569.546H1128.16C1129.4 569.546 1130.64 570.785 1130.64 572.025C1130.64 573.264 1129.4 574.504 1128.16 574.504H1123.82C1122.58 574.504 1121.34 573.264 1121.34 572.025Z" fill="#FEF6EB"/>
<path d="M1121.34 578.211C1121.34 576.972 1122.58 575.732 1123.82 575.732H1128.16C1129.4 575.732 1130.64 576.972 1130.64 578.211C1130.64 579.451 1129.4 580.69 1128.16 580.69H1123.82C1122.58 580.69 1121.34 579.451 1121.34 578.211Z" fill="#FEF6EB"/>
<path d="M1121.34 584.409C1121.34 583.169 1122.58 581.93 1123.82 581.93H1128.16C1129.4 581.93 1130.64 583.169 1130.64 584.409C1130.64 585.648 1129.4 586.888 1128.16 586.888H1123.82C1122.58 586.268 1121.34 585.648 1121.34 584.409Z" fill="#FEF6EB"/>
<path d="M1121.34 589.997C1121.34 588.757 1122.58 587.518 1123.82 587.518H1128.16C1129.4 587.518 1130.64 588.757 1130.64 589.997C1130.64 591.236 1129.4 592.476 1128.16 592.476H1123.82C1122.58 592.476 1121.34 591.236 1121.34 589.997Z" fill="#FEF6EB"/>
<path d="M1121.34 596.194C1121.34 594.954 1122.58 593.715 1123.82 593.715H1128.16C1129.4 593.715 1130.64 594.954 1130.64 596.194C1130.64 597.433 1129.4 598.673 1128.16 598.673H1123.82C1122.58 598.673 1121.34 597.433 1121.34 596.194Z" fill="#FEF6EB"/>
<path d="M1121.34 602.38C1121.34 601.141 1122.58 599.901 1123.82 599.901H1128.16C1129.4 599.901 1130.64 601.141 1130.64 602.38C1130.64 603.62 1129.4 604.859 1128.16 604.859H1123.82C1122.58 604.859 1121.34 603.62 1121.34 602.38Z" fill="#FEF6EB"/>
<path d="M1121.34 608.586C1121.34 607.347 1122.58 606.107 1123.82 606.107H1128.16C1129.4 606.107 1130.64 607.347 1130.64 608.586C1130.64 609.826 1129.4 611.065 1128.16 611.065H1123.82C1122.58 610.446 1121.34 609.826 1121.34 608.586Z" fill="#FEF6EB"/>
<path d="M1121.34 614.156C1121.34 612.916 1122.58 611.677 1123.82 611.677H1128.16C1129.4 611.677 1130.64 612.916 1130.64 614.156C1130.64 615.395 1129.4 616.635 1128.16 616.635H1123.82C1122.58 616.635 1121.34 616.015 1121.34 614.156Z" fill="#FEF6EB"/>
<path d="M1121.34 620.352C1121.34 619.113 1122.58 617.873 1123.82 617.873H1128.16C1129.4 617.873 1130.64 619.113 1130.64 620.352C1130.64 621.592 1129.4 622.831 1128.16 622.831H1123.82C1122.58 622.831 1121.34 621.592 1121.34 620.352Z" fill="#FEF6EB"/>
<path d="M1121.34 626.539C1121.34 625.299 1122.58 624.06 1123.82 624.06H1128.16C1129.4 624.06 1130.64 625.299 1130.64 626.539C1130.64 627.778 1129.4 629.018 1128.16 629.018H1123.82C1122.58 629.018 1121.34 627.778 1121.34 626.539Z" fill="#FEF6EB"/>
<path d="M1121.34 632.755C1121.34 631.516 1122.58 630.276 1123.82 630.276H1128.16C1129.4 630.276 1130.64 631.516 1130.64 632.755C1130.64 633.995 1129.4 635.234 1128.16 635.234H1123.82C1122.58 635.234 1121.34 633.995 1121.34 632.755Z" fill="#FEF6EB"/>
<path d="M1121.34 638.325C1121.34 637.085 1122.58 635.846 1123.82 635.846H1128.16C1129.4 635.846 1130.64 637.085 1130.64 638.325C1130.64 639.564 1129.4 640.804 1128.16 640.804H1123.82C1122.58 640.804 1121.34 640.184 1121.34 638.325Z" fill="#FEF6EB"/>
<path d="M1121.34 644.521C1121.34 643.281 1122.58 642.042 1123.82 642.042H1128.16C1129.4 642.042 1130.64 643.281 1130.64 644.521C1130.64 645.76 1129.4 647 1128.16 647H1123.82C1122.58 647 1121.34 645.76 1121.34 644.521Z" fill="#FEF6EB"/>
<path d="M1121.34 650.727C1121.34 649.488 1122.58 648.248 1123.82 648.248H1128.16C1129.4 648.248 1130.64 649.488 1130.64 650.727C1130.64 651.967 1129.4 653.206 1128.16 653.206H1123.82C1122.58 653.206 1121.34 651.967 1121.34 650.727Z" fill="#FEF6EB"/>
<path d="M1121.34 656.923C1121.34 655.684 1122.58 654.444 1123.82 654.444H1128.16C1129.4 654.444 1130.64 655.684 1130.64 656.923C1130.64 658.163 1129.4 659.402 1128.16 659.402H1123.82C1122.58 659.402 1121.34 658.163 1121.34 656.923Z" fill="#FEF6EB"/>
<path d="M994.314 560.867C994.314 559.627 995.554 558.388 996.793 558.388H1001.13C1002.37 558.388 1003.61 559.627 1003.61 560.867C1003.61 562.106 1002.37 563.346 1001.13 563.346H996.793C995.554 563.346 994.314 562.106 994.314 560.867Z" fill="#FEF6EB"/>
<path d="M994.314 566.436C994.314 565.197 995.554 563.957 996.793 563.957H1001.13C1002.37 563.957 1003.61 565.197 1003.61 566.436C1003.61 567.676 1002.37 568.915 1001.13 568.915H996.793C995.554 568.915 994.314 568.295 994.314 566.436Z" fill="#FEF6EB"/>
<path d="M994.314 572.652C994.314 571.412 995.554 570.173 996.793 570.173H1001.13C1002.37 570.173 1003.61 571.412 1003.61 572.652C1003.61 573.891 1002.37 575.131 1001.13 575.131H996.793C995.554 575.131 994.314 573.891 994.314 572.652Z" fill="#FEF6EB"/>
<path d="M994.314 578.838C994.314 577.599 995.554 576.359 996.793 576.359H1001.13C1002.37 576.359 1003.61 577.599 1003.61 578.838C1003.61 580.078 1002.37 581.317 1001.13 581.317H996.793C995.554 581.317 994.314 580.078 994.314 578.838Z" fill="#FEF6EB"/>
<path d="M994.314 585.036C994.314 583.796 995.554 582.557 996.793 582.557H1001.13C1002.37 582.557 1003.61 583.796 1003.61 585.036C1003.61 586.275 1002.37 587.515 1001.13 587.515H996.793C995.554 587.515 994.314 586.275 994.314 585.036Z" fill="#FEF6EB"/>
<path d="M994.314 591.222C994.314 589.983 995.554 588.743 996.793 588.743H1001.13C1002.37 588.743 1003.61 589.983 1003.61 591.222C1003.61 592.462 1002.37 593.701 1001.13 593.701H996.793C995.554 593.081 994.314 592.462 994.314 591.222Z" fill="#FEF6EB"/>
<path d="M994.314 596.821C994.314 595.581 995.554 594.342 996.793 594.342H1001.13C1002.37 594.342 1003.61 595.581 1003.61 596.821C1003.61 598.06 1002.37 599.3 1001.13 599.3H996.793C995.554 599.3 994.314 598.06 994.314 596.821Z" fill="#FEF6EB"/>
<path d="M994.314 603.007C994.314 601.768 995.554 600.528 996.793 600.528H1001.13C1002.37 600.528 1003.61 601.768 1003.61 603.007C1003.61 604.247 1002.37 605.486 1001.13 605.486H996.793C995.554 605.486 994.314 604.247 994.314 603.007Z" fill="#FEF6EB"/>
<path d="M994.314 609.213C994.314 607.974 995.554 606.734 996.793 606.734H1001.13C1002.37 606.734 1003.61 607.974 1003.61 609.213C1003.61 610.453 1002.37 611.692 1001.13 611.692H996.793C995.554 611.692 994.314 610.453 994.314 609.213Z" fill="#FEF6EB"/>
<path d="M994.314 615.411C994.314 614.171 995.554 612.932 996.793 612.932H1001.13C1002.37 612.932 1003.61 614.171 1003.61 615.411C1003.61 616.65 1002.37 617.89 1001.13 617.89H996.793C995.554 617.27 994.314 616.65 994.314 615.411Z" fill="#FEF6EB"/>
<path d="M994.314 620.979C994.314 619.74 995.554 618.5 996.793 618.5H1001.13C1002.37 618.5 1003.61 619.74 1003.61 620.979C1003.61 622.219 1002.37 623.458 1001.13 623.458H996.793C995.554 623.458 994.314 622.219 994.314 620.979Z" fill="#FEF6EB"/>
<path d="M994.314 627.166C994.314 625.926 995.554 624.687 996.793 624.687H1001.13C1002.37 624.687 1003.61 625.926 1003.61 627.166C1003.61 628.405 1002.37 629.645 1001.13 629.645H996.793C995.554 629.645 994.314 628.405 994.314 627.166Z" fill="#FEF6EB"/>
<path d="M994.314 633.382C994.314 632.143 995.554 630.903 996.793 630.903H1001.13C1002.37 630.903 1003.61 632.143 1003.61 633.382C1003.61 634.622 1002.37 635.861 1001.13 635.861H996.793C995.554 635.861 994.314 634.622 994.314 633.382Z" fill="#FEF6EB"/>
<path d="M994.314 639.569C994.314 638.329 995.554 637.09 996.793 637.09H1001.13C1002.37 637.09 1003.61 638.329 1003.61 639.569C1003.61 640.808 1002.37 642.048 1001.13 642.048H996.793C995.554 641.428 994.314 640.808 994.314 639.569Z" fill="#FEF6EB"/>
<path d="M994.314 645.148C994.314 643.908 995.554 642.669 996.793 642.669H1001.13C1002.37 642.669 1003.61 643.908 1003.61 645.148C1003.61 646.387 1002.37 647.627 1001.13 647.627H996.793C995.554 647.627 994.314 647.007 994.314 645.148Z" fill="#FEF6EB"/>
<path d="M994.314 651.354C994.314 650.115 995.554 648.875 996.793 648.875H1001.13C1002.37 648.875 1003.61 650.115 1003.61 651.354C1003.61 652.594 1002.37 653.833 1001.13 653.833H996.793C995.554 653.833 994.314 652.594 994.314 651.354Z" fill="#FEF6EB"/>
<path d="M994.314 657.55C994.314 656.311 995.554 655.071 996.793 655.071H1001.13C1002.37 655.071 1003.61 656.311 1003.61 657.55C1003.61 658.79 1002.37 660.029 1001.13 660.029H996.793C995.554 660.029 994.314 658.79 994.314 657.55Z" fill="#FEF6EB"/>
<path d="M1014.13 549.702C1012.89 549.702 1011.65 548.462 1011.65 547.223V542.884C1011.65 541.645 1012.89 540.405 1014.13 540.405C1015.37 540.405 1016.61 541.645 1016.61 542.884V547.223C1016.61 548.462 1015.37 549.702 1014.13 549.702Z" fill="#FEF6EB"/>
<path d="M1020.31 549.702C1019.07 549.702 1017.83 548.462 1017.83 547.223V542.884C1017.83 541.645 1019.07 540.405 1020.31 540.405C1021.54 540.405 1022.78 541.645 1022.78 542.884V547.223C1022.78 548.462 1021.54 549.702 1020.31 549.702Z" fill="#FEF6EB"/>
<path d="M1025.87 549.702C1024.63 549.702 1023.39 548.462 1023.39 547.223V542.884C1023.39 541.645 1024.63 540.405 1025.87 540.405C1027.11 540.405 1028.35 541.645 1028.35 542.884V547.223C1028.35 548.462 1027.73 549.702 1025.87 549.702Z" fill="#FEF6EB"/>
<path d="M1032.05 549.702C1030.81 549.702 1029.57 548.462 1029.57 547.223V542.884C1029.57 541.645 1030.81 540.405 1032.05 540.405C1033.29 540.405 1034.53 541.645 1034.53 542.884V547.223C1034.53 548.462 1033.29 549.702 1032.05 549.702Z" fill="#FEF6EB"/>
<path d="M1038.31 549.702C1037.07 549.702 1035.83 548.462 1035.83 547.223V542.884C1035.83 541.645 1037.07 540.405 1038.31 540.405C1039.54 540.405 1040.78 541.645 1040.78 542.884V547.223C1040.78 548.462 1039.54 549.702 1038.31 549.702Z" fill="#FEF6EB"/>
<path d="M1044.48 549.702C1043.24 549.702 1042 548.462 1042 547.223V542.884C1042 541.645 1043.24 540.405 1044.48 540.405C1045.72 540.405 1046.96 541.645 1046.96 542.884V547.223C1046.96 548.462 1045.72 549.702 1044.48 549.702Z" fill="#FEF6EB"/>
<path d="M1050.74 549.702C1049.5 549.702 1048.26 548.462 1048.26 547.223V542.884C1048.26 541.645 1049.5 540.405 1050.74 540.405C1051.98 540.405 1053.22 541.645 1053.22 542.884V547.223C1052.6 548.462 1051.98 549.702 1050.74 549.702Z" fill="#FEF6EB"/>
<path d="M1056.23 549.702C1054.99 549.702 1053.75 548.462 1053.75 547.223V542.884C1053.75 541.645 1054.99 540.405 1056.23 540.405C1057.47 540.405 1058.71 541.645 1058.71 542.884V547.223C1058.71 548.462 1057.47 549.702 1056.23 549.702Z" fill="#FEF6EB"/>
<path d="M1062.47 549.702C1061.23 549.702 1059.99 548.462 1059.99 547.223V542.884C1059.99 541.645 1061.23 540.405 1062.47 540.405C1063.7 540.405 1064.94 541.645 1064.94 542.884V547.223C1064.94 548.462 1063.7 549.702 1062.47 549.702Z" fill="#FEF6EB"/>
<path d="M1068.66 549.702C1067.42 549.702 1066.18 548.462 1066.18 547.223V542.884C1066.18 541.645 1067.42 540.405 1068.66 540.405C1069.9 540.405 1071.14 541.645 1071.14 542.884V547.223C1071.14 548.462 1069.9 549.702 1068.66 549.702Z" fill="#FEF6EB"/>
<path d="M1074.84 549.702C1073.6 549.702 1072.36 548.462 1072.36 547.223V542.884C1072.36 541.645 1073.6 540.405 1074.84 540.405C1076.08 540.405 1077.32 541.645 1077.32 542.884V547.223C1076.7 548.462 1076.08 549.702 1074.84 549.702Z" fill="#FEF6EB"/>
<path d="M1080.47 549.702C1079.23 549.702 1077.99 548.462 1077.99 547.223V542.884C1077.99 541.645 1079.23 540.405 1080.47 540.405C1081.7 540.405 1082.94 541.645 1082.94 542.884V547.223C1082.94 548.462 1081.7 549.702 1080.47 549.702Z" fill="#FEF6EB"/>
<path d="M1086.7 549.702C1085.46 549.702 1084.22 548.462 1084.22 547.223V542.884C1084.22 541.645 1085.46 540.405 1086.7 540.405C1087.94 540.405 1089.18 541.645 1089.18 542.884V547.223C1089.18 548.462 1087.94 549.702 1086.7 549.702Z" fill="#FEF6EB"/>
<path d="M1092.9 549.702C1091.66 549.702 1090.42 548.462 1090.42 547.223V542.884C1090.42 541.645 1091.66 540.405 1092.9 540.405C1094.14 540.405 1095.38 541.645 1095.38 542.884V547.223C1095.38 548.462 1094.14 549.702 1092.9 549.702Z" fill="#FEF6EB"/>
<path d="M1099.07 549.702C1097.84 549.702 1096.6 548.462 1096.6 547.223V542.884C1096.6 541.645 1097.84 540.405 1099.07 540.405C1100.31 540.405 1101.55 541.645 1101.55 542.884V547.223C1101.55 548.462 1100.31 549.702 1099.07 549.702Z" fill="#FEF6EB"/>
<path d="M1104.63 549.702C1103.39 549.702 1102.15 548.462 1102.15 547.223V542.884C1102.15 541.645 1103.39 540.405 1104.63 540.405C1105.87 540.405 1107.1 541.645 1107.1 542.884V547.223C1107.1 548.462 1106.48 549.702 1104.63 549.702Z" fill="#FEF6EB"/>
<path d="M1110.82 549.702C1109.58 549.702 1108.34 548.462 1108.34 547.223V542.884C1108.34 541.645 1109.58 540.405 1110.82 540.405C1112.06 540.405 1113.3 541.645 1113.3 542.884V547.223C1113.3 548.462 1112.06 549.702 1110.82 549.702Z" fill="#FEF6EB"/>
<path d="M1123.69 546.004H1000.98V671.194H1123.69V546.004Z" fill="#343637"/>
<path d="M696.868 493.138L692.642 485.832H689.842V493.138H687.525V475.269H693.253C694.594 475.269 695.723 475.499 696.639 475.961C697.573 476.422 698.269 477.046 698.727 477.833C699.185 478.619 699.414 479.516 699.414 480.525C699.414 481.755 699.058 482.84 698.345 483.781C697.649 484.721 696.597 485.344 695.188 485.652L699.643 493.138H696.868ZM689.842 483.96H693.253C694.509 483.96 695.451 483.652 696.079 483.037C696.707 482.405 697.021 481.567 697.021 480.525C697.021 479.465 696.707 478.644 696.079 478.063C695.468 477.482 694.526 477.192 693.253 477.192H689.842V483.96Z" fill="white"/>
<path d="M712.637 493.138L705.33 484.986V493.138H703.014V475.269H705.33V483.55L712.662 475.269H715.59L707.545 484.216L715.666 493.138H712.637Z" fill="white"/>
<path d="M717.821 479.268C717.94 477.696 718.542 476.465 719.628 475.576C720.715 474.688 722.123 474.243 723.854 474.243C725.008 474.243 726.001 474.457 726.833 474.884C727.682 475.294 728.318 475.858 728.742 476.576C729.184 477.294 729.404 478.106 729.404 479.012C729.404 480.072 729.099 480.986 728.488 481.755C727.894 482.524 727.113 483.02 726.146 483.242V483.37C727.249 483.644 728.123 484.182 728.768 484.986C729.413 485.789 729.735 486.84 729.735 488.139C729.735 489.113 729.514 489.994 729.073 490.78C728.632 491.549 727.97 492.156 727.088 492.6C726.205 493.044 725.144 493.267 723.905 493.267C722.106 493.267 720.63 492.797 719.476 491.857C718.322 490.899 717.677 489.549 717.541 487.806H719.781C719.9 488.831 720.316 489.669 721.029 490.318C721.741 490.968 722.692 491.293 723.88 491.293C725.068 491.293 725.967 490.985 726.578 490.37C727.206 489.737 727.52 488.925 727.52 487.934C727.52 486.652 727.096 485.729 726.247 485.165C725.399 484.601 724.117 484.319 722.403 484.319H721.818V482.37H722.429C723.99 482.353 725.17 482.097 725.967 481.601C726.765 481.089 727.164 480.302 727.164 479.243C727.164 478.337 726.867 477.61 726.273 477.063C725.696 476.516 724.864 476.243 723.778 476.243C722.726 476.243 721.877 476.516 721.232 477.063C720.587 477.61 720.205 478.345 720.087 479.268H717.821Z" fill="white"/>
<path d="M744.599 476.628H735.663V482.473C736.054 481.926 736.631 481.482 737.395 481.14C738.158 480.781 738.981 480.601 739.864 480.601C741.273 480.601 742.418 480.901 743.301 481.499C744.183 482.08 744.811 482.84 745.185 483.781C745.575 484.704 745.77 485.686 745.77 486.729C745.77 487.96 745.541 489.062 745.083 490.036C744.625 491.01 743.92 491.78 742.97 492.344C742.036 492.908 740.874 493.19 739.482 493.19C737.7 493.19 736.257 492.728 735.154 491.805C734.051 490.882 733.381 489.652 733.143 488.113H735.409C735.629 489.088 736.096 489.848 736.809 490.395C737.522 490.942 738.421 491.216 739.507 491.216C740.848 491.216 741.858 490.814 742.537 490.011C743.216 489.19 743.555 488.113 743.555 486.78C743.555 485.447 743.216 484.421 742.537 483.704C741.858 482.969 740.857 482.601 739.533 482.601C738.633 482.601 737.844 482.823 737.165 483.268C736.503 483.695 736.02 484.285 735.714 485.037H733.525V474.576H744.599V476.628Z" fill="white"/>
<path d="M752.209 483.499C751.259 483.122 750.529 482.576 750.02 481.858C749.511 481.14 749.256 480.268 749.256 479.243C749.256 478.32 749.485 477.491 749.943 476.756C750.402 476.004 751.08 475.414 751.98 474.987C752.896 474.542 754 474.32 755.289 474.32C756.579 474.32 757.674 474.542 758.574 474.987C759.49 475.414 760.177 476.004 760.636 476.756C761.111 477.491 761.348 478.32 761.348 479.243C761.348 480.234 761.085 481.106 760.559 481.858C760.033 482.593 759.312 483.14 758.395 483.499C759.448 483.823 760.279 484.396 760.89 485.216C761.518 486.02 761.832 486.994 761.832 488.139C761.832 489.25 761.561 490.224 761.017 491.062C760.474 491.882 759.702 492.523 758.701 492.985C757.716 493.429 756.579 493.651 755.289 493.651C754 493.651 752.863 493.429 751.878 492.985C750.911 492.523 750.156 491.882 749.612 491.062C749.069 490.224 748.798 489.25 748.798 488.139C748.798 486.994 749.103 486.011 749.714 485.191C750.325 484.37 751.157 483.806 752.209 483.499ZM759.108 479.525C759.108 478.482 758.769 477.679 758.09 477.115C757.411 476.551 756.478 476.269 755.289 476.269C754.118 476.269 753.193 476.551 752.515 477.115C751.836 477.679 751.496 478.491 751.496 479.55C751.496 480.507 751.844 481.277 752.54 481.858C753.253 482.439 754.169 482.729 755.289 482.729C756.427 482.729 757.343 482.439 758.039 481.858C758.752 481.259 759.108 480.482 759.108 479.525ZM755.289 484.524C754.034 484.524 753.007 484.823 752.209 485.421C751.411 486.003 751.013 486.883 751.013 488.062C751.013 489.156 751.394 490.036 752.158 490.703C752.939 491.369 753.983 491.703 755.289 491.703C756.596 491.703 757.632 491.369 758.395 490.703C759.159 490.036 759.541 489.156 759.541 488.062C759.541 486.917 759.151 486.045 758.37 485.447C757.589 484.832 756.562 484.524 755.289 484.524Z" fill="white"/>
<path d="M768.269 483.499C767.319 483.122 766.589 482.576 766.08 481.858C765.571 481.14 765.316 480.268 765.316 479.243C765.316 478.32 765.545 477.491 766.004 476.756C766.462 476.004 767.141 475.414 768.04 474.987C768.957 474.542 770.06 474.32 771.35 474.32C772.64 474.32 773.734 474.542 774.634 474.987C775.55 475.414 776.238 476.004 776.696 476.756C777.171 477.491 777.409 478.32 777.409 479.243C777.409 480.234 777.146 481.106 776.62 481.858C776.093 482.593 775.372 483.14 774.456 483.499C775.508 483.823 776.339 484.396 776.95 485.216C777.578 486.02 777.892 486.994 777.892 488.139C777.892 489.25 777.621 490.224 777.078 491.062C776.535 491.882 775.762 492.523 774.761 492.985C773.777 493.429 772.64 493.651 771.35 493.651C770.06 493.651 768.923 493.429 767.938 492.985C766.971 492.523 766.216 491.882 765.673 491.062C765.13 490.224 764.858 489.25 764.858 488.139C764.858 486.994 765.164 486.011 765.775 485.191C766.385 484.37 767.217 483.806 768.269 483.499ZM775.168 479.525C775.168 478.482 774.829 477.679 774.15 477.115C773.471 476.551 772.538 476.269 771.35 476.269C770.179 476.269 769.254 476.551 768.575 477.115C767.896 477.679 767.557 478.491 767.557 479.55C767.557 480.507 767.904 481.277 768.6 481.858C769.313 482.439 770.23 482.729 771.35 482.729C772.487 482.729 773.403 482.439 774.099 481.858C774.812 481.259 775.168 480.482 775.168 479.525ZM771.35 484.524C770.094 484.524 769.067 484.823 768.269 485.421C767.472 486.003 767.073 486.883 767.073 488.062C767.073 489.156 767.455 490.036 768.218 490.703C768.999 491.369 770.043 491.703 771.35 491.703C772.657 491.703 773.692 491.369 774.456 490.703C775.219 490.036 775.601 489.156 775.601 488.062C775.601 486.917 775.211 486.045 774.43 485.447C773.649 484.832 772.623 484.524 771.35 484.524Z" fill="white"/>
<path d="M786.977 493.318C785.806 493.318 784.754 493.113 783.82 492.703C782.904 492.275 782.183 491.694 781.657 490.959C781.13 490.207 780.859 489.344 780.842 488.37H783.311C783.396 489.207 783.736 489.917 784.33 490.498C784.941 491.062 785.823 491.344 786.977 491.344C788.08 491.344 788.946 491.07 789.574 490.523C790.219 489.959 790.541 489.241 790.541 488.37C790.541 487.686 790.355 487.131 789.981 486.703C789.608 486.276 789.141 485.951 788.581 485.729C788.021 485.507 787.266 485.268 786.315 485.011C785.144 484.704 784.202 484.396 783.49 484.088C782.794 483.781 782.191 483.302 781.682 482.652C781.19 481.986 780.944 481.097 780.944 479.986C780.944 479.012 781.19 478.149 781.682 477.397C782.174 476.645 782.862 476.063 783.744 475.653C784.644 475.243 785.67 475.038 786.824 475.038C788.488 475.038 789.845 475.457 790.898 476.294C791.967 477.132 792.569 478.243 792.705 479.627H790.159C790.075 478.943 789.718 478.345 789.09 477.833C788.462 477.303 787.631 477.038 786.595 477.038C785.628 477.038 784.839 477.294 784.228 477.807C783.617 478.303 783.311 479.003 783.311 479.909C783.311 480.559 783.49 481.089 783.846 481.499C784.219 481.909 784.669 482.225 785.195 482.447C785.738 482.652 786.494 482.892 787.461 483.165C788.632 483.49 789.574 483.815 790.287 484.139C791 484.447 791.611 484.934 792.12 485.601C792.629 486.25 792.883 487.139 792.883 488.267C792.883 489.139 792.654 489.959 792.196 490.728C791.738 491.498 791.059 492.121 790.159 492.6C789.26 493.079 788.199 493.318 786.977 493.318Z" fill="white"/>
<path d="M742.443 404.496L735.293 404.496C735.339 404.321 735.37 404.176 735.416 404.035C736.001 402.207 736.603 400.386 737.168 398.552C737.599 397.154 737.942 395.732 738.135 394.281C738.187 393.895 738.196 393.498 738.17 393.111C738.09 391.989 737.214 391.296 736.095 391.429C735.235 391.533 734.439 391.826 733.714 392.283C733.018 392.724 732.321 393.189 731.899 393.925C731.621 394.411 731.379 394.922 731.182 395.446C730.57 397.074 730.116 398.749 729.729 400.443C729.424 401.778 729.125 403.113 728.814 404.488L721.468 404.488C721.559 404.137 721.675 403.816 721.722 403.486C721.796 402.962 722.073 402.611 722.468 402.267C723.915 400.996 725.218 399.586 726.385 398.051C726.59 397.782 726.791 397.508 726.95 397.19C726.881 397.244 726.801 397.288 726.742 397.351C725.862 398.323 724.874 399.18 723.871 400.018C722.787 400.924 721.67 401.789 720.481 402.555C719.266 403.338 718.006 404.016 716.595 404.385C715.155 404.761 713.687 404.904 712.204 404.911C711.313 404.914 710.422 404.867 709.556 404.643C708.18 404.288 706.95 403.682 706.132 402.457C705.453 401.44 705.144 400.306 705.133 399.089C705.111 396.844 705.803 394.798 706.888 392.867C707.521 391.742 708.285 390.712 709.299 389.902C710.592 388.871 712.047 388.144 713.657 387.734C715.329 387.307 717.037 387.163 718.753 387.133C720.73 387.097 722.707 387.108 724.684 387.098C724.786 387.098 724.888 387.112 725.053 387.123C724.728 388.38 724.41 389.608 724.085 390.87C723.806 390.822 723.566 390.78 723.325 390.739C721.702 390.456 720.071 390.39 718.438 390.61C717.199 390.777 716.001 391.099 714.9 391.716C713.854 392.301 712.962 393.045 712.418 394.145C711.652 395.691 712.053 397.39 713.451 398.397C714.367 399.056 715.406 399.381 716.531 399.431C718 399.497 719.393 399.155 720.727 398.584C721.494 398.255 722.221 397.834 722.976 397.473C723.26 397.338 723.361 397.112 723.427 396.836C723.614 396.05 723.806 395.264 724 394.477C724.462 392.601 724.924 390.726 725.388 388.852C725.959 386.546 726.53 384.241 727.103 381.935C727.125 381.848 727.158 381.764 727.191 381.666L734.527 381.666C734.2 382.833 733.873 383.967 733.566 385.107C733.26 386.249 732.854 387.366 732.602 388.595C732.827 388.547 733.002 388.517 733.172 388.471C734.74 388.047 736.323 387.701 737.94 387.531C739.156 387.402 740.368 387.41 741.573 387.671C743.418 388.069 744.645 389.316 744.965 391.138C745.129 392.073 745.118 393.012 745.022 393.949C744.843 395.723 744.395 397.44 743.924 399.153C743.451 400.877 742.987 402.604 742.518 404.329C742.504 404.379 742.479 404.425 742.449 404.494L742.443 404.496Z" fill="white"/>
<path d="M689.689 381.719C690.024 381.631 696.542 381.6 697.062 381.694C696.271 384.86 695.472 388.021 694.691 391.187C694.719 391.203 694.747 391.22 694.775 391.236C694.909 391.138 695.048 391.044 695.178 390.942C696.793 389.676 698.407 388.407 700.028 387.147C700.153 387.049 700.33 386.969 700.484 386.969C703.128 386.96 705.773 386.964 708.417 386.966C708.48 386.966 708.543 386.977 708.674 386.989C708.222 387.474 707.681 387.762 707.217 388.139C706.752 388.518 706.267 388.878 705.791 389.243C705.303 389.616 704.813 389.987 704.322 390.358C703.833 390.729 703.344 391.102 702.853 391.472C702.362 391.841 701.868 392.208 701.378 392.579C700.898 392.942 700.42 393.307 699.942 393.674C699.456 394.046 698.971 394.419 698.441 394.826C700.948 398.046 703.469 401.226 705.995 404.456C705.887 404.473 705.805 404.497 705.725 404.499C703.224 404.505 700.723 404.506 698.223 404.517C697.966 404.517 697.798 404.439 697.633 404.233C696.125 402.36 694.604 400.498 693.086 398.632C693.047 398.584 693.003 398.536 692.913 398.433C692.846 398.634 692.786 398.785 692.747 398.941C692.294 400.751 691.845 402.561 691.394 404.371C691.388 404.396 691.372 404.418 691.361 404.44C691.056 404.533 684.683 404.554 684.053 404.459C684.061 404.363 684.057 404.263 684.079 404.168C684.161 403.825 684.265 403.487 684.334 403.143C684.392 402.858 684.534 402.654 684.754 402.465C685.841 401.539 686.844 400.527 687.767 399.439C688.258 398.862 688.721 398.261 689.192 397.668C689.298 397.536 689.39 397.396 689.439 397.212C689.206 397.442 688.972 397.668 688.744 397.901C687.607 399.06 686.407 400.148 685.075 401.081C683.66 402.073 682.205 403.001 680.583 403.63C679.435 404.077 678.257 404.437 677.032 404.588C676.49 404.654 675.934 404.631 675.385 404.618C674.035 404.585 672.695 404.45 671.403 404.024C669.732 403.473 668.552 402.408 668.02 400.702C667.836 400.114 667.756 399.504 667.758 398.885C667.764 396.396 668.332 394.04 669.557 391.87C670.623 389.981 672.245 388.73 674.296 388.035C675.514 387.623 676.773 387.386 678.053 387.258C680.728 386.989 683.411 386.999 686.094 387.081C686.5 387.093 686.906 387.106 687.31 387.12C687.333 387.12 687.357 387.14 687.428 387.173C687.17 388.289 686.818 389.388 686.511 390.514C686.306 390.514 686.124 390.533 685.946 390.511C684.216 390.291 682.496 390.371 680.791 390.714C679.237 391.025 677.765 391.56 676.475 392.505C675.592 393.153 674.808 393.903 674.388 394.946C673.858 396.261 674.148 397.538 675.376 398.398C676.151 398.941 677.026 399.181 677.932 399.331C679.66 399.614 681.315 399.321 682.922 398.664C683.822 398.297 684.679 397.854 685.522 397.377C685.729 397.259 685.824 397.126 685.874 396.907C686.03 396.234 686.204 395.564 686.372 394.892C686.829 393.07 687.286 391.247 687.744 389.422C688.187 387.65 688.629 385.878 689.076 384.105C689.276 383.309 689.485 382.515 689.688 381.719L689.689 381.719Z" fill="white"/>
<path d="M760.022 404.635C759.583 406.73 759.152 408.782 758.72 410.841L752.007 410.841C752.627 408.027 753.239 405.247 753.849 402.468C753.832 402.46 753.816 402.452 753.799 402.443C753.503 402.749 753.218 403.067 752.909 403.358C751.982 404.234 750.93 404.907 749.681 405.218C748.716 405.459 747.832 405.3 747.129 404.533C746.745 404.114 746.574 403.594 746.456 403.053C746.275 402.224 746.32 401.389 746.415 400.557C746.654 398.446 747.236 396.413 747.833 394.384C748.313 392.756 748.785 391.127 749.257 389.498C749.299 389.35 749.326 389.199 749.375 388.986C748.411 388.953 747.491 388.966 746.547 388.958L746.547 387.634C749.285 387.53 752.009 387.428 754.793 387.324C754.728 387.599 754.687 387.826 754.623 388.044C753.899 390.484 753.168 392.921 752.448 395.362C751.919 397.154 751.458 398.962 751.105 400.796C750.974 401.475 750.842 402.156 750.883 402.855C750.889 402.973 750.883 403.092 750.908 403.205C750.985 403.554 751.344 403.746 751.663 403.572C751.886 403.449 752.086 403.267 752.257 403.075C752.82 402.446 753.218 401.707 753.597 400.961C753.97 400.228 754.307 399.476 754.661 398.733C754.698 398.652 754.742 398.574 754.799 398.465C754.994 398.508 755.183 398.549 755.371 398.589C756.304 398.795 757.229 399.039 758.168 399.198C759.567 399.437 760.978 399.503 762.387 399.253C763.592 399.039 764.705 398.605 765.644 397.8C766.512 397.056 767.033 396.119 767.201 394.983C767.348 394 767.182 393.091 766.627 392.255C766.338 391.817 765.957 391.489 765.501 391.243C764.632 390.773 763.688 390.583 762.711 390.529C761.118 390.441 759.55 390.639 757.992 390.954C757.517 391.05 757.046 391.158 756.573 391.261C756.488 391.279 756.402 391.287 756.287 391.303C756.4 390.775 756.505 390.281 756.612 389.789C756.76 389.112 756.908 388.436 757.057 387.761C757.079 387.659 757.116 387.56 757.139 387.459C757.18 387.283 757.276 387.206 757.466 387.194C758.537 387.123 759.607 387.038 760.676 386.961C762.046 386.863 763.416 386.739 764.789 386.681C766.792 386.596 768.795 386.601 770.77 387.032C771.786 387.253 772.766 387.577 773.643 388.148C775.117 389.104 775.858 390.482 776.049 392.212C776.304 394.505 775.23 398.349 773.961 400.239C772.799 401.969 771.245 403.15 769.288 403.82C768.019 404.254 766.708 404.468 765.368 404.563C763.732 404.679 762.096 404.633 760.461 404.633C760.332 404.633 760.203 404.633 760.02 404.633L760.022 404.635Z" fill="white"/>
<path d="M647.446 392.632C648.926 391.24 649.625 389.532 649.529 387.508C649.477 386.409 649.083 385.452 648.259 384.691C647.67 384.147 646.968 383.809 646.215 383.568C645.031 383.191 643.807 383.068 642.574 383.065C637.521 383.054 632.469 383.06 627.416 383.06C627.316 383.06 627.215 383.076 627.114 383.084C627.084 383.166 627.056 383.226 627.039 383.287C626.782 384.218 626.523 385.147 626.274 386.082C625.499 388.982 624.732 391.883 623.955 394.782C623.451 396.66 622.934 398.534 622.424 400.411C622.014 401.922 621.607 403.433 621.202 404.946C621.165 405.089 621.155 405.239 621.127 405.418L621.449 405.418C623.753 405.418 626.057 405.418 628.36 405.418C628.805 405.418 629.25 405.41 629.695 405.415C629.909 405.418 630.021 405.344 630.077 405.119C630.324 404.146 630.592 403.177 630.849 402.207C631.324 400.415 631.796 398.624 632.273 396.833C632.29 396.768 632.337 396.713 632.388 396.622C632.447 396.712 632.49 396.762 632.518 396.818C632.962 397.705 633.407 398.592 633.847 399.483C634.772 401.356 635.698 403.229 636.613 405.107C636.728 405.344 636.878 405.423 637.132 405.418C637.826 405.407 638.52 405.421 639.213 405.418C641.896 405.413 644.579 405.407 647.262 405.399C647.372 405.399 647.481 405.38 647.652 405.365C646.702 403.702 645.779 402.098 644.867 400.488C643.955 398.879 643.014 397.286 642.115 395.637C642.723 395.384 643.257 395.17 643.783 394.942C645.123 394.36 646.377 393.643 647.448 392.635L647.446 392.632ZM639.197 392.092C638.409 392.662 637.511 392.975 636.584 393.215C635.568 393.48 634.526 393.585 633.479 393.627C633.391 393.631 633.303 393.612 633.171 393.599C633.196 393.451 633.207 393.324 633.24 393.204C633.695 391.599 634.157 389.994 634.605 388.387C634.657 388.2 634.744 388.121 634.924 388.121C636.127 388.123 637.334 388.073 638.518 388.349C638.966 388.453 639.397 388.601 639.759 388.903C640.012 389.114 640.173 389.381 640.212 389.702C640.333 390.69 640.018 391.498 639.196 392.092L639.197 392.092Z" fill="white"/>
<path d="M669.028 389.977C669.117 389.887 669.199 389.788 669.293 389.683C668.798 388.928 668.175 388.349 667.43 387.891C666.527 387.338 665.547 386.989 664.512 386.784C662.713 386.429 660.903 386.403 659.083 386.614C657.08 386.847 655.202 387.44 653.488 388.516C652.138 389.362 650.995 390.43 650.161 391.787C648.741 394.099 648.145 396.617 648.472 399.319C648.653 400.813 649.333 402.071 650.484 403.062C651.3 403.763 652.244 404.247 653.271 404.537C654.01 404.744 654.774 404.888 655.535 404.982C657.312 405.201 659.088 405.122 660.846 404.785C662.806 404.411 664.589 403.637 666.168 402.412C666.28 402.326 666.384 402.23 666.485 402.143C666.461 402.076 666.456 402.035 666.436 402.003C665.777 400.99 665.58 399.856 665.579 398.677C665.576 397.335 665.816 396.03 666.208 394.75C666.763 392.933 667.675 391.326 669.028 389.977ZM661.961 398.177C661.438 399.226 660.614 399.929 659.459 400.206C659.157 400.278 658.84 400.292 658.623 400.32C658.056 400.291 657.586 400.262 657.144 400.069C656.526 399.798 656.15 399.333 655.971 398.688C655.811 398.112 655.784 397.527 655.837 396.941C655.952 395.712 656.196 394.516 656.753 393.4C657.091 392.723 657.542 392.144 658.187 391.724C658.934 391.236 659.76 391.112 660.628 391.191C660.875 391.213 661.122 391.255 661.361 391.318C661.969 391.477 662.397 391.847 662.63 392.44C662.798 392.87 662.888 393.32 662.889 393.778C662.892 395.31 662.652 396.796 661.96 398.18L661.961 398.177Z" fill="white"/>
<path d="M753.588 384.305C756.513 384.305 758.884 381.935 758.884 379.01C758.884 376.086 756.513 373.715 753.588 373.715C750.664 373.715 748.293 376.086 748.293 379.01C748.293 381.935 750.664 384.305 753.588 384.305Z" fill="white"/>
</svg>
