<svg width="320" height="180" viewBox="0 0 160 90" fill="none" xmlns="http://www.w3.org/2000/svg">
<rect width="160" height="90" rx="10" fill="#F9F9F9"/>
<path d="M35.4694 45.575C34.9121 45.5825 35.5741 45.863 36.3035 45.9752C36.5055 45.8181 36.6888 45.6573 36.8497 45.5039C36.397 45.6161 35.9332 45.6161 35.4694 45.575Z" fill="#D60651"/>
<path d="M38.4692 44.8274C38.8021 44.3674 39.0452 43.8661 39.1313 43.3462C39.0565 43.7165 38.8545 44.0382 38.6674 44.3748C37.6238 45.0332 38.5702 43.9858 38.6674 43.5856C37.5453 44.9995 38.5141 44.4347 38.4729 44.8312" fill="#D60651"/>
<path d="M39.5766 41.9438C39.6439 40.9376 39.3783 41.2556 39.2886 41.6408C39.3933 41.6969 39.4756 42.3515 39.5766 41.9438Z" fill="#D60651"/>
<path d="M33.3486 28.1855C33.6479 28.2379 33.992 28.2791 33.9434 28.3501C34.2725 28.2791 34.3436 28.2117 33.3486 28.1855Z" fill="#D60651"/>
<path d="M33.9424 28.3535L33.7329 28.3984L33.9274 28.3797L33.9424 28.3535Z" fill="#D60651"/>
<path d="M43.246 42.3249C43.2797 43.2301 42.9804 43.6678 42.7148 44.4458L42.2323 44.6852C41.8358 45.452 42.2735 45.1714 41.9892 45.7849C41.372 46.3347 40.1152 47.5018 39.7149 47.6103C39.4194 47.6028 39.9132 47.2624 39.9768 47.1315C39.1501 47.7 39.3147 47.9843 38.0504 48.3284L38.013 48.2462C34.8971 49.7124 30.5693 46.8061 30.6255 42.8448C30.5918 43.0955 30.5319 43.0319 30.4609 43.1329C30.3 41.0943 31.4035 39.0445 33.2625 38.2066C35.0804 37.3051 37.2125 37.6754 38.5142 38.8911C37.7998 37.9522 36.3746 36.961 34.6877 37.0508C33.0344 37.0769 31.4858 38.128 30.9696 39.2689C30.1242 39.8 30.0232 41.3262 29.6567 41.603C29.1592 45.2537 30.5918 46.8285 33.0119 48.6875C33.3934 48.9456 33.1204 48.983 33.169 49.1775C32.3648 48.7998 31.6279 48.2312 31.0219 47.5355C31.3436 48.0068 31.6915 48.4631 32.1404 48.8222C31.381 48.5641 30.3674 46.9856 30.0719 46.922C31.3773 49.2636 35.3759 51.0291 37.4706 50.1501C36.5018 50.1875 35.2712 50.1688 34.1827 49.7686C33.7263 49.5329 33.1054 49.0466 33.2139 48.9569C36.0717 50.0229 39.0192 49.7648 41.4917 47.7823C42.1201 47.2923 42.8083 46.4582 43.0066 46.447C42.7074 46.8958 43.059 46.6639 42.8271 47.0604C43.4517 46.0505 42.554 46.649 43.4742 45.3173L43.8146 45.7849C43.6874 44.947 44.8582 43.9258 44.7385 42.6017C45.0078 42.1977 45.0377 43.0393 44.7534 43.9707C45.1499 42.9346 44.8582 42.77 44.9592 41.9134C45.0676 42.2015 45.2135 42.5044 45.2883 42.8074C45.0302 41.8087 45.5502 41.1242 45.6811 40.5407C45.5539 40.4846 45.2846 40.9821 45.221 39.8C45.2322 39.2876 45.3631 39.5307 45.4155 39.4036C45.3145 39.3437 45.0527 38.9509 44.8918 38.1991C45.0078 38.0196 45.2023 38.6592 45.3631 38.6854C45.2621 38.0869 45.0863 37.6268 45.0789 37.1667C44.615 36.1979 44.9143 37.2976 44.5402 36.7515C44.0465 35.2142 44.9479 36.3962 45.0115 35.6967C45.7596 36.7814 46.186 38.4609 46.3806 39.1529C46.2309 38.3038 45.9915 37.4847 45.696 36.6879C45.9242 36.7852 45.3295 34.9448 45.9915 36.1605C45.2846 33.5646 42.9692 31.1332 40.8408 29.9961C41.0989 30.2355 41.4281 30.5348 41.3121 30.5796C40.2536 29.9512 40.4369 29.8989 40.2872 29.6333C39.4232 29.2817 39.3671 29.6632 38.7985 29.6333C37.1714 28.7692 36.8572 28.8627 35.361 28.3204L35.4283 28.6383C34.351 28.2792 34.1715 28.773 33.0082 28.6383C32.9371 28.5822 33.3822 28.4363 33.7488 28.384C32.7052 28.5224 32.7538 28.1782 31.7364 28.4214C31.987 28.2456 32.2526 28.1296 32.5219 27.98C31.6728 28.0323 30.4945 28.4737 30.8574 28.0698C29.4734 28.6869 27.0084 29.5547 25.6281 30.8527L25.5832 30.5609C24.9511 31.3203 22.8227 32.8314 22.6544 33.8152L22.4861 33.8526C22.1569 34.4099 21.9437 35.0421 21.6819 35.6144C21.2517 36.3475 21.0497 35.8987 21.1133 36.0109C20.2679 37.7278 19.8453 39.1716 19.4824 40.3574C19.7405 40.7427 19.4899 42.6877 19.5872 44.2438C19.1607 51.9268 24.981 59.3892 31.3399 61.1098C32.2713 61.4427 33.659 61.4315 34.8373 61.4652C33.4458 61.0687 33.2663 61.2557 31.9122 60.7807C30.9359 60.3206 30.719 59.7932 30.027 59.1947L30.3 59.6772C28.9422 59.1947 29.5108 59.0825 28.4073 58.7309L28.6991 58.3493C28.2577 58.3157 27.532 57.6087 27.3338 57.2159L26.8513 57.2346C26.2715 56.5202 25.9648 56.0078 25.9872 55.6075L25.8301 55.8843C25.6543 55.5813 23.7017 53.2061 24.7154 53.7597C24.5284 53.5876 24.2778 53.4792 24.0047 52.9854L24.2104 52.7498C23.7242 52.1213 23.3127 51.3171 23.3464 51.0516C23.6045 51.4032 23.7878 51.4668 23.9673 51.5303C22.7367 48.4781 22.6656 51.362 21.7342 48.422L21.9325 48.407C21.7828 48.1788 21.6893 47.932 21.5696 47.6888L21.6557 46.836C20.7692 45.8111 21.4088 42.4783 21.536 40.6529C21.6257 39.9085 22.2766 39.1193 22.7703 37.8774L22.4674 37.825C23.0434 36.8188 25.759 33.7853 27.0196 33.9424C27.6293 33.1756 26.8999 33.9424 26.7802 33.7479C28.1193 32.3639 28.5382 32.7679 29.4434 32.521C30.416 31.9412 28.6056 32.7454 29.0694 32.3003C30.7526 31.8701 30.2626 31.324 32.4583 31.1033C32.6902 31.2342 31.9197 31.3053 31.7289 31.4774C33.1316 30.7891 36.1689 30.9462 38.1439 31.8589C40.4331 32.9287 43.0029 36.0894 43.1076 39.0669L43.2235 39.0968C43.1637 40.2788 43.4031 41.6479 42.9879 42.9047L43.2684 42.3099" fill="#D60651"/>
<path d="M29.3681 46.3379L29.2896 46.7306C29.6561 47.2281 29.9479 47.7705 30.4192 48.1595C30.0825 47.5012 29.8319 47.2281 29.3681 46.3379Z" fill="#D60651"/>
<path d="M30.236 46.3044C30.0415 46.0875 29.9255 45.8294 29.7983 45.5713C29.9218 46.0239 30.1761 46.4129 30.408 46.8094L30.236 46.3007" fill="#D60651"/>
<path d="M45.602 42.9644L45.5197 43.1701C45.3701 44.2399 45.0447 45.2984 44.5435 46.2785C45.0933 45.2423 45.4487 44.1127 45.5983 42.9644" fill="#D60651"/>
<path d="M33.4603 27.9203C33.8381 27.7819 34.3879 27.8455 34.7919 27.752C34.2682 27.7968 33.7483 27.823 33.2358 27.8866L33.464 27.9165" fill="#D60651"/>
<path d="M20.1928 34.9746C20.2788 35.7788 19.5868 36.093 20.3462 35.5619C20.7539 34.6454 20.189 35.3075 20.1928 34.9746Z" fill="#D60651"/>
<path d="M19.2987 38.704C19.4745 38.1654 19.5044 37.8437 19.5718 37.5332C19.0892 38.1504 19.3473 38.285 19.2987 38.704Z" fill="#D60651"/>
<path d="M62.4111 44.0098C62.4111 44.0098 62.3699 50.2023 62.2957 51.8019C62.2215 53.0965 62.106 55.8917 59.352 55.8917C56.598 55.8917 55.8394 52.643 55.6085 51.233C55.3447 49.6663 55.3447 48.3635 55.3447 47.7946C55.3447 45.964 55.4601 40.8353 59.7808 40.8353C61.0836 40.8353 61.8092 41.2146 62.3781 41.5197L62.4111 44.0016V44.0098ZM51.329 48.5202C51.329 59.2972 57.0597 59.2972 57.9008 59.2972C60.2673 59.2972 61.801 57.9944 62.4441 55.7433L62.5183 59.1405C63.2439 59.0993 63.9696 59.0251 65.1569 59.0251C65.5774 59.0251 65.9238 59.0251 66.2288 59.0663C66.5339 59.0663 66.839 59.0993 67.1853 59.1405C66.5752 57.9202 66.1134 55.1661 66.1134 49.2046C66.1134 43.243 66.1134 33.5791 66.6081 30.5942C65.2311 31.2456 64.052 31.6662 61.4464 31.897C62.4771 33.002 62.4771 33.5791 62.4771 38.6172C61.7515 38.3863 60.8362 38.1225 59.2696 38.1225C52.434 38.1225 51.3208 44.084 51.3208 48.5202" fill="black"/>
<path d="M72.0503 46.5653C72.0916 43.3908 72.7347 40.5625 75.4475 40.5625C78.4242 40.5625 78.6551 43.8443 78.5808 46.5653H72.0503ZM82.3656 46.9529C82.3656 42.4838 81.4915 38.0889 75.8351 38.0889C68.043 38.0889 68.043 46.7303 68.043 48.5608C68.043 56.3199 71.5226 59.3708 77.3687 59.3708C79.9661 59.3708 81.2277 58.9915 81.9121 58.7936C81.8708 57.4165 82.0687 56.5425 82.2996 55.3552C81.4998 55.8499 80.4608 56.5013 78.1686 56.5013C72.207 56.5013 72.1328 51.0757 72.1328 49.2039H82.2996L82.3738 46.9529" fill="black"/>
<path d="M94.8 48.5939C94.8 52.1477 94.1486 56.9219 89.7207 56.9219C89.1105 56.9219 88.3437 56.8065 87.8489 56.6911C87.7747 55.314 87.7747 52.9476 87.7747 50.1935C87.7747 46.9035 88.121 45.1884 88.3849 44.3474C89.1847 41.6346 90.9823 41.6016 91.3286 41.6016C94.231 41.6016 94.8082 45.6172 94.8082 48.5939H94.8ZM83.8333 52.7579C83.8333 55.5861 83.8333 57.194 83.3716 58.4144C84.9382 59.0246 86.8842 59.3709 89.2177 59.3709C90.7102 59.3709 95.0226 59.3709 97.3561 54.5967C98.461 52.3786 98.8486 49.4019 98.8486 47.1427C98.8486 45.7656 98.6919 42.7478 97.587 40.8348C96.5151 39.0372 94.8 38.122 92.9695 38.122C89.3002 38.122 88.2282 41.1811 87.6593 42.7478C87.6593 40.8018 87.6923 33.9992 88.0056 30.5195C85.5237 31.6657 83.99 31.8553 82.3491 32.012C83.8416 32.6222 83.8416 35.1453 83.8416 43.3579V52.7579" fill="black"/>
<path d="M106.196 59.1318C105.429 59.0163 104.893 58.9421 103.788 58.9421C102.568 58.9421 101.727 59.0163 100.844 59.1318C101.224 58.4062 101.38 58.0598 101.496 55.5779C101.652 52.1807 101.685 43.0858 101.422 41.1729C101.232 39.7216 100.886 39.4908 100.35 39.1115C103.483 38.8064 104.365 38.5755 105.816 37.8911C105.511 39.5732 105.47 40.4143 105.47 42.9704C105.396 56.1551 105.355 57.5651 106.196 59.1318Z" fill="black"/>
<path d="M118.423 48.3218C118.349 50.7295 118.307 52.4116 117.656 53.7474C116.856 55.4708 115.52 55.9655 114.523 55.9655C112.23 55.9655 111.736 54.0525 111.736 52.1808C111.736 48.5939 114.943 48.3218 116.394 48.3218H118.423ZM107.918 53.0218C107.918 55.4295 108.644 57.8372 110.787 58.8679C111.744 59.2885 112.7 59.2885 113.006 59.2885C116.518 59.2885 117.705 56.6911 118.431 55.0832C118.39 56.7653 118.431 57.796 118.547 59.1318C119.231 59.0906 119.924 59.0164 121.07 59.0164C121.721 59.0164 122.331 59.0906 122.983 59.1318C122.562 58.4804 122.331 58.1011 122.216 56.6086C122.142 55.1574 122.142 53.7062 122.142 51.6778L122.183 43.8857C122.183 40.9832 121.416 38.1138 115.685 38.1138C111.901 38.1138 109.691 39.2599 108.578 39.8371C109.039 40.6781 109.419 41.4038 109.765 43.0446C111.257 41.7418 113.203 41.0574 115.191 41.0574C118.365 41.0574 118.365 43.1601 118.365 46.1367C117.64 46.1038 117.029 46.0213 115.99 46.0213C111.134 46.0213 107.926 47.893 107.926 53.0136" fill="black"/>
<path d="M140.431 55.3551C140.472 56.6579 140.472 58.0266 141 59.1398C140.159 59.0656 139.664 58.9501 138.097 58.9501C137.182 58.9501 136.687 59.0244 135.954 59.1398C136.102 58.6451 136.184 58.4554 136.259 57.804C136.374 56.93 136.448 53.9863 136.448 52.9556V48.8328C136.448 47.0353 136.448 44.4379 136.333 43.5226C136.259 42.8712 136.069 41.1149 133.851 41.1149C131.633 41.1149 130.948 42.7146 130.676 44.0174C130.371 45.3532 130.371 46.8044 130.371 52.4609C130.404 57.3505 130.404 57.8123 130.792 59.148C130.14 59.0738 129.341 58.9996 128.194 58.9996C127.279 58.9996 126.669 59.0326 125.902 59.148C126.166 58.5379 126.323 58.2328 126.397 56.0889C126.471 53.9863 126.628 43.6711 126.281 41.2221C126.092 39.7297 125.713 39.3916 125.292 39.004C128.384 38.8474 129.382 38.3526 130.338 37.8579V41.9065C130.8 40.7191 131.748 38.0805 135.574 38.0805C140.348 38.0805 140.39 41.5602 140.431 43.8525V55.3551Z" fill="black"/>
<path d="M106.517 32.4817L103.35 35.648L100.184 32.4817L103.35 29.3154L106.517 32.4817Z" fill="#D60651"/>
</svg>
