<svg width="1580" height="1000" viewBox="0 0 1580 1000" fill="none" xmlns="http://www.w3.org/2000/svg">
<path d="M1338.89 150H250V850H839.556V797.111H839.598C839.985 793.611 842.952 790.889 846.556 790.889C850.159 790.889 853.126 793.611 853.513 797.111H853.556V850H1338.89V150Z" fill="#29282E"/>
<path fill-rule="evenodd" clip-rule="evenodd" d="M1292.19 784.673C1309.37 784.673 1323.3 770.743 1323.3 753.562C1323.3 736.381 1309.37 722.451 1292.19 722.451C1275 722.451 1261.07 736.381 1261.07 753.562C1261.07 770.743 1275 784.673 1292.19 784.673ZM1292.19 773.785C1303.35 773.785 1312.41 764.731 1312.41 753.562C1312.41 742.394 1303.35 733.34 1292.19 733.34C1281.02 733.34 1271.96 742.394 1271.96 753.562C1271.96 764.731 1281.02 773.785 1292.19 773.785Z" fill="#675840"/>
<path fill-rule="evenodd" clip-rule="evenodd" d="M295.095 223.13C312.278 223.13 326.207 209.2 326.207 192.019C326.207 174.838 312.278 160.908 295.095 160.908C277.913 160.908 263.984 174.838 263.984 192.019C263.984 209.2 277.913 223.13 295.095 223.13ZM295.095 212.241C306.264 212.241 315.318 203.187 315.318 192.019C315.318 180.85 306.264 171.797 295.095 171.797C283.927 171.797 274.873 180.85 274.873 192.019C274.873 203.187 283.927 212.241 295.095 212.241Z" fill="#FBDCA9"/>
<path fill-rule="evenodd" clip-rule="evenodd" d="M1292.28 223.13C1309.47 223.13 1323.39 209.2 1323.39 192.019C1323.39 174.838 1309.47 160.908 1292.28 160.908C1275.1 160.908 1261.17 174.838 1261.17 192.019C1261.17 209.2 1275.1 223.13 1292.28 223.13ZM1292.28 212.241C1303.45 212.241 1312.51 203.187 1312.51 192.019C1312.51 180.85 1303.45 171.797 1292.28 171.797C1281.11 171.797 1272.06 180.85 1272.06 192.019C1272.06 203.187 1281.11 212.241 1292.28 212.241Z" fill="#FBDCA9"/>
<path fill-rule="evenodd" clip-rule="evenodd" d="M1292.28 783.13C1309.47 783.13 1323.39 769.2 1323.39 752.019C1323.39 734.838 1309.47 720.908 1292.28 720.908C1275.1 720.908 1261.17 734.838 1261.17 752.019C1261.17 769.2 1275.1 783.13 1292.28 783.13ZM1292.28 772.241C1303.45 772.241 1312.51 763.187 1312.51 752.019C1312.51 740.85 1303.45 731.797 1292.28 731.797C1281.11 731.797 1272.06 740.85 1272.06 752.019C1272.06 763.187 1281.11 772.241 1292.28 772.241Z" fill="#FBDCA9"/>
<path fill-rule="evenodd" clip-rule="evenodd" d="M295.095 783.13C312.278 783.13 326.207 769.2 326.207 752.019C326.207 734.838 312.278 720.908 295.095 720.908C277.913 720.908 263.984 734.838 263.984 752.019C263.984 769.2 277.913 783.13 295.095 783.13ZM295.095 772.241C306.264 772.241 315.318 763.187 315.318 752.019C315.318 740.85 306.264 731.797 295.095 731.797C283.927 731.797 274.873 740.85 274.873 752.019C274.873 763.187 283.927 772.241 295.095 772.241Z" fill="#FBDCA9"/>
<rect x="329.258" y="389.561" width="149.333" height="231.778" fill="#3A3B3C"/>
<rect x="536.25" y="199.766" width="236.444" height="155.556" fill="#3A3B3C"/>
<rect x="512.891" y="389.561" width="259.778" height="266" fill="#3A3B3C"/>
<rect x="581.348" y="439.326" width="144.667" height="166.444" fill="#9BA3B4"/>
<rect x="828.652" y="548.223" width="200.667" height="172.667" fill="#3A3B3C"/>
<path d="M1217.56 300.945L1217.56 296.21L1203.64 296.21L1203.64 300.945L1217.56 300.945Z" fill="#E4E2DF"/>
<path d="M1217.56 308.992L1217.56 304.257L1203.64 304.257L1203.64 308.992L1217.56 308.992Z" fill="#E4E2DF"/>
<path d="M1217.56 316.96L1217.56 312.226L1203.64 312.226L1203.64 316.96L1217.56 316.96Z" fill="#E4E2DF"/>
<path d="M1217.56 324.939L1217.56 320.205L1203.64 320.205L1203.64 324.939L1217.56 324.939Z" fill="#E4E2DF"/>
<path d="M1217.56 332.986L1217.56 328.252L1203.64 328.252L1203.64 332.986L1217.56 332.986Z" fill="#E4E2DF"/>
<path d="M1217.56 340.994L1217.56 336.259L1203.64 336.259L1203.64 340.994L1217.56 340.994Z" fill="#E4E2DF"/>
<path d="M1217.56 348.61L1217.56 343.876L1203.64 343.876L1203.64 348.61L1217.56 348.61Z" fill="#E4E2DF"/>
<path d="M1217.56 356.658L1217.56 351.923L1203.64 351.923L1203.64 356.658L1217.56 356.658Z" fill="#E4E2DF"/>
<path d="M1217.56 364.626L1217.56 359.892L1203.64 359.892L1203.64 364.626L1217.56 364.626Z" fill="#E4E2DF"/>
<path d="M1217.56 372.605L1217.56 367.871L1203.64 367.871L1203.64 372.605L1217.56 372.605Z" fill="#E4E2DF"/>
<path d="M1217.56 380.651L1217.56 375.917L1203.64 375.917L1203.64 380.651L1217.56 380.651Z" fill="#E4E2DF"/>
<path d="M1217.56 388.659L1217.56 383.925L1203.64 383.925L1203.64 388.659L1217.56 388.659Z" fill="#E4E2DF"/>
<path d="M1201.55 404.61L1206.29 404.61L1206.29 393.202L1201.55 393.202L1201.55 404.61Z" fill="#E4E2DF"/>
<path d="M1193.45 404.61L1198.18 404.61L1198.18 393.202L1193.45 393.202L1193.45 404.61Z" fill="#E4E2DF"/>
<path d="M1185.54 404.61L1190.27 404.61L1190.27 393.202L1185.54 393.202L1185.54 404.61Z" fill="#E4E2DF"/>
<path d="M1177.55 404.61L1182.29 404.61L1182.29 393.202L1177.55 393.202L1177.55 404.61Z" fill="#E4E2DF"/>
<path d="M1169.52 404.61L1174.26 404.61L1174.26 393.202L1169.52 393.202L1169.52 404.61Z" fill="#E4E2DF"/>
<path d="M1161.48 404.61L1166.21 404.61L1166.21 393.202L1161.48 393.202L1161.48 404.61Z" fill="#E4E2DF"/>
<path d="M1153.92 404.61L1158.65 404.61L1158.65 393.202L1153.92 393.202L1153.92 404.61Z" fill="#E4E2DF"/>
<path d="M1145.81 404.61L1150.55 404.61L1150.55 393.202L1145.81 393.202L1145.81 404.61Z" fill="#E4E2DF"/>
<path d="M1137.9 404.61L1142.64 404.61L1142.64 393.202L1137.9 393.202L1137.9 404.61Z" fill="#E4E2DF"/>
<path d="M1129.91 404.61L1134.65 404.61L1134.65 393.202L1129.91 393.202L1129.91 404.61Z" fill="#E4E2DF"/>
<path d="M1121.89 404.61L1126.62 404.61L1126.62 393.202L1121.89 393.202L1121.89 404.61Z" fill="#E4E2DF"/>
<path d="M1113.84 404.61L1118.57 404.61L1118.57 393.202L1113.84 393.202L1113.84 404.61Z" fill="#E4E2DF"/>
<path d="M1109.28 300.945L1109.28 296.21L1097.87 296.21L1097.87 300.945L1109.28 300.945Z" fill="#E4E2DF"/>
<path d="M1109.28 308.992L1109.28 304.257L1097.87 304.257L1097.87 308.992L1109.28 308.992Z" fill="#E4E2DF"/>
<path d="M1109.28 316.96L1109.28 312.226L1097.87 312.226L1097.87 316.96L1109.28 316.96Z" fill="#E4E2DF"/>
<path d="M1109.28 324.939L1109.28 320.205L1097.87 320.205L1097.87 324.939L1109.28 324.939Z" fill="#E4E2DF"/>
<path d="M1109.28 332.986L1109.28 328.252L1097.87 328.252L1097.87 332.986L1109.28 332.986Z" fill="#E4E2DF"/>
<path d="M1109.28 340.994L1109.28 336.259L1097.87 336.259L1097.87 340.994L1109.28 340.994Z" fill="#E4E2DF"/>
<path d="M1109.28 348.611L1109.28 343.876L1097.87 343.876L1097.87 348.611L1109.28 348.611Z" fill="#E4E2DF"/>
<path d="M1109.28 356.658L1109.28 351.924L1097.87 351.924L1097.87 356.658L1109.28 356.658Z" fill="#E4E2DF"/>
<path d="M1109.28 364.626L1109.28 359.892L1097.87 359.892L1097.87 364.626L1109.28 364.626Z" fill="#E4E2DF"/>
<path d="M1109.28 372.605L1109.28 367.871L1097.87 367.871L1097.87 372.605L1109.28 372.605Z" fill="#E4E2DF"/>
<path d="M1109.28 380.651L1109.28 375.917L1097.87 375.917L1097.87 380.651L1109.28 380.651Z" fill="#E4E2DF"/>
<path d="M1109.28 388.66L1109.28 383.925L1097.87 383.925L1097.87 388.66L1109.28 388.66Z" fill="#E4E2DF"/>
<path d="M1201.55 290.518L1206.29 290.518L1206.29 279.11L1201.55 279.11L1201.55 290.518Z" fill="#E4E2DF"/>
<path d="M1193.45 290.518L1198.18 290.518L1198.18 279.11L1193.45 279.11L1193.45 290.518Z" fill="#E4E2DF"/>
<path d="M1185.54 290.518L1190.27 290.518L1190.27 279.11L1185.54 279.11L1185.54 290.518Z" fill="#E4E2DF"/>
<path d="M1177.55 290.518L1182.29 290.518L1182.29 279.11L1177.55 279.11L1177.55 290.518Z" fill="#E4E2DF"/>
<path d="M1169.52 290.518L1174.26 290.518L1174.26 279.11L1169.52 279.11L1169.52 290.518Z" fill="#E4E2DF"/>
<path d="M1161.48 290.518L1166.21 290.518L1166.21 279.11L1161.48 279.11L1161.48 290.518Z" fill="#E4E2DF"/>
<path d="M1153.92 290.518L1158.65 290.518L1158.65 279.11L1153.92 279.11L1153.92 290.518Z" fill="#E4E2DF"/>
<path d="M1145.81 290.518L1150.55 290.518L1150.55 279.11L1145.81 279.11L1145.81 290.518Z" fill="#E4E2DF"/>
<path d="M1137.9 290.518L1142.64 290.518L1142.64 279.11L1137.9 279.11L1137.9 290.518Z" fill="#E4E2DF"/>
<path d="M1129.91 290.518L1134.65 290.518L1134.65 279.11L1129.91 279.11L1129.91 290.518Z" fill="#E4E2DF"/>
<path d="M1121.89 290.518L1126.62 290.518L1126.62 279.11L1121.89 279.11L1121.89 290.518Z" fill="#E4E2DF"/>
<path d="M1113.84 290.518L1118.57 290.518L1118.57 279.11L1113.84 279.11L1113.84 290.518Z" fill="#E4E2DF"/>
<rect x="1211.84" y="284.814" width="114.08" height="108.376" transform="rotate(90 1211.84 284.814)" fill="#2E2E31"/>
<path d="M1163.93 541.973H1159.71V549.153H1163.93V541.973Z" fill="#D5CAC2"/>
<path d="M1171.53 541.973H1167.3V549.153H1171.53V541.973Z" fill="#D5CAC2"/>
<path d="M1179.11 541.973H1174.88V549.153H1179.11V541.973Z" fill="#D5CAC2"/>
<path d="M1186.65 541.973H1182.42V549.153H1186.65V541.973Z" fill="#D5CAC2"/>
<path d="M1194.24 541.973H1190.02V549.153H1194.24V541.973Z" fill="#D5CAC2"/>
<path d="M1201.76 541.973H1197.54V549.153H1201.76V541.973Z" fill="#D5CAC2"/>
<path d="M1209.28 541.973H1205.06V549.153H1209.28V541.973Z" fill="#D5CAC2"/>
<path d="M1216.94 541.973H1212.71V549.153H1216.94V541.973Z" fill="#D5CAC2"/>
<path d="M1163.93 621.885H1159.71V629.065H1163.93V621.885Z" fill="#D5CAC2"/>
<path d="M1171.53 621.885H1167.3V629.065H1171.53V621.885Z" fill="#D5CAC2"/>
<path d="M1179.11 621.885H1174.88V629.065H1179.11V621.885Z" fill="#D5CAC2"/>
<path d="M1186.65 621.885H1182.42V629.065H1186.65V621.885Z" fill="#D5CAC2"/>
<path d="M1194.24 621.885H1190.02V629.065H1194.24V621.885Z" fill="#D5CAC2"/>
<path d="M1201.76 621.885H1197.54V629.065H1201.76V621.885Z" fill="#D5CAC2"/>
<path d="M1209.28 621.885H1205.06V629.065H1209.28V621.885Z" fill="#D5CAC2"/>
<path d="M1216.94 621.914H1212.71V629.093H1216.94V621.914Z" fill="#D5CAC2"/>
<path d="M1232.71 560.933V556.709H1225.53V560.933H1232.71Z" fill="#D5CAC2"/>
<path d="M1232.71 568.492V564.268H1225.53V568.492H1232.71Z" fill="#D5CAC2"/>
<path d="M1232.71 576.049V571.826H1225.53V576.049H1232.71Z" fill="#D5CAC2"/>
<path d="M1232.71 583.647V579.423H1225.53V583.647H1232.71Z" fill="#D5CAC2"/>
<path d="M1232.71 591.206V586.982H1225.53V591.206H1232.71Z" fill="#D5CAC2"/>
<path d="M1232.71 598.794V594.57H1225.53V598.794H1232.71Z" fill="#D5CAC2"/>
<path d="M1232.71 606.323V602.099H1225.53V606.323H1232.71Z" fill="#D5CAC2"/>
<path d="M1232.71 613.95V609.727H1225.53V613.95H1232.71Z" fill="#D5CAC2"/>
<path d="M1151.6 561.099V556.875H1144.42V561.099H1151.6Z" fill="#D5CAC2"/>
<path d="M1151.6 568.658V564.435H1144.42V568.658H1151.6Z" fill="#D5CAC2"/>
<path d="M1151.6 576.216V571.992H1144.42V576.216H1151.6Z" fill="#D5CAC2"/>
<path d="M1151.6 583.813V579.59H1144.42V583.813H1151.6Z" fill="#D5CAC2"/>
<path d="M1151.6 591.372V587.149H1144.42V591.372H1151.6Z" fill="#D5CAC2"/>
<path d="M1151.6 598.931V594.708H1144.42V598.931H1151.6Z" fill="#D5CAC2"/>
<path d="M1151.6 606.489V602.266H1144.42V606.489H1151.6Z" fill="#D5CAC2"/>
<path d="M1151.6 614.116V609.893H1144.42V614.116H1151.6Z" fill="#D5CAC2"/>
<path fill-rule="evenodd" clip-rule="evenodd" d="M1225.49 623.175H1152.26C1151.79 623.175 1151.37 622.753 1151.37 622.278V549.16C1151.37 548.685 1151.79 548.262 1152.26 548.262H1225.49C1225.96 548.262 1226.39 548.685 1226.39 549.16V622.278C1226.39 622.753 1226.02 623.175 1225.49 623.175Z" fill="#404041"/>
<path d="M276.209 809.556V849.812H270.365V809.556C270.365 807.943 271.673 806.634 273.287 806.634C274.901 806.634 276.209 807.943 276.209 809.556Z" fill="#FFDC9D" stroke="#BF5C2C" stroke-width="0.377778"/>
<path d="M284.002 809.556V849.812H278.158V809.556C278.158 807.943 279.466 806.634 281.08 806.634C282.694 806.634 284.002 807.943 284.002 809.556Z" fill="#FFDC9D" stroke="#BF5C2C" stroke-width="0.377778"/>
<path d="M291.717 809.556V849.812H285.872V809.556C285.872 807.943 287.181 806.634 288.795 806.634C290.409 806.634 291.717 807.943 291.717 809.556Z" fill="#FFDC9D" stroke="#BF5C2C" stroke-width="0.377778"/>
<path d="M299.568 809.556V849.812H293.724V809.556C293.724 807.943 295.032 806.634 296.646 806.634C298.26 806.634 299.568 807.943 299.568 809.556Z" fill="#FFDC9D" stroke="#BF5C2C" stroke-width="0.377778"/>
<path d="M307.283 809.556V849.812H301.439V809.556C301.439 807.943 302.747 806.634 304.361 806.634C305.975 806.634 307.283 807.943 307.283 809.556Z" fill="#FFDC9D" stroke="#BF5C2C" stroke-width="0.377778"/>
<path d="M315.135 809.556V849.812H309.29V809.556C309.29 807.943 310.599 806.634 312.213 806.634C313.827 806.634 315.135 807.943 315.135 809.556Z" fill="#FFDC9D" stroke="#BF5C2C" stroke-width="0.377778"/>
<path d="M322.85 809.556V849.812H317.005V809.556C317.005 807.943 318.314 806.634 319.928 806.634C321.541 806.634 322.85 807.943 322.85 809.556Z" fill="#FFDC9D" stroke="#BF5C2C" stroke-width="0.377778"/>
<path d="M330.643 809.556V849.812H324.798V809.556C324.798 807.943 326.107 806.634 327.72 806.634C329.334 806.634 330.643 807.943 330.643 809.556Z" fill="#FFDC9D" stroke="#BF5C2C" stroke-width="0.377778"/>
<path d="M338.494 809.556V849.812H332.65V809.556C332.65 807.943 333.958 806.634 335.572 806.634C337.186 806.634 338.494 807.943 338.494 809.556Z" fill="#FFDC9D" stroke="#BF5C2C" stroke-width="0.377778"/>
<path d="M346.151 809.556V849.812H340.306V809.556C340.306 807.943 341.614 806.634 343.228 806.634C344.842 806.634 346.151 807.943 346.151 809.556Z" fill="#FFDC9D" stroke="#BF5C2C" stroke-width="0.377778"/>
<path d="M354.002 809.556V849.812H348.158V809.556C348.158 807.943 349.466 806.634 351.08 806.634C352.694 806.634 354.002 807.943 354.002 809.556Z" fill="#FFDC9D" stroke="#BF5C2C" stroke-width="0.377778"/>
<path d="M361.776 809.556V849.812H355.931V809.556C355.931 807.943 357.239 806.634 358.853 806.634C360.467 806.634 361.776 807.943 361.776 809.556Z" fill="#FFDC9D" stroke="#BF5C2C" stroke-width="0.377778"/>
<path d="M369.568 809.556V849.812H363.724V809.556C363.724 807.943 365.032 806.634 366.646 806.634C368.26 806.634 369.568 807.943 369.568 809.556Z" fill="#FFDC9D" stroke="#BF5C2C" stroke-width="0.377778"/>
<path d="M377.281 809.556V849.812H371.437V809.556C371.437 807.943 372.745 806.634 374.359 806.634C375.973 806.634 377.281 807.943 377.281 809.556Z" fill="#FFDC9D" stroke="#BF5C2C" stroke-width="0.377778"/>
<path d="M385.076 809.556V849.812H379.232V809.556C379.232 807.943 380.54 806.634 382.154 806.634C383.768 806.634 385.076 807.943 385.076 809.556Z" fill="#FFDC9D" stroke="#BF5C2C" stroke-width="0.377778"/>
<path d="M392.928 809.556V849.812H387.083V809.556C387.083 807.943 388.392 806.634 390.006 806.634C391.62 806.634 392.928 807.943 392.928 809.556Z" fill="#FFDC9D" stroke="#BF5C2C" stroke-width="0.377778"/>
<path d="M400.643 809.556V849.812H394.798V809.556C394.798 807.943 396.107 806.634 397.72 806.634C399.334 806.634 400.643 807.943 400.643 809.556Z" fill="#FFDC9D" stroke="#BF5C2C" stroke-width="0.377778"/>
<path d="M408.416 809.556V849.812H402.572V809.556C402.572 807.943 403.88 806.634 405.494 806.634C407.108 806.634 408.416 807.943 408.416 809.556Z" fill="#FFDC9D" stroke="#BF5C2C" stroke-width="0.377778"/>
<path d="M416.209 809.556V849.812H410.365V809.556C410.365 807.943 411.673 806.634 413.287 806.634C414.901 806.634 416.209 807.943 416.209 809.556Z" fill="#FFDC9D" stroke="#BF5C2C" stroke-width="0.377778"/>
<path d="M424.002 809.556V849.812H418.158V809.556C418.158 807.943 419.466 806.634 421.08 806.634C422.694 806.634 424.002 807.943 424.002 809.556Z" fill="#FFDC9D" stroke="#BF5C2C" stroke-width="0.377778"/>
<path d="M431.717 809.556V849.812H425.872V809.556C425.872 807.943 427.181 806.634 428.795 806.634C430.409 806.634 431.717 807.943 431.717 809.556Z" fill="#FFDC9D" stroke="#BF5C2C" stroke-width="0.377778"/>
<path d="M439.568 809.556V849.812H433.724V809.556C433.724 807.943 435.032 806.634 436.646 806.634C438.26 806.634 439.568 807.943 439.568 809.556Z" fill="#FFDC9D" stroke="#BF5C2C" stroke-width="0.377778"/>
<path d="M447.342 809.556V849.812H441.497V809.556C441.497 807.943 442.806 806.634 444.42 806.634C446.034 806.634 447.342 807.943 447.342 809.556Z" fill="#FFDC9D" stroke="#BF5C2C" stroke-width="0.377778"/>
<path d="M455.076 809.556V849.812H449.232V809.556C449.232 807.943 450.54 806.634 452.154 806.634C453.768 806.634 455.076 807.943 455.076 809.556Z" fill="#FFDC9D" stroke="#BF5C2C" stroke-width="0.377778"/>
<path d="M462.85 809.556V849.812H457.005V809.556C457.005 807.943 458.314 806.634 459.928 806.634C461.541 806.634 462.85 807.943 462.85 809.556Z" fill="#FFDC9D" stroke="#BF5C2C" stroke-width="0.377778"/>
<path d="M470.643 809.556V849.812H464.798V809.556C464.798 807.943 466.107 806.634 467.72 806.634C469.334 806.634 470.643 807.943 470.643 809.556Z" fill="#FFDC9D" stroke="#BF5C2C" stroke-width="0.377778"/>
<path d="M478.494 809.556V849.812H472.65V809.556C472.65 807.943 473.958 806.634 475.572 806.634C477.186 806.634 478.494 807.943 478.494 809.556Z" fill="#FFDC9D" stroke="#BF5C2C" stroke-width="0.377778"/>
<path d="M486.151 809.556V849.812H480.306V809.556C480.306 807.943 481.614 806.634 483.228 806.634C484.842 806.634 486.151 807.943 486.151 809.556Z" fill="#FFDC9D" stroke="#BF5C2C" stroke-width="0.377778"/>
<path d="M494.002 809.556V849.812H488.158V809.556C488.158 807.943 489.466 806.634 491.08 806.634C492.694 806.634 494.002 807.943 494.002 809.556Z" fill="#FFDC9D" stroke="#BF5C2C" stroke-width="0.377778"/>
<path d="M501.776 809.556V849.812H495.931V809.556C495.931 807.943 497.239 806.634 498.853 806.634C500.467 806.634 501.776 807.943 501.776 809.556Z" fill="#FFDC9D" stroke="#BF5C2C" stroke-width="0.377778"/>
<path d="M509.568 809.556V849.812H503.724V809.556C503.724 807.943 505.032 806.634 506.646 806.634C508.26 806.634 509.568 807.943 509.568 809.556Z" fill="#FFDC9D" stroke="#BF5C2C" stroke-width="0.377778"/>
<path d="M517.342 809.556V849.812H511.497V809.556C511.497 807.943 512.806 806.634 514.42 806.634C516.034 806.634 517.342 807.943 517.342 809.556Z" fill="#FFDC9D" stroke="#BF5C2C" stroke-width="0.377778"/>
<path d="M525.076 809.556V849.812H519.232V809.556C519.232 807.943 520.54 806.634 522.154 806.634C523.768 806.634 525.076 807.943 525.076 809.556Z" fill="#FFDC9D" stroke="#BF5C2C" stroke-width="0.377778"/>
<path d="M532.928 809.556V849.812H527.083V809.556C527.083 807.943 528.392 806.634 530.006 806.634C531.62 806.634 532.928 807.943 532.928 809.556Z" fill="#FFDC9D" stroke="#BF5C2C" stroke-width="0.377778"/>
<path d="M540.643 809.556V849.812H534.798V809.556C534.798 807.943 536.107 806.634 537.72 806.634C539.334 806.634 540.643 807.943 540.643 809.556Z" fill="#FFDC9D" stroke="#BF5C2C" stroke-width="0.377778"/>
<path d="M548.416 809.556V849.812H542.572V809.556C542.572 807.943 543.88 806.634 545.494 806.634C547.108 806.634 548.416 807.943 548.416 809.556Z" fill="#FFDC9D" stroke="#BF5C2C" stroke-width="0.377778"/>
<path d="M556.209 809.556V849.812H550.365V809.556C550.365 807.943 551.673 806.634 553.287 806.634C554.901 806.634 556.209 807.943 556.209 809.556Z" fill="#FFDC9D" stroke="#BF5C2C" stroke-width="0.377778"/>
<path d="M564.002 809.556V849.812H558.158V809.556C558.158 807.943 559.466 806.634 561.08 806.634C562.694 806.634 564.002 807.943 564.002 809.556Z" fill="#FFDC9D" stroke="#BF5C2C" stroke-width="0.377778"/>
<path d="M571.776 809.556V849.812H565.931V809.556C565.931 807.943 567.239 806.634 568.853 806.634C570.467 806.634 571.776 807.943 571.776 809.556Z" fill="#FFDC9D" stroke="#BF5C2C" stroke-width="0.377778"/>
<path d="M579.49 809.556V849.812H573.646V809.556C573.646 807.943 574.954 806.634 576.568 806.634C578.182 806.634 579.49 807.943 579.49 809.556Z" fill="#FFDC9D" stroke="#BF5C2C" stroke-width="0.377778"/>
<path d="M587.342 809.556V849.812H581.497V809.556C581.497 807.943 582.806 806.634 584.42 806.634C586.034 806.634 587.342 807.943 587.342 809.556Z" fill="#FFDC9D" stroke="#BF5C2C" stroke-width="0.377778"/>
<path d="M595.076 809.556V849.812H589.232V809.556C589.232 807.943 590.54 806.634 592.154 806.634C593.768 806.634 595.076 807.943 595.076 809.556Z" fill="#FFDC9D" stroke="#BF5C2C" stroke-width="0.377778"/>
<path d="M602.85 809.556V849.812H597.005V809.556C597.005 807.943 598.314 806.634 599.928 806.634C601.541 806.634 602.85 807.943 602.85 809.556Z" fill="#FFDC9D" stroke="#BF5C2C" stroke-width="0.377778"/>
<path d="M610.701 809.556V849.812H604.857V809.556C604.857 807.943 606.165 806.634 607.779 806.634C609.393 806.634 610.701 807.943 610.701 809.556Z" fill="#FFDC9D" stroke="#BF5C2C" stroke-width="0.377778"/>
<path d="M618.416 809.556V849.812H612.572V809.556C612.572 807.943 613.88 806.634 615.494 806.634C617.108 806.634 618.416 807.943 618.416 809.556Z" fill="#FFDC9D" stroke="#BF5C2C" stroke-width="0.377778"/>
<path d="M626.209 809.556V849.812H620.365V809.556C620.365 807.943 621.673 806.634 623.287 806.634C624.901 806.634 626.209 807.943 626.209 809.556Z" fill="#FFDC9D" stroke="#BF5C2C" stroke-width="0.377778"/>
<path d="M634.002 809.556V849.812H628.158V809.556C628.158 807.943 629.466 806.634 631.08 806.634C632.694 806.634 634.002 807.943 634.002 809.556Z" fill="#FFDC9D" stroke="#BF5C2C" stroke-width="0.377778"/>
<path d="M641.776 809.556V849.812H635.931V809.556C635.931 807.943 637.239 806.634 638.853 806.634C640.467 806.634 641.776 807.943 641.776 809.556Z" fill="#FFDC9D" stroke="#BF5C2C" stroke-width="0.377778"/>
<path d="M649.49 809.556V849.812H643.646V809.556C643.646 807.943 644.954 806.634 646.568 806.634C648.182 806.634 649.49 807.943 649.49 809.556Z" fill="#FFDC9D" stroke="#BF5C2C" stroke-width="0.377778"/>
<path d="M657.283 809.556V849.812H651.439V809.556C651.439 807.943 652.747 806.634 654.361 806.634C655.975 806.634 657.283 807.943 657.283 809.556Z" fill="#FFDC9D" stroke="#BF5C2C" stroke-width="0.377778"/>
<path d="M665.135 809.556V849.812H659.29V809.556C659.29 807.943 660.599 806.634 662.213 806.634C663.827 806.634 665.135 807.943 665.135 809.556Z" fill="#FFDC9D" stroke="#BF5C2C" stroke-width="0.377778"/>
<path d="M672.928 809.556V849.812H667.083V809.556C667.083 807.943 668.392 806.634 670.006 806.634C671.62 806.634 672.928 807.943 672.928 809.556Z" fill="#FFDC9D" stroke="#BF5C2C" stroke-width="0.377778"/>
<path d="M680.643 809.556V849.812H674.798V809.556C674.798 807.943 676.107 806.634 677.72 806.634C679.334 806.634 680.643 807.943 680.643 809.556Z" fill="#FFDC9D" stroke="#BF5C2C" stroke-width="0.377778"/>
<path d="M688.416 809.556V849.812H682.572V809.556C682.572 807.943 683.88 806.634 685.494 806.634C687.108 806.634 688.416 807.943 688.416 809.556Z" fill="#FFDC9D" stroke="#BF5C2C" stroke-width="0.377778"/>
<path d="M696.209 809.556V849.812H690.365V809.556C690.365 807.943 691.673 806.634 693.287 806.634C694.901 806.634 696.209 807.943 696.209 809.556Z" fill="#FFDC9D" stroke="#BF5C2C" stroke-width="0.377778"/>
<path d="M703.924 809.556V849.812H698.08V809.556C698.08 807.943 699.388 806.634 701.002 806.634C702.616 806.634 703.924 807.943 703.924 809.556Z" fill="#FFDC9D" stroke="#BF5C2C" stroke-width="0.377778"/>
<path d="M711.776 809.556V849.812H705.931V809.556C705.931 807.943 707.239 806.634 708.853 806.634C710.467 806.634 711.776 807.943 711.776 809.556Z" fill="#FFDC9D" stroke="#BF5C2C" stroke-width="0.377778"/>
<path d="M719.568 809.556V849.812H713.724V809.556C713.724 807.943 715.032 806.634 716.646 806.634C718.26 806.634 719.568 807.943 719.568 809.556Z" fill="#FFDC9D" stroke="#BF5C2C" stroke-width="0.377778"/>
<path d="M727.342 809.556V849.812H721.497V809.556C721.497 807.943 722.806 806.634 724.42 806.634C726.034 806.634 727.342 807.943 727.342 809.556Z" fill="#FFDC9D" stroke="#BF5C2C" stroke-width="0.377778"/>
<path d="M735.076 809.556V849.812H729.232V809.556C729.232 807.943 730.54 806.634 732.154 806.634C733.768 806.634 735.076 807.943 735.076 809.556Z" fill="#FFDC9D" stroke="#BF5C2C" stroke-width="0.377778"/>
<path d="M742.85 809.556V849.812H737.005V809.556C737.005 807.943 738.314 806.634 739.928 806.634C741.541 806.634 742.85 807.943 742.85 809.556Z" fill="#FFDC9D" stroke="#BF5C2C" stroke-width="0.377778"/>
<path d="M750.701 809.556V849.812H744.857V809.556C744.857 807.943 746.165 806.634 747.779 806.634C749.393 806.634 750.701 807.943 750.701 809.556Z" fill="#FFDC9D" stroke="#BF5C2C" stroke-width="0.377778"/>
<path d="M758.416 809.556V849.812H752.572V809.556C752.572 807.943 753.88 806.634 755.494 806.634C757.108 806.634 758.416 807.943 758.416 809.556Z" fill="#FFDC9D" stroke="#BF5C2C" stroke-width="0.377778"/>
<path d="M766.209 809.556V849.812H760.365V809.556C760.365 807.943 761.673 806.634 763.287 806.634C764.901 806.634 766.209 807.943 766.209 809.556Z" fill="#FFDC9D" stroke="#BF5C2C" stroke-width="0.377778"/>
<path d="M774.002 809.556V849.812H768.158V809.556C768.158 807.943 769.466 806.634 771.08 806.634C772.694 806.634 774.002 807.943 774.002 809.556Z" fill="#FFDC9D" stroke="#BF5C2C" stroke-width="0.377778"/>
<path d="M781.776 809.556V849.812H775.931V809.556C775.931 807.943 777.239 806.634 778.853 806.634C780.467 806.634 781.776 807.943 781.776 809.556Z" fill="#FFDC9D" stroke="#BF5C2C" stroke-width="0.377778"/>
<path d="M789.568 809.556V849.812H783.724V809.556C783.724 807.943 785.032 806.634 786.646 806.634C788.26 806.634 789.568 807.943 789.568 809.556Z" fill="#FFDC9D" stroke="#BF5C2C" stroke-width="0.377778"/>
<path d="M797.283 809.556V849.812H791.439V809.556C791.439 807.943 792.747 806.634 794.361 806.634C795.975 806.634 797.283 807.943 797.283 809.556Z" fill="#FFDC9D" stroke="#BF5C2C" stroke-width="0.377778"/>
<path d="M805.135 809.556V849.812H799.29V809.556C799.29 807.943 800.599 806.634 802.213 806.634C803.827 806.634 805.135 807.943 805.135 809.556Z" fill="#FFDC9D" stroke="#BF5C2C" stroke-width="0.377778"/>
<path d="M812.85 809.556V849.812H807.005V809.556C807.005 807.943 808.314 806.634 809.928 806.634C811.541 806.634 812.85 807.943 812.85 809.556Z" fill="#FFDC9D" stroke="#BF5C2C" stroke-width="0.377778"/>
<path d="M820.641 809.556V849.812H814.796V809.556C814.796 807.943 816.105 806.634 817.719 806.634C819.332 806.634 820.641 807.943 820.641 809.556Z" fill="#FFDC9D" stroke="#BF5C2C" stroke-width="0.377778"/>
<path d="M828.416 809.556V849.812H822.572V809.556C822.572 807.943 823.88 806.634 825.494 806.634C827.108 806.634 828.416 807.943 828.416 809.556Z" fill="#FFDC9D" stroke="#BF5C2C" stroke-width="0.377778"/>
<path d="M872.049 809.556V849.812H866.205V809.556C866.205 807.943 867.513 806.634 869.127 806.634C870.741 806.634 872.049 807.943 872.049 809.556Z" fill="#FFDC9D" stroke="#BF5C2C" stroke-width="0.377778"/>
<path d="M879.842 809.556V849.812H873.997V809.556C873.997 807.943 875.306 806.634 876.92 806.634C878.534 806.634 879.842 807.943 879.842 809.556Z" fill="#FFDC9D" stroke="#BF5C2C" stroke-width="0.377778"/>
<path d="M887.557 809.556V849.812H881.712V809.556C881.712 807.943 883.021 806.634 884.635 806.634C886.248 806.634 887.557 807.943 887.557 809.556Z" fill="#FFDC9D" stroke="#BF5C2C" stroke-width="0.377778"/>
<path d="M895.408 809.556V849.812H889.564V809.556C889.564 807.943 890.872 806.634 892.486 806.634C894.1 806.634 895.408 807.943 895.408 809.556Z" fill="#FFDC9D" stroke="#BF5C2C" stroke-width="0.377778"/>
<path d="M903.123 809.556V849.812H897.279V809.556C897.279 807.943 898.587 806.634 900.201 806.634C901.815 806.634 903.123 807.943 903.123 809.556Z" fill="#FFDC9D" stroke="#BF5C2C" stroke-width="0.377778"/>
<path d="M910.975 809.556V849.812H905.13V809.556C905.13 807.943 906.439 806.634 908.053 806.634C909.666 806.634 910.975 807.943 910.975 809.556Z" fill="#FFDC9D" stroke="#BF5C2C" stroke-width="0.377778"/>
<path d="M918.69 809.556V849.812H912.845V809.556C912.845 807.943 914.153 806.634 915.767 806.634C917.381 806.634 918.69 807.943 918.69 809.556Z" fill="#FFDC9D" stroke="#BF5C2C" stroke-width="0.377778"/>
<path d="M926.483 809.556V849.812H920.638V809.556C920.638 807.943 921.946 806.634 923.56 806.634C925.174 806.634 926.483 807.943 926.483 809.556Z" fill="#FFDC9D" stroke="#BF5C2C" stroke-width="0.377778"/>
<path d="M934.334 809.556V849.812H928.49V809.556C928.49 807.943 929.798 806.634 931.412 806.634C933.026 806.634 934.334 807.943 934.334 809.556Z" fill="#FFDC9D" stroke="#BF5C2C" stroke-width="0.377778"/>
<path d="M941.99 809.556V849.812H936.146V809.556C936.146 807.943 937.454 806.634 939.068 806.634C940.682 806.634 941.99 807.943 941.99 809.556Z" fill="#FFDC9D" stroke="#BF5C2C" stroke-width="0.377778"/>
<path d="M949.842 809.556V849.812H943.997V809.556C943.997 807.943 945.306 806.634 946.92 806.634C948.534 806.634 949.842 807.943 949.842 809.556Z" fill="#FFDC9D" stroke="#BF5C2C" stroke-width="0.377778"/>
<path d="M957.615 809.556V849.812H951.771V809.556C951.771 807.943 953.079 806.634 954.693 806.634C956.307 806.634 957.615 807.943 957.615 809.556Z" fill="#FFDC9D" stroke="#BF5C2C" stroke-width="0.377778"/>
<path d="M965.408 809.556V849.812H959.564V809.556C959.564 807.943 960.872 806.634 962.486 806.634C964.1 806.634 965.408 807.943 965.408 809.556Z" fill="#FFDC9D" stroke="#BF5C2C" stroke-width="0.377778"/>
<path d="M973.125 809.556V849.812H967.281V809.556C967.281 807.943 968.589 806.634 970.203 806.634C971.817 806.634 973.125 807.943 973.125 809.556Z" fill="#FFDC9D" stroke="#BF5C2C" stroke-width="0.377778"/>
<path d="M980.916 809.556V849.812H975.072V809.556C975.072 807.943 976.38 806.634 977.994 806.634C979.608 806.634 980.916 807.943 980.916 809.556Z" fill="#FFDC9D" stroke="#BF5C2C" stroke-width="0.377778"/>
<path d="M988.768 809.556V849.812H982.923V809.556C982.923 807.943 984.232 806.634 985.845 806.634C987.459 806.634 988.768 807.943 988.768 809.556Z" fill="#FFDC9D" stroke="#BF5C2C" stroke-width="0.377778"/>
<path d="M996.483 809.556V849.812H990.638V809.556C990.638 807.943 991.946 806.634 993.56 806.634C995.174 806.634 996.483 807.943 996.483 809.556Z" fill="#FFDC9D" stroke="#BF5C2C" stroke-width="0.377778"/>
<path d="M1004.26 809.556V849.812H998.412V809.556C998.412 807.943 999.72 806.634 1001.33 806.634C1002.95 806.634 1004.26 807.943 1004.26 809.556Z" fill="#FFDC9D" stroke="#BF5C2C" stroke-width="0.377778"/>
<path d="M1012.05 809.556V849.812H1006.2V809.556C1006.2 807.943 1007.51 806.634 1009.13 806.634C1010.74 806.634 1012.05 807.943 1012.05 809.556Z" fill="#FFDC9D" stroke="#BF5C2C" stroke-width="0.377778"/>
<path d="M1019.84 809.556V849.812H1014V809.556C1014 807.943 1015.31 806.634 1016.92 806.634C1018.53 806.634 1019.84 807.943 1019.84 809.556Z" fill="#FFDC9D" stroke="#BF5C2C" stroke-width="0.377778"/>
<path d="M1027.56 809.556V849.812H1021.71V809.556C1021.71 807.943 1023.02 806.634 1024.63 806.634C1026.25 806.634 1027.56 807.943 1027.56 809.556Z" fill="#FFDC9D" stroke="#BF5C2C" stroke-width="0.377778"/>
<path d="M1035.41 809.556V849.812H1029.56V809.556C1029.56 807.943 1030.87 806.634 1032.49 806.634C1034.1 806.634 1035.41 807.943 1035.41 809.556Z" fill="#FFDC9D" stroke="#BF5C2C" stroke-width="0.377778"/>
<path d="M1043.18 809.556V849.812H1037.34V809.556C1037.34 807.943 1038.65 806.634 1040.26 806.634C1041.87 806.634 1043.18 807.943 1043.18 809.556Z" fill="#FFDC9D" stroke="#BF5C2C" stroke-width="0.377778"/>
<path d="M1050.92 809.556V849.812H1045.07V809.556C1045.07 807.943 1046.38 806.634 1047.99 806.634C1049.61 806.634 1050.92 807.943 1050.92 809.556Z" fill="#FFDC9D" stroke="#BF5C2C" stroke-width="0.377778"/>
<path d="M1058.69 809.556V849.812H1052.85V809.556C1052.85 807.943 1054.15 806.634 1055.77 806.634C1057.38 806.634 1058.69 807.943 1058.69 809.556Z" fill="#FFDC9D" stroke="#BF5C2C" stroke-width="0.377778"/>
<path d="M1066.48 809.556V849.812H1060.64V809.556C1060.64 807.943 1061.95 806.634 1063.56 806.634C1065.17 806.634 1066.48 807.943 1066.48 809.556Z" fill="#FFDC9D" stroke="#BF5C2C" stroke-width="0.377778"/>
<path d="M1074.33 809.556V849.812H1068.49V809.556C1068.49 807.943 1069.8 806.634 1071.41 806.634C1073.03 806.634 1074.33 807.943 1074.33 809.556Z" fill="#FFDC9D" stroke="#BF5C2C" stroke-width="0.377778"/>
<path d="M1081.99 809.556V849.812H1076.15V809.556C1076.15 807.943 1077.45 806.634 1079.07 806.634C1080.68 806.634 1081.99 807.943 1081.99 809.556Z" fill="#FFDC9D" stroke="#BF5C2C" stroke-width="0.377778"/>
<path d="M1089.84 809.556V849.812H1084V809.556C1084 807.943 1085.31 806.634 1086.92 806.634C1088.53 806.634 1089.84 807.943 1089.84 809.556Z" fill="#FFDC9D" stroke="#BF5C2C" stroke-width="0.377778"/>
<path d="M1097.62 809.556V849.812H1091.77V809.556C1091.77 807.943 1093.08 806.634 1094.69 806.634C1096.31 806.634 1097.62 807.943 1097.62 809.556Z" fill="#FFDC9D" stroke="#BF5C2C" stroke-width="0.377778"/>
<path d="M1105.41 809.556V849.812H1099.56V809.556C1099.56 807.943 1100.87 806.634 1102.49 806.634C1104.1 806.634 1105.41 807.943 1105.41 809.556Z" fill="#FFDC9D" stroke="#BF5C2C" stroke-width="0.377778"/>
<path d="M1113.18 809.556V849.812H1107.34V809.556C1107.34 807.943 1108.65 806.634 1110.26 806.634C1111.87 806.634 1113.18 807.943 1113.18 809.556Z" fill="#FFDC9D" stroke="#BF5C2C" stroke-width="0.377778"/>
<path d="M1120.92 809.556V849.812H1115.07V809.556C1115.07 807.943 1116.38 806.634 1117.99 806.634C1119.61 806.634 1120.92 807.943 1120.92 809.556Z" fill="#FFDC9D" stroke="#BF5C2C" stroke-width="0.377778"/>
<path d="M1128.77 809.556V849.812H1122.92V809.556C1122.92 807.943 1124.23 806.634 1125.85 806.634C1127.46 806.634 1128.77 807.943 1128.77 809.556Z" fill="#FFDC9D" stroke="#BF5C2C" stroke-width="0.377778"/>
<path d="M1136.48 809.556V849.812H1130.64V809.556C1130.64 807.943 1131.95 806.634 1133.56 806.634C1135.17 806.634 1136.48 807.943 1136.48 809.556Z" fill="#FFDC9D" stroke="#BF5C2C" stroke-width="0.377778"/>
<path d="M1144.26 809.556V849.812H1138.41V809.556C1138.41 807.943 1139.72 806.634 1141.33 806.634C1142.95 806.634 1144.26 807.943 1144.26 809.556Z" fill="#FFDC9D" stroke="#BF5C2C" stroke-width="0.377778"/>
<path d="M1152.05 809.556V849.812H1146.2V809.556C1146.2 807.943 1147.51 806.634 1149.13 806.634C1150.74 806.634 1152.05 807.943 1152.05 809.556Z" fill="#FFDC9D" stroke="#BF5C2C" stroke-width="0.377778"/>
<path d="M1159.84 809.556V849.812H1154V809.556C1154 807.943 1155.31 806.634 1156.92 806.634C1158.53 806.634 1159.84 807.943 1159.84 809.556Z" fill="#FFDC9D" stroke="#BF5C2C" stroke-width="0.377778"/>
<path d="M1167.62 809.556V849.812H1161.77V809.556C1161.77 807.943 1163.08 806.634 1164.69 806.634C1166.31 806.634 1167.62 807.943 1167.62 809.556Z" fill="#FFDC9D" stroke="#BF5C2C" stroke-width="0.377778"/>
<path d="M1175.33 809.556V849.812H1169.49V809.556C1169.49 807.943 1170.79 806.634 1172.41 806.634C1174.02 806.634 1175.33 807.943 1175.33 809.556Z" fill="#FFDC9D" stroke="#BF5C2C" stroke-width="0.377778"/>
<path d="M1183.18 809.556V849.812H1177.34V809.556C1177.34 807.943 1178.65 806.634 1180.26 806.634C1181.87 806.634 1183.18 807.943 1183.18 809.556Z" fill="#FFDC9D" stroke="#BF5C2C" stroke-width="0.377778"/>
<path d="M1190.92 809.556V849.812H1185.07V809.556C1185.07 807.943 1186.38 806.634 1187.99 806.634C1189.61 806.634 1190.92 807.943 1190.92 809.556Z" fill="#FFDC9D" stroke="#BF5C2C" stroke-width="0.377778"/>
<path d="M1198.69 809.556V849.812H1192.85V809.556C1192.85 807.943 1194.15 806.634 1195.77 806.634C1197.38 806.634 1198.69 807.943 1198.69 809.556Z" fill="#FFDC9D" stroke="#BF5C2C" stroke-width="0.377778"/>
<path d="M1206.54 809.556V849.812H1200.7V809.556C1200.7 807.943 1202.01 806.634 1203.62 806.634C1205.23 806.634 1206.54 807.943 1206.54 809.556Z" fill="#FFDC9D" stroke="#BF5C2C" stroke-width="0.377778"/>
<path d="M1214.26 809.556V849.812H1208.41V809.556C1208.41 807.943 1209.72 806.634 1211.33 806.634C1212.95 806.634 1214.26 807.943 1214.26 809.556Z" fill="#FFDC9D" stroke="#BF5C2C" stroke-width="0.377778"/>
<path d="M1222.05 809.556V849.812H1216.2V809.556C1216.2 807.943 1217.51 806.634 1219.13 806.634C1220.74 806.634 1222.05 807.943 1222.05 809.556Z" fill="#FFDC9D" stroke="#BF5C2C" stroke-width="0.377778"/>
<path d="M1229.84 809.556V849.812H1224V809.556C1224 807.943 1225.31 806.634 1226.92 806.634C1228.53 806.634 1229.84 807.943 1229.84 809.556Z" fill="#FFDC9D" stroke="#BF5C2C" stroke-width="0.377778"/>
<path d="M1237.62 809.556V849.812H1231.77V809.556C1231.77 807.943 1233.08 806.634 1234.69 806.634C1236.31 806.634 1237.62 807.943 1237.62 809.556Z" fill="#FFDC9D" stroke="#BF5C2C" stroke-width="0.377778"/>
<path d="M1245.33 809.556V849.812H1239.49V809.556C1239.49 807.943 1240.79 806.634 1242.41 806.634C1244.02 806.634 1245.33 807.943 1245.33 809.556Z" fill="#FFDC9D" stroke="#BF5C2C" stroke-width="0.377778"/>
<path d="M1253.12 809.556V849.812H1247.28V809.556C1247.28 807.943 1248.59 806.634 1250.2 806.634C1251.81 806.634 1253.12 807.943 1253.12 809.556Z" fill="#FFDC9D" stroke="#BF5C2C" stroke-width="0.377778"/>
<path d="M1260.97 809.556V849.812H1255.13V809.556C1255.13 807.943 1256.44 806.634 1258.05 806.634C1259.67 806.634 1260.97 807.943 1260.97 809.556Z" fill="#FFDC9D" stroke="#BF5C2C" stroke-width="0.377778"/>
<path d="M1268.77 809.556V849.812H1262.92V809.556C1262.92 807.943 1264.23 806.634 1265.85 806.634C1267.46 806.634 1268.77 807.943 1268.77 809.556Z" fill="#FFDC9D" stroke="#BF5C2C" stroke-width="0.377778"/>
<path d="M1276.48 809.556V849.812H1270.64V809.556C1270.64 807.943 1271.95 806.634 1273.56 806.634C1275.17 806.634 1276.48 807.943 1276.48 809.556Z" fill="#FFDC9D" stroke="#BF5C2C" stroke-width="0.377778"/>
<path d="M1284.26 809.556V849.812H1278.41V809.556C1278.41 807.943 1279.72 806.634 1281.33 806.634C1282.95 806.634 1284.26 807.943 1284.26 809.556Z" fill="#FFDC9D" stroke="#BF5C2C" stroke-width="0.377778"/>
<path d="M1292.05 809.556V849.812H1286.2V809.556C1286.2 807.943 1287.51 806.634 1289.13 806.634C1290.74 806.634 1292.05 807.943 1292.05 809.556Z" fill="#FFDC9D" stroke="#BF5C2C" stroke-width="0.377778"/>
<path d="M1299.76 809.556V849.812H1293.92V809.556C1293.92 807.943 1295.23 806.634 1296.84 806.634C1298.46 806.634 1299.76 807.943 1299.76 809.556Z" fill="#FFDC9D" stroke="#BF5C2C" stroke-width="0.377778"/>
<path d="M1307.62 809.556V849.812H1301.77V809.556C1301.77 807.943 1303.08 806.634 1304.69 806.634C1306.31 806.634 1307.62 807.943 1307.62 809.556Z" fill="#FFDC9D" stroke="#BF5C2C" stroke-width="0.377778"/>
<path d="M1315.41 809.556V849.812H1309.56V809.556C1309.56 807.943 1310.87 806.634 1312.49 806.634C1314.1 806.634 1315.41 807.943 1315.41 809.556Z" fill="#FFDC9D" stroke="#BF5C2C" stroke-width="0.377778"/>
<path d="M1323.18 809.556V849.812H1317.34V809.556C1317.34 807.943 1318.65 806.634 1320.26 806.634C1321.87 806.634 1323.18 807.943 1323.18 809.556Z" fill="#FFDC9D" stroke="#BF5C2C" stroke-width="0.377778"/>
<rect x="912.715" y="462.676" width="37.3333" height="48.2222" rx="1.88889" fill="#F1C665"/>
<rect x="917.402" y="467.344" width="28" height="38.8889" fill="#D5D5D5"/>
<rect x="273.32" y="251.124" width="18.6667" height="99.5556" fill="#D9D9D9"/>
<path d="M293.646 272.553C293.174 272.772 292.617 272.897 292.022 272.897C290.304 272.897 288.911 271.852 288.911 270.563C288.911 270.29 288.973 270.029 289.088 269.786H277.845C277.96 270.029 278.022 270.29 278.022 270.563C278.022 271.852 276.629 272.897 274.911 272.897C273.193 272.897 271.8 271.852 271.8 270.563C271.8 270.29 271.862 270.029 271.977 269.786H264.022V277.563C264.022 279.283 262.629 280.675 260.911 280.675H259.355V322.675H260.911C262.629 322.675 264.022 324.066 264.022 325.786V332.008H271.977C271.934 331.917 271.898 331.823 271.869 331.725C271.824 331.564 271.8 331.4 271.8 331.23C271.8 329.942 273.193 328.897 274.911 328.897C275.671 328.897 276.367 329.1 276.907 329.441C277.589 329.869 278.022 330.513 278.022 331.23C278.022 331.504 277.96 331.765 277.845 332.008H289.088C288.973 331.765 288.911 331.504 288.911 331.23C288.911 329.942 290.304 328.897 292.022 328.897C293.74 328.897 295.133 329.942 295.133 331.23C295.133 331.504 295.071 331.765 294.956 332.008H302.911V325.786C302.911 324.066 304.304 322.675 306.022 322.675V280.675C304.304 280.675 302.911 279.283 302.911 277.563V269.786H294.956C295.071 270.029 295.133 270.29 295.133 270.563C295.133 271.405 294.538 272.143 293.646 272.553Z" fill="#BEBEBE"/>
<g filter="url(#filter0_d_4400_19902)">
<ellipse cx="282.763" cy="300.908" rx="15.5556" ry="15.5556" fill="#3D3D49"/>
</g>
<path d="M670.67 463.077L675.849 460.082L675.849 458.097L670.67 458.097L670.67 456.455L683.336 456.455L683.336 460.515C683.336 461.465 683.172 462.265 682.845 462.915C682.518 463.576 682.076 464.069 681.519 464.394C680.961 464.719 680.325 464.881 679.611 464.881C678.738 464.881 677.969 464.629 677.303 464.123C676.637 463.63 676.194 462.884 675.976 461.886L670.67 465.044L670.67 463.077ZM677.176 458.097L677.176 460.515C677.176 461.405 677.394 462.073 677.83 462.518C678.278 462.963 678.872 463.185 679.611 463.185C680.362 463.185 680.943 462.963 681.355 462.518C681.767 462.085 681.973 461.417 681.973 460.515L681.973 458.097L677.176 458.097Z" fill="white"/>
<path d="M670.67 474.253L676.449 469.074L670.67 469.074L670.67 467.433L683.336 467.433L683.336 469.074L677.466 469.074L683.336 474.271L683.336 476.346L676.994 470.644L670.67 476.4L670.67 474.253Z" fill="white"/>
<path d="M680.501 477.927C681.615 478.011 682.488 478.438 683.118 479.208C683.748 479.978 684.062 480.976 684.062 482.203C684.062 483.021 683.911 483.725 683.608 484.314C683.317 484.916 682.918 485.367 682.409 485.668C681.9 485.98 681.325 486.137 680.683 486.137C679.932 486.137 679.284 485.92 678.738 485.487C678.193 485.066 677.842 484.513 677.684 483.827L677.594 483.827C677.4 484.609 677.018 485.229 676.449 485.686C675.879 486.143 675.134 486.371 674.214 486.371C673.523 486.371 672.899 486.215 672.342 485.902C671.797 485.589 671.367 485.12 671.052 484.495C670.737 483.869 670.58 483.118 670.58 482.239C670.58 480.964 670.913 479.918 671.579 479.1C672.257 478.282 673.214 477.825 674.45 477.729L674.45 479.316C673.723 479.401 673.13 479.695 672.669 480.201C672.209 480.706 671.979 481.379 671.979 482.221C671.979 483.063 672.197 483.701 672.633 484.134C673.081 484.579 673.657 484.802 674.359 484.802C675.268 484.802 675.922 484.501 676.322 483.899C676.721 483.298 676.921 482.39 676.921 481.175L676.921 480.76L678.302 480.76L678.302 481.193C678.314 482.3 678.496 483.136 678.847 483.701C679.211 484.266 679.768 484.549 680.519 484.549C681.161 484.549 681.676 484.338 682.064 483.917C682.451 483.508 682.645 482.919 682.645 482.149C682.645 481.403 682.451 480.802 682.064 480.345C681.676 479.888 681.155 479.617 680.501 479.533L680.501 477.927Z" fill="white"/>
<path d="M682.373 496.906L682.373 490.573L678.23 490.573C678.617 490.85 678.932 491.259 679.174 491.8C679.429 492.341 679.556 492.925 679.556 493.55C679.556 494.549 679.344 495.36 678.92 495.986C678.508 496.611 677.969 497.057 677.303 497.321C676.649 497.598 675.952 497.736 675.213 497.736C674.341 497.736 673.56 497.574 672.869 497.249C672.179 496.924 671.633 496.425 671.234 495.751C670.834 495.09 670.634 494.266 670.634 493.279C670.634 492.016 670.961 490.994 671.615 490.212C672.269 489.43 673.142 488.955 674.232 488.787L674.232 490.393C673.541 490.549 673.002 490.88 672.615 491.385C672.227 491.89 672.033 492.528 672.033 493.298C672.033 494.248 672.318 494.964 672.887 495.445C673.469 495.926 674.232 496.166 675.177 496.166C676.122 496.166 676.849 495.926 677.357 495.445C677.878 494.964 678.139 494.254 678.139 493.316C678.139 492.678 677.981 492.119 677.666 491.638C677.363 491.168 676.945 490.826 676.412 490.609L676.412 489.057L683.826 489.057L683.826 496.906L682.373 496.906Z" fill="white"/>
<path d="M677.503 502.3C677.769 501.626 678.157 501.109 678.666 500.748C679.174 500.387 679.792 500.207 680.519 500.207C681.173 500.207 681.761 500.369 682.282 500.694C682.815 501.019 683.233 501.5 683.536 502.137C683.851 502.787 684.008 503.569 684.008 504.483C684.008 505.397 683.851 506.173 683.536 506.811C683.233 507.46 682.815 507.947 682.282 508.272C681.761 508.609 681.173 508.777 680.519 508.777C679.817 508.777 679.199 508.591 678.666 508.218C678.145 507.845 677.757 507.334 677.503 506.684C677.273 507.43 676.867 508.02 676.285 508.453C675.716 508.898 675.025 509.12 674.214 509.12C673.426 509.12 672.736 508.928 672.142 508.543C671.561 508.158 671.107 507.611 670.779 506.901C670.464 506.203 670.307 505.397 670.307 504.483C670.307 503.569 670.464 502.763 670.779 502.065C671.107 501.38 671.561 500.844 672.142 500.459C672.736 500.074 673.426 499.882 674.214 499.882C675.025 499.882 675.722 500.099 676.303 500.532C676.885 500.965 677.285 501.554 677.503 502.3ZM680.319 507.19C681.058 507.19 681.628 506.949 682.027 506.468C682.427 505.987 682.627 505.325 682.627 504.483C682.627 503.653 682.427 502.997 682.027 502.516C681.628 502.035 681.052 501.795 680.301 501.795C679.623 501.795 679.078 502.041 678.666 502.534C678.254 503.04 678.048 503.689 678.048 504.483C678.048 505.289 678.254 505.939 678.666 506.432C679.09 506.937 679.641 507.19 680.319 507.19ZM676.776 504.483C676.776 503.593 676.564 502.865 676.14 502.3C675.728 501.734 675.104 501.452 674.268 501.452C673.493 501.452 672.869 501.722 672.397 502.264C671.924 502.817 671.688 503.557 671.688 504.483C671.688 505.409 671.924 506.143 672.397 506.684C672.869 507.226 673.493 507.496 674.268 507.496C675.08 507.496 675.698 507.22 676.122 506.666C676.558 506.113 676.776 505.385 676.776 504.483Z" fill="white"/>
<path d="M677.503 513.683C677.769 513.009 678.157 512.492 678.666 512.131C679.174 511.77 679.792 511.59 680.519 511.59C681.173 511.59 681.761 511.752 682.282 512.077C682.815 512.401 683.233 512.883 683.536 513.52C683.851 514.17 684.008 514.952 684.008 515.866C684.008 516.78 683.851 517.556 683.536 518.193C683.233 518.843 682.815 519.33 682.282 519.655C681.761 519.992 681.173 520.16 680.519 520.16C679.817 520.16 679.199 519.974 678.666 519.601C678.145 519.228 677.757 518.717 677.503 518.067C677.273 518.813 676.867 519.402 676.285 519.835C675.716 520.28 675.025 520.503 674.214 520.503C673.426 520.503 672.736 520.31 672.142 519.926C671.561 519.541 671.107 518.993 670.779 518.284C670.464 517.586 670.307 516.78 670.307 515.866C670.307 514.952 670.464 514.146 670.779 513.448C671.107 512.762 671.561 512.227 672.142 511.842C672.736 511.457 673.426 511.265 674.214 511.265C675.025 511.265 675.722 511.481 676.303 511.914C676.885 512.347 677.285 512.937 677.503 513.683ZM680.319 518.572C681.058 518.572 681.628 518.332 682.027 517.851C682.427 517.369 682.627 516.708 682.627 515.866C682.627 515.036 682.427 514.38 682.027 513.899C681.628 513.418 681.052 513.177 680.301 513.177C679.623 513.177 679.078 513.424 678.666 513.917C678.254 514.422 678.048 515.072 678.048 515.866C678.048 516.672 678.254 517.321 678.666 517.814C679.09 518.32 679.641 518.572 680.319 518.572ZM676.776 515.866C676.776 514.976 676.564 514.248 676.14 513.683C675.728 513.117 675.104 512.835 674.268 512.835C673.493 512.835 672.869 513.105 672.397 513.646C671.924 514.2 671.688 514.94 671.688 515.866C671.688 516.792 671.924 517.526 672.397 518.067C672.869 518.608 673.493 518.879 674.268 518.879C675.08 518.879 675.698 518.602 676.122 518.049C676.558 517.496 676.776 516.768 676.776 515.866Z" fill="white"/>
<path d="M670.543 526.942C670.543 526.112 670.689 525.366 670.979 524.704C671.282 524.055 671.694 523.544 672.215 523.171C672.748 522.798 673.36 522.605 674.05 522.593L674.05 524.344C673.457 524.404 672.954 524.644 672.542 525.065C672.142 525.498 671.942 526.124 671.942 526.942C671.942 527.724 672.136 528.337 672.524 528.782C672.924 529.239 673.432 529.468 674.05 529.468C674.535 529.468 674.929 529.336 675.231 529.071C675.534 528.806 675.764 528.475 675.922 528.079C676.079 527.682 676.249 527.146 676.431 526.473C676.649 525.643 676.867 524.975 677.085 524.47C677.303 523.977 677.642 523.55 678.102 523.189C678.575 522.84 679.205 522.666 679.992 522.666C680.683 522.666 681.294 522.84 681.827 523.189C682.36 523.538 682.772 524.025 683.063 524.65C683.354 525.288 683.499 526.016 683.499 526.834C683.499 528.012 683.202 528.975 682.609 529.72C682.015 530.478 681.228 530.905 680.247 531.002L680.247 529.197C680.731 529.137 681.155 528.884 681.519 528.439C681.894 527.994 682.082 527.405 682.082 526.671C682.082 525.985 681.9 525.426 681.537 524.993C681.185 524.56 680.689 524.344 680.047 524.344C679.586 524.344 679.211 524.47 678.92 524.722C678.629 524.987 678.405 525.306 678.248 525.679C678.102 526.064 677.933 526.599 677.739 527.285C677.509 528.115 677.279 528.782 677.048 529.287C676.83 529.793 676.485 530.226 676.013 530.587C675.552 530.947 674.922 531.128 674.123 531.128C673.505 531.128 672.924 530.965 672.378 530.641C671.833 530.316 671.391 529.835 671.052 529.197C670.713 528.56 670.543 527.808 670.543 526.942Z" fill="white"/>
<path d="M693.776 550.824L693.776 545.26C693.912 545.295 694.024 545.319 694.134 545.355C695.557 545.81 696.974 546.279 698.401 546.718C699.489 547.054 700.596 547.321 701.726 547.471C702.025 547.512 702.335 547.519 702.636 547.498C703.509 547.436 704.049 546.754 703.945 545.884C703.864 545.214 703.636 544.595 703.28 544.031C702.937 543.488 702.575 542.946 702.002 542.618C701.624 542.402 701.226 542.213 700.819 542.06C699.552 541.584 698.248 541.23 696.93 540.929C695.891 540.692 694.852 540.459 693.782 540.217L693.782 534.5C694.055 534.571 694.305 534.661 694.562 534.698C694.969 534.755 695.242 534.971 695.51 535.278C696.499 536.404 697.597 537.419 698.792 538.327C699.001 538.486 699.214 538.643 699.461 538.766C699.42 538.713 699.385 538.65 699.336 538.605C698.58 537.919 697.913 537.151 697.261 536.37C696.555 535.527 695.882 534.658 695.286 533.732C694.677 532.786 694.149 531.806 693.862 530.708C693.569 529.587 693.458 528.445 693.453 527.29C693.45 526.596 693.487 525.904 693.661 525.229C693.937 524.158 694.409 523.201 695.362 522.565C696.154 522.036 697.037 521.796 697.984 521.788C699.73 521.77 701.323 522.309 702.826 523.153C703.701 523.645 704.503 524.24 705.133 525.03C705.936 526.036 706.501 527.168 706.821 528.421C707.153 529.722 707.265 531.052 707.288 532.387C707.317 533.926 707.308 535.464 707.315 537.003C707.315 537.082 707.304 537.162 707.296 537.29C706.318 537.037 705.362 536.79 704.38 536.536C704.417 536.32 704.45 536.132 704.482 535.945C704.702 534.682 704.754 533.413 704.582 532.142C704.453 531.178 704.202 530.245 703.722 529.388C703.267 528.574 702.688 527.88 701.831 527.457C700.628 526.861 699.306 527.173 698.522 528.261C698.01 528.973 697.756 529.782 697.717 530.658C697.666 531.801 697.932 532.885 698.377 533.923C698.633 534.52 698.961 535.086 699.241 535.673C699.346 535.895 699.522 535.973 699.737 536.025C700.349 536.17 700.961 536.32 701.573 536.47C703.033 536.83 704.492 537.19 705.951 537.551C707.745 537.995 709.539 538.44 711.334 538.885C711.401 538.902 711.467 538.928 711.543 538.954L711.543 544.663C710.635 544.409 709.752 544.154 708.865 543.916C707.976 543.677 707.107 543.361 706.15 543.165C706.188 543.34 706.211 543.476 706.247 543.608C706.577 544.829 706.847 546.061 706.979 547.319C707.079 548.266 707.073 549.209 706.87 550.147C706.56 551.583 705.59 552.537 704.171 552.787C703.444 552.914 702.713 552.906 701.984 552.831C700.603 552.691 699.267 552.343 697.934 551.977C696.592 551.608 695.248 551.247 693.906 550.882C693.866 550.871 693.831 550.852 693.777 550.829L693.776 550.824Z" fill="white"/>
<path d="M711.479 509.812C711.547 510.073 711.572 515.145 711.498 515.55C709.034 514.935 706.574 514.313 704.11 513.705C704.098 513.727 704.085 513.749 704.072 513.771C704.148 513.875 704.222 513.982 704.301 514.084C705.287 515.341 706.274 516.597 707.255 517.859C707.331 517.955 707.393 518.094 707.393 518.214C707.4 520.271 707.397 522.33 707.396 524.387C707.396 524.436 707.387 524.485 707.377 524.587C707 524.236 706.776 523.815 706.482 523.453C706.187 523.091 705.907 522.714 705.623 522.343C705.333 521.964 705.044 521.582 704.755 521.2C704.467 520.819 704.176 520.439 703.889 520.057C703.601 519.675 703.316 519.291 703.027 518.909C702.744 518.536 702.46 518.163 702.175 517.791C701.885 517.413 701.595 517.036 701.278 516.624C698.773 518.575 696.298 520.537 693.784 522.502C693.77 522.418 693.752 522.354 693.751 522.292C693.746 520.346 693.745 518.4 693.736 516.454C693.736 516.254 693.797 516.123 693.958 515.995C695.415 514.821 696.865 513.637 698.316 512.456C698.354 512.426 698.391 512.391 698.472 512.321C698.315 512.269 698.197 512.222 698.076 512.192C696.667 511.839 695.259 511.49 693.85 511.139C693.83 511.134 693.813 511.122 693.796 511.113C693.724 510.876 693.708 505.916 693.781 505.426C693.856 505.432 693.934 505.429 694.008 505.446C694.275 505.51 694.538 505.591 694.806 505.645C695.027 505.69 695.186 505.8 695.333 505.972C696.054 506.817 696.841 507.598 697.688 508.317C698.137 508.699 698.605 509.058 699.066 509.426C699.169 509.508 699.278 509.58 699.421 509.618C699.243 509.437 699.066 509.254 698.885 509.077C697.983 508.192 697.136 507.258 696.41 506.221C695.638 505.12 694.916 503.988 694.426 502.726C694.079 501.832 693.798 500.915 693.681 499.962C693.63 499.54 693.648 499.108 693.658 498.68C693.683 497.629 693.789 496.586 694.12 495.581C694.549 494.28 695.377 493.362 696.705 492.949C697.163 492.805 697.638 492.743 698.119 492.744C700.057 492.749 701.89 493.191 703.579 494.144C705.049 494.974 706.022 496.236 706.563 497.832C706.884 498.781 707.069 499.76 707.168 500.756C707.377 502.838 707.37 504.926 707.306 507.014C707.296 507.33 707.287 507.646 707.276 507.961C707.276 507.979 707.26 507.997 707.234 508.052C706.366 507.852 705.511 507.577 704.634 507.339C704.634 507.18 704.62 507.038 704.637 506.899C704.808 505.553 704.746 504.214 704.479 502.887C704.236 501.678 703.82 500.532 703.085 499.529C702.58 498.841 701.997 498.231 701.185 497.904C700.162 497.492 699.168 497.717 698.499 498.673C698.076 499.276 697.889 499.957 697.773 500.662C697.552 502.007 697.78 503.295 698.292 504.546C698.577 505.246 698.922 505.913 699.293 506.569C699.385 506.73 699.489 506.804 699.659 506.843C700.183 506.964 700.704 507.1 701.227 507.231C702.645 507.586 704.064 507.942 705.484 508.298C706.863 508.643 708.243 508.987 709.622 509.335C710.241 509.49 710.859 509.653 711.479 509.811L711.479 509.812Z" fill="white"/>
<path d="M693.669 564.551C692.039 564.209 690.442 563.874 688.84 563.537L688.84 558.313C691.029 558.796 693.193 559.272 695.356 559.747C695.362 559.733 695.368 559.721 695.376 559.707C695.137 559.477 694.89 559.256 694.663 559.015C693.982 558.294 693.458 557.475 693.215 556.503C693.028 555.752 693.152 555.064 693.749 554.517C694.075 554.218 694.48 554.085 694.901 553.993C695.546 553.852 696.196 553.887 696.843 553.961C698.486 554.147 700.068 554.6 701.647 555.065C702.914 555.438 704.182 555.805 705.45 556.173C705.565 556.206 705.683 556.226 705.848 556.264C705.874 555.514 705.864 554.798 705.87 554.064L706.9 554.064C706.981 556.195 707.061 558.315 707.142 560.481C706.927 560.431 706.751 560.399 706.581 560.349C704.683 559.786 702.786 559.217 700.886 558.656C699.492 558.245 698.084 557.886 696.657 557.611C696.128 557.509 695.598 557.406 695.055 557.438C694.963 557.443 694.87 557.438 694.782 557.458C694.51 557.518 694.361 557.797 694.497 558.045C694.592 558.219 694.734 558.375 694.884 558.508C695.373 558.946 695.948 559.256 696.529 559.551C697.099 559.841 697.684 560.103 698.263 560.378C698.325 560.408 698.387 560.442 698.471 560.486C698.438 560.638 698.406 560.785 698.374 560.931C698.214 561.657 698.024 562.377 697.901 563.108C697.715 564.197 697.663 565.295 697.858 566.392C698.024 567.329 698.362 568.196 698.989 568.926C699.568 569.602 700.297 570.007 701.181 570.138C701.946 570.252 702.653 570.123 703.304 569.691C703.645 569.466 703.901 569.17 704.091 568.815C704.457 568.138 704.606 567.404 704.647 566.644C704.716 565.404 704.561 564.183 704.317 562.971C704.242 562.601 704.158 562.235 704.078 561.866C704.063 561.8 704.057 561.733 704.045 561.644C704.456 561.732 704.841 561.814 705.224 561.897C705.75 562.012 706.276 562.127 706.801 562.243C706.881 562.261 706.958 562.289 707.036 562.307C707.173 562.339 707.233 562.414 707.243 562.562C707.298 563.395 707.364 564.228 707.424 565.06C707.5 566.126 707.597 567.192 707.642 568.26C707.708 569.82 707.705 571.378 707.369 572.915C707.197 573.706 706.945 574.468 706.5 575.151C705.756 576.298 704.684 576.875 703.338 577.024C701.553 577.222 698.562 576.386 697.09 575.399C695.744 574.494 694.825 573.285 694.303 571.762C693.966 570.775 693.799 569.754 693.726 568.711C693.635 567.438 693.671 566.165 693.671 564.892C693.671 564.792 693.671 564.691 693.671 564.549L693.669 564.551Z" fill="white"/>
<path d="M703.057 476.938C704.141 478.09 705.47 478.633 707.045 478.559C707.901 478.518 708.645 478.212 709.237 477.571C709.661 477.112 709.924 476.566 710.111 475.98C710.405 475.058 710.5 474.106 710.503 473.146C710.511 469.214 710.506 465.282 710.506 461.35C710.506 461.271 710.494 461.193 710.488 461.115C710.424 461.091 710.378 461.069 710.33 461.056C709.606 460.856 708.882 460.655 708.155 460.461C705.898 459.858 703.64 459.26 701.384 458.656C699.923 458.264 698.464 457.861 697.004 457.465C695.827 457.145 694.651 456.828 693.474 456.514C693.362 456.484 693.246 456.477 693.107 456.455L693.107 456.706C693.107 458.499 693.107 460.292 693.107 462.084C693.107 462.43 693.113 462.777 693.109 463.123C693.107 463.29 693.164 463.377 693.339 463.421C694.097 463.613 694.851 463.821 695.606 464.022C697 464.391 698.394 464.758 699.788 465.129C699.838 465.143 699.881 465.18 699.952 465.219C699.882 465.265 699.843 465.298 699.799 465.32C699.109 465.665 698.419 466.012 697.726 466.355C696.268 467.074 694.81 467.795 693.349 468.507C693.164 468.597 693.103 468.713 693.107 468.911C693.115 469.451 693.104 469.991 693.107 470.531C693.11 472.619 693.115 474.707 693.121 476.795C693.121 476.881 693.136 476.965 693.148 477.098C694.442 476.359 695.69 475.641 696.944 474.931C698.196 474.221 699.436 473.489 700.718 472.789C700.915 473.263 701.082 473.678 701.259 474.088C701.712 475.13 702.27 476.106 703.055 476.939L703.057 476.938ZM703.477 470.518C703.034 469.905 702.791 469.206 702.603 468.484C702.398 467.694 702.316 466.883 702.283 466.068C702.28 466 702.295 465.931 702.305 465.828C702.42 465.848 702.519 465.856 702.612 465.882C703.862 466.236 705.11 466.596 706.361 466.944C706.506 466.985 706.568 467.052 706.568 467.193C706.566 468.129 706.606 469.068 706.39 469.99C706.309 470.339 706.194 470.674 705.959 470.955C705.795 471.152 705.587 471.277 705.338 471.308C704.569 471.402 703.94 471.157 703.477 470.517L703.477 470.518Z" fill="white"/>
<path d="M705.013 493.751C705.083 493.821 705.16 493.885 705.242 493.958C705.83 493.573 706.28 493.088 706.636 492.508C707.067 491.805 707.339 491.043 707.498 490.237C707.775 488.837 707.794 487.428 707.63 486.012C707.449 484.453 706.988 482.991 706.151 481.657C705.492 480.607 704.661 479.717 703.605 479.069C701.805 477.963 699.846 477.5 697.743 477.754C696.58 477.895 695.601 478.424 694.83 479.32C694.284 479.955 693.907 480.689 693.682 481.488C693.52 482.064 693.409 482.659 693.336 483.251C693.165 484.634 693.227 486.016 693.489 487.384C693.78 488.909 694.382 490.297 695.336 491.526C695.403 491.613 695.478 491.694 695.545 491.772C695.597 491.754 695.629 491.75 695.654 491.734C696.442 491.221 697.324 491.068 698.242 491.067C699.287 491.065 700.302 491.252 701.299 491.557C702.712 491.989 703.963 492.699 705.013 493.751ZM698.632 488.252C697.815 487.845 697.268 487.203 697.053 486.305C696.996 486.07 696.985 485.823 696.963 485.654C696.987 485.213 697.009 484.847 697.159 484.503C697.37 484.022 697.732 483.73 698.234 483.59C698.682 483.465 699.137 483.444 699.594 483.486C700.55 483.575 701.481 483.765 702.349 484.198C702.876 484.461 703.327 484.813 703.654 485.315C704.033 485.896 704.13 486.539 704.069 487.214C704.051 487.406 704.018 487.598 703.969 487.785C703.846 488.258 703.558 488.591 703.097 488.772C702.761 488.903 702.411 488.973 702.055 488.974C700.863 488.977 699.706 488.789 698.629 488.251L698.632 488.252Z" fill="white"/>
<path d="M709.473 559.531C709.473 561.807 711.318 563.652 713.594 563.652C715.87 563.652 717.715 561.807 717.715 559.531C717.715 557.255 715.87 555.41 713.594 555.41C711.318 555.41 709.473 557.255 709.473 559.531Z" fill="white"/>
<defs>
<filter id="filter0_d_4400_19902" x="267.207" y="285.352" width="32.0558" height="32.0558" filterUnits="userSpaceOnUse" color-interpolation-filters="sRGB">
<feFlood flood-opacity="0" result="BackgroundImageFix"/>
<feColorMatrix in="SourceAlpha" type="matrix" values="0 0 0 0 0 0 0 0 0 0 0 0 0 0 0 0 0 0 127 0" result="hardAlpha"/>
<feOffset dx="0.944444" dy="0.944444"/>
<feComposite in2="hardAlpha" operator="out"/>
<feColorMatrix type="matrix" values="0 0 0 0 0 0 0 0 0 0 0 0 0 0 0 0 0 0 0.25 0"/>
<feBlend mode="normal" in2="BackgroundImageFix" result="effect1_dropShadow_4400_19902"/>
<feBlend mode="normal" in="SourceGraphic" in2="effect1_dropShadow_4400_19902" result="shape"/>
</filter>
</defs>
</svg>
