<svg width="1580" height="1000" viewBox="0 0 1580 1000" fill="none" xmlns="http://www.w3.org/2000/svg">
<rect x="1193.75" y="850" width="802.358" height="700" rx="31.3679" transform="rotate(-180 1193.75 850)" fill="#22649B"/>
<circle cx="1152.42" cy="808.708" r="37.9717" transform="rotate(-180 1152.42 808.708)" fill="#E7C7A2"/>
<circle cx="1152.41" cy="808.702" r="26.4151" transform="rotate(-180 1152.41 808.702)" fill="#22649B"/>
<circle cx="1152.42" cy="189.606" r="37.9717" transform="rotate(-180 1152.42 189.606)" fill="#E7C7A2"/>
<circle cx="1152.41" cy="189.601" r="26.4151" transform="rotate(-180 1152.41 189.601)" fill="#22649B"/>
<circle cx="429.411" cy="808.708" r="37.9717" transform="rotate(-180 429.411 808.708)" fill="#E7C7A2"/>
<circle cx="429.405" cy="808.702" r="26.4151" transform="rotate(-180 429.405 808.702)" fill="#22649B"/>
<circle cx="429.411" cy="189.606" r="37.9717" transform="rotate(-180 429.411 189.606)" fill="#E7C7A2"/>
<circle cx="429.405" cy="189.601" r="26.4151" transform="rotate(-180 429.405 189.601)" fill="#22649B"/>
<path d="M487.807 214.838C492.885 214.838 497.001 210.743 497.001 205.69C497.001 200.638 492.885 196.542 487.807 196.542C482.729 196.542 478.613 200.638 478.613 205.69C478.613 210.743 482.729 214.838 487.807 214.838Z" stroke="#FFBF00" stroke-width="3.72394"/>
<path d="M519.487 214.838C524.564 214.838 528.68 210.743 528.68 205.69C528.68 200.638 524.564 196.542 519.487 196.542C514.409 196.542 510.293 200.638 510.293 205.69C510.293 210.743 514.409 214.838 519.487 214.838Z" stroke="#FFBF00" stroke-width="3.72394"/>
<path d="M551.166 214.838C556.244 214.838 560.36 210.743 560.36 205.69C560.36 200.638 556.244 196.542 551.166 196.542C546.089 196.542 541.973 200.638 541.973 205.69C541.973 210.743 546.089 214.838 551.166 214.838Z" stroke="#FFBF00" stroke-width="3.72394"/>
<path d="M582.905 214.838C587.982 214.838 592.098 210.743 592.098 205.69C592.098 200.638 587.982 196.542 582.905 196.542C577.827 196.542 573.711 200.638 573.711 205.69C573.711 210.743 577.827 214.838 582.905 214.838Z" stroke="#FFBF00" stroke-width="3.72394"/>
<path d="M614.584 214.838C619.662 214.838 623.778 210.743 623.778 205.69C623.778 200.638 619.662 196.542 614.584 196.542C609.507 196.542 605.391 200.638 605.391 205.69C605.391 210.743 609.507 214.838 614.584 214.838Z" stroke="#FFBF00" stroke-width="3.72394"/>
<path d="M646.264 214.838C651.342 214.838 655.458 210.743 655.458 205.69C655.458 200.638 651.342 196.542 646.264 196.542C641.186 196.542 637.07 200.638 637.07 205.69C637.07 210.743 641.186 214.838 646.264 214.838Z" stroke="#FFBF00" stroke-width="3.72394"/>
<path d="M678.022 214.838C683.099 214.838 687.216 210.743 687.216 205.69C687.216 200.638 683.099 196.542 678.022 196.542C672.944 196.542 668.828 200.638 668.828 205.69C668.828 210.743 672.944 214.838 678.022 214.838Z" stroke="#FFBF00" stroke-width="3.72394"/>
<path d="M709.702 214.838C714.779 214.838 718.895 210.743 718.895 205.69C718.895 200.638 714.779 196.542 709.702 196.542C704.624 196.542 700.508 200.638 700.508 205.69C700.508 210.743 704.624 214.838 709.702 214.838Z" stroke="#FFBF00" stroke-width="3.72394"/>
<path d="M741.381 214.838C746.459 214.838 750.575 210.743 750.575 205.69C750.575 200.638 746.459 196.542 741.381 196.542C736.304 196.542 732.187 200.638 732.187 205.69C732.187 210.743 736.304 214.838 741.381 214.838Z" stroke="#FFBF00" stroke-width="3.72394"/>
<path d="M773.119 214.838C778.197 214.838 782.313 210.743 782.313 205.69C782.313 200.638 778.197 196.542 773.119 196.542C768.042 196.542 763.926 200.638 763.926 205.69C763.926 210.743 768.042 214.838 773.119 214.838Z" stroke="#FFBF00" stroke-width="3.72394"/>
<path d="M804.799 214.838C809.877 214.838 813.993 210.743 813.993 205.69C813.993 200.638 809.877 196.542 804.799 196.542C799.722 196.542 795.605 200.638 795.605 205.69C795.605 210.743 799.722 214.838 804.799 214.838Z" stroke="#FFBF00" stroke-width="3.72394"/>
<path d="M836.483 214.847C841.563 214.847 845.681 210.749 845.681 205.695C845.681 200.64 841.563 196.542 836.483 196.542C831.403 196.542 827.285 200.64 827.285 205.695C827.285 210.749 831.403 214.847 836.483 214.847Z" stroke="#FFBF00" stroke-width="3.72394"/>
<path d="M868.237 214.838C873.314 214.838 877.43 210.743 877.43 205.69C877.43 200.638 873.314 196.542 868.237 196.542C863.159 196.542 859.043 200.638 859.043 205.69C859.043 210.743 863.159 214.838 868.237 214.838Z" stroke="#FFBF00" stroke-width="3.72394"/>
<path d="M899.916 214.838C904.994 214.838 909.11 210.743 909.11 205.69C909.11 200.638 904.994 196.542 899.916 196.542C894.839 196.542 890.723 200.638 890.723 205.69C890.723 210.743 894.839 214.838 899.916 214.838Z" stroke="#FFBF00" stroke-width="3.72394"/>
<path d="M931.596 214.838C936.674 214.838 940.79 210.743 940.79 205.69C940.79 200.638 936.674 196.542 931.596 196.542C926.518 196.542 922.402 200.638 922.402 205.69C922.402 210.743 926.518 214.838 931.596 214.838Z" stroke="#FFBF00" stroke-width="3.72394"/>
<path d="M963.334 214.838C968.412 214.838 972.528 210.743 972.528 205.69C972.528 200.638 968.412 196.542 963.334 196.542C958.257 196.542 954.141 200.638 954.141 205.69C954.141 210.743 958.257 214.838 963.334 214.838Z" stroke="#FFBF00" stroke-width="3.72394"/>
<path d="M995.018 214.847C1000.1 214.847 1004.22 210.749 1004.22 205.695C1004.22 200.64 1000.1 196.542 995.018 196.542C989.938 196.542 985.82 200.64 985.82 205.695C985.82 210.749 989.938 214.847 995.018 214.847Z" stroke="#FFBF00" stroke-width="3.72394"/>
<path d="M1026.69 214.838C1031.77 214.838 1035.89 210.743 1035.89 205.69C1035.89 200.638 1031.77 196.542 1026.69 196.542C1021.62 196.542 1017.5 200.638 1017.5 205.69C1017.5 210.743 1021.62 214.838 1026.69 214.838Z" stroke="#FFBF00" stroke-width="3.72394"/>
<path d="M1058.43 214.838C1063.51 214.838 1067.63 210.743 1067.63 205.69C1067.63 200.638 1063.51 196.542 1058.43 196.542C1053.35 196.542 1049.24 200.638 1049.24 205.69C1049.24 210.743 1053.35 214.838 1058.43 214.838Z" stroke="#FFBF00" stroke-width="3.72394"/>
<path d="M1090.11 214.838C1095.19 214.838 1099.31 210.743 1099.31 205.69C1099.31 200.638 1095.19 196.542 1090.11 196.542C1085.03 196.542 1080.92 200.638 1080.92 205.69C1080.92 210.743 1085.03 214.838 1090.11 214.838Z" stroke="#FFBF00" stroke-width="3.72394"/>
<path d="M1090.11 183.315C1095.19 183.315 1099.31 179.219 1099.31 174.167C1099.31 169.114 1095.19 165.019 1090.11 165.019C1085.03 165.019 1080.92 169.114 1080.92 174.167C1080.92 179.219 1085.03 183.315 1090.11 183.315Z" stroke="#FFBF00" stroke-width="3.72394"/>
<path d="M1058.43 183.315C1063.51 183.315 1067.63 179.219 1067.63 174.167C1067.63 169.114 1063.51 165.019 1058.43 165.019C1053.35 165.019 1049.24 169.114 1049.24 174.167C1049.24 179.219 1053.35 183.315 1058.43 183.315Z" stroke="#FFBF00" stroke-width="3.72394"/>
<path d="M1026.69 183.315C1031.77 183.315 1035.89 179.219 1035.89 174.167C1035.89 169.114 1031.77 165.019 1026.69 165.019C1021.62 165.019 1017.5 169.114 1017.5 174.167C1017.5 179.219 1021.62 183.315 1026.69 183.315Z" stroke="#FFBF00" stroke-width="3.72394"/>
<path d="M995.018 183.324C1000.1 183.324 1004.22 179.226 1004.22 174.171C1004.22 169.116 1000.1 165.019 995.018 165.019C989.938 165.019 985.82 169.116 985.82 174.171C985.82 179.226 989.938 183.324 995.018 183.324Z" stroke="#FFBF00" stroke-width="3.72394"/>
<path d="M963.334 183.315C968.412 183.315 972.528 179.219 972.528 174.167C972.528 169.114 968.412 165.019 963.334 165.019C958.257 165.019 954.141 169.114 954.141 174.167C954.141 179.219 958.257 183.315 963.334 183.315Z" stroke="#FFBF00" stroke-width="3.72394"/>
<path d="M931.596 183.315C936.674 183.315 940.79 179.219 940.79 174.167C940.79 169.114 936.674 165.019 931.596 165.019C926.518 165.019 922.402 169.114 922.402 174.167C922.402 179.219 926.518 183.315 931.596 183.315Z" stroke="#FFBF00" stroke-width="3.72394"/>
<path d="M899.916 183.315C904.994 183.315 909.11 179.219 909.11 174.167C909.11 169.114 904.994 165.019 899.916 165.019C894.839 165.019 890.723 169.114 890.723 174.167C890.723 179.219 894.839 183.315 899.916 183.315Z" stroke="#FFBF00" stroke-width="3.72394"/>
<path d="M868.237 183.315C873.314 183.315 877.43 179.219 877.43 174.167C877.43 169.114 873.314 165.019 868.237 165.019C863.159 165.019 859.043 169.114 859.043 174.167C859.043 179.219 863.159 183.315 868.237 183.315Z" stroke="#FFBF00" stroke-width="3.72394"/>
<path d="M836.483 183.324C841.563 183.324 845.681 179.226 845.681 174.171C845.681 169.116 841.563 165.019 836.483 165.019C831.403 165.019 827.285 169.116 827.285 174.171C827.285 179.226 831.403 183.324 836.483 183.324Z" stroke="#FFBF00" stroke-width="3.72394"/>
<path d="M804.799 183.315C809.877 183.315 813.993 179.219 813.993 174.167C813.993 169.114 809.877 165.019 804.799 165.019C799.722 165.019 795.605 169.114 795.605 174.167C795.605 179.219 799.722 183.315 804.799 183.315Z" stroke="#FFBF00" stroke-width="3.72394"/>
<path d="M773.119 183.315C778.197 183.315 782.313 179.219 782.313 174.167C782.313 169.114 778.197 165.019 773.119 165.019C768.042 165.019 763.926 169.114 763.926 174.167C763.926 179.219 768.042 183.315 773.119 183.315Z" stroke="#FFBF00" stroke-width="3.72394"/>
<path d="M741.381 183.315C746.459 183.315 750.575 179.219 750.575 174.167C750.575 169.114 746.459 165.019 741.381 165.019C736.304 165.019 732.187 169.114 732.187 174.167C732.187 179.219 736.304 183.315 741.381 183.315Z" stroke="#FFBF00" stroke-width="3.72394"/>
<path d="M709.702 183.315C714.779 183.315 718.895 179.219 718.895 174.167C718.895 169.114 714.779 165.019 709.702 165.019C704.624 165.019 700.508 169.114 700.508 174.167C700.508 179.219 704.624 183.315 709.702 183.315Z" stroke="#FFBF00" stroke-width="3.72394"/>
<path d="M678.022 183.315C683.099 183.315 687.216 179.219 687.216 174.167C687.216 169.114 683.099 165.019 678.022 165.019C672.944 165.019 668.828 169.114 668.828 174.167C668.828 179.219 672.944 183.315 678.022 183.315Z" stroke="#FFBF00" stroke-width="3.72394"/>
<path d="M646.264 183.315C651.342 183.315 655.458 179.219 655.458 174.167C655.458 169.114 651.342 165.019 646.264 165.019C641.186 165.019 637.07 169.114 637.07 174.167C637.07 179.219 641.186 183.315 646.264 183.315Z" stroke="#FFBF00" stroke-width="3.72394"/>
<path d="M614.584 183.315C619.662 183.315 623.778 179.219 623.778 174.167C623.778 169.114 619.662 165.019 614.584 165.019C609.507 165.019 605.391 169.114 605.391 174.167C605.391 179.219 609.507 183.315 614.584 183.315Z" stroke="#FFBF00" stroke-width="3.72394"/>
<path d="M582.905 183.315C587.982 183.315 592.098 179.219 592.098 174.167C592.098 169.114 587.982 165.019 582.905 165.019C577.827 165.019 573.711 169.114 573.711 174.167C573.711 179.219 577.827 183.315 582.905 183.315Z" stroke="#FFBF00" stroke-width="3.72394"/>
<path d="M551.166 183.315C556.244 183.315 560.36 179.219 560.36 174.167C560.36 169.114 556.244 165.019 551.166 165.019C546.089 165.019 541.973 169.114 541.973 174.167C541.973 179.219 546.089 183.315 551.166 183.315Z" stroke="#FFBF00" stroke-width="3.72394"/>
<path d="M519.487 183.315C524.564 183.315 528.68 179.219 528.68 174.167C528.68 169.114 524.564 165.019 519.487 165.019C514.409 165.019 510.293 169.114 510.293 174.167C510.293 179.219 514.409 183.315 519.487 183.315Z" stroke="#FFBF00" stroke-width="3.72394"/>
<path d="M487.807 183.315C492.885 183.315 497.001 179.219 497.001 174.167C497.001 169.114 492.885 165.019 487.807 165.019C482.729 165.019 478.613 169.114 478.613 174.167C478.613 179.219 482.729 183.315 487.807 183.315Z" stroke="#FFBF00" stroke-width="3.72394"/>
<path d="M504.022 189.438L504.022 166.161L497.136 159.55L479.215 159.55L472.324 166.161L472.324 189.438" fill="#C83737"/>
<path d="M504.022 189.433L504.022 212.71L497.136 219.321L479.215 219.321L472.324 212.71L472.324 189.433" fill="#FFFF00"/>
<path d="M535.702 189.438L535.702 166.161L528.815 159.55L510.895 159.55L504.004 166.161L504.004 189.438" fill="#C83737"/>
<path d="M535.702 189.433L535.702 212.71L528.815 219.321L510.895 219.321L504.004 212.71L504.004 189.433" fill="#5FD38D"/>
<path d="M567.44 189.438L567.44 166.161L560.554 159.55L542.633 159.55L535.742 166.161L535.742 189.438" fill="#404040"/>
<path d="M567.44 189.433L567.44 212.71L560.554 219.321L542.633 219.321L535.742 212.71L535.742 189.433" fill="#5FD38D"/>
<path d="M599.12 189.438L599.12 166.161L592.233 159.55L574.313 159.55L567.422 166.161L567.422 189.438" fill="#5FD38D"/>
<path d="M599.12 189.433L599.12 212.71L592.233 219.321L574.313 219.321L567.422 212.71L567.422 189.433" fill="#5FD38D"/>
<path d="M630.8 189.438L630.8 166.161L623.913 159.55L605.992 159.55L599.102 166.161L599.102 189.438" fill="#5FD38D"/>
<path d="M630.8 189.433L630.8 212.71L623.913 219.321L605.992 219.321L599.102 212.71L599.102 189.433" fill="#404040"/>
<path d="M662.499 189.438L662.499 166.161L655.612 159.55L637.692 159.55L630.801 166.161L630.801 189.438" fill="#5FD38D"/>
<path d="M662.499 189.433L662.499 212.71L655.612 219.321L637.692 219.321L630.801 212.71L630.801 189.433" fill="#5FD38D"/>
<path d="M694.237 189.438L694.237 166.161L687.351 159.55L669.43 159.55L662.539 166.161L662.539 189.438" fill="#404040"/>
<path d="M694.237 189.433L694.237 212.71L687.351 219.321L669.43 219.321L662.539 212.71L662.539 189.433" fill="#5FD38D"/>
<path d="M725.917 189.438L725.917 166.161L719.03 159.55L701.11 159.55L694.219 166.161L694.219 189.438" fill="#5FD38D"/>
<path d="M725.917 189.433L725.917 212.71L719.03 219.321L701.11 219.321L694.219 212.71L694.219 189.433" fill="#5FD38D"/>
<path d="M757.596 189.438L757.596 166.161L750.71 159.55L732.789 159.55L725.898 166.161L725.898 189.438" fill="#5FD38D"/>
<path d="M757.596 189.433L757.596 212.71L750.71 219.321L732.789 219.321L725.898 212.71L725.898 189.433" fill="#FFFF00"/>
<path d="M789.335 189.438L789.335 166.161L782.448 159.55L764.528 159.55L757.637 166.161L757.637 189.438" fill="#404040"/>
<path d="M789.335 189.433L789.335 212.71L782.448 219.321L764.528 219.321L757.637 212.71L757.637 189.433" fill="#5FD38D"/>
<path d="M821.014 189.438L821.014 166.161L814.128 159.55L796.207 159.55L789.316 166.161L789.316 189.438" fill="#5FD38D"/>
<path d="M821.014 189.433L821.014 212.71L814.128 219.321L796.207 219.321L789.316 212.71L789.316 189.433" fill="#5FD38D"/>
<path d="M852.694 189.438L852.694 166.161L845.808 159.55L827.887 159.55L820.996 166.161L820.996 189.438" fill="#5FD38D"/>
<path d="M852.694 189.433L852.694 212.71L845.808 219.321L827.887 219.321L820.996 212.71L820.996 189.433" fill="#5FD38D"/>
<path d="M884.374 189.438L884.374 166.161L877.487 159.55L859.567 159.55L852.676 166.161L852.676 189.438" fill="#5FD38D"/>
<path d="M884.374 189.433L884.374 212.71L877.487 219.321L859.567 219.321L852.676 212.71L852.676 189.433" fill="#404040"/>
<path d="M916.132 189.438L916.132 166.161L909.245 159.55L891.324 159.55L884.434 166.161L884.434 189.438" fill="#2AD4FF"/>
<path d="M916.132 189.433L916.132 212.71L909.245 219.321L891.324 219.321L884.434 212.71L884.434 189.433" fill="#2AD4FF"/>
<path d="M947.811 189.433L947.811 212.71L940.925 219.321L923.004 219.321L916.113 212.71L916.113 189.433" fill="#5FD38D"/>
<path d="M979.491 189.438L979.491 166.161L972.605 159.55L954.684 159.55L947.793 166.161L947.793 189.438" fill="#5FD38D"/>
<path d="M979.491 189.433L979.491 212.71L972.605 219.321L954.684 219.321L947.793 212.71L947.793 189.433" fill="#5FD38D"/>
<path d="M1011.17 189.438L1011.17 166.161L1004.28 159.55L986.364 159.55L979.473 166.161L979.473 189.438" fill="#404040"/>
<path d="M1011.17 189.433L1011.17 212.71L1004.28 219.321L986.364 219.321L979.473 212.71L979.473 189.433" fill="#5FD38D"/>
<path d="M1042.91 189.438L1042.91 166.161L1036.02 159.55L1018.1 159.55L1011.21 166.161L1011.21 189.438" fill="#5FD38D"/>
<path d="M1042.91 189.433L1042.91 212.71L1036.02 219.321L1018.1 219.321L1011.21 212.71L1011.21 189.433" fill="#5FD38D"/>
<path d="M1074.59 189.438L1074.59 166.161L1067.7 159.55L1049.78 159.55L1042.89 166.161L1042.89 189.438" fill="#5FD38D"/>
<path d="M1074.59 189.433L1074.59 212.71L1067.7 219.321L1049.78 219.321L1042.89 212.71L1042.89 189.433" fill="#5FD38D"/>
<path d="M1106.27 189.438L1106.27 166.161L1099.38 159.55L1081.46 159.55L1074.57 166.161L1074.57 189.438" fill="#5FD38D"/>
<path d="M1106.27 189.433L1106.27 212.71L1099.38 219.321L1081.46 219.321L1074.57 212.71L1074.57 189.433" fill="#404040"/>
<path d="M490.419 171.337L485.215 171.337L485.215 176.511L490.419 176.511L490.419 171.337Z" fill="#8C8663"/>
<path d="M485.211 171.339L482.754 168.886L482.754 178.945L485.211 176.492L485.211 171.339Z" fill="#B8AF82"/>
<path d="M482.754 168.886L492.868 168.886L490.424 171.339L485.211 171.339L482.754 168.886Z" fill="#80795B"/>
<path d="M492.873 168.886L492.873 178.945L490.43 176.492L490.43 171.339L492.873 168.886Z" fill="#5E5B43"/>
<path d="M492.868 178.937L482.754 178.937L485.211 176.483L490.424 176.483L492.868 178.937Z" fill="#9A916C"/>
<path d="M490.419 202.821L485.215 202.821L485.215 208L490.419 208L490.419 202.821Z" fill="#8C8663"/>
<path d="M485.211 202.815L482.754 200.37L482.754 210.421L485.211 207.972L485.211 202.815Z" fill="#B8AF82"/>
<path d="M482.754 200.37L492.868 200.37L490.424 202.815L485.211 202.815L482.754 200.37Z" fill="#80795B"/>
<path d="M492.873 200.37L492.873 210.421L490.43 207.972L490.43 202.815L492.873 200.37Z" fill="#5E5B43"/>
<path d="M485.211 207.978L490.424 207.978L492.868 210.427L482.754 210.427L485.211 207.978Z" fill="#9A916C"/>
<path d="M522.099 171.337L516.895 171.337L516.895 176.511L522.099 176.511L522.099 171.337Z" fill="#8C8663"/>
<path d="M516.964 171.339L514.512 168.886L514.512 178.945L516.964 176.492L516.964 171.339Z" fill="#B8AF82"/>
<path d="M514.512 168.886L524.621 168.886L522.178 171.339L516.964 171.339L514.512 168.886Z" fill="#80795B"/>
<path d="M524.553 168.886L524.553 178.945L522.109 176.492L522.109 171.339L524.553 168.886Z" fill="#5E5B43"/>
<path d="M524.621 178.937L514.512 178.937L516.964 176.483L522.178 176.483L524.621 178.937Z" fill="#9A916C"/>
<path d="M522.099 202.821L516.895 202.821L516.895 208L522.099 208L522.099 202.821Z" fill="#8C8663"/>
<path d="M516.964 202.815L514.512 200.37L514.512 210.421L516.964 207.972L516.964 202.815Z" fill="#B8AF82"/>
<path d="M514.512 200.37L524.621 200.37L522.178 202.815L516.964 202.815L514.512 200.37Z" fill="#80795B"/>
<path d="M524.553 200.37L524.553 210.421L522.109 207.972L522.109 202.815L524.553 200.37Z" fill="#5E5B43"/>
<path d="M516.964 207.978L522.178 207.978L524.621 210.427L514.512 210.427L516.964 207.978Z" fill="#9A916C"/>
<path d="M553.837 171.337L548.633 171.337L548.633 176.511L553.837 176.511L553.837 171.337Z" fill="#8C8663"/>
<path d="M548.644 171.339L546.191 168.886L546.191 178.945L548.644 176.492L548.644 171.339Z" fill="#B8AF82"/>
<path d="M546.191 168.886L556.305 168.886L553.857 171.339L548.644 171.339L546.191 168.886Z" fill="#80795B"/>
<path d="M556.296 168.886L556.296 178.945L553.848 176.492L553.848 171.339L556.296 168.886Z" fill="#5E5B43"/>
<path d="M556.305 178.937L546.191 178.937L548.644 176.483L553.857 176.483L556.305 178.937Z" fill="#9A916C"/>
<path d="M553.837 202.821L548.633 202.821L548.633 208L553.837 208L553.837 202.821Z" fill="#8C8663"/>
<path d="M548.644 202.815L546.191 200.37L546.191 210.421L548.644 207.972L548.644 202.815Z" fill="#B8AF82"/>
<path d="M546.191 200.37L556.305 200.37L553.857 202.815L548.644 202.815L546.191 200.37Z" fill="#80795B"/>
<path d="M556.296 200.37L556.296 210.421L553.848 207.972L553.848 202.815L556.296 200.37Z" fill="#5E5B43"/>
<path d="M548.644 207.978L553.857 207.978L556.305 210.427L546.191 210.427L548.644 207.978Z" fill="#9A916C"/>
<path d="M585.517 171.337L580.312 171.337L580.312 176.511L585.517 176.511L585.517 171.337Z" fill="#8C8663"/>
<path d="M577.871 168.886L577.871 178.945L580.328 176.492L580.328 171.339L577.871 168.886Z" fill="#B8AF82"/>
<path d="M587.985 168.886L585.537 171.339L580.328 171.339L577.871 168.886L587.985 168.886Z" fill="#80795B"/>
<path d="M587.975 178.945L585.527 176.492L585.527 171.339L587.975 168.886L587.975 178.945Z" fill="#5E5B43"/>
<path d="M577.871 178.937L580.328 176.483L585.537 176.483L587.985 178.937L577.871 178.937Z" fill="#9A916C"/>
<path d="M585.517 202.821L580.312 202.821L580.312 208L585.517 208L585.517 202.821Z" fill="#8C8663"/>
<path d="M577.871 200.37L577.871 210.421L580.328 207.972L580.328 202.815L577.871 200.37Z" fill="#B8AF82"/>
<path d="M587.985 200.37L585.537 202.815L580.328 202.815L577.871 200.37L587.985 200.37Z" fill="#80795B"/>
<path d="M587.975 210.421L585.527 207.972L585.527 202.815L587.975 200.37L587.975 210.421Z" fill="#5E5B43"/>
<path d="M585.537 207.978L587.985 210.427L577.871 210.427L580.328 207.978L585.537 207.978Z" fill="#9A916C"/>
<path d="M617.255 171.337L612.051 171.337L612.051 176.511L617.255 176.511L617.255 171.337Z" fill="#8C8663"/>
<path d="M609.551 178.945L612.008 176.492L612.008 171.339L609.551 168.886L609.551 178.945Z" fill="#B8AF82"/>
<path d="M617.217 171.339L612.008 171.339L609.551 168.886L619.665 168.886L617.217 171.339Z" fill="#80795B"/>
<path d="M617.285 176.492L617.285 171.339L619.733 168.886L619.733 178.945L617.285 176.492Z" fill="#5E5B43"/>
<path d="M612.008 176.483L617.217 176.483L619.665 178.937L609.551 178.937L612.008 176.483Z" fill="#9A916C"/>
<path d="M617.255 202.821L612.051 202.821L612.051 208L617.255 208L617.255 202.821Z" fill="#8C8663"/>
<path d="M609.551 210.421L612.008 207.972L612.008 202.815L609.551 200.37L609.551 210.421Z" fill="#B8AF82"/>
<path d="M617.217 202.815L612.008 202.815L609.551 200.37L619.665 200.37L617.217 202.815Z" fill="#80795B"/>
<path d="M617.285 207.972L617.285 202.815L619.733 200.37L619.733 210.421L617.285 207.972Z" fill="#5E5B43"/>
<path d="M619.665 210.427L609.551 210.427L612.008 207.978L617.217 207.978L619.665 210.427Z" fill="#9A916C"/>
<path d="M648.954 171.337L643.75 171.337L643.75 176.511L648.954 176.511L648.954 171.337Z" fill="#8C8663"/>
<path d="M641.289 178.945L643.746 176.492L643.746 171.339L641.289 168.886L641.289 178.945Z" fill="#B8AF82"/>
<path d="M648.959 171.339L643.746 171.339L641.289 168.886L651.403 168.886L648.959 171.339Z" fill="#80795B"/>
<path d="M648.965 176.492L648.965 171.339L651.409 168.886L651.409 178.945L648.965 176.492Z" fill="#5E5B43"/>
<path d="M643.746 176.483L648.959 176.483L651.403 178.937L641.289 178.937L643.746 176.483Z" fill="#9A916C"/>
<path d="M648.954 202.821L643.75 202.821L643.75 208L648.954 208L648.954 202.821Z" fill="#8C8663"/>
<path d="M641.289 210.421L643.746 207.972L643.746 202.815L641.289 200.37L641.289 210.421Z" fill="#B8AF82"/>
<path d="M648.959 202.815L643.746 202.815L641.289 200.37L651.403 200.37L648.959 202.815Z" fill="#80795B"/>
<path d="M648.965 207.972L648.965 202.815L651.409 200.37L651.409 210.421L648.965 207.972Z" fill="#5E5B43"/>
<path d="M651.403 210.427L641.289 210.427L643.746 207.978L648.959 207.978L651.403 210.427Z" fill="#9A916C"/>
<path d="M680.634 171.337L675.43 171.337L675.43 176.511L680.634 176.511L680.634 171.337Z" fill="#8C8663"/>
<path d="M672.969 178.945L675.421 176.492L675.421 171.339L672.969 168.886L672.969 178.945Z" fill="#B8AF82"/>
<path d="M680.635 171.339L675.421 171.339L672.969 168.886L683.078 168.886L680.635 171.339Z" fill="#80795B"/>
<path d="M680.645 176.492L680.645 171.339L683.088 168.886L683.088 178.945L680.645 176.492Z" fill="#5E5B43"/>
<path d="M675.421 176.483L680.635 176.483L683.078 178.937L672.969 178.937L675.421 176.483Z" fill="#9A916C"/>
<path d="M680.634 202.821L675.43 202.821L675.43 208L680.634 208L680.634 202.821Z" fill="#8C8663"/>
<path d="M672.969 210.421L675.421 207.972L675.421 202.815L672.969 200.37L672.969 210.421Z" fill="#B8AF82"/>
<path d="M680.635 202.815L675.421 202.815L672.969 200.37L683.078 200.37L680.635 202.815Z" fill="#80795B"/>
<path d="M680.645 207.972L680.645 202.815L683.088 200.37L683.088 210.421L680.645 207.972Z" fill="#5E5B43"/>
<path d="M683.078 210.427L672.969 210.427L675.421 207.978L680.635 207.978L683.078 210.427Z" fill="#9A916C"/>
<path d="M712.372 171.337L707.168 171.337L707.168 176.511L712.372 176.511L712.372 171.337Z" fill="#8C8663"/>
<path d="M707.101 171.339L704.648 168.886L704.648 178.945L707.101 176.492L707.101 171.339Z" fill="#B8AF82"/>
<path d="M704.648 168.886L714.762 168.886L712.314 171.339L707.101 171.339L704.648 168.886Z" fill="#80795B"/>
<path d="M714.831 168.886L714.831 178.945L712.383 176.492L712.383 171.339L714.831 168.886Z" fill="#5E5B43"/>
<path d="M714.762 178.937L704.648 178.937L707.101 176.483L712.314 176.483L714.762 178.937Z" fill="#9A916C"/>
<path d="M712.372 202.821L707.168 202.821L707.168 208L712.372 208L712.372 202.821Z" fill="#8C8663"/>
<path d="M707.101 202.815L704.648 200.37L704.648 210.421L707.101 207.972L707.101 202.815Z" fill="#B8AF82"/>
<path d="M704.648 200.37L714.762 200.37L712.314 202.815L707.101 202.815L704.648 200.37Z" fill="#80795B"/>
<path d="M714.831 200.37L714.831 210.421L712.383 207.972L712.383 202.815L714.831 200.37Z" fill="#5E5B43"/>
<path d="M707.101 207.978L712.314 207.978L714.762 210.427L704.648 210.427L707.101 207.978Z" fill="#9A916C"/>
<path d="M744.052 171.337L738.848 171.337L738.848 176.511L744.052 176.511L744.052 171.337Z" fill="#8C8663"/>
<path d="M736.387 178.945L738.844 176.492L738.844 171.339L736.387 168.886L736.387 178.945Z" fill="#B8AF82"/>
<path d="M744.053 171.339L738.844 171.339L736.387 168.886L746.501 168.886L744.053 171.339Z" fill="#80795B"/>
<path d="M744.062 176.492L744.062 171.339L746.511 168.886L746.511 178.945L744.062 176.492Z" fill="#5E5B43"/>
<path d="M738.844 176.483L744.053 176.483L746.501 178.937L736.387 178.937L738.844 176.483Z" fill="#9A916C"/>
<path d="M744.052 202.821L738.848 202.821L738.848 208L744.052 208L744.052 202.821Z" fill="#8C8663"/>
<path d="M736.387 210.421L738.844 207.972L738.844 202.815L736.387 200.37L736.387 210.421Z" fill="#B8AF82"/>
<path d="M744.053 202.815L738.844 202.815L736.387 200.37L746.501 200.37L744.053 202.815Z" fill="#80795B"/>
<path d="M744.062 207.972L744.062 202.815L746.511 200.37L746.511 210.421L744.062 207.972Z" fill="#5E5B43"/>
<path d="M746.501 210.427L736.387 210.427L738.844 207.978L744.053 207.978L746.501 210.427Z" fill="#9A916C"/>
<path d="M775.732 171.337L770.527 171.337L770.527 176.511L775.732 176.511L775.732 171.337Z" fill="#8C8663"/>
<path d="M770.543 176.492L770.543 171.339L768.086 168.886L768.086 178.945L770.543 176.492Z" fill="#B8AF82"/>
<path d="M770.543 171.339L768.086 168.886L778.2 168.886L775.752 171.339L770.543 171.339Z" fill="#80795B"/>
<path d="M775.742 171.339L778.19 168.886L778.19 178.945L775.742 176.492L775.742 171.339Z" fill="#5E5B43"/>
<path d="M775.752 176.483L778.2 178.937L768.086 178.937L770.543 176.483L775.752 176.483Z" fill="#9A916C"/>
<path d="M775.732 202.821L770.527 202.821L770.527 208L775.732 208L775.732 202.821Z" fill="#8C8663"/>
<path d="M770.543 207.972L770.543 202.815L768.086 200.37L768.086 210.421L770.543 207.972Z" fill="#B8AF82"/>
<path d="M770.543 202.815L768.086 200.37L778.2 200.37L775.752 202.815L770.543 202.815Z" fill="#80795B"/>
<path d="M775.742 202.815L778.19 200.37L778.19 210.421L775.742 207.972L775.742 202.815Z" fill="#5E5B43"/>
<path d="M768.086 210.427L770.543 207.978L775.752 207.978L778.2 210.427L768.086 210.427Z" fill="#9A916C"/>
<path d="M807.47 171.337L802.266 171.337L802.266 176.511L807.47 176.511L807.47 171.337Z" fill="#8C8663"/>
<path d="M802.281 176.492L802.281 171.339L799.824 168.886L799.824 178.945L802.281 176.492Z" fill="#B8AF82"/>
<path d="M802.281 171.339L799.824 168.886L809.938 168.886L807.494 171.339L802.281 171.339Z" fill="#80795B"/>
<path d="M807.48 171.339L809.924 168.886L809.924 178.945L807.48 176.492L807.48 171.339Z" fill="#5E5B43"/>
<path d="M807.494 176.483L809.938 178.937L799.824 178.937L802.281 176.483L807.494 176.483Z" fill="#9A916C"/>
<path d="M807.47 202.821L802.266 202.821L802.266 208L807.47 208L807.47 202.821Z" fill="#8C8663"/>
<path d="M802.281 207.972L802.281 202.815L799.824 200.37L799.824 210.421L802.281 207.972Z" fill="#B8AF82"/>
<path d="M802.281 202.815L799.824 200.37L809.938 200.37L807.494 202.815L802.281 202.815Z" fill="#80795B"/>
<path d="M807.48 202.815L809.924 200.37L809.924 210.421L807.48 207.972L807.48 202.815Z" fill="#5E5B43"/>
<path d="M799.824 210.427L802.281 207.978L807.494 207.978L809.938 210.427L799.824 210.427Z" fill="#9A916C"/>
<path d="M839.15 171.337L833.945 171.337L833.945 176.511L839.15 176.511L839.15 171.337Z" fill="#8C8663"/>
<path d="M833.956 176.492L833.956 171.339L831.504 168.886L831.504 178.945L833.956 176.492Z" fill="#B8AF82"/>
<path d="M833.956 171.339L831.504 168.886L841.613 168.886L839.17 171.339L833.956 171.339Z" fill="#80795B"/>
<path d="M839.18 171.339L841.623 168.886L841.623 178.945L839.18 176.492L839.18 171.339Z" fill="#5E5B43"/>
<path d="M839.17 176.483L841.613 178.937L831.504 178.937L833.956 176.483L839.17 176.483Z" fill="#9A916C"/>
<path d="M839.15 202.821L833.945 202.821L833.945 208L839.15 208L839.15 202.821Z" fill="#8C8663"/>
<path d="M833.956 207.972L833.956 202.815L831.504 200.37L831.504 210.421L833.956 207.972Z" fill="#B8AF82"/>
<path d="M833.956 202.815L831.504 200.37L841.613 200.37L839.17 202.815L833.956 202.815Z" fill="#80795B"/>
<path d="M839.18 202.815L841.623 200.37L841.623 210.421L839.18 207.972L839.18 202.815Z" fill="#5E5B43"/>
<path d="M831.504 210.427L833.956 207.978L839.17 207.978L841.613 210.427L831.504 210.427Z" fill="#9A916C"/>
<path d="M870.829 171.337L865.625 171.337L865.625 176.511L870.829 176.511L870.829 171.337Z" fill="#8C8663"/>
<path d="M863.184 178.945L865.636 176.492L865.636 171.339L863.184 168.886L863.184 178.945Z" fill="#B8AF82"/>
<path d="M870.849 171.339L865.636 171.339L863.184 168.886L873.298 168.886L870.849 171.339Z" fill="#80795B"/>
<path d="M870.859 176.492L870.859 171.339L873.308 168.886L873.308 178.945L870.859 176.492Z" fill="#5E5B43"/>
<path d="M865.636 176.483L870.849 176.483L873.298 178.937L863.184 178.937L865.636 176.483Z" fill="#9A916C"/>
<path d="M870.829 202.821L865.625 202.821L865.625 208L870.829 208L870.829 202.821Z" fill="#8C8663"/>
<path d="M863.184 210.421L865.636 207.972L865.636 202.815L863.184 200.37L863.184 210.421Z" fill="#B8AF82"/>
<path d="M870.849 202.815L865.636 202.815L863.184 200.37L873.298 200.37L870.849 202.815Z" fill="#80795B"/>
<path d="M870.859 207.972L870.859 202.815L873.308 200.37L873.308 210.421L870.859 207.972Z" fill="#5E5B43"/>
<path d="M873.298 210.427L863.184 210.427L865.636 207.978L870.849 207.978L873.298 210.427Z" fill="#9A916C"/>
<path d="M902.587 171.337L897.383 171.337L897.383 176.511L902.587 176.511L902.587 171.337Z" fill="#8C8663"/>
<path d="M894.922 178.945L897.379 176.492L897.379 171.339L894.922 168.886L894.922 178.945Z" fill="#B8AF82"/>
<path d="M902.588 171.339L897.379 171.339L894.922 168.886L905.036 168.886L902.588 171.339Z" fill="#80795B"/>
<path d="M902.598 176.492L902.598 171.339L905.046 168.886L905.046 178.945L902.598 176.492Z" fill="#5E5B43"/>
<path d="M897.379 176.483L902.588 176.483L905.036 178.937L894.922 178.937L897.379 176.483Z" fill="#9A916C"/>
<path d="M902.587 202.821L897.383 202.821L897.383 208L902.587 208L902.587 202.821Z" fill="#8C8663"/>
<path d="M894.922 210.421L897.379 207.972L897.379 202.815L894.922 200.37L894.922 210.421Z" fill="#B8AF82"/>
<path d="M902.588 202.815L897.379 202.815L894.922 200.37L905.036 200.37L902.588 202.815Z" fill="#80795B"/>
<path d="M902.598 207.972L902.598 202.815L905.046 200.37L905.046 210.421L902.598 207.972Z" fill="#5E5B43"/>
<path d="M905.036 210.427L894.922 210.427L897.379 207.978L902.588 207.978L905.036 210.427Z" fill="#9A916C"/>
<path d="M947.85 189.419L947.85 166.142L940.964 159.53L923.043 159.53L916.152 166.142L916.152 189.419" fill="#404040"/>
<path d="M934.31 171.288L929.102 171.288L929.102 176.462L934.31 176.462L934.31 171.288Z" fill="#8C8663"/>
<path d="M926.641 178.926L929.098 176.472L929.098 171.32L926.641 168.866L926.641 178.926Z" fill="#B8AF82"/>
<path d="M934.306 171.32L929.098 171.32L926.641 168.866L936.755 168.866L934.306 171.32Z" fill="#80795B"/>
<path d="M934.316 176.472L934.316 171.32L936.765 168.866L936.765 178.926L934.316 176.472Z" fill="#5E5B43"/>
<path d="M929.098 176.474L934.306 176.474L936.755 178.927L926.641 178.927L929.098 176.474Z" fill="#9A916C"/>
<path d="M934.271 202.821L929.062 202.821L929.062 208L934.271 208L934.271 202.821Z" fill="#8C8663"/>
<path d="M926.602 210.421L929.058 207.972L929.058 202.815L926.602 200.37L926.602 210.421Z" fill="#B8AF82"/>
<path d="M934.267 202.815L929.058 202.815L926.602 200.37L936.716 200.37L934.267 202.815Z" fill="#80795B"/>
<path d="M934.277 207.972L934.277 202.815L936.725 200.37L936.725 210.421L934.277 207.972Z" fill="#5E5B43"/>
<path d="M936.716 210.427L926.602 210.427L929.058 207.978L934.267 207.978L936.716 210.427Z" fill="#9A916C"/>
<path d="M965.947 171.337L960.742 171.337L960.742 176.511L965.947 176.511L965.947 171.337Z" fill="#8C8663"/>
<path d="M958.281 178.945L960.738 176.492L960.738 171.339L958.281 168.886L958.281 178.945Z" fill="#B8AF82"/>
<path d="M965.951 171.339L960.738 171.339L958.281 168.886L968.395 168.886L965.951 171.339Z" fill="#80795B"/>
<path d="M965.957 176.492L965.957 171.339L968.401 168.886L968.401 178.945L965.957 176.492Z" fill="#5E5B43"/>
<path d="M960.738 176.483L965.951 176.483L968.395 178.937L958.281 178.937L960.738 176.483Z" fill="#9A916C"/>
<path d="M965.947 202.821L960.742 202.821L960.742 208L965.947 208L965.947 202.821Z" fill="#8C8663"/>
<path d="M958.281 210.421L960.738 207.972L960.738 202.815L958.281 200.37L958.281 210.421Z" fill="#B8AF82"/>
<path d="M965.951 202.815L960.738 202.815L958.281 200.37L968.395 200.37L965.951 202.815Z" fill="#80795B"/>
<path d="M965.957 207.972L965.957 202.815L968.401 200.37L968.401 210.421L965.957 207.972Z" fill="#5E5B43"/>
<path d="M968.395 210.427L958.281 210.427L960.738 207.978L965.951 207.978L968.395 210.427Z" fill="#9A916C"/>
<path d="M997.689 171.337L992.48 171.337L992.48 176.511L997.689 176.511L997.689 171.337Z" fill="#8C8663"/>
<path d="M990.039 178.945L992.487 176.492L992.487 171.339L990.039 168.886L990.039 178.945Z" fill="#B8AF82"/>
<path d="M997.7 171.339L992.487 171.339L990.039 168.886L1000.15 168.886L997.7 171.339Z" fill="#80795B"/>
<path d="M997.695 176.492L997.695 171.339L1000.15 168.886L1000.15 178.945L997.695 176.492Z" fill="#5E5B43"/>
<path d="M992.487 176.483L997.7 176.483L1000.15 178.937L990.039 178.937L992.487 176.483Z" fill="#9A916C"/>
<path d="M997.689 202.821L992.48 202.821L992.48 208L997.689 208L997.689 202.821Z" fill="#8C8663"/>
<path d="M990.039 210.421L992.487 207.972L992.487 202.815L990.039 200.37L990.039 210.421Z" fill="#B8AF82"/>
<path d="M997.7 202.815L992.487 202.815L990.039 200.37L1000.15 200.37L997.7 202.815Z" fill="#80795B"/>
<path d="M997.695 207.972L997.695 202.815L1000.15 200.37L1000.15 210.421L997.695 207.972Z" fill="#5E5B43"/>
<path d="M1000.15 210.427L990.039 210.427L992.487 207.978L997.7 207.978L1000.15 210.427Z" fill="#9A916C"/>
<path d="M1029.37 171.337L1024.16 171.337L1024.16 176.511L1029.37 176.511L1029.37 171.337Z" fill="#8C8663"/>
<path d="M1021.72 178.945L1024.18 176.492L1024.18 171.339L1021.72 168.886L1021.72 178.945Z" fill="#B8AF82"/>
<path d="M1029.39 171.339L1024.18 171.339L1021.72 168.886L1031.83 168.886L1029.39 171.339Z" fill="#80795B"/>
<path d="M1029.37 176.492L1029.37 171.339L1031.82 168.886L1031.82 178.945L1029.37 176.492Z" fill="#5E5B43"/>
<path d="M1024.18 176.483L1029.39 176.483L1031.83 178.937L1021.72 178.937L1024.18 176.483Z" fill="#9A916C"/>
<path d="M1029.37 202.821L1024.16 202.821L1024.16 208L1029.37 208L1029.37 202.821Z" fill="#8C8663"/>
<path d="M1021.72 210.421L1024.18 207.972L1024.18 202.815L1021.72 200.37L1021.72 210.421Z" fill="#B8AF82"/>
<path d="M1029.39 202.815L1024.18 202.815L1021.72 200.37L1031.83 200.37L1029.39 202.815Z" fill="#80795B"/>
<path d="M1029.37 207.972L1029.37 202.815L1031.82 200.37L1031.82 210.421L1029.37 207.972Z" fill="#5E5B43"/>
<path d="M1031.83 210.427L1021.72 210.427L1024.18 207.978L1029.39 207.978L1031.83 210.427Z" fill="#9A916C"/>
<path d="M1061.04 171.337L1055.84 171.337L1055.84 176.511L1061.04 176.511L1061.04 171.337Z" fill="#8C8663"/>
<path d="M1053.4 178.945L1055.85 176.492L1055.85 171.339L1053.4 168.886L1053.4 178.945Z" fill="#B8AF82"/>
<path d="M1061.06 171.339L1055.85 171.339L1053.4 168.886L1063.51 168.886L1061.06 171.339Z" fill="#80795B"/>
<path d="M1061.05 176.492L1061.05 171.339L1063.51 168.886L1063.51 178.945L1061.05 176.492Z" fill="#5E5B43"/>
<path d="M1055.85 176.483L1061.06 176.483L1063.51 178.937L1053.4 178.937L1055.85 176.483Z" fill="#9A916C"/>
<path d="M1061.04 202.821L1055.84 202.821L1055.84 208L1061.04 208L1061.04 202.821Z" fill="#8C8663"/>
<path d="M1053.4 210.421L1055.85 207.972L1055.85 202.815L1053.4 200.37L1053.4 210.421Z" fill="#B8AF82"/>
<path d="M1061.06 202.815L1055.85 202.815L1053.4 200.37L1063.51 200.37L1061.06 202.815Z" fill="#80795B"/>
<path d="M1061.05 207.972L1061.05 202.815L1063.51 200.37L1063.51 210.421L1061.05 207.972Z" fill="#5E5B43"/>
<path d="M1063.51 210.427L1053.4 210.427L1055.85 207.978L1061.06 207.978L1063.51 210.427Z" fill="#9A916C"/>
<path d="M1092.8 171.337L1087.6 171.337L1087.6 176.511L1092.8 176.511L1092.8 171.337Z" fill="#8C8663"/>
<path d="M1085.14 178.945L1087.6 176.492L1087.6 171.339L1085.14 168.886L1085.14 178.945Z" fill="#B8AF82"/>
<path d="M1092.81 171.339L1087.6 171.339L1085.14 168.886L1095.25 168.886L1092.81 171.339Z" fill="#80795B"/>
<path d="M1092.81 176.492L1092.81 171.339L1095.25 168.886L1095.25 178.945L1092.81 176.492Z" fill="#5E5B43"/>
<path d="M1087.6 176.483L1092.81 176.483L1095.25 178.937L1085.14 178.937L1087.6 176.483Z" fill="#9A916C"/>
<path d="M1092.8 202.821L1087.6 202.821L1087.6 208L1092.8 208L1092.8 202.821Z" fill="#8C8663"/>
<path d="M1085.14 210.421L1087.6 207.972L1087.6 202.815L1085.14 200.37L1085.14 210.421Z" fill="#B8AF82"/>
<path d="M1092.81 202.815L1087.6 202.815L1085.14 200.37L1095.25 200.37L1092.81 202.815Z" fill="#80795B"/>
<path d="M1092.81 207.972L1092.81 202.815L1095.25 200.37L1095.25 210.421L1092.81 207.972Z" fill="#5E5B43"/>
<path d="M1095.25 210.427L1085.14 210.427L1087.6 207.978L1092.81 207.978L1095.25 210.427Z" fill="#9A916C"/>
<path d="M338.849 428.662L574.297 428.662L574.297 236.595L338.849 236.594L338.849 428.662Z" fill="#1A1A1A"/>
<path d="M338.351 381.104C336.663 381.104 335.225 379.676 335.225 377.911L335.225 366.308C335.225 364.553 336.637 363.116 338.351 363.116L379.226 363.116C380.946 363.116 382.363 364.548 382.363 366.308L382.363 377.911C382.363 379.676 380.956 381.104 379.226 381.104L338.351 381.104Z" fill="#B3B3B3"/>
<path d="M338.351 302.09C336.663 302.09 335.225 300.652 335.225 298.897L335.225 287.284C335.225 285.529 336.637 284.091 338.351 284.091L379.226 284.091C380.946 284.091 382.363 285.524 382.363 287.284L382.363 298.897C382.363 300.652 380.956 302.09 379.226 302.09L338.351 302.09Z" fill="#B3B3B3"/>
<path d="M379.237 381.104L374.166 381.104L374.166 363.126L379.237 363.126C380.946 363.126 382.363 364.564 382.363 366.319L382.363 377.932C382.358 379.692 380.956 381.104 379.237 381.104Z" fill="#CCCCCC"/>
<path d="M374.146 302.074L374.146 284.097L379.226 284.097C380.935 284.097 382.363 285.534 382.363 287.284L382.363 298.897C382.363 300.652 380.951 302.09 379.226 302.09L374.146 302.09L374.146 302.074Z" fill="#CCCCCC"/>
<path d="M357.443 381.104L375.02 381.104L375.02 363.126L357.443 363.126L357.443 381.104Z" fill="#999999"/>
<path d="M357.443 302.09L375.02 302.09L375.02 284.113L357.443 284.113L357.443 302.09Z" fill="#999999"/>
<path d="M347.123 381.104L363.887 381.104L363.887 363.126L347.123 363.126L347.123 381.104Z" fill="#B3B3B3"/>
<path d="M347.123 302.09L363.887 302.09L363.887 284.113L347.123 284.113L347.123 302.09Z" fill="#B3B3B3"/>
<path d="M349.868 381.104L356.23 381.104L356.23 363.126L349.868 363.126L349.868 381.104Z" fill="#CCCCCC"/>
<path d="M349.868 302.09L356.23 302.09L356.23 284.113L349.868 284.113L349.868 302.09Z" fill="#CCCCCC"/>
<path d="M374.29 381.104L375.645 381.104L375.645 363.126L374.29 363.126L374.29 381.104Z" fill="#E6E6E6"/>
<path d="M375.912 381.074L378.027 381.074L378.027 363.081L375.912 363.081L375.912 381.074Z" fill="#F2F2F2"/>
<path d="M384.008 236.561L384.008 237.75L338.881 237.75L338.881 239.648L338.881 277.505L338.881 280.666L341.997 280.883L364.07 282.4L386.134 283.928C387.843 284.06 389.25 285.571 389.25 287.316L389.25 298.855C389.25 300.599 387.843 302.116 386.134 302.259L364.07 303.787L341.997 305.314L338.881 305.531L338.881 308.713L338.881 356.619L338.881 359.79L341.997 360.018L364.07 361.471L386.134 362.957C387.832 363.062 389.25 364.579 389.25 366.324L389.25 378.021C389.25 379.776 387.838 381.293 386.134 381.436L364.07 382.879L341.997 384.354L338.88 384.555L338.88 387.732L338.88 425.589L338.88 427.503L384.008 427.503L384.008 428.75L599.294 428.75L602.441 428.75L602.441 425.573L602.441 239.796L602.441 236.608L599.294 236.608L384.008 236.608L384.008 236.561Z" fill="#CCCCCC"/>
<path d="M338.9 428.662L602.461 428.662L602.461 413.391L338.9 413.391L338.9 428.662Z" fill="#E6E6E6" fill-opacity="0.37"/>
<path d="M338.9 251.807L602.461 251.807L602.461 236.546L338.9 236.546L338.9 251.807Z" fill="#808080" fill-opacity="0.37"/>
<path d="M382.383 372.122C382.383 372.122 382.383 376.641 382.383 377.921C382.383 379.2 381.346 381.113 379.241 381.113C377.177 381.113 338.887 381.113 338.887 381.113L338.887 372.143L382.383 372.143L382.383 372.122Z" fill="#E6E6E6" fill-opacity="0.45"/>
<path d="M338.882 293.135L382.383 293.135C382.383 293.135 382.383 297.649 382.383 298.928C382.383 300.207 381.335 302.1 379.246 302.1C377.182 302.1 338.882 302.1 338.882 302.1L338.882 293.135Z" fill="#E6E6E6" fill-opacity="0.45"/>
<path d="M382.383 293.095C382.383 293.095 382.383 288.581 382.383 287.296C382.383 286.022 381.346 284.104 379.241 284.104C377.177 284.104 338.887 284.104 338.887 284.104L338.887 293.105L382.383 293.105L382.383 293.095Z" fill="#B3B3B3" fill-opacity="0.45"/>
<path d="M382.383 372.119C382.383 372.119 382.383 367.573 382.383 366.284C382.383 365.015 381.346 363.091 379.241 363.091C377.177 363.091 338.887 363.091 338.887 363.091L338.887 372.093L382.383 372.093L382.383 372.119Z" fill="#B3B3B3" fill-opacity="0.45"/>
<path d="M387.136 433.828L394.473 433.828L394.473 432.126L387.136 432.126L387.136 433.828Z" fill="#999999"/>
<path d="M387.136 433.828L394.473 433.828L394.473 432.126L387.136 432.126L387.136 433.828Z" fill="#999999"/>
<path d="M358.337 428.659C360.088 429.278 366.56 430.404 366.56 430.404C366.56 430.404 379.478 433.274 387.07 433.818L387.07 432.106C379.53 431.556 366.56 428.691 366.56 428.691C366.56 428.691 362.521 428.654 358.337 428.659Z" fill="#999999"/>
<path d="M365.664 428.655C367.415 429.273 373.876 430.399 373.876 430.399C373.876 430.399 386.862 433.333 394.434 433.877L394.434 432.143C386.862 431.593 373.876 428.655 373.876 428.655C373.876 428.655 369.859 428.649 365.664 428.655Z" fill="#CCCCCC"/>
<path d="M387.136 233.076L394.473 233.076L394.473 231.374L387.136 231.374L387.136 233.076Z" fill="#999999"/>
<path d="M387.136 233.076L394.473 233.076L394.473 231.374L387.136 231.374L387.136 233.076Z" fill="#999999"/>
<path d="M358.337 236.523C360.088 235.894 366.56 234.79 366.56 234.79C366.56 234.79 379.478 231.898 387.07 231.364L387.07 233.098C379.53 233.653 366.56 236.523 366.56 236.523C366.56 236.523 362.521 236.523 358.337 236.523Z" fill="#999999"/>
<path d="M365.664 236.523C367.415 235.894 373.876 234.79 373.876 234.79C373.876 234.79 386.862 231.845 394.434 231.301L394.434 233.045C386.862 233.585 373.876 236.523 373.876 236.523C373.876 236.523 369.859 236.523 365.664 236.523Z" fill="#CCCCCC"/>
<path d="M338.849 666.26L574.297 666.26L574.297 474.192L338.849 474.192L338.849 666.26Z" fill="#1A1A1A"/>
<path d="M338.351 618.76C336.663 618.76 335.225 617.333 335.225 615.567L335.225 603.965C335.225 602.21 336.637 600.772 338.351 600.772L379.226 600.772C380.946 600.772 382.363 602.204 382.363 603.965L382.363 615.567C382.363 617.333 380.956 618.76 379.226 618.76L338.351 618.76Z" fill="#B3B3B3"/>
<path d="M338.351 539.746C336.663 539.746 335.225 538.308 335.225 536.553L335.225 524.94C335.225 523.185 336.637 521.748 338.351 521.748L379.226 521.748C380.946 521.748 382.363 523.18 382.363 524.94L382.363 536.553C382.363 538.308 380.956 539.746 379.226 539.746L338.351 539.746Z" fill="#B3B3B3"/>
<path d="M379.237 618.76L374.166 618.76L374.166 600.782L379.237 600.782C380.946 600.782 382.363 602.22 382.363 603.975L382.363 615.588C382.358 617.348 380.956 618.76 379.237 618.76Z" fill="#CCCCCC"/>
<path d="M374.146 539.73L374.146 521.753L379.226 521.753C380.935 521.753 382.363 523.191 382.363 524.94L382.363 536.553C382.363 538.308 380.951 539.746 379.226 539.746L374.146 539.746L374.146 539.73Z" fill="#CCCCCC"/>
<path d="M357.443 618.76L375.02 618.76L375.02 600.782L357.443 600.782L357.443 618.76Z" fill="#999999"/>
<path d="M357.443 539.746L375.02 539.746L375.02 521.769L357.443 521.769L357.443 539.746Z" fill="#999999"/>
<path d="M347.123 618.76L363.887 618.76L363.887 600.782L347.123 600.782L347.123 618.76Z" fill="#B3B3B3"/>
<path d="M347.123 539.746L363.887 539.746L363.887 521.769L347.123 521.769L347.123 539.746Z" fill="#B3B3B3"/>
<path d="M349.868 618.76L356.23 618.76L356.23 600.782L349.868 600.782L349.868 618.76Z" fill="#CCCCCC"/>
<path d="M349.868 539.746L356.23 539.746L356.23 521.769L349.868 521.769L349.868 539.746Z" fill="#CCCCCC"/>
<path d="M374.29 618.76L375.645 618.76L375.645 600.782L374.29 600.782L374.29 618.76Z" fill="#E6E6E6"/>
<path d="M375.912 618.73L378.027 618.73L378.027 600.737L375.912 600.737L375.912 618.73Z" fill="#F2F2F2"/>
<path d="M384.008 474.217L384.008 475.406L338.881 475.406L338.881 477.304L338.881 515.161L338.881 518.322L341.997 518.539L364.07 520.056L386.134 521.584C387.843 521.716 389.25 523.228 389.25 524.972L389.25 536.511C389.25 538.255 387.843 539.772 386.134 539.915L364.07 541.443L341.997 542.97L338.881 543.187L338.881 546.369L338.881 594.275L338.881 597.447L341.997 597.674L364.07 599.128L386.134 600.613C387.832 600.719 389.25 602.236 389.25 603.98L389.25 615.678C389.25 617.433 387.838 618.95 386.134 619.092L364.07 620.535L341.997 622.01L338.88 622.211L338.88 625.388L338.88 663.245L338.88 665.159L384.008 665.159L384.008 666.406L599.294 666.406L602.441 666.406L602.441 663.229L602.441 477.452L602.441 474.265L599.294 474.265L384.008 474.265L384.008 474.217Z" fill="#CCCCCC"/>
<path d="M338.9 666.26L602.461 666.26L602.461 650.989L338.9 650.989L338.9 666.26Z" fill="#E6E6E6" fill-opacity="0.37"/>
<path d="M338.9 489.443L602.461 489.443L602.461 474.183L338.9 474.183L338.9 489.443Z" fill="#808080" fill-opacity="0.37"/>
<path d="M382.383 609.749C382.383 609.749 382.383 614.268 382.383 615.548C382.383 616.827 381.346 618.74 379.241 618.74C377.177 618.74 338.887 618.74 338.887 618.74L338.887 609.77L382.383 609.77L382.383 609.749Z" fill="#E6E6E6" fill-opacity="0.45"/>
<path d="M338.882 530.762L382.383 530.762C382.383 530.762 382.383 535.276 382.383 536.555C382.383 537.834 381.335 539.727 379.246 539.727C377.182 539.727 338.882 539.727 338.882 539.727L338.882 530.762Z" fill="#E6E6E6" fill-opacity="0.45"/>
<path d="M382.383 530.732C382.383 530.732 382.383 526.217 382.383 524.933C382.383 523.659 381.346 521.74 379.241 521.74C377.177 521.74 338.887 521.74 338.887 521.74L338.887 530.742L382.383 530.742L382.383 530.732Z" fill="#B3B3B3" fill-opacity="0.45"/>
<path d="M382.383 609.756C382.383 609.756 382.383 605.21 382.383 603.92C382.383 602.652 381.346 600.728 379.241 600.728C377.177 600.728 338.887 600.728 338.887 600.728L338.887 609.729L382.383 609.729L382.383 609.756Z" fill="#B3B3B3" fill-opacity="0.45"/>
<path d="M387.136 671.426L394.473 671.426L394.473 669.724L387.136 669.724L387.136 671.426Z" fill="#999999"/>
<path d="M387.136 671.426L394.473 671.426L394.473 669.724L387.136 669.724L387.136 671.426Z" fill="#999999"/>
<path d="M358.337 666.277C360.088 666.895 366.56 668.021 366.56 668.021C366.56 668.021 379.478 670.891 387.07 671.436L387.07 669.723C379.53 669.173 366.56 666.308 366.56 666.308C366.56 666.308 362.521 666.271 358.337 666.277Z" fill="#999999"/>
<path d="M365.664 666.272C367.415 666.89 373.876 668.016 373.876 668.016C373.876 668.016 386.862 670.95 394.434 671.494L394.434 669.76C386.862 669.211 373.876 666.272 373.876 666.272C373.876 666.272 369.859 666.266 365.664 666.272Z" fill="#CCCCCC"/>
<path d="M387.136 470.723L394.473 470.723L394.473 469.021L387.136 469.021L387.136 470.723Z" fill="#999999"/>
<path d="M387.136 470.723L394.473 470.723L394.473 469.021L387.136 469.021L387.136 470.723Z" fill="#999999"/>
<path d="M358.337 474.18C360.088 473.551 366.56 472.446 366.56 472.446C366.56 472.446 379.478 469.555 387.07 469.021L387.07 470.754C379.53 471.309 366.56 474.18 366.56 474.18C366.56 474.18 362.521 474.18 358.337 474.18Z" fill="#999999"/>
<path d="M365.664 474.18C367.415 473.551 373.876 472.446 373.876 472.446C373.876 472.446 386.862 469.502 394.434 468.957L394.434 470.702C386.862 471.241 373.876 474.18 373.876 474.18C373.876 474.18 369.859 474.18 365.664 474.18Z" fill="#CCCCCC"/>
<rect x="653.848" y="841.738" width="163.443" height="137.028" transform="rotate(-180 653.848 841.738)" fill="#404040"/>
<rect x="883.359" y="534.668" width="175" height="171.698" transform="rotate(-180 883.359 534.668)" fill="#404040"/>
<rect x="954.316" y="744.336" width="92.4528" height="166.745" transform="rotate(-180 954.316 744.336)" fill="#404040"/>
<rect x="814.023" y="744.336" width="92.4528" height="166.745" transform="rotate(-180 814.023 744.336)" fill="#404040"/>
<path d="M1020.78 579.895L1038.74 587.715L1185.62 587.715L1185.62 577.342L1185.62 515.07L1185.62 504.696L1038.74 504.696L1020.78 512.512L1020.78 579.895Z" fill="#CCCCCC"/>
<path d="M1048.57 504.707L1048.57 507.129L1065.06 507.129L1065.06 504.707L1048.57 504.707Z" fill="#1A1A1A"/>
<path d="M1048.57 585.293L1048.57 587.715L1065.06 587.715L1065.06 585.293L1048.57 585.293Z" fill="#1A1A1A"/>
<path d="M1067.17 579.609L1067.17 583.066L1083.66 583.066L1083.66 579.609L1067.17 579.609Z" fill="#1A1A1A"/>
<path d="M1070.76 580.39L1070.76 582.275L1080.13 582.275L1080.13 580.39L1070.76 580.39Z" fill="#CCCCCC"/>
<path d="M1067.17 509.331L1067.17 512.793L1083.66 512.793L1083.66 509.331L1067.17 509.331Z" fill="#1A1A1A"/>
<path d="M1067.17 562.031L1067.17 565.498L1083.65 565.498L1083.65 562.031L1067.17 562.031Z" fill="#1A1A1A"/>
<path d="M1067.17 526.908L1067.17 530.361L1083.65 530.361L1083.65 526.908L1067.17 526.908Z" fill="#1A1A1A"/>
<path d="M1070.76 510.103L1070.76 512.002L1080.13 512.002L1080.13 510.103L1070.76 510.103Z" fill="#CCCCCC"/>
<path d="M1070.76 527.671L1070.76 529.57L1080.13 529.57L1080.13 527.671L1070.76 527.671Z" fill="#CCCCCC"/>
<path d="M1070.76 562.847L1070.76 564.746L1080.13 564.746L1080.13 562.847L1070.76 562.847Z" fill="#CCCCCC"/>
<path d="M1103.01 526.895L1103.01 565.498L1128.49 565.498L1128.49 526.895L1103.01 526.895Z" fill="#939393"/>
<path d="M1128.49 565.498L1103.01 565.498L1103.01 526.904" stroke="#1A1A1A" stroke-width="0.656153" stroke-linecap="square"/>
<path d="M1103.01 526.904L1128.49 526.904L1128.49 565.498" stroke="#262626" stroke-width="0.656153" stroke-linecap="square"/>
<path d="M1132.73 542.826L1132.73 549.746L1140.97 549.746L1140.97 542.826L1132.73 542.826Z" fill="#1A1A1A"/>
<path d="M1134.63 544.312L1134.63 548.242L1139.15 548.242L1139.15 544.312L1134.63 544.312Z" fill="#CCCCCC"/>
<path d="M1175.55 503.282L1175.55 589.131L1201.98 589.131L1201.98 503.282L1175.55 503.282Z" fill="#212121"/>
<path d="M1175.41 516.777L1175.41 575.586L1201.41 575.586L1201.41 575.559L1201.97 575.559L1201.97 516.631L1201.41 516.631L1201.41 516.777L1175.41 516.777Z" fill="#2B2B2B"/>
<path d="M1175.41 573.673L1175.41 575.609L1175.53 586.055L1201.97 586.055L1201.97 573.673L1175.41 573.673Z" fill="#292929"/>
<path d="M1175.41 520.869L1175.41 516.539L1175.54 506.102L1201.97 506.102L1201.97 520.869L1175.41 520.869Z" fill="#292929"/>
<path d="M1175.55 530.761L1175.55 553.584L1201.85 553.584L1201.85 530.761L1175.55 530.761Z" fill="#333333"/>
<path d="M1175.55 537.33L1175.55 549.844L1201.85 549.844L1201.85 537.33L1175.55 537.33Z" fill="#383838"/>
<path d="M1175.55 503.299L1175.55 506.094L1201.97 506.094L1201.97 503.299L1175.55 503.299Z" fill="#212121"/>
<path d="M394.805 720.448L394.805 735.178L394.805 752.523L401.745 759.181L419.81 759.181L426.75 752.523L426.75 735.178L426.75 720.448L426.75 703.108L419.81 696.445L401.745 696.445L394.805 703.108L394.805 720.448Z" fill="#404040"/>
<path d="M405.684 706.689L405.684 716.828L408.155 714.355L408.155 709.162L405.684 706.689Z" fill="#B8AF82"/>
<path d="M408.155 709.162L405.684 706.689L415.877 706.689L413.405 709.162L408.155 709.162Z" fill="#80795B"/>
<path d="M415.89 716.828L413.418 714.355L413.418 709.162L415.89 706.689L415.89 716.828Z" fill="#5E5B43"/>
<path d="M413.405 714.355L415.877 716.828L405.684 716.828L408.155 714.355L413.405 714.355Z" fill="#9A916C"/>
<path d="M405.684 738.438L405.684 748.567L408.155 746.098L408.155 740.901L405.684 738.438Z" fill="#B8AF82"/>
<path d="M408.155 740.901L405.684 738.438L415.877 738.438L413.405 740.901L408.155 740.901Z" fill="#80795B"/>
<path d="M415.89 748.567L413.418 746.098L413.418 740.901L415.89 738.438L415.89 748.567Z" fill="#5E5B43"/>
<path d="M405.684 748.572L408.155 746.104L413.405 746.104L415.877 748.572L405.684 748.572Z" fill="#9A916C"/>
<path d="M457.434 720.448L457.434 703.108L450.494 696.445L432.433 696.445L425.488 703.108L425.488 720.448L425.488 735.178L425.488 752.523L432.433 759.181L450.494 759.181L457.434 752.523L457.434 735.178L457.434 720.448Z" fill="#404040"/>
<path d="M440.098 714.355L440.098 709.162L437.617 706.689L437.617 716.828L440.098 714.355Z" fill="#B8AF82"/>
<path d="M447.81 706.689L445.352 709.162L440.098 709.162L437.617 706.689L447.81 706.689Z" fill="#80795B"/>
<path d="M445.352 709.162L447.81 706.689L447.81 716.828L445.352 714.355L445.352 709.162Z" fill="#5E5B43"/>
<path d="M437.617 716.828L440.098 714.355L445.352 714.355L447.81 716.828L437.617 716.828Z" fill="#9A916C"/>
<path d="M445.362 740.889L440.117 740.889L440.117 746.108L445.362 746.108L445.362 740.889Z" fill="#8C8663"/>
<path d="M437.617 738.438L437.617 748.567L440.098 746.098L440.098 740.901L437.617 738.438Z" fill="#B8AF82"/>
<path d="M440.098 740.901L437.617 738.438L447.81 738.438L445.352 740.901L440.098 740.901Z" fill="#80795B"/>
<path d="M447.81 748.567L445.352 746.098L445.352 740.901L447.81 738.438L447.81 748.567Z" fill="#5E5B43"/>
<path d="M437.617 748.572L440.098 746.104L445.352 746.104L447.81 748.572L437.617 748.572Z" fill="#9A916C"/>
<path d="M413.37 709.17L408.125 709.17L408.125 714.385L413.37 714.385L413.37 709.17Z" fill="#8C8663"/>
<path d="M413.37 740.889L408.125 740.889L408.125 746.108L413.37 746.108L413.37 740.889Z" fill="#8C8663"/>
<path d="M445.362 709.17L440.117 709.17L440.117 714.385L445.362 714.385L445.362 709.17Z" fill="#8C8663"/>
<path d="M445.362 740.889L440.117 740.889L440.117 746.108L445.362 746.108L445.362 740.889Z" fill="#8C8663"/>
<path d="M1018.73 284.51L1018.73 277.913C1018.73 262.616 1006.25 250.215 990.844 250.215L916.916 250.215C901.515 250.215 889.03 262.616 889.03 277.913L889.03 284.51C889.03 299.807 901.515 312.208 916.916 312.208L990.844 312.208C1006.25 312.208 1018.73 299.807 1018.73 284.51Z" fill="#404040" stroke="#ABAEAC" stroke-width="5.14298"/>
<path d="M968.613 284.928L968.613 278.01C968.613 274.201 965.15 271.113 960.879 271.113L907.398 271.113C903.127 271.113 899.664 274.201 899.664 278.01L899.664 284.928C899.664 288.737 903.127 291.824 907.398 291.824L960.879 291.824C965.15 291.824 968.613 288.737 968.613 284.928Z" fill="#9E9999"/>
<path d="M1195.18 315.233C1214.48 315.233 1230.12 300.003 1230.12 281.215C1230.12 262.428 1214.48 247.197 1195.18 247.197L1003.05 247.197C983.75 247.197 968.109 262.428 968.109 281.215C968.109 300.003 983.75 315.233 1003.05 315.233L1195.18 315.233Z" fill="#ABAEAC"/>
<path d="M1009.55 296.032L1009.55 266.488C1009.55 259.237 1003.64 253.359 996.357 253.359L981.374 253.359C974.088 253.359 968.181 259.237 968.181 266.488L968.181 296.032C968.181 303.283 974.088 309.161 981.374 309.161L996.357 309.161C1003.64 309.161 1009.55 303.283 1009.55 296.032Z" fill="#404040"/>
<path d="M1222.44 291.628L1222.44 270.768C1222.44 264.087 1217 258.672 1210.29 258.672L1022 258.672C1015.29 258.672 1009.85 264.087 1009.85 270.768L1009.85 291.628C1009.85 298.309 1015.29 303.724 1022 303.724L1210.29 303.724C1217 303.724 1222.44 298.309 1222.44 291.628Z" fill="#D6D6D6" fill-opacity="0.929167"/>
<path d="M1229.36 287.226L1229.36 275.473C1229.36 266.593 1222.12 259.395 1213.2 259.395C1204.27 259.395 1197.04 266.593 1197.04 275.473L1197.04 287.225C1197.04 296.105 1204.27 303.304 1213.2 303.304C1222.12 303.304 1229.36 296.105 1229.36 287.226Z" fill="#D6D6D6" fill-opacity="0.929167"/>
<path d="M1107.29 430.166L1100.25 430.166L1100.25 435.024L1107.29 435.024L1107.29 430.166Z" fill="#666666"/>
<path d="M1107.29 439.473L1100.25 439.473L1100.25 444.331L1107.29 444.331L1107.29 439.473Z" fill="#666666"/>
<path d="M1107.29 449.619L1100.25 449.619L1100.25 454.477L1107.29 454.477L1107.29 449.619Z" fill="#666666"/>
<path d="M1107.49 381.455L1100.45 381.455L1100.45 386.313L1107.49 386.313L1107.49 381.455Z" fill="#666666"/>
<path d="M1107.17 370.83L1100.14 370.83L1100.14 375.688L1107.17 375.688L1107.17 370.83Z" fill="#666666"/>
<path d="M1107.49 420.645L1100.45 420.645L1100.45 425.503L1107.49 425.503L1107.49 420.645Z" fill="#666666"/>
<path d="M1107.23 411.182L1100.2 411.182L1100.2 416.04L1107.23 416.04L1107.23 411.182Z" fill="#666666"/>
<path d="M1107.17 401.562L1100.14 401.562L1100.14 406.421L1107.17 406.421L1107.17 401.562Z" fill="#666666"/>
<path d="M1107.37 392.041L1100.33 392.041L1100.33 396.899L1107.37 396.899L1107.37 392.041Z" fill="#666666"/>
<path opacity="0.94" d="M1166.18 357.812L1148.91 357.812L1148.91 362.671L1166.18 362.671L1166.18 357.812Z" fill="#666666"/>
<path d="M1195.32 462.227L1105.61 462.227L1105.61 364.594L1195.32 364.594L1195.32 462.227Z" fill="#B3B3B3"/>
<path d="M1133.31 357.441L1116.04 357.441L1116.04 362.3L1133.31 362.299L1133.31 357.441Z" fill="#666666"/>
<path d="M1133.25 463.418L1115.98 463.418L1115.98 468.276L1133.25 468.276L1133.25 463.418Z" fill="#666666"/>
<path d="M1106.23 379.487L1114.71 379.487L1114.71 388.106L1106.23 388.106L1106.23 390.456L1109.11 390.456L1109.11 434.963L1106.23 434.963L1106.23 437.784L1114.71 437.784L1114.71 446.403L1106.23 446.403L1106.23 463.955L1195.95 463.955L1195.95 361.464L1106.23 361.464L1106.23 379.487Z" fill="#E6E6E6"/>
<path d="M1165.87 463.769L1148.59 463.77L1148.59 468.628L1165.87 468.628L1165.87 463.769Z" fill="#666666"/>
<path opacity="0.94" d="M1194.74 456.289L1102.46 456.289L1102.46 463.028L1194.74 463.028L1194.74 456.289Z" fill="#F2F2F2"/>
<path opacity="0.94" d="M1198.7 360.898L1102.91 360.898L1102.91 364.189L1198.7 364.189L1198.7 360.898Z" fill="#999999"/>
<path opacity="0.94" d="M1190.64 460.507L1190.64 364.285C1190.64 362.248 1192.24 360.838 1194.16 360.838L1194.32 360.838C1196.4 360.838 1197.84 362.405 1197.84 364.285L1197.84 460.507C1197.84 462.545 1196.24 463.955 1194.32 463.955L1194.16 463.955C1192.24 463.955 1190.64 462.388 1190.64 460.507Z" fill="#B3B3B3"/>
<path opacity="0.94" d="M1193.46 442.236L1190.59 442.236L1190.59 443.647L1193.46 443.647L1193.46 442.236Z" fill="#DECD87"/>
<path opacity="0.94" d="M1193.46 372.744L1190.59 372.744L1190.59 374.155L1193.46 374.155L1193.46 372.744Z" fill="#DECD87"/>
<path opacity="0.94" d="M1193.35 450.469L1190.47 450.469L1190.47 451.879L1193.35 451.879L1193.35 450.469Z" fill="#DECD87"/>
<path opacity="0.94" d="M1193.35 434.502L1190.47 434.502L1190.47 435.912L1193.35 435.912L1193.35 434.502Z" fill="#DECD87"/>
<path opacity="0.94" d="M1193.52 426.963L1190.64 426.963L1190.64 428.373L1193.52 428.373L1193.52 426.963Z" fill="#DECD87"/>
<path opacity="0.94" d="M1193.41 419.766L1190.53 419.766L1190.53 421.176L1193.41 421.176L1193.41 419.766Z" fill="#DECD87"/>
<path opacity="0.94" d="M1193.41 412.725L1190.53 412.725L1190.53 414.135L1193.41 414.135L1193.41 412.725Z" fill="#DECD87"/>
<path opacity="0.94" d="M1193.35 405.459L1190.47 405.459L1190.47 406.869L1193.35 406.869L1193.35 405.459Z" fill="#DECD87"/>
<path opacity="0.94" d="M1193.52 397.256L1190.64 397.256L1190.64 398.666L1193.52 398.666L1193.52 397.256Z" fill="#DECD87"/>
<path opacity="0.94" d="M1193.29 388.896L1190.41 388.896L1190.41 390.307L1193.29 390.307L1193.29 388.896Z" fill="#DECD87"/>
<path opacity="0.94" d="M1193.46 380.098L1190.59 380.098L1190.59 381.508L1193.46 381.508L1193.46 380.098Z" fill="#DECD87"/>
<path opacity="0.94" d="M1198.11 446.514L1195.23 446.514L1195.23 447.924L1198.11 447.924L1198.11 446.514Z" fill="#DECD87"/>
<path opacity="0.94" d="M1198.05 438.652L1195.18 438.652L1195.18 440.063L1198.05 440.063L1198.05 438.652Z" fill="#DECD87"/>
<path opacity="0.94" d="M1198.19 430.547L1195.31 430.547L1195.31 431.957L1198.19 431.957L1198.19 430.547Z" fill="#DECD87"/>
<path opacity="0.94" d="M1198.19 423.477L1195.31 423.477L1195.31 424.887L1198.19 424.887L1198.19 423.477Z" fill="#DECD87"/>
<path opacity="0.94" d="M1198.11 416.309L1195.23 416.309L1195.23 417.719L1198.11 417.719L1198.11 416.309Z" fill="#DECD87"/>
<path opacity="0.94" d="M1198.25 408.887L1195.37 408.887L1195.37 410.297L1198.25 410.297L1198.25 408.887Z" fill="#DECD87"/>
<path opacity="0.94" d="M1198.25 401.094L1195.37 401.094L1195.37 402.504L1198.25 402.504L1198.25 401.094Z" fill="#DECD87"/>
<path opacity="0.94" d="M1198.31 392.793L1195.43 392.793L1195.43 394.203L1198.31 394.203L1198.31 392.793Z" fill="#DECD87"/>
<path opacity="0.94" d="M1198.19 384.346L1195.31 384.346L1195.31 385.756L1198.19 385.756L1198.19 384.346Z" fill="#DECD87"/>
<path opacity="0.94" d="M1198.19 367.744L1195.31 367.744L1195.31 369.155L1198.19 369.155L1198.19 367.744Z" fill="#DECD87"/>
<path opacity="0.94" d="M1198.11 376.426L1195.23 376.426L1195.23 377.836L1198.11 377.836L1198.11 376.426Z" fill="#DECD87"/>
<path opacity="0.94" d="M1198.25 454.717L1195.37 454.717L1195.37 456.127L1198.25 456.127L1198.25 454.717Z" fill="#DECD87"/>
<path d="M1084.15 742.695L1089.28 742.695L1089.28 733.986L1084.15 733.986L1084.15 742.695Z" fill="#D5CAC2"/>
<path d="M1074.92 742.695L1080.04 742.695L1080.04 733.986L1074.92 733.986L1074.92 742.695Z" fill="#D5CAC2"/>
<path d="M1065.79 742.695L1070.92 742.695L1070.92 733.986L1065.79 733.986L1065.79 742.695Z" fill="#D5CAC2"/>
<path d="M1056.62 742.695L1061.74 742.695L1061.74 733.986L1056.62 733.986L1056.62 742.695Z" fill="#D5CAC2"/>
<path d="M1047.38 742.695L1052.5 742.695L1052.5 733.986L1047.38 733.986L1047.38 742.695Z" fill="#D5CAC2"/>
<path d="M1038.28 742.695L1043.4 742.695L1043.4 733.986L1038.28 733.986L1038.28 742.695Z" fill="#D5CAC2"/>
<path d="M1029.1 742.695L1034.22 742.695L1034.22 733.986L1029.1 733.986L1029.1 742.695Z" fill="#D5CAC2"/>
<path d="M1019.86 742.695L1024.98 742.695L1024.98 733.986L1019.86 733.986L1019.86 742.695Z" fill="#D5CAC2"/>
<path d="M1084.15 655.713L1089.28 655.713L1089.28 647.004L1084.15 647.004L1084.15 655.713Z" fill="#D5CAC2"/>
<path d="M1074.92 655.713L1080.04 655.713L1080.04 647.004L1074.92 647.004L1074.92 655.713Z" fill="#D5CAC2"/>
<path d="M1065.79 655.713L1070.92 655.713L1070.92 647.004L1065.79 647.004L1065.79 655.713Z" fill="#D5CAC2"/>
<path d="M1056.62 655.713L1061.74 655.713L1061.74 647.004L1056.62 647.004L1056.62 655.713Z" fill="#D5CAC2"/>
<path d="M1047.38 655.713L1052.5 655.713L1052.5 647.004L1047.38 647.004L1047.38 655.713Z" fill="#D5CAC2"/>
<path d="M1038.28 655.713L1043.4 655.713L1043.4 647.004L1038.28 647.004L1038.28 655.713Z" fill="#D5CAC2"/>
<path d="M1029.1 655.713L1034.22 655.713L1034.22 647.004L1029.1 647.004L1029.1 655.713Z" fill="#D5CAC2"/>
<path d="M1019.86 655.654L1024.98 655.654L1024.98 646.945L1019.86 646.945L1019.86 655.654Z" fill="#D5CAC2"/>
<path d="M1005.68 724.691L1005.68 729.814L1014.39 729.814L1014.39 724.691L1005.68 724.691Z" fill="#D5CAC2"/>
<path d="M1005.68 715.512L1005.68 720.635L1014.39 720.635L1014.39 715.512L1005.68 715.512Z" fill="#D5CAC2"/>
<path d="M1005.68 706.332L1005.68 711.455L1014.39 711.455L1014.39 706.332L1005.68 706.332Z" fill="#D5CAC2"/>
<path d="M1005.63 697.162L1005.62 702.285L1014.33 702.285L1014.33 697.162L1005.63 697.162Z" fill="#D5CAC2"/>
<path d="M1005.68 687.982L1005.68 693.105L1014.39 693.105L1014.39 687.982L1005.68 687.982Z" fill="#D5CAC2"/>
<path d="M1005.68 678.773L1005.68 683.896L1014.39 683.896L1014.39 678.773L1005.68 678.773Z" fill="#D5CAC2"/>
<path d="M1005.68 669.594L1005.68 674.717L1014.39 674.717L1014.39 669.594L1005.68 669.594Z" fill="#D5CAC2"/>
<path d="M1005.68 660.414L1005.68 665.537L1014.39 665.537L1014.39 660.414L1005.68 660.414Z" fill="#D5CAC2"/>
<path d="M1094.14 724.447L1094.14 729.57L1102.85 729.57L1102.85 724.447L1094.14 724.447Z" fill="#D5CAC2"/>
<path d="M1094.08 715.268L1094.08 720.391L1102.79 720.391L1102.79 715.268L1094.08 715.268Z" fill="#D5CAC2"/>
<path d="M1094.14 706.088L1094.14 711.211L1102.85 711.211L1102.85 706.088L1094.14 706.088Z" fill="#D5CAC2"/>
<path d="M1094.14 696.918L1094.14 702.041L1102.85 702.041L1102.85 696.918L1094.14 696.918Z" fill="#D5CAC2"/>
<path d="M1094.08 687.738L1094.08 692.861L1102.79 692.861L1102.79 687.738L1094.08 687.738Z" fill="#D5CAC2"/>
<path d="M1094.14 678.529L1094.14 683.652L1102.85 683.652L1102.85 678.529L1094.14 678.529Z" fill="#D5CAC2"/>
<path d="M1094.08 669.35L1094.08 674.473L1102.79 674.473L1102.79 669.35L1094.08 669.35Z" fill="#D5CAC2"/>
<path d="M1094.14 660.17L1094.14 665.293L1102.85 665.293L1102.85 660.17L1094.14 660.17Z" fill="#D5CAC2"/>
<path fill-rule="evenodd" clip-rule="evenodd" d="M1009.54 649.14L1098.36 649.14C1098.94 649.14 1099.45 649.652 1099.45 650.229L1099.45 738.921C1099.45 739.497 1098.94 740.01 1098.36 740.01L1009.54 740.01C1008.97 740.01 1008.46 739.497 1008.46 738.921L1008.46 650.229C1008.46 649.652 1008.9 649.14 1009.54 649.14Z" fill="#404041"/>
<path d="M694.578 354.727L698.26 354.727L698.26 348.467L694.578 348.467L694.578 354.727Z" fill="#D5CAC2"/>
<path d="M687.976 354.727L691.658 354.727L691.658 348.467L687.976 348.467L687.976 354.727Z" fill="#D5CAC2"/>
<path d="M681.374 354.727L685.057 354.727L685.057 348.467L681.374 348.467L681.374 354.727Z" fill="#D5CAC2"/>
<path d="M674.773 354.727L678.455 354.727L678.455 348.467L674.773 348.467L674.773 354.727Z" fill="#D5CAC2"/>
<path d="M668.171 354.727L671.854 354.727L671.854 348.467L668.171 348.467L668.171 354.727Z" fill="#D5CAC2"/>
<path d="M661.57 354.727L665.252 354.727L665.252 348.467L661.57 348.467L661.57 354.727Z" fill="#D5CAC2"/>
<path d="M654.968 354.727L658.65 354.727L658.65 348.467L654.968 348.467L654.968 354.727Z" fill="#D5CAC2"/>
<path d="M648.367 354.727L652.049 354.727L652.049 348.467L648.367 348.467L648.367 354.727Z" fill="#D5CAC2"/>
<path d="M694.578 291.699L698.26 291.699L698.26 285.439L694.578 285.439L694.578 291.699Z" fill="#D5CAC2"/>
<path d="M687.976 291.699L691.658 291.699L691.658 285.439L687.976 285.439L687.976 291.699Z" fill="#D5CAC2"/>
<path d="M681.374 291.699L685.057 291.699L685.057 285.439L681.374 285.439L681.374 291.699Z" fill="#D5CAC2"/>
<path d="M674.773 291.699L678.455 291.699L678.455 285.439L674.773 285.439L674.773 291.699Z" fill="#D5CAC2"/>
<path d="M668.171 291.699L671.854 291.699L671.854 285.439L668.171 285.439L668.171 291.699Z" fill="#D5CAC2"/>
<path d="M661.57 291.699L665.252 291.699L665.252 285.439L661.57 285.439L661.57 291.699Z" fill="#D5CAC2"/>
<path d="M654.968 291.699L658.65 291.699L658.65 285.439L654.968 285.439L654.968 291.699Z" fill="#D5CAC2"/>
<path d="M648.367 291.67L652.049 291.67L652.049 285.41L648.367 285.41L648.367 291.67Z" fill="#D5CAC2"/>
<path d="M637.908 341.493L637.908 345.176L644.168 345.176L644.168 341.493L637.908 341.493Z" fill="#D5CAC2"/>
<path d="M637.908 334.892L637.908 338.574L644.168 338.574L644.168 334.892L637.908 334.892Z" fill="#D5CAC2"/>
<path d="M637.908 328.29L637.908 331.973L644.168 331.973L644.168 328.29L637.908 328.29Z" fill="#D5CAC2"/>
<path d="M637.908 321.689L637.908 325.371L644.168 325.371L644.168 321.689L637.908 321.689Z" fill="#D5CAC2"/>
<path d="M637.908 315.097L637.908 318.779L644.168 318.779L644.168 315.097L637.908 315.097Z" fill="#D5CAC2"/>
<path d="M637.908 308.495L637.908 312.178L644.168 312.178L644.168 308.495L637.908 308.495Z" fill="#D5CAC2"/>
<path d="M637.908 301.894L637.908 305.576L644.168 305.576L644.168 301.894L637.908 301.894Z" fill="#D5CAC2"/>
<path d="M637.908 295.292L637.908 298.975L644.168 298.975L644.168 295.292L637.908 295.292Z" fill="#D5CAC2"/>
<path d="M702.088 341.396L702.088 345.078L708.348 345.078L708.348 341.396L702.088 341.396Z" fill="#D5CAC2"/>
<path d="M702.088 334.794L702.088 338.477L708.348 338.477L708.348 334.794L702.088 334.794Z" fill="#D5CAC2"/>
<path d="M702.088 328.193L702.088 331.875L708.348 331.875L708.348 328.193L702.088 328.193Z" fill="#D5CAC2"/>
<path d="M702.088 321.591L702.088 325.273L708.348 325.273L708.348 321.591L702.088 321.591Z" fill="#D5CAC2"/>
<path d="M702.029 314.999L702.029 318.682L708.289 318.682L708.289 314.999L702.029 314.999Z" fill="#D5CAC2"/>
<path d="M702.088 308.398L702.088 312.08L708.348 312.08L708.348 308.398L702.088 308.398Z" fill="#D5CAC2"/>
<path d="M702.088 301.796L702.088 305.479L708.348 305.479L708.348 301.796L702.088 301.796Z" fill="#D5CAC2"/>
<path d="M702.088 295.195L702.088 298.877L708.348 298.877L708.348 295.195L702.088 295.195Z" fill="#D5CAC2"/>
<path fill-rule="evenodd" clip-rule="evenodd" d="M641.039 287.236L704.88 287.236C705.294 287.236 705.662 287.604 705.662 288.018L705.662 351.766C705.662 352.181 705.294 352.549 704.88 352.549L641.039 352.549C640.625 352.549 640.257 352.181 640.257 351.766L640.257 288.018C640.257 287.604 640.579 287.236 641.039 287.236Z" fill="#404041"/>
<path d="M1147.57 641.662L1147.57 611.904C1147.57 611.089 1148.48 610.273 1149.4 610.273L1178.75 610.273C1179.67 610.273 1180.59 611.089 1180.59 611.904L1180.59 641.662C1180.59 642.477 1179.67 643.293 1178.75 643.293L1149.4 643.293C1148.03 643.293 1147.57 642.477 1147.57 641.662ZM1149.4 612.312L1149.4 641.662L1178.29 641.662L1178.29 612.312L1149.4 612.312Z" fill="#FFFAE8"/>
<path d="M1147.57 641.662L1147.57 611.904C1147.57 611.089 1148.48 610.273 1149.4 610.273L1178.75 610.273C1179.67 610.273 1180.59 611.089 1180.59 611.904L1180.59 641.662C1180.59 642.477 1179.67 643.293 1178.75 643.293L1149.4 643.293C1148.03 643.293 1147.57 642.477 1147.57 641.662ZM1149.4 612.312L1149.4 641.662L1178.29 641.662L1178.29 612.312L1149.4 612.312Z" fill="#FFF4D9" fill-opacity="0.2"/>
<rect x="1179.34" y="641.895" width="30.3622" height="30.3622" transform="rotate(-180 1179.34 641.895)" fill="white"/>
<rect x="1175.57" y="646.953" width="22.7716" height="3.79527" transform="rotate(-180 1175.57 646.953)" fill="#FFFAE8"/>
<rect x="1175.57" y="610.273" width="22.7716" height="3.79527" transform="rotate(-180 1175.57 610.273)" fill="#FFFAE8"/>
<circle cx="1164.17" cy="626.695" r="11.3858" transform="rotate(-180 1164.17 626.695)" stroke="#ECD7BC" stroke-width="2.53018"/>
<circle cx="3.16273" cy="3.16273" r="1.89764" transform="matrix(-1 -8.74228e-08 -8.74228e-08 1 1166.7 624.17)" stroke="#BE813A" stroke-width="2.53018"/>
<path d="M752.148 414.077L752.148 420.014C752.148 420.014 751.865 419.943 751.759 419.908C750.24 419.449 748.72 418.919 747.2 418.459C746.07 418.106 744.868 417.823 743.666 417.682C743.348 417.646 743.03 417.611 742.712 417.646C741.793 417.717 741.193 418.459 741.334 419.378C741.405 420.085 741.652 420.756 742.041 421.357C742.394 421.922 742.783 422.523 743.419 422.877C743.808 423.124 744.267 423.301 744.656 423.477C745.999 423.972 747.377 424.361 748.826 424.679C749.921 424.926 751.017 425.174 752.183 425.421L752.183 431.499C751.9 431.429 751.653 431.323 751.335 431.287C750.911 431.217 750.628 431.005 750.31 430.687C749.25 429.485 748.049 428.425 746.812 427.471C746.6 427.259 746.352 427.153 746.07 427.011C746.105 427.047 746.176 427.117 746.211 427.153C747.024 427.895 747.73 428.672 748.437 429.52C749.179 430.404 749.921 431.358 750.522 432.312C751.158 433.302 751.724 434.362 752.042 435.528C752.36 436.694 752.466 437.931 752.501 439.168C752.501 439.875 752.466 440.617 752.289 441.359C752.006 442.49 751.476 443.515 750.487 444.221C749.639 444.787 748.685 445.034 747.695 445.034C745.822 445.07 744.161 444.469 742.536 443.55C741.581 443.02 740.733 442.384 740.062 441.571C739.214 440.511 738.613 439.274 738.26 437.931C737.906 436.518 737.8 435.139 737.765 433.69C737.729 432.029 737.729 430.404 737.729 428.778C737.729 428.708 737.765 428.602 737.765 428.46C738.825 428.743 739.85 428.99 740.875 429.238C740.839 429.485 740.804 429.662 740.769 429.838C740.557 431.181 740.486 432.524 740.663 433.902C740.769 434.927 741.051 435.917 741.546 436.836C742.041 437.684 742.642 438.426 743.596 438.885C744.868 439.521 746.282 439.168 747.13 438.037C747.66 437.295 747.942 436.447 747.978 435.493C748.049 434.291 747.73 433.125 747.271 432.029C746.988 431.393 746.67 430.793 746.352 430.192C746.246 429.944 746.034 429.874 745.822 429.803C745.186 429.662 744.515 429.485 743.878 429.344C742.324 428.99 740.769 428.566 739.214 428.213C737.305 427.718 735.397 427.294 733.489 426.799C733.453 426.764 733.347 426.729 733.277 426.729L733.277 420.65C734.266 420.933 735.185 421.216 736.139 421.463C737.093 421.71 738.012 422.064 739.037 422.241C739.002 422.064 738.966 421.887 738.931 421.781C738.578 420.509 738.295 419.166 738.154 417.823C738.048 416.798 738.048 415.809 738.26 414.819C738.578 413.3 739.602 412.275 741.087 411.992C741.864 411.851 742.642 411.851 743.419 411.921C744.903 412.063 746.317 412.416 747.73 412.84C749.179 413.229 750.593 413.582 752.006 414.007C752.006 414.007 752.077 414.077 752.148 414.077Z" fill="white"/>
<path d="M733.284 457.741C733.284 457.741 733.178 452.052 733.249 451.628C735.864 452.264 738.514 452.935 741.094 453.607C741.094 453.607 741.129 453.571 741.165 453.536C741.059 453.43 740.988 453.359 740.917 453.218C739.857 451.875 738.797 450.532 737.772 449.224C737.666 449.118 737.595 448.977 737.631 448.871C737.631 446.68 737.631 444.489 737.631 442.298C737.631 442.298 737.666 442.192 737.631 442.086C738.02 442.475 738.267 442.934 738.585 443.323C738.903 443.712 739.186 444.136 739.504 444.524C739.822 444.913 740.105 445.337 740.423 445.726C740.741 446.115 741.023 446.539 741.341 446.927C741.659 447.316 741.942 447.74 742.26 448.129C742.578 448.518 742.861 448.942 743.179 449.33C743.497 449.719 743.78 450.143 744.133 450.567C746.784 448.482 749.434 446.397 752.085 444.312C752.085 444.383 752.12 444.489 752.12 444.56C752.12 446.609 752.12 448.73 752.12 450.779C752.12 450.991 752.049 451.133 751.908 451.274C750.353 452.546 748.833 453.783 747.278 455.055C747.243 455.091 747.208 455.126 747.137 455.197C747.314 455.232 747.455 455.303 747.561 455.338C749.081 455.727 750.565 456.08 752.085 456.469C752.085 456.469 752.085 456.469 752.12 456.504C752.191 456.787 752.226 462.053 752.12 462.583C752.085 462.547 751.978 462.583 751.872 462.547C751.59 462.477 751.307 462.406 751.024 462.335C750.777 462.3 750.636 462.159 750.459 461.982C749.681 461.063 748.869 460.25 747.95 459.473C747.455 459.049 746.96 458.695 746.501 458.307C746.395 458.201 746.289 458.095 746.148 458.095C746.324 458.271 746.536 458.483 746.713 458.66C747.667 459.614 748.586 460.604 749.328 461.699C750.141 462.865 750.918 464.067 751.448 465.445C751.837 466.399 752.12 467.389 752.261 468.378C752.297 468.838 752.297 469.262 752.297 469.756C752.261 470.852 752.155 472.018 751.802 473.078C751.342 474.457 750.459 475.411 749.01 475.87C748.515 476.012 748.021 476.082 747.526 476.082C745.476 476.082 743.497 475.587 741.73 474.598C740.14 473.714 739.15 472.372 738.55 470.64C738.196 469.65 737.984 468.59 737.914 467.53C737.666 465.304 737.701 463.077 737.772 460.886C737.772 460.533 737.808 460.215 737.808 459.862C737.808 459.862 737.808 459.862 737.878 459.791C738.797 460.003 739.716 460.286 740.635 460.568C740.635 460.71 740.67 460.886 740.635 461.063C740.458 462.512 740.529 463.926 740.811 465.339C741.059 466.647 741.483 467.848 742.296 468.944C742.826 469.686 743.462 470.322 744.31 470.675C745.405 471.135 746.466 470.852 747.172 469.863C747.596 469.226 747.844 468.484 747.95 467.742C748.197 466.293 747.95 464.915 747.42 463.607C747.102 462.865 746.748 462.159 746.324 461.452C746.218 461.275 746.112 461.24 745.935 461.134C745.37 460.992 744.805 460.851 744.275 460.745C742.755 460.356 741.271 460.003 739.751 459.614C738.267 459.261 736.818 458.872 735.334 458.519C734.662 458.342 734.026 458.201 733.355 458.024L733.284 457.741Z" fill="white"/>
<path d="M752.236 399.49C753.968 399.878 755.664 400.232 757.36 400.585L757.36 406.169C755.028 405.674 752.731 405.144 750.399 404.649C750.646 404.897 750.893 405.144 751.141 405.391C751.883 406.134 752.413 407.017 752.696 408.077C752.872 408.89 752.766 409.632 752.13 410.198C751.812 410.516 751.317 410.657 750.929 410.763C750.222 410.904 749.55 410.869 748.844 410.798C747.077 410.586 745.416 410.127 743.72 409.632C742.377 409.208 741.034 408.855 739.656 408.466C739.55 408.431 739.408 408.431 739.231 408.395C739.196 409.208 739.231 409.95 739.196 410.763L738.101 410.728C738.03 408.466 737.959 406.204 737.853 403.907C738.065 403.978 738.277 403.978 738.419 404.049C740.433 404.649 742.447 405.25 744.462 405.851C745.946 406.275 747.465 406.664 748.95 406.946C749.48 407.052 750.081 407.158 750.681 407.123C750.752 407.123 750.893 407.123 750.964 407.123C751.247 407.052 751.388 406.77 751.247 406.487C751.141 406.31 750.964 406.134 750.823 405.992C750.328 405.497 749.692 405.215 749.091 404.897C748.49 404.579 747.854 404.296 747.218 404.013C747.183 403.978 747.112 403.907 747.006 403.872C747.041 403.695 747.041 403.554 747.112 403.412C747.253 402.635 747.465 401.857 747.607 401.08C747.784 399.914 747.89 398.748 747.642 397.581C747.465 396.557 747.112 395.638 746.441 394.896C745.805 394.189 745.062 393.729 744.108 393.623C743.295 393.517 742.553 393.623 741.847 394.118C741.493 394.33 741.21 394.684 740.998 395.037C740.61 395.779 740.468 396.557 740.398 397.334C740.327 398.677 740.468 399.949 740.751 401.221C740.857 401.61 740.892 401.999 740.998 402.388C741.034 402.423 740.998 402.529 741.034 402.635C740.574 402.529 740.186 402.423 739.762 402.352C739.196 402.211 738.666 402.105 738.065 401.999C738.03 401.963 737.889 401.963 737.783 401.928C737.606 401.893 737.571 401.787 737.535 401.681C737.5 400.797 737.394 399.914 737.359 399.03C737.288 397.9 737.182 396.733 737.111 395.602C737.04 393.977 737.04 392.281 737.394 390.655C737.606 389.807 737.853 388.994 738.313 388.252C739.09 387.05 740.221 386.414 741.67 386.238C743.578 386.026 746.759 386.944 748.349 387.969C749.798 388.923 750.752 390.231 751.317 391.857C751.671 392.917 751.848 394.012 751.954 395.108C752.06 396.486 751.989 397.829 751.989 399.172C751.989 399.313 751.989 399.384 751.989 399.525L752.236 399.49Z" fill="white"/>
<path d="M742.262 492.776C741.096 491.539 739.682 490.974 738.021 491.08C737.138 491.115 736.325 491.433 735.689 492.14C735.229 492.599 734.947 493.236 734.77 493.836C734.452 494.791 734.346 495.815 734.346 496.876C734.346 501.046 734.311 505.251 734.346 509.456C734.346 509.527 734.381 509.633 734.381 509.704C734.417 509.739 734.452 509.774 734.558 509.739C735.335 509.951 736.113 510.163 736.89 510.375C739.293 511.011 741.697 511.647 744.1 512.283C745.655 512.707 747.209 513.131 748.764 513.556C750.037 513.909 751.273 514.227 752.546 514.58C752.652 514.616 752.793 514.616 752.934 514.616L752.934 514.333C752.934 512.425 752.934 510.516 752.934 508.608C752.934 508.255 752.899 507.866 752.934 507.477C752.97 507.301 752.864 507.195 752.687 507.159C751.874 506.982 751.061 506.735 750.284 506.523C748.8 506.099 747.315 505.746 745.831 505.322C745.831 505.322 745.761 505.251 745.654 505.216C745.725 505.145 745.761 505.11 745.796 505.074C746.538 504.685 747.245 504.332 748.022 503.979C749.577 503.201 751.132 502.424 752.687 501.717C752.864 501.611 752.934 501.47 752.97 501.293C752.97 500.727 752.97 500.162 752.97 499.597C752.934 497.37 752.97 495.144 752.934 492.918C752.934 492.847 752.899 492.741 752.899 492.599C751.521 493.412 750.213 494.154 748.835 494.897C747.492 495.674 746.185 496.416 744.806 497.158C744.594 496.663 744.418 496.204 744.206 495.78C743.711 494.649 743.11 493.624 742.297 492.741L742.262 492.776ZM741.803 499.597C742.262 500.268 742.545 500.975 742.757 501.752C742.969 502.6 743.039 503.449 743.075 504.332C743.075 504.403 743.075 504.473 743.039 504.579C742.933 504.544 742.792 504.544 742.721 504.544C741.414 504.155 740.071 503.802 738.763 503.413C738.587 503.378 738.551 503.272 738.516 503.166C738.516 502.176 738.481 501.152 738.728 500.197C738.834 499.809 738.94 499.491 739.187 499.173C739.364 498.996 739.541 498.819 739.859 498.784C740.672 498.678 741.343 498.925 741.838 499.632L741.803 499.597Z" fill="white"/>
<path d="M740.071 474.889C740.071 474.889 739.93 474.748 739.824 474.642C739.187 475.066 738.693 475.561 738.304 476.162C737.845 476.904 737.527 477.717 737.385 478.565C737.102 480.049 737.067 481.569 737.244 483.088C737.421 484.749 737.915 486.304 738.834 487.718C739.541 488.848 740.424 489.803 741.555 490.439C743.499 491.605 745.549 492.1 747.775 491.852C749.012 491.676 750.037 491.145 750.885 490.156C751.485 489.485 751.839 488.707 752.122 487.859C752.298 487.258 752.404 486.587 752.51 485.986C752.687 484.537 752.616 483.053 752.334 481.569C752.051 479.943 751.379 478.494 750.39 477.151C750.319 477.08 750.213 476.974 750.143 476.904C750.107 476.939 750.072 476.974 750.037 476.939C749.188 477.505 748.27 477.646 747.28 477.646C746.149 477.646 745.089 477.434 744.029 477.151C742.509 476.692 741.202 475.95 740.071 474.819L740.071 474.889ZM746.856 480.756C747.704 481.18 748.305 481.851 748.517 482.841C748.552 483.088 748.588 483.335 748.623 483.512C748.588 483.972 748.552 484.36 748.411 484.714C748.199 485.208 747.81 485.527 747.28 485.703C746.785 485.845 746.326 485.88 745.831 485.809C744.806 485.703 743.817 485.491 742.898 485.067C742.333 484.784 741.873 484.396 741.52 483.901C741.131 483.3 740.99 482.593 741.06 481.887C741.06 481.675 741.131 481.463 741.166 481.286C741.308 480.791 741.591 480.438 742.085 480.226C742.439 480.084 742.792 480.014 743.216 480.014C744.488 480.014 745.725 480.19 746.891 480.791L746.856 480.756Z" fill="white"/>
<path d="M735.371 404.805C735.371 402.402 733.392 400.423 730.989 400.423C728.586 400.423 726.607 402.402 726.607 404.805C726.607 407.208 728.586 409.187 730.989 409.187C733.392 409.187 735.371 407.208 735.371 404.805Z" fill="white"/>
<path d="M777.496 514.443L759.388 514.443L759.388 507.719C759.388 506.342 759.63 505.186 760.113 504.252C760.597 503.312 761.274 502.603 762.147 502.124C763.013 501.64 764.024 501.398 765.18 501.398C766.341 501.398 767.349 501.643 768.204 502.133C769.052 502.618 769.71 503.333 770.175 504.278C770.635 505.224 770.865 506.385 770.865 507.763L770.865 512.552L768.142 512.552L768.142 508.201C768.142 507.395 768.03 506.736 767.806 506.222C767.576 505.708 767.243 505.329 766.807 505.084C766.364 504.833 765.822 504.707 765.18 504.707C764.537 504.707 763.989 504.833 763.535 505.084C763.075 505.335 762.727 505.717 762.492 506.231C762.25 506.744 762.129 507.407 762.129 508.218L762.129 511.195L777.496 511.195L777.496 514.443ZM769.291 505.18L777.496 500.741L777.496 504.366L769.291 508.726L769.291 505.18Z" fill="white"/>
<path d="M777.496 498.408L759.388 498.408L759.388 495.159L767.708 495.159L767.708 494.94L759.388 487.945L759.388 483.978L767.514 490.913L777.496 483.917L777.496 487.822L769.733 493.172L772.103 495.159L777.496 495.159L777.496 498.408Z" fill="white"/>
<path d="M777.744 475.462C777.744 476.722 777.526 477.843 777.09 478.824C776.653 479.798 776.046 480.569 775.268 481.135C774.49 481.701 773.591 482.002 772.571 482.037L772.571 478.745C773.061 478.716 773.488 478.555 773.854 478.263C774.213 477.971 774.493 477.583 774.693 477.099C774.894 476.614 774.994 476.072 774.994 475.47C774.994 474.828 774.882 474.259 774.658 473.763C774.428 473.267 774.11 472.879 773.703 472.598C773.296 472.318 772.828 472.181 772.297 472.187C771.749 472.181 771.266 472.321 770.847 472.607C770.429 472.893 770.102 473.308 769.866 473.851C769.63 474.388 769.512 475.035 769.512 475.794L769.512 477.379L766.983 477.379L766.983 475.794C766.983 475.17 766.874 474.624 766.656 474.157C766.438 473.684 766.132 473.314 765.737 473.045C765.336 472.777 764.873 472.645 764.348 472.651C763.836 472.645 763.391 472.759 763.013 472.992C762.63 473.22 762.333 473.544 762.12 473.964C761.908 474.379 761.802 474.866 761.802 475.427C761.802 475.975 761.902 476.483 762.103 476.95C762.303 477.417 762.589 477.793 762.96 478.079C763.326 478.365 763.762 478.517 764.269 478.535L764.269 481.66C763.255 481.637 762.365 481.348 761.599 480.794C760.826 480.233 760.225 479.486 759.795 478.552C759.359 477.618 759.141 476.571 759.141 475.409C759.141 474.212 759.368 473.173 759.821 472.292C760.269 471.405 760.874 470.719 761.634 470.234C762.394 469.75 763.234 469.508 764.154 469.508C765.174 469.502 766.028 469.8 766.718 470.401C767.408 470.996 767.859 471.778 768.071 472.747L768.212 472.747C768.389 471.487 768.861 470.52 769.627 469.849C770.388 469.172 771.334 468.837 772.465 468.842C773.479 468.842 774.387 469.128 775.189 469.7C775.984 470.267 776.609 471.049 777.063 472.047C777.517 473.039 777.744 474.177 777.744 475.462Z" fill="white"/>
<path d="M777.744 459.402C777.744 460.663 777.526 461.783 777.09 462.764C776.653 463.739 776.046 464.509 775.268 465.075C774.49 465.641 773.591 465.942 772.571 465.977L772.571 462.685C773.061 462.656 773.488 462.495 773.854 462.203C774.213 461.912 774.493 461.523 774.693 461.039C774.894 460.555 774.994 460.012 774.994 459.41C774.994 458.768 774.882 458.199 774.658 457.703C774.428 457.207 774.11 456.819 773.703 456.539C773.296 456.258 772.828 456.121 772.297 456.127C771.749 456.121 771.266 456.261 770.847 456.547C770.429 456.833 770.102 457.248 769.866 457.791C769.63 458.328 769.512 458.976 769.512 459.734L769.512 461.319L766.983 461.319L766.983 459.734C766.983 459.11 766.874 458.564 766.656 458.097C766.438 457.624 766.132 457.254 765.737 456.985C765.336 456.717 764.873 456.585 764.348 456.591C763.836 456.585 763.391 456.699 763.013 456.933C762.63 457.16 762.333 457.484 762.12 457.905C761.908 458.319 761.802 458.806 761.802 459.367C761.802 459.915 761.902 460.423 762.103 460.89C762.303 461.357 762.589 461.734 762.96 462.02C763.326 462.306 763.762 462.457 764.269 462.475L764.269 465.601C763.255 465.577 762.365 465.288 761.599 464.734C760.826 464.173 760.225 463.426 759.795 462.492C759.359 461.558 759.141 460.511 759.141 459.349C759.141 458.153 759.368 457.114 759.821 456.232C760.269 455.345 760.874 454.659 761.634 454.175C762.394 453.69 763.234 453.448 764.154 453.448C765.174 453.442 766.028 453.74 766.718 454.341C767.408 454.936 767.859 455.719 768.071 456.687L768.212 456.687C768.389 455.427 768.861 454.461 769.627 453.789C770.388 453.112 771.334 452.777 772.465 452.783C773.479 452.783 774.387 453.069 775.189 453.641C775.984 454.207 776.609 454.989 777.063 455.987C777.517 456.979 777.744 458.118 777.744 459.402Z" fill="white"/>
<path d="M777.496 449.777L775.127 449.777L768.964 443.552C768.357 442.957 767.817 442.46 767.346 442.064C766.874 441.667 766.418 441.369 765.975 441.17C765.533 440.972 765.062 440.873 764.561 440.873C763.989 440.873 763.5 441.001 763.093 441.258C762.68 441.515 762.362 441.868 762.138 442.317C761.914 442.767 761.802 443.278 761.802 443.85C761.802 444.439 761.926 444.956 762.173 445.399C762.415 445.843 762.76 446.187 763.208 446.433C763.656 446.672 764.189 446.792 764.808 446.792L764.808 449.882C763.659 449.882 762.66 449.623 761.811 449.103C760.962 448.584 760.305 447.868 759.839 446.958C759.373 446.041 759.141 444.991 759.141 443.806C759.141 442.603 759.368 441.547 759.821 440.636C760.275 439.726 760.897 439.02 761.687 438.518C762.477 438.01 763.379 437.756 764.393 437.756C765.071 437.756 765.737 437.884 766.391 438.141C767.045 438.398 767.77 438.85 768.566 439.498C769.362 440.14 770.326 441.042 771.457 442.204L774.632 445.294L774.755 445.294L774.755 437.484L777.496 437.484L777.496 449.777Z" fill="white"/>
<path d="M777.744 428.09C777.744 429.391 777.523 430.547 777.081 431.557C776.639 432.561 776.035 433.349 775.268 433.921C774.496 434.487 773.621 434.767 772.642 434.761C771.882 434.767 771.183 434.604 770.547 434.271C769.91 433.938 769.38 433.489 768.955 432.923C768.525 432.351 768.251 431.715 768.133 431.014L768.009 431.014C767.803 431.936 767.328 432.683 766.585 433.256C765.837 433.822 764.973 434.102 763.995 434.096C763.063 434.102 762.232 433.845 761.501 433.326C760.77 432.806 760.196 432.094 759.777 431.189C759.353 430.284 759.141 429.251 759.141 428.09C759.141 426.94 759.353 425.915 759.777 425.017C760.196 424.112 760.77 423.4 761.501 422.88C762.232 422.355 763.063 422.092 763.995 422.092C764.973 422.092 765.837 422.381 766.585 422.959C767.328 423.531 767.803 424.269 768.009 425.174L768.133 425.174C768.251 424.474 768.525 423.843 768.955 423.283C769.38 422.717 769.91 422.267 770.547 421.935C771.183 421.596 771.882 421.427 772.642 421.427C773.621 421.427 774.496 421.713 775.268 422.285C776.035 422.857 776.639 423.645 777.081 424.649C777.523 425.647 777.744 426.794 777.744 428.09ZM775.215 428.09C775.215 427.418 775.1 426.835 774.87 426.339C774.635 425.842 774.304 425.457 773.88 425.183C773.456 424.909 772.966 424.768 772.412 424.763C771.835 424.768 771.325 424.917 770.883 425.209C770.435 425.495 770.084 425.889 769.83 426.391C769.577 426.887 769.45 427.453 769.45 428.09C769.45 428.732 769.577 429.304 769.83 429.806C770.084 430.308 770.435 430.705 770.883 430.997C771.325 431.283 771.835 431.423 772.412 431.417C772.966 431.423 773.456 431.288 773.88 431.014C774.299 430.74 774.626 430.355 774.861 429.858C775.097 429.356 775.215 428.767 775.215 428.09ZM766.966 428.09C766.966 427.541 766.854 427.057 766.63 426.636C766.406 426.21 766.093 425.875 765.692 425.629C765.292 425.384 764.829 425.259 764.304 425.253C763.786 425.259 763.332 425.381 762.943 425.621C762.548 425.86 762.244 426.193 762.032 426.619C761.814 427.045 761.705 427.535 761.705 428.09C761.705 428.656 761.814 429.155 762.032 429.587C762.244 430.013 762.548 430.346 762.943 430.585C763.332 430.819 763.786 430.932 764.304 430.927C764.829 430.932 765.292 430.816 765.692 430.576C766.087 430.331 766.4 429.996 766.63 429.569C766.854 429.137 766.966 428.644 766.966 428.09Z" fill="white"/>
</svg>
