<svg width="1580" height="1000" viewBox="0 0 1580 1000" fill="none" xmlns="http://www.w3.org/2000/svg">
<path fill-rule="evenodd" clip-rule="evenodd" d="M474.345 150H1074.83C1102.29 150 1124.59 172.304 1124.59 199.755V800.245C1124.59 827.696 1102.29 850 1074.83 850H474.345C446.894 850 424.59 827.696 424.59 800.245V199.755C424.59 172.304 446.894 150 474.345 150Z" fill="#FFCC00"/>
<path d="M1082.82 156.279C1059.94 156.279 1041.64 174.579 1041.64 197.455C1041.64 220.331 1059.94 238.632 1082.82 238.632C1105.69 238.632 1123.99 220.331 1123.99 197.455C1123.99 174.579 1105.69 156.279 1082.82 156.279ZM1082.82 215.756C1072.52 215.756 1064.52 207.749 1064.52 197.455C1064.52 187.161 1072.52 179.155 1082.82 179.155C1093.11 179.155 1101.12 187.161 1101.12 197.455C1101.12 207.749 1093.11 215.756 1082.82 215.756Z" fill="#D4AA00"/>
<path d="M465.161 763.057C442.285 763.057 423.984 781.357 423.984 804.233C423.984 827.109 442.285 845.41 465.161 845.41C488.037 845.41 506.337 827.109 506.337 804.233C506.337 781.929 488.037 763.057 465.161 763.057ZM465.161 823.106C454.867 823.106 446.86 815.099 446.86 804.805C446.86 794.511 454.867 786.504 465.161 786.504C475.455 786.504 483.462 794.511 483.462 804.805C483.462 814.527 474.883 823.106 465.161 823.106Z" fill="#D4AA00"/>
<path d="M1082.82 763.633C1059.94 763.633 1041.64 781.933 1041.64 804.809C1041.64 827.685 1059.94 845.986 1082.82 845.986C1105.69 845.986 1123.99 827.685 1123.99 804.809C1123.99 781.933 1105.69 763.633 1082.82 763.633ZM1082.82 823.11C1072.52 823.11 1064.52 815.103 1064.52 804.809C1064.52 794.515 1072.52 786.509 1082.82 786.509C1093.11 786.509 1101.12 794.515 1101.12 804.809C1101.12 815.103 1093.11 823.11 1082.82 823.11Z" fill="#D4AA00"/>
<path d="M466.841 153.994C443.965 153.994 425.664 172.295 425.664 195.171C425.664 218.046 443.965 236.347 466.841 236.347C489.716 236.347 508.017 218.046 508.017 195.171C508.017 172.295 489.144 153.994 466.841 153.994ZM466.841 213.471C456.546 213.471 448.54 205.465 448.54 195.171C448.54 184.877 456.546 176.87 466.841 176.87C477.135 176.87 485.141 184.877 485.141 195.171C485.141 205.465 476.563 213.471 466.841 213.471Z" fill="#D4AA00"/>
<path d="M671.199 202.076V182.957V160.617L662.326 151.963H638.933L630.061 160.617V182.957V202.076V224.416L638.933 233.07H662.326L671.199 224.416V202.076Z" fill="#404040"/>
<path d="M654.104 168.467H647.248V175.109H654.104V168.467Z" fill="#8C8663"/>
<path d="M643.967 165.244V178.325L647.193 175.105V168.464L643.967 165.244Z" fill="#B8AF82"/>
<path d="M657.276 165.244L654.05 168.464H647.193L643.967 165.244H657.276Z" fill="#80795B"/>
<path d="M657.291 178.325L654.064 175.105V168.464L657.291 165.244V178.325Z" fill="#5E5B43"/>
<path d="M643.967 178.309L647.193 175.088H654.05L657.276 178.309H643.967Z" fill="#9A916C"/>
<path d="M654.104 209.512H647.248V216.355H654.104V209.512Z" fill="#8C8663"/>
<path d="M643.967 206.299V219.381L647.193 216.161V209.519L643.967 206.299Z" fill="#B8AF82"/>
<path d="M657.276 206.299L654.05 209.519H647.193L643.967 206.299H657.276Z" fill="#80795B"/>
<path d="M657.291 219.381L654.064 216.161V209.519L657.291 206.299V219.381Z" fill="#5E5B43"/>
<path d="M654.05 216.172L657.276 219.392H643.967L647.193 216.172H654.05Z" fill="#9A916C"/>
<path d="M679.988 233.07H703.38L712.253 224.416V202.076V182.957V160.617L703.38 151.963H679.988L671.115 160.617V182.957V202.076V224.416L679.988 233.07Z" fill="#404040"/>
<path d="M695.159 168.467H688.303V175.109H695.159V168.467Z" fill="#8C8663"/>
<path d="M685.021 178.325L688.248 175.105V168.464L685.021 165.244V178.325Z" fill="#B8AF82"/>
<path d="M695.104 168.464H688.248L685.021 165.244H698.331L695.104 168.464Z" fill="#80795B"/>
<path d="M695.119 175.105V168.464L698.346 165.244V178.325L695.119 175.105Z" fill="#5E5B43"/>
<path d="M688.248 175.088H695.104L698.331 178.309H685.021L688.248 175.088Z" fill="#9A916C"/>
<path d="M695.159 209.512H688.303V216.355H695.159V209.512Z" fill="#8C8663"/>
<path d="M685.021 219.381L688.248 216.161V209.519L685.021 206.299V219.381Z" fill="#B8AF82"/>
<path d="M695.104 209.519H688.248L685.021 206.299H698.331L695.104 209.519Z" fill="#80795B"/>
<path d="M695.119 216.161V209.519L698.346 206.299V219.381L695.119 216.161Z" fill="#5E5B43"/>
<path d="M698.331 219.392H685.021L688.248 216.172H695.104L698.331 219.392Z" fill="#9A916C"/>
<path d="M597.762 233.07H621.154L630.027 224.416V202.076V182.957V160.617L621.154 151.963H597.762L588.889 160.617V182.957V202.076V224.416L597.762 233.07Z" fill="#404040"/>
<path d="M612.933 168.467H606.076V175.109H612.933V168.467Z" fill="#8C8663"/>
<path d="M602.795 178.325L606.021 175.105V168.464L602.795 165.244V178.325Z" fill="#B8AF82"/>
<path d="M612.878 168.464H606.021L602.795 165.244H615.903L612.878 168.464Z" fill="#80795B"/>
<path d="M612.893 175.105V168.464L615.917 165.244V178.325L612.893 175.105Z" fill="#5E5B43"/>
<path d="M606.021 175.088H612.878L615.903 178.309H602.795L606.021 175.088Z" fill="#9A916C"/>
<path d="M612.933 209.512H606.076V216.355H612.933V209.512Z" fill="#8C8663"/>
<path d="M602.795 219.381L606.021 216.161V209.519L602.795 206.299V219.381Z" fill="#B8AF82"/>
<path d="M612.878 209.519H606.021L602.795 206.299H615.903L612.878 209.519Z" fill="#80795B"/>
<path d="M612.893 216.161V209.519L615.917 206.299V219.381L612.893 216.161Z" fill="#5E5B43"/>
<path d="M615.903 219.392H602.795L606.021 216.172H612.878L615.903 219.392Z" fill="#9A916C"/>
<path d="M556.629 233.07H580.021L588.894 224.416V202.076V182.957V160.617L580.021 151.963H556.629L547.756 160.617V182.957V202.076V224.416L556.629 233.07Z" fill="#404040"/>
<path d="M571.8 168.467H564.943V175.109H571.8V168.467Z" fill="#8C8663"/>
<path d="M561.662 178.325L564.889 175.105V168.464L561.662 165.244V178.325Z" fill="#B8AF82"/>
<path d="M571.745 168.464H564.889L561.662 165.244H574.77L571.745 168.464Z" fill="#80795B"/>
<path d="M571.76 175.105V168.464L574.785 165.244V178.325L571.76 175.105Z" fill="#5E5B43"/>
<path d="M564.889 175.088H571.745L574.77 178.309H561.662L564.889 175.088Z" fill="#9A916C"/>
<path d="M571.8 209.512H564.943V216.355H571.8V209.512Z" fill="#8C8663"/>
<path d="M561.662 219.381L564.889 216.161V209.519L561.662 206.299V219.381Z" fill="#B8AF82"/>
<path d="M571.745 209.519H564.889L561.662 206.299H574.77L571.745 209.519Z" fill="#80795B"/>
<path d="M571.76 216.161V209.519L574.785 206.299V219.381L571.76 216.161Z" fill="#5E5B43"/>
<path d="M574.77 219.392H561.662L564.889 216.172H571.745L574.77 219.392Z" fill="#9A916C"/>
<path d="M515.496 233.07H538.687L547.761 224.416V202.076V182.957V160.617L538.687 151.963H515.496L506.623 160.617V182.957V202.076V224.416L515.496 233.07Z" fill="#404040"/>
<path d="M530.667 168.467H523.811V175.109H530.667V168.467Z" fill="#8C8663"/>
<path d="M520.529 178.325L523.756 175.105V168.464L520.529 165.244V178.325Z" fill="#B8AF82"/>
<path d="M530.612 168.464H523.756L520.529 165.244H533.637L530.612 168.464Z" fill="#80795B"/>
<path d="M530.627 175.105V168.464L533.652 165.244V178.325L530.627 175.105Z" fill="#5E5B43"/>
<path d="M523.756 175.088H530.612L533.637 178.309H520.529L523.756 175.088Z" fill="#9A916C"/>
<path d="M530.667 209.512H523.811V216.355H530.667V209.512Z" fill="#8C8663"/>
<path d="M520.529 219.381L523.756 216.161V209.519L520.529 206.299V219.381Z" fill="#B8AF82"/>
<path d="M530.612 209.519H523.756L520.529 206.299H533.637L530.612 209.519Z" fill="#80795B"/>
<path d="M530.627 216.161V209.519L533.652 206.299V219.381L530.627 216.161Z" fill="#5E5B43"/>
<path d="M533.637 219.392H520.529L523.756 216.172H530.612L533.637 219.392Z" fill="#9A916C"/>
<path d="M721.121 233.07H744.513L753.386 224.416V202.076V182.957V160.617L744.513 151.963H721.121L712.248 160.617V182.957V202.076V224.416L721.121 233.07Z" fill="#404040"/>
<path d="M736.292 168.467H729.436V175.109H736.292V168.467Z" fill="#8C8663"/>
<path d="M726.33 178.325L729.355 175.105V168.464L726.33 165.244V178.325Z" fill="#B8AF82"/>
<path d="M736.211 168.464H729.355L726.33 165.244H739.438L736.211 168.464Z" fill="#80795B"/>
<path d="M736.252 175.105V168.464L739.478 165.244V178.325L736.252 175.105Z" fill="#5E5B43"/>
<path d="M729.355 175.088H736.211L739.438 178.309H726.33L729.355 175.088Z" fill="#9A916C"/>
<path d="M736.292 209.512H729.436V216.355H736.292V209.512Z" fill="#8C8663"/>
<path d="M726.33 219.381L729.355 216.161V209.519L726.33 206.299V219.381Z" fill="#B8AF82"/>
<path d="M736.211 209.519H729.355L726.33 206.299H739.438L736.211 209.519Z" fill="#80795B"/>
<path d="M736.252 216.161V209.519L739.478 206.299V219.381L736.252 216.161Z" fill="#5E5B43"/>
<path d="M739.438 219.392H726.33L729.355 216.172H736.211L739.438 219.392Z" fill="#9A916C"/>
<path d="M762.495 233.07H785.685L794.558 224.416V202.076V182.957V160.617L785.685 151.963H762.495L753.42 160.617V182.957V202.076V224.416L762.495 233.07Z" fill="#404040"/>
<path d="M777.464 168.467H770.607V175.109H777.464V168.467Z" fill="#8C8663"/>
<path d="M767.502 178.325L770.527 175.105V168.464L767.502 165.244V178.325Z" fill="#B8AF82"/>
<path d="M777.383 168.464H770.527L767.502 165.244H780.61L777.383 168.464Z" fill="#80795B"/>
<path d="M777.424 175.105V168.464L780.65 165.244V178.325L777.424 175.105Z" fill="#5E5B43"/>
<path d="M770.527 175.088H777.383L780.61 178.309H767.502L770.527 175.088Z" fill="#9A916C"/>
<path d="M777.464 209.512H770.607V216.355H777.464V209.512Z" fill="#8C8663"/>
<path d="M767.502 219.381L770.527 216.161V209.519L767.502 206.299V219.381Z" fill="#B8AF82"/>
<path d="M777.383 209.519H770.527L767.502 206.299H780.61L777.383 209.519Z" fill="#80795B"/>
<path d="M777.424 216.161V209.519L780.65 206.299V219.381L777.424 216.161Z" fill="#5E5B43"/>
<path d="M780.61 219.392H767.502L770.527 216.172H777.383L780.61 219.392Z" fill="#9A916C"/>
<path d="M803.627 233.07H826.818L835.691 224.416V202.076V182.957V160.617L826.818 151.963H803.627L794.553 160.617V182.957V202.076V224.416L803.627 233.07Z" fill="#404040"/>
<path d="M818.714 168.467H811.857V175.109H818.714V168.467Z" fill="#8C8663"/>
<path d="M808.635 178.325L811.861 175.105V168.464L808.635 165.244V178.325Z" fill="#B8AF82"/>
<path d="M818.516 168.464H811.861L808.635 165.244H821.743L818.516 168.464Z" fill="#80795B"/>
<path d="M818.557 175.105V168.464L821.783 165.244V178.325L818.557 175.105Z" fill="#5E5B43"/>
<path d="M811.861 175.088H818.516L821.743 178.309H808.635L811.861 175.088Z" fill="#9A916C"/>
<path d="M818.714 209.512H811.857V216.355H818.714V209.512Z" fill="#8C8663"/>
<path d="M808.635 219.381L811.861 216.161V209.519L808.635 206.299V219.381Z" fill="#B8AF82"/>
<path d="M818.516 209.519H811.861L808.635 206.299H821.743L818.516 209.519Z" fill="#80795B"/>
<path d="M818.557 216.161V209.519L821.783 206.299V219.381L818.557 216.161Z" fill="#5E5B43"/>
<path d="M821.743 219.392H808.635L811.861 216.172H818.516L821.743 219.392Z" fill="#9A916C"/>
<path d="M844.858 233.07H868.048L876.921 224.416V202.076V182.957V160.617L868.048 151.963H844.858L835.783 160.617V182.957V202.076V224.416L844.858 233.07Z" fill="#404040"/>
<path d="M859.944 168.467H853.088V175.109H859.944V168.467Z" fill="#8C8663"/>
<path d="M849.865 178.325L853.092 175.105V168.464L849.865 165.244V178.325Z" fill="#B8AF82"/>
<path d="M859.746 168.464H853.092L849.865 165.244H862.973L859.746 168.464Z" fill="#80795B"/>
<path d="M859.787 175.105V168.464L863.014 165.244V178.325L859.787 175.105Z" fill="#5E5B43"/>
<path d="M853.092 175.088H859.746L862.973 178.309H849.865L853.092 175.088Z" fill="#9A916C"/>
<path d="M859.944 209.512H853.088V216.355H859.944V209.512Z" fill="#8C8663"/>
<path d="M849.865 219.381L853.092 216.161V209.519L849.865 206.299V219.381Z" fill="#B8AF82"/>
<path d="M859.746 209.519H853.092L849.865 206.299H862.973L859.746 209.519Z" fill="#80795B"/>
<path d="M859.787 216.161V209.519L863.014 206.299V219.381L859.787 216.161Z" fill="#5E5B43"/>
<path d="M862.973 219.392H849.865L853.092 216.172H859.746L862.973 219.392Z" fill="#9A916C"/>
<path d="M885.873 233.07H909.064L917.937 224.416V202.076V182.957V160.617L909.064 151.963H885.873L876.799 160.617V182.957V202.076V224.416L885.873 233.07Z" fill="#404040"/>
<path d="M900.96 168.467H894.104V175.109H900.96V168.467Z" fill="#8C8663"/>
<path d="M890.881 178.325L894.107 175.105V168.464L890.881 165.244V178.325Z" fill="#B8AF82"/>
<path d="M900.762 168.464H894.107L890.881 165.244H903.989L900.762 168.464Z" fill="#80795B"/>
<path d="M900.803 175.105V168.464L904.029 165.244V178.325L900.803 175.105Z" fill="#5E5B43"/>
<path d="M894.107 175.088H900.762L903.989 178.309H890.881L894.107 175.088Z" fill="#9A916C"/>
<path d="M900.96 209.512H894.104V216.355H900.96V209.512Z" fill="#8C8663"/>
<path d="M890.881 219.381L894.107 216.161V209.519L890.881 206.299V219.381Z" fill="#B8AF82"/>
<path d="M900.762 209.519H894.107L890.881 206.299H903.989L900.762 209.519Z" fill="#80795B"/>
<path d="M900.803 216.161V209.519L904.029 206.299V219.381L900.803 216.161Z" fill="#5E5B43"/>
<path d="M903.989 219.392H890.881L894.107 216.172H900.762L903.989 219.392Z" fill="#9A916C"/>
<path d="M927.045 233.07H950.236L959.311 224.416V202.076V182.957V160.617L950.236 151.963H927.045L917.971 160.617V182.957V202.076V224.416L927.045 233.07Z" fill="#404040"/>
<path d="M942.132 168.467H935.275V175.109H942.132V168.467Z" fill="#8C8663"/>
<path d="M932.053 178.325L935.279 175.105V168.464L932.053 165.244V178.325Z" fill="#B8AF82"/>
<path d="M941.934 168.464H935.279L932.053 165.244H945.16L941.934 168.464Z" fill="#80795B"/>
<path d="M941.975 175.105V168.464L945.201 165.244V178.325L941.975 175.105Z" fill="#5E5B43"/>
<path d="M935.279 175.088H941.934L945.16 178.309H932.053L935.279 175.088Z" fill="#9A916C"/>
<path d="M942.132 209.512H935.275V216.355H942.132V209.512Z" fill="#8C8663"/>
<path d="M932.053 219.381L935.279 216.161V209.519L932.053 206.299V219.381Z" fill="#B8AF82"/>
<path d="M941.934 209.519H935.279L932.053 206.299H945.16L941.934 209.519Z" fill="#80795B"/>
<path d="M941.975 216.161V209.519L945.201 206.299V219.381L941.975 216.161Z" fill="#5E5B43"/>
<path d="M945.16 219.392H932.053L935.279 216.172H941.934L945.16 219.392Z" fill="#9A916C"/>
<path d="M968.211 233.07H991.401L1000.48 224.416V202.076V182.957V160.617L991.401 151.963H968.211L959.338 160.617V182.957V202.076V224.416L968.211 233.07Z" fill="#404040"/>
<path d="M983.382 168.467H976.525V175.109H983.382V168.467Z" fill="#8C8663"/>
<path d="M973.244 178.325L976.471 175.105V168.464L973.244 165.244V178.325Z" fill="#B8AF82"/>
<path d="M983.125 168.464H976.471L973.244 165.244H986.352L983.125 168.464Z" fill="#80795B"/>
<path d="M983.146 175.105V168.464L986.373 165.244V178.325L983.146 175.105Z" fill="#5E5B43"/>
<path d="M976.471 175.088H983.125L986.352 178.309H973.244L976.471 175.088Z" fill="#9A916C"/>
<path d="M983.382 209.512H976.525V216.355H983.382V209.512Z" fill="#8C8663"/>
<path d="M973.244 219.381L976.471 216.161V209.519L973.244 206.299V219.381Z" fill="#B8AF82"/>
<path d="M983.125 209.519H976.471L973.244 206.299H986.352L983.125 209.519Z" fill="#80795B"/>
<path d="M983.146 216.161V209.519L986.373 206.299V219.381L983.146 216.161Z" fill="#5E5B43"/>
<path d="M986.352 219.392H973.244L976.471 216.172H983.125L986.352 219.392Z" fill="#9A916C"/>
<path d="M1041.53 160.617L1032.46 151.963H1009.27L1000.39 160.617V182.957V202.076V224.416L1009.27 233.07H1032.46L1041.53 224.416V202.076V182.957V160.617Z" fill="#404040"/>
<path d="M1024.44 168.467H1017.58V175.109H1024.44V168.467Z" fill="#8C8663"/>
<path d="M1017.53 175.105V168.464L1014.3 165.244V178.325L1017.53 175.105Z" fill="#B8AF82"/>
<path d="M1017.53 168.464L1014.3 165.244H1027.41L1024.18 168.464H1017.53Z" fill="#80795B"/>
<path d="M1024.2 168.464L1027.43 165.244V178.325L1024.2 175.105V168.464Z" fill="#5E5B43"/>
<path d="M1024.18 175.088L1027.41 178.309H1014.3L1017.53 175.088H1024.18Z" fill="#9A916C"/>
<path d="M1024.44 209.512H1017.58V216.355H1024.44V209.512Z" fill="#8C8663"/>
<path d="M1017.53 216.161V209.519L1014.3 206.299V219.381L1017.53 216.161Z" fill="#B8AF82"/>
<path d="M1017.53 209.519L1014.3 206.299H1027.41L1024.18 209.519H1017.53Z" fill="#80795B"/>
<path d="M1024.2 209.519L1027.43 206.299V219.381L1024.2 216.161V209.519Z" fill="#5E5B43"/>
<path d="M1014.3 219.392L1017.53 216.172H1024.18L1027.41 219.392H1014.3Z" fill="#9A916C"/>
<path d="M1000.14 807.544V839.191L1009.02 848.203H1032.22L1041.09 839.191V807.544" fill="#C83737"/>
<path d="M1017.69 832.051H1024.55V825.135H1017.69V832.051Z" fill="#8C8663"/>
<path d="M1024.55 832.047L1027.77 835.4V821.777L1024.55 825.131V832.047Z" fill="#B8AF82"/>
<path d="M1024.55 832.047L1027.77 835.4H1014.66L1017.89 832.047H1024.55Z" fill="#80795B"/>
<path d="M1017.93 825.131V832.047L1014.7 835.4V821.777L1017.93 825.131Z" fill="#5E5B43"/>
<path d="M1027.77 821.783L1024.55 825.137H1017.89L1014.66 821.783H1027.77Z" fill="#9A916C"/>
<path d="M1000.14 807.539V775.892L1009.02 766.88H1032.22L1041.09 775.892V807.539" fill="#FFFF00"/>
<path d="M1017.69 789.521H1024.55V782.396H1017.69V789.521Z" fill="#8C8663"/>
<path d="M1024.55 782.377V789.293L1027.77 792.646V779.024L1024.55 782.377Z" fill="#B8AF82"/>
<path d="M1017.89 789.293H1024.55L1027.77 792.646H1014.66L1017.89 789.293Z" fill="#80795B"/>
<path d="M1014.7 779.024L1017.93 782.377V789.293L1014.7 792.646V779.024Z" fill="#5E5B43"/>
<path d="M1024.55 782.383H1017.89L1014.66 779.029H1027.77L1024.55 782.383Z" fill="#9A916C"/>
<path d="M959.005 807.544V839.191L967.882 848.203H991.084L999.961 839.191V807.544" fill="#C83737"/>
<path d="M976.558 832.051H983.418V825.135H976.558V832.051Z" fill="#8C8663"/>
<path d="M986.641 835.4V821.777L983.413 825.131V832.047L986.641 835.4Z" fill="#B8AF82"/>
<path d="M986.641 835.4H973.527L976.755 832.047H983.413L986.641 835.4Z" fill="#80795B"/>
<path d="M976.797 832.047L973.569 835.4V821.777L976.797 825.131V832.047Z" fill="#5E5B43"/>
<path d="M983.413 825.137H976.755L973.527 821.783H986.641L983.413 825.137Z" fill="#9A916C"/>
<path d="M959.005 807.539V775.892L967.882 766.88H991.084L999.961 775.892V807.539" fill="#5FD38D"/>
<path d="M976.558 789.521H983.418V782.396H976.558V789.521Z" fill="#8C8663"/>
<path d="M986.641 779.024L983.413 782.377V789.293L986.641 792.646V779.024Z" fill="#B8AF82"/>
<path d="M973.527 792.646L976.755 789.293H983.413L986.641 792.646H973.527Z" fill="#80795B"/>
<path d="M973.569 792.646V779.024L976.797 782.377V789.293L973.569 792.646Z" fill="#5E5B43"/>
<path d="M986.641 779.029L983.413 782.383H976.755L973.527 779.029H986.641Z" fill="#9A916C"/>
<path d="M917.833 807.544V839.191L926.71 848.203H949.912L958.789 839.191V807.544" fill="#404040"/>
<path d="M935.387 832.051H942.246V825.135H935.387V832.051Z" fill="#8C8663"/>
<path d="M945.469 835.4V821.777L942.241 825.131V832.047L945.469 835.4Z" fill="#B8AF82"/>
<path d="M945.469 835.4H932.355L935.583 832.047H942.241L945.469 835.4Z" fill="#80795B"/>
<path d="M935.625 832.047L932.397 835.4V821.777L935.625 825.131V832.047Z" fill="#5E5B43"/>
<path d="M942.241 825.137H935.583L932.355 821.783H945.469L942.241 825.137Z" fill="#9A916C"/>
<path d="M917.833 807.539V775.892L926.71 766.88H949.912L958.789 775.892V807.539" fill="#5FD38D"/>
<path d="M935.387 789.521H942.246V782.396H935.387V789.521Z" fill="#8C8663"/>
<path d="M945.469 779.024L942.241 782.377V789.293L945.469 792.646V779.024Z" fill="#B8AF82"/>
<path d="M932.355 792.646L935.583 789.293H942.241L945.469 792.646H932.355Z" fill="#80795B"/>
<path d="M932.397 792.646V779.024L935.625 782.377V789.293L932.397 792.646Z" fill="#5E5B43"/>
<path d="M945.469 779.029L942.241 782.383H935.583L932.355 779.029H945.469Z" fill="#9A916C"/>
<path d="M876.603 807.544V839.191L885.48 848.203H908.682L917.559 839.191V807.544" fill="#5FD38D"/>
<path d="M894.156 832.051H901.016V825.135H894.156V832.051Z" fill="#8C8663"/>
<path d="M904.238 835.4V821.777L901.01 825.131V832.047L904.238 835.4Z" fill="#B8AF82"/>
<path d="M904.238 835.4H891.124L894.352 832.047H901.01L904.238 835.4Z" fill="#80795B"/>
<path d="M894.395 832.047L891.167 835.4V821.777L894.395 825.131V832.047Z" fill="#5E5B43"/>
<path d="M901.01 825.137H894.352L891.124 821.783H904.238L901.01 825.137Z" fill="#9A916C"/>
<path d="M876.603 807.539V775.892L885.48 766.88H908.682L917.559 775.892V807.539" fill="#5FD38D"/>
<path d="M894.156 789.521H901.016V782.396H894.156V789.521Z" fill="#8C8663"/>
<path d="M901.01 789.293L904.238 792.646V779.024L901.01 782.377V789.293Z" fill="#B8AF82"/>
<path d="M901.01 789.293L904.238 792.646H891.124L894.352 789.293H901.01Z" fill="#80795B"/>
<path d="M894.395 782.377V789.293L891.167 792.646V779.024L894.395 782.377Z" fill="#5E5B43"/>
<path d="M894.352 782.383L891.124 779.029H904.238L901.01 782.383H894.352Z" fill="#9A916C"/>
<path d="M835.47 807.544V839.191L844.347 848.203H867.549L876.426 839.191V807.544" fill="#5FD38D"/>
<path d="M853.023 832.051H859.883V825.135H853.023V832.051Z" fill="#8C8663"/>
<path d="M863.105 835.4V821.777L859.877 825.131V832.047L863.105 835.4Z" fill="#B8AF82"/>
<path d="M863.105 835.4H849.992L853.018 832.047H859.877L863.105 835.4Z" fill="#80795B"/>
<path d="M853.008 832.047L849.982 835.4V821.777L853.008 825.131V832.047Z" fill="#5E5B43"/>
<path d="M859.877 825.137H853.018L849.992 821.783H863.105L859.877 825.137Z" fill="#9A916C"/>
<path d="M835.47 807.539V775.892L844.347 766.88H867.549L876.426 775.892V807.539" fill="#404040"/>
<path d="M853.023 789.521H859.883V782.396H853.023V789.521Z" fill="#8C8663"/>
<path d="M863.105 779.024L859.877 782.377V789.293L863.105 792.646V779.024Z" fill="#B8AF82"/>
<path d="M849.992 792.646L853.018 789.293H859.877L863.105 792.646H849.992Z" fill="#80795B"/>
<path d="M849.982 792.646V779.024L853.008 782.377V789.293L849.982 792.646Z" fill="#5E5B43"/>
<path d="M863.105 779.029L859.877 782.383H853.018L849.992 779.029H863.105Z" fill="#9A916C"/>
<path d="M794.415 807.544V839.191L803.293 848.203H826.494L835.371 839.191V807.544" fill="#5FD38D"/>
<path d="M811.969 832.051H818.828V825.135H811.969V832.051Z" fill="#8C8663"/>
<path d="M818.823 825.131V832.047L822.051 835.4V821.777L818.823 825.131Z" fill="#B8AF82"/>
<path d="M811.963 832.047H818.823L822.051 835.4H808.937L811.963 832.047Z" fill="#80795B"/>
<path d="M808.927 821.777L811.953 825.131V832.047L808.927 835.4V821.777Z" fill="#5E5B43"/>
<path d="M808.937 821.783H822.051L818.823 825.137H811.963L808.937 821.783Z" fill="#9A916C"/>
<path d="M794.415 807.539V775.892L803.293 766.88H826.494L835.371 775.892V807.539" fill="#5FD38D"/>
<path d="M811.969 789.521H818.828V782.396H811.969V789.521Z" fill="#8C8663"/>
<path d="M818.823 782.377V789.293L822.051 792.646V779.024L818.823 782.377Z" fill="#B8AF82"/>
<path d="M811.963 789.293H818.823L822.051 792.646H808.937L811.963 789.293Z" fill="#80795B"/>
<path d="M808.927 779.024L811.953 782.377V789.293L808.927 792.646V779.024Z" fill="#5E5B43"/>
<path d="M818.823 782.383H811.963L808.937 779.029H822.051L818.823 782.383Z" fill="#9A916C"/>
<path d="M753.224 807.544V839.191L762.101 848.203H785.303L794.18 839.191V807.544" fill="#404040"/>
<path d="M770.777 832.051H777.637V825.135H770.777V832.051Z" fill="#8C8663"/>
<path d="M780.859 821.777L777.631 825.131V832.047L780.859 835.4V821.777Z" fill="#B8AF82"/>
<path d="M767.746 835.4L770.772 832.047H777.631L780.859 835.4H767.746Z" fill="#80795B"/>
<path d="M767.735 835.4V821.777L770.762 825.131V832.047L767.735 835.4Z" fill="#5E5B43"/>
<path d="M770.772 825.137L767.746 821.783H780.859L777.631 825.137H770.772Z" fill="#9A916C"/>
<path d="M753.224 807.539V775.892L762.101 766.88H785.303L794.18 775.892V807.539" fill="#5FD38D"/>
<path d="M770.777 789.521H777.637V782.396H770.777V789.521Z" fill="#8C8663"/>
<path d="M780.859 779.024L777.631 782.377V789.293L780.859 792.646V779.024Z" fill="#B8AF82"/>
<path d="M767.746 792.646L770.772 789.293H777.631L780.859 792.646H767.746Z" fill="#80795B"/>
<path d="M767.735 792.646V779.024L770.762 782.377V789.293L767.735 792.646Z" fill="#5E5B43"/>
<path d="M780.859 779.029L777.631 782.383H770.772L767.746 779.029H780.859Z" fill="#9A916C"/>
<path d="M712.052 807.544V839.191L720.929 848.203H744.131L753.008 839.191V807.544" fill="#5FD38D"/>
<path d="M729.605 832.051H736.465V825.135H729.605V832.051Z" fill="#8C8663"/>
<path d="M736.466 832.047L739.492 835.4V821.777L736.466 825.131V832.047Z" fill="#B8AF82"/>
<path d="M736.466 832.047L739.492 835.4H726.378L729.606 832.047H736.466Z" fill="#80795B"/>
<path d="M729.59 825.131V832.047L726.362 835.4V821.777L729.59 825.131Z" fill="#5E5B43"/>
<path d="M739.492 821.783L736.466 825.137H729.606L726.378 821.783H739.492Z" fill="#9A916C"/>
<path d="M712.052 807.539V775.892L720.929 766.88H744.131L753.008 775.892V807.539" fill="#5FD38D"/>
<path d="M729.605 789.521H736.465V782.396H729.605V789.521Z" fill="#8C8663"/>
<path d="M739.492 779.024L736.466 782.377V789.293L739.492 792.646V779.024Z" fill="#B8AF82"/>
<path d="M726.378 792.646L729.606 789.293H736.466L739.492 792.646H726.378Z" fill="#80795B"/>
<path d="M726.362 792.646V779.024L729.59 782.377V789.293L726.362 792.646Z" fill="#5E5B43"/>
<path d="M739.492 779.029L736.466 782.383H729.606L726.378 779.029H739.492Z" fill="#9A916C"/>
<path d="M670.861 807.544V839.191L679.738 848.203H702.939L711.816 839.191V807.544" fill="#5FD38D"/>
<path d="M688.414 832.051H695.273V825.135H688.414V832.051Z" fill="#8C8663"/>
<path d="M695.275 832.047L698.301 835.4V821.777L695.275 825.131V832.047Z" fill="#B8AF82"/>
<path d="M695.275 832.047L698.301 835.4H685.187L688.415 832.047H695.275Z" fill="#80795B"/>
<path d="M688.398 825.131V832.047L685.17 835.4V821.777L688.398 825.131Z" fill="#5E5B43"/>
<path d="M698.301 821.783L695.275 825.137H688.415L685.187 821.783H698.301Z" fill="#9A916C"/>
<path d="M670.861 807.539V775.892L679.738 766.88H702.939L711.816 775.892V807.539" fill="#FFFF00"/>
<path d="M688.414 789.521H695.273V782.396H688.414V789.521Z" fill="#8C8663"/>
<path d="M695.275 789.293L698.301 792.646V779.024L695.275 782.377V789.293Z" fill="#B8AF82"/>
<path d="M695.275 789.293L698.301 792.646H685.187L688.415 789.293H695.275Z" fill="#80795B"/>
<path d="M688.398 782.377V789.293L685.17 792.646V779.024L688.398 782.377Z" fill="#5E5B43"/>
<path d="M688.415 782.383L685.187 779.029H698.301L695.275 782.383H688.415Z" fill="#9A916C"/>
<path d="M629.747 807.544V839.191L638.625 848.203H661.826L670.703 839.191V807.544" fill="#404040"/>
<path d="M647.125 832.051H653.984V825.135H647.125V832.051Z" fill="#8C8663"/>
<path d="M653.959 832.047L657.188 835.4V821.777L653.959 825.131V832.047Z" fill="#B8AF82"/>
<path d="M653.959 832.047L657.188 835.4H644.074L647.302 832.047H653.959Z" fill="#80795B"/>
<path d="M647.285 825.131V832.047L644.057 835.4V821.777L647.285 825.131Z" fill="#5E5B43"/>
<path d="M657.188 821.783L653.959 825.137H647.302L644.074 821.783H657.188Z" fill="#9A916C"/>
<path d="M629.747 807.539V775.892L638.625 766.88H661.826L670.703 775.892V807.539" fill="#5FD38D"/>
<path d="M647.125 789.521H653.984V782.396H647.125V789.521Z" fill="#8C8663"/>
<path d="M657.188 792.646V779.024L653.959 782.377V789.293L657.188 792.646Z" fill="#B8AF82"/>
<path d="M657.188 792.646H644.074L647.302 789.293H653.959L657.188 792.646Z" fill="#80795B"/>
<path d="M647.285 789.293L644.057 792.646V779.024L647.285 782.377V789.293Z" fill="#5E5B43"/>
<path d="M644.074 779.029H657.188L653.959 782.383H647.302L644.074 779.029Z" fill="#9A916C"/>
<path d="M588.556 807.544V839.191L597.433 848.203H620.635L629.512 839.191V807.544" fill="#5FD38D"/>
<path d="M605.933 832.051H612.793V825.135H605.933V832.051Z" fill="#8C8663"/>
<path d="M615.996 835.4V821.777L612.768 825.131V832.047L615.996 835.4Z" fill="#B8AF82"/>
<path d="M615.996 835.4H602.882L606.11 832.047H612.768L615.996 835.4Z" fill="#80795B"/>
<path d="M606.094 832.047L602.866 835.4V821.777L606.094 825.131V832.047Z" fill="#5E5B43"/>
<path d="M612.768 825.137H606.11L602.882 821.783H615.996L612.768 825.137Z" fill="#9A916C"/>
<path d="M588.556 807.539V775.892L597.433 766.88H620.635L629.512 775.892V807.539" fill="#5FD38D"/>
<path d="M605.933 789.521H612.793V782.396H605.933V789.521Z" fill="#8C8663"/>
<path d="M612.768 789.293L615.996 792.646V779.024L612.768 782.377V789.293Z" fill="#B8AF82"/>
<path d="M612.768 789.293L615.996 792.646H602.882L606.11 789.293H612.768Z" fill="#80795B"/>
<path d="M606.094 782.377V789.293L602.866 792.646V779.024L606.094 782.377Z" fill="#5E5B43"/>
<path d="M606.11 782.383L602.882 779.029H615.996L612.768 782.383H606.11Z" fill="#9A916C"/>
<path d="M547.384 807.544V839.191L556.261 848.203H579.463L588.34 839.191V807.544" fill="#5FD38D"/>
<path d="M564.762 832.051H571.621V825.135H564.762V832.051Z" fill="#8C8663"/>
<path d="M574.824 821.777L571.596 825.131V832.047L574.824 835.4V821.777Z" fill="#B8AF82"/>
<path d="M561.71 835.4L564.938 832.047H571.596L574.824 835.4H561.71Z" fill="#80795B"/>
<path d="M561.694 835.4V821.777L564.922 825.131V832.047L561.694 835.4Z" fill="#5E5B43"/>
<path d="M564.938 825.137L561.71 821.783H574.824L571.596 825.137H564.938Z" fill="#9A916C"/>
<path d="M547.384 807.539V775.892L556.261 766.88H579.463L588.34 775.892V807.539" fill="#5FD38D"/>
<path d="M564.762 789.521H571.621V782.396H564.762V789.521Z" fill="#8C8663"/>
<path d="M571.596 789.293L574.824 792.646V779.024L571.596 782.377V789.293Z" fill="#B8AF82"/>
<path d="M571.596 789.293L574.824 792.646H561.71L564.938 789.293H571.596Z" fill="#80795B"/>
<path d="M564.922 782.377V789.293L561.694 792.646V779.024L564.922 782.377Z" fill="#5E5B43"/>
<path d="M564.938 782.383L561.71 779.029H574.824L571.596 782.383H564.938Z" fill="#9A916C"/>
<path d="M506.193 807.544V839.191L515.07 848.203H538.271L547.148 839.191V807.544" fill="#5FD38D"/>
<path d="M523.57 832.051H530.43V825.135H523.57V832.051Z" fill="#8C8663"/>
<path d="M530.405 825.131V832.047L533.633 835.4V821.777L530.405 825.131Z" fill="#B8AF82"/>
<path d="M523.747 832.047H530.405L533.633 835.4H520.519L523.747 832.047Z" fill="#80795B"/>
<path d="M520.502 821.777L523.73 825.131V832.047L520.502 835.4V821.777Z" fill="#5E5B43"/>
<path d="M520.519 821.783H533.633L530.405 825.137H523.747L520.519 821.783Z" fill="#9A916C"/>
<path d="M506.193 807.539V775.892L515.07 766.88H538.271L547.148 775.892V807.539" fill="#404040"/>
<path d="M523.57 789.521H530.43V782.396H523.57V789.521Z" fill="#8C8663"/>
<path d="M530.405 789.293L533.633 792.646V779.024L530.405 782.377V789.293Z" fill="#B8AF82"/>
<path d="M530.405 789.293L533.633 792.646H520.519L523.747 789.293H530.405Z" fill="#80795B"/>
<path d="M523.73 782.377V789.293L520.502 792.646V779.024L523.73 782.377Z" fill="#5E5B43"/>
<path d="M523.747 782.383L520.519 779.029H533.633L530.405 782.383H523.747Z" fill="#9A916C"/>
<path d="M426.554 247.773H459.724C460.296 247.773 460.868 248.345 460.868 248.917V282.087C460.868 282.659 460.296 283.23 459.724 283.23H426.554C425.982 283.23 425.41 282.659 425.41 282.087V249.489C425.41 248.345 425.982 247.773 426.554 247.773Z" fill="white"/>
<path d="M443.683 282.093C452.211 282.093 459.125 275.18 459.125 266.652C459.125 258.124 452.211 251.21 443.683 251.21C435.155 251.21 428.242 258.124 428.242 266.652C428.242 275.18 435.155 282.093 443.683 282.093Z" fill="white" stroke="#FFC935" stroke-opacity="0.8178" stroke-width="4.38958" stroke-miterlimit="11.3386"/>
<path d="M443.705 269.499C445.6 269.499 447.136 267.963 447.136 266.068C447.136 264.172 445.6 262.636 443.705 262.636C441.81 262.636 440.273 264.172 440.273 266.068C440.273 267.963 441.81 269.499 443.705 269.499Z" fill="#FFD150" fill-opacity="0.949"/>
<path d="M493.55 364.375L499.727 364.375L499.727 359.735L493.55 359.735L493.55 364.375Z" fill="#666666"/>
<path d="M493.55 355.85L499.727 355.85L499.727 351.209L493.55 351.209L493.55 355.85Z" fill="#666666"/>
<path d="M493.55 346.524L499.727 346.524L499.727 341.884L493.55 341.884L493.55 346.524Z" fill="#666666"/>
<path d="M493.355 409.063L499.531 409.062L499.531 404.422L493.355 404.422L493.355 409.063Z" fill="#666666"/>
<path d="M493.55 418.809L499.727 418.809L499.727 414.168L493.55 414.168L493.55 418.809Z" fill="#666666"/>
<path d="M493.413 373.125L499.59 373.125L499.59 368.484L493.413 368.484L493.413 373.125Z" fill="#666666"/>
<path d="M493.491 381.875L499.668 381.875L499.668 377.234L493.491 377.234L493.491 381.875Z" fill="#666666"/>
<path d="M493.55 390.625L499.727 390.625L499.727 385.984L493.55 385.984L493.55 390.625Z" fill="#666666"/>
<path d="M493.413 399.375L499.59 399.375L499.59 394.735L493.413 394.735L493.413 399.375Z" fill="#666666"/>
<path opacity="0.94" d="M439.716 430.811L454.746 430.811L454.746 426.17L439.716 426.17L439.716 430.811Z" fill="#666666"/>
<path d="M412.607 334.912H494.961V424.49H412.607V334.912Z" fill="#B3B3B3"/>
<path d="M469.892 431.094L484.922 431.094L484.922 426.453L469.892 426.454L469.892 431.094Z" fill="#666666"/>
<path d="M469.97 333.945L485 333.945L485 329.305L469.97 329.305L469.97 333.945Z" fill="#666666"/>
<path d="M494.316 410.773H486.493V402.905H494.316V400.685H491.64V359.932H494.316V357.309H486.493V349.44H494.316V333.3H411.962V427.317H494.316V410.773ZM428.639 351.861L425.757 354.282L426.168 358.116L430.492 356.098C431.933 354.081 429.463 355.695 433.786 346.212C435.022 343.59 424.933 358.923 433.786 356.3L440.375 357.511L457.051 358.923L462.198 357.511L438.11 352.265C436.874 354.686 436.669 356.502 433.786 356.502C430.904 356.3 430.08 354.282 428.639 351.861ZM429.669 408.352L429.463 407.545C430.904 405.527 426.992 409.159 429.669 409.159C432.551 409.159 429.669 408.554 434.198 406.536L432.963 406.334L432.551 407.545C431.316 409.966 435.227 406.334 432.139 406.334C429.257 406.334 430.904 410.773 429.669 408.352Z" fill="#E6E6E6"/>
<path d="M440.049 333.623L455.078 333.623L455.078 328.983L440.048 328.983L440.049 333.623Z" fill="#666666"/>
<path opacity="0.94" d="M415.369 340.449L495.664 340.449L495.664 333.993L415.369 333.993L415.369 340.449Z" fill="#F2F2F2"/>
<path opacity="0.94" d="M411.773 427.881L495.156 427.881L495.156 424.653L411.773 424.653L411.773 427.881Z" fill="#999999"/>
<path opacity="0.94" d="M416.914 336.528V424.694C416.914 426.51 415.473 427.922 413.62 427.922H413.414C411.561 427.922 410.12 426.51 410.12 424.694V336.528C410.12 334.713 411.561 333.3 413.414 333.3H413.62C415.473 333.3 416.914 334.713 416.914 336.528Z" fill="#B3B3B3"/>
<path opacity="0.94" d="M414.443 353.281L416.914 353.281L416.914 351.869L414.443 351.869L414.443 353.281Z" fill="#DECD87"/>
<path opacity="0.94" d="M414.443 417.07L416.914 417.07L416.914 415.658L414.443 415.658L414.443 417.07Z" fill="#DECD87"/>
<path opacity="0.94" d="M414.522 345.684L416.992 345.684L416.992 344.271L414.522 344.271L414.522 345.684Z" fill="#DECD87"/>
<path opacity="0.94" d="M414.522 360.322L416.992 360.322L416.992 358.91L414.522 358.91L414.522 360.322Z" fill="#DECD87"/>
<path opacity="0.94" d="M414.443 367.276L416.914 367.276L416.914 365.864L414.443 365.864L414.443 367.276Z" fill="#DECD87"/>
<path opacity="0.94" d="M414.522 373.837L416.992 373.837L416.992 372.425L414.522 372.425L414.522 373.837Z" fill="#DECD87"/>
<path opacity="0.94" d="M414.522 380.273L416.992 380.273L416.992 378.861L414.522 378.861L414.522 380.273Z" fill="#DECD87"/>
<path opacity="0.94" d="M414.58 386.992L417.051 386.992L417.051 385.579L414.58 385.579L414.58 386.992Z" fill="#DECD87"/>
<path opacity="0.94" d="M414.385 394.492L416.855 394.492L416.855 393.08L414.385 393.08L414.385 394.492Z" fill="#DECD87"/>
<path opacity="0.94" d="M414.58 402.207L417.051 402.207L417.051 400.795L414.58 400.795L414.58 402.207Z" fill="#DECD87"/>
<path opacity="0.94" d="M414.443 410.254L416.914 410.254L416.914 408.842L414.443 408.842L414.443 410.254Z" fill="#DECD87"/>
<path opacity="0.94" d="M410.205 349.384L412.676 349.384L412.676 347.972L410.205 347.972L410.205 349.384Z" fill="#DECD87"/>
<path opacity="0.94" d="M410.205 356.592L412.676 356.592L412.676 355.18L410.205 355.18L410.205 356.592Z" fill="#DECD87"/>
<path opacity="0.94" d="M410.205 363.994L412.676 363.994L412.676 362.582L410.205 362.582L410.205 363.994Z" fill="#DECD87"/>
<path opacity="0.94" d="M410.068 370.429L412.539 370.429L412.539 369.017L410.068 369.017L410.068 370.429Z" fill="#DECD87"/>
<path opacity="0.94" d="M410.205 377.09L412.676 377.09L412.676 375.678L410.205 375.678L410.205 377.09Z" fill="#DECD87"/>
<path opacity="0.94" d="M410.01 383.906L412.48 383.906L412.48 382.494L410.01 382.494L410.01 383.906Z" fill="#DECD87"/>
<path opacity="0.94" d="M410.01 390.986L412.48 390.986L412.48 389.574L410.01 389.574L410.01 390.986Z" fill="#DECD87"/>
<path opacity="0.94" d="M410.01 398.643L412.48 398.643L412.48 397.23L410.01 397.23L410.01 398.643Z" fill="#DECD87"/>
<path opacity="0.94" d="M410.147 406.328L412.617 406.328L412.617 404.915L410.147 404.915L410.147 406.328Z" fill="#DECD87"/>
<path opacity="0.94" d="M410.147 421.572L412.617 421.572L412.617 420.16L410.147 420.16L410.147 421.572Z" fill="#DECD87"/>
<path opacity="0.94" d="M410.068 413.564L412.539 413.564L412.539 412.152L410.068 412.152L410.068 413.564Z" fill="#DECD87"/>
<path opacity="0.94" d="M410.068 341.895L412.539 341.895L412.539 340.483L410.068 340.483L410.068 341.895Z" fill="#DECD87"/>
<path d="M580.704 258.086H515.508V327.286H580.704V258.086Z" fill="#483E37"/>
<path d="M736.244 609.795H525.215V731.609H736.244V609.795Z" fill="#483E37"/>
<path d="M1128.01 507.188H1126.37V530.11H1128.01V507.188Z" fill="#E6E6E6"/>
<path d="M1112.06 439.629H1102.7V441.778H1112.06V439.629Z" fill="#999999"/>
<path d="M1148.61 446.3C1146.27 445.584 1138.07 444.151 1138.07 444.151C1138.07 444.151 1121.67 440.57 1111.84 439.854V442.002C1121.44 442.719 1138.07 446.3 1138.07 446.3C1138.07 446.3 1143.22 446.3 1148.61 446.3Z" fill="#999999"/>
<path d="M1112.06 696.787H1102.7V698.936H1112.06V696.787Z" fill="#999999"/>
<path d="M1173.43 446.318H873.398V692.25H1173.43V446.318Z" fill="#1A1A1A"/>
<path d="M1121.93 507.188H1128.49V530.11H1121.93C1119.82 530.11 1117.95 528.2 1117.95 526.051V511.247C1117.95 509.098 1119.59 507.188 1121.93 507.188Z" fill="#CCCCCC"/>
<path d="M1128.24 608.457V631.379H1121.68C1119.57 631.379 1117.7 629.469 1117.7 627.32V612.516C1117.7 610.367 1119.57 608.457 1121.68 608.457H1128.24Z" fill="#CCCCCC"/>
<path d="M1149.75 507.188H1127.27V530.11H1149.75V507.188Z" fill="#999999"/>
<path d="M1149.75 608.457H1127.27V631.379H1149.75V608.457Z" fill="#999999"/>
<path d="M1162.68 507.188H1141.37V530.11H1162.68V507.188Z" fill="#B3B3B3"/>
<path d="M1162.68 608.457H1141.37V631.379H1162.68V608.457Z" fill="#B3B3B3"/>
<path d="M1159.35 507.188H1151.15V530.11H1159.35V507.188Z" fill="#CCCCCC"/>
<path d="M1159.35 608.457H1151.15V631.379H1159.35V608.457Z" fill="#CCCCCC"/>
<path d="M1126.15 507.188H1123.34V530.11H1126.15V507.188Z" fill="#F2F2F2"/>
<path d="M1117.95 619.902C1117.95 619.902 1117.95 625.633 1117.95 627.304C1117.95 628.976 1119.35 631.363 1121.93 631.363C1124.51 631.363 1173.46 631.363 1173.46 631.363V619.902H1117.95Z" fill="#B3B3B3" fill-opacity="0.45"/>
<path d="M1112.06 696.787H1102.7V698.936H1112.06V696.787Z" fill="#999999"/>
<path d="M1148.61 692.256C1146.27 692.972 1138.07 694.405 1138.07 694.405C1138.07 694.405 1121.67 698.225 1111.84 698.703V696.554C1121.44 695.837 1138.07 692.256 1138.07 692.256C1138.07 692.256 1143.22 692.256 1148.61 692.256Z" fill="#999999"/>
<path d="M1173.93 608.457C1176.04 608.457 1177.91 610.367 1177.91 612.516V627.32C1177.91 629.469 1176.04 631.379 1173.93 631.379H1121.93C1119.82 631.379 1117.95 629.469 1117.95 627.32V612.516C1117.95 610.367 1119.82 608.457 1121.93 608.457H1173.93Z" fill="#B3B3B3"/>
<path d="M1115.81 692.235V690.803H1173.19V688.415V639.945V635.886L1169.21 635.647L1141.11 633.737L1113 631.827C1110.89 631.588 1109.02 629.678 1109.02 627.529V612.725C1109.02 610.576 1110.89 608.666 1113 608.428L1141.11 606.517L1169.21 604.607L1173.19 604.368V600.309V538.946V534.887L1169.21 534.648L1141.11 532.738L1113 530.828C1110.89 530.589 1109.02 528.679 1109.02 526.53V511.488C1109.02 509.339 1110.89 507.19 1113 507.19L1141.11 505.28L1169.21 503.369L1173.19 503.131V499.072V450.602V448.214H1115.81V446.542H841.54H837.559V450.602V688.415V692.474H841.54L1115.81 692.235Z" fill="#CCCCCC"/>
<path d="M1173.43 446.318H837.559V465.897H1173.43V446.318Z" fill="#E6E6E6" fill-opacity="0.37"/>
<path d="M1173.43 672.666H837.559V692.245H1173.43V672.666Z" fill="#808080" fill-opacity="0.37"/>
<path d="M1117.95 518.649C1117.95 518.649 1117.95 512.918 1117.95 511.247C1117.95 509.576 1119.35 507.188 1121.93 507.188C1124.51 507.188 1173.46 507.188 1173.46 507.188V518.649H1117.95Z" fill="#E6E6E6" fill-opacity="0.45"/>
<path d="M1173.21 619.918H1117.7C1117.7 619.918 1117.7 614.188 1117.7 612.516C1117.7 610.845 1119.1 608.457 1121.68 608.457C1124.25 608.457 1173.21 608.457 1173.21 608.457V619.918Z" fill="#E6E6E6" fill-opacity="0.45"/>
<path d="M1139.21 446.314C1136.87 445.598 1128.67 444.165 1128.67 444.165C1128.67 444.165 1112.04 440.345 1102.44 439.629V441.778C1112.04 442.494 1128.67 446.314 1128.67 446.314C1128.67 446.314 1133.83 446.314 1139.21 446.314Z" fill="#CCCCCC"/>
<path d="M1139.21 692.256C1136.87 692.972 1128.67 694.405 1128.67 694.405C1128.67 694.405 1112.04 698.225 1102.44 698.941V696.792C1112.04 696.076 1128.67 692.256 1128.67 692.256C1128.67 692.256 1133.83 692.256 1139.21 692.256Z" fill="#CCCCCC"/>
<path d="M1117.95 518.672C1117.95 518.672 1117.95 524.402 1117.95 526.074C1117.95 527.745 1119.35 530.133 1121.93 530.133C1124.51 530.133 1173.46 530.133 1173.46 530.133V518.672H1117.95Z" fill="#B3B3B3" fill-opacity="0.45"/>
<path d="M1173.93 507.188C1176.04 507.188 1177.91 509.098 1177.91 511.247V526.051C1177.91 528.2 1176.04 530.11 1173.93 530.11H1121.93C1119.82 530.11 1117.95 528.2 1117.95 526.051V511.247C1117.95 509.098 1119.82 507.188 1121.93 507.188H1173.93Z" fill="#B3B3B3"/>
<path d="M1163.54 307.461V380.132" stroke="black" stroke-opacity="0.15" stroke-width="0.838902" stroke-linecap="round"/>
<path d="M1163.58 307.461H920.527V379.304H1163.58V307.461Z" fill="#333333"/>
<path d="M878.656 364.404H863.848V378.276H878.656V364.404Z" fill="#4D4D4D"/>
<path d="M878.969 307.461H864.16V321.333H878.969V307.461Z" fill="#4D4D4D"/>
<path d="M1156.13 382.002V386.971C1160.32 386.971 1162.89 387.386 1163.54 388.214C1163.86 388.628 1164.18 391.319 1164.18 393.183H1169.33H1171.91H1172.23H1173.52H1179.96C1179.96 390.284 1178.99 386.764 1178.02 385.522C1174.8 382.209 1167.72 382.002 1164.82 382.002H1159.03V382.209C1158.06 382.002 1156.78 382.002 1156.13 382.002Z" fill="#B0B0B0"/>
<path d="M1179.32 388.007C1178.35 384.901 1177.07 384.694 1175.78 384.073C1171.92 382.002 1166.12 382.002 1163.87 382.002H1155.82V386.971C1158.72 386.971 1160.97 387.178 1162.26 387.593C1162.58 387.593 1178.03 387.593 1179.32 388.007Z" fill="#8F8F8F"/>
<path d="M1119.15 335.615V350.729L1106.91 351.557V334.58L1119.15 335.615Z" fill="#939393"/>
<path d="M1106.93 334.585L1101.78 334.17V351.976L1106.93 351.562V334.585Z" fill="#666666"/>
<path d="M874.785 386.153H1153.89" stroke="white" stroke-opacity="0.24" stroke-width="2.52799" stroke-linecap="round"/>
<path d="M890.878 394.841H906.652V391.942V390.079H880.898V393.598C880.898 394.426 883.152 394.841 885.727 394.841H890.878Z" fill="#B3B3B3"/>
<path d="M866.738 389.864H1159.37V381.996H1169.67V304.977H1159.37V297.109H866.738V389.864ZM1140.37 329.408C1142.63 329.615 1144.56 331.271 1144.56 333.342V355.081C1144.56 356.944 1142.63 358.808 1140.37 359.015L983.596 372.679C981.343 372.886 979.411 371.437 979.411 369.574V366.054C979.411 364.191 981.343 362.327 983.596 362.12L1115.26 351.768C1117.52 351.561 1119.45 349.905 1119.45 347.834V339.76C1119.45 337.896 1117.52 336.033 1115.26 335.826L983.596 325.681C981.343 325.474 979.411 323.818 979.411 321.747V318.642C979.411 316.778 981.343 315.329 983.596 315.536L1140.37 329.408Z" fill="#B3B3B3"/>
<path d="M1156.13 304.969V300C1160.32 300 1162.89 299.586 1163.54 298.758C1163.86 298.344 1164.18 295.652 1164.18 293.789H1169.33H1171.91H1172.23H1173.52H1179.96C1179.96 296.688 1178.99 300.207 1178.02 301.45C1174.8 304.762 1167.72 304.969 1164.82 304.969H1159.03V304.762C1158.06 304.969 1156.78 304.969 1156.13 304.969Z" fill="#B0B0B0"/>
<path d="M1179.32 298.974C1178.35 302.08 1177.07 302.287 1175.78 302.908C1171.92 304.978 1166.12 304.978 1163.87 304.978H1155.82V300.009C1158.72 300.009 1160.97 299.802 1162.26 299.388C1162.58 299.388 1178.03 299.595 1179.32 298.974Z" fill="#8F8F8F"/>
<path d="M891.523 297.526H907.297V294.627V292.764H881.543V296.283C881.543 297.112 883.796 297.526 886.372 297.526H891.523Z" fill="#B3B3B3"/>
<path d="M460.623 550.888H430.312V609.793H460.623V550.888Z" fill="white"/>
<path opacity="0.83" d="M430.277 564.628H417.695V598.942H430.277V564.628Z" fill="black"/>
<path d="M461.385 634.58H431.074V693.485H461.385V634.58Z" fill="white"/>
<path opacity="0.83" d="M431.039 647.734H418.457V682.048H431.039V647.734Z" fill="black"/>
<path d="M950.781 743.46V716.437C950.781 712.606 954.001 709.379 957.825 709.379H1116.42C1120.24 709.379 1123.46 712.606 1123.46 716.437V743.46C1123.46 747.291 1120.24 750.518 1116.42 750.518H957.825C954.001 750.518 950.781 747.291 950.781 743.46Z" fill="#4D4D4D"/>
<path d="M1052.87 732.793L1059.51 732.793L1059.51 725.937L1052.87 725.937L1052.87 732.793Z" fill="#8C8663"/>
<path d="M1052.83 732.756L1049.61 735.781H1062.69L1059.47 732.756H1052.83Z" fill="#B8AF82"/>
<path d="M1049.61 735.781V722.673L1052.83 725.9V732.756L1049.61 735.781Z" fill="#80795B"/>
<path d="M1049.61 722.682H1062.69L1059.47 725.908H1052.83L1049.61 722.682Z" fill="#5E5B43"/>
<path d="M1062.67 722.673V735.781L1059.45 732.756V725.9L1062.67 722.673Z" fill="#9A916C"/>
<path d="M1093.92 732.764L1100.57 732.764L1100.57 725.907L1093.92 725.907L1093.92 732.764Z" fill="#8C8663"/>
<path d="M1093.66 732.756L1090.64 735.781H1103.73L1100.51 732.756H1093.66Z" fill="#B8AF82"/>
<path d="M1090.64 735.781V722.673L1093.66 725.9V732.756L1090.64 735.781Z" fill="#80795B"/>
<path d="M1090.64 722.682H1103.73L1100.51 725.908H1093.66L1090.64 722.682Z" fill="#5E5B43"/>
<path d="M1100.49 732.756V725.9L1103.71 722.673V735.781L1100.49 732.756Z" fill="#9A916C"/>
<path d="M1014.92 732.627L1021.56 732.627L1021.56 725.771L1014.92 725.771L1014.92 732.627Z" fill="#8C8663"/>
<path d="M1011.52 735.781H1024.61L1021.39 732.756H1014.74L1011.52 735.781Z" fill="#B8AF82"/>
<path d="M1014.74 732.756L1011.52 735.781V722.673L1014.74 725.9V732.756Z" fill="#80795B"/>
<path d="M1024.61 722.682L1021.39 725.908H1014.74L1011.52 722.682H1024.61Z" fill="#5E5B43"/>
<path d="M1021.43 725.9L1024.65 722.673V735.781L1021.43 732.756V725.9Z" fill="#9A916C"/>
<path d="M973.73 732.725L980.371 732.725L980.371 725.868L973.73 725.868L973.73 732.725Z" fill="#8C8663"/>
<path d="M983.355 735.781L980.336 732.756H973.494L970.273 735.781H983.355Z" fill="#B8AF82"/>
<path d="M970.273 735.781V722.673L973.494 725.9V732.756L970.273 735.781Z" fill="#80795B"/>
<path d="M980.336 725.908H973.494L970.273 722.682H983.355L980.336 725.908Z" fill="#5E5B43"/>
<path d="M983.39 722.673V735.781L980.371 732.756V725.9L983.39 722.673Z" fill="#9A916C"/>
<path opacity="0.99" d="M828.881 349.61H617.852V560.639H828.881V349.61Z" fill="#483E37"/>
<path d="M672.304 450.36C674.203 450.36 675.701 449.98 676.8 449.221C677.912 448.461 678.468 447.091 678.468 445.111C678.468 442.982 677.695 441.53 676.149 440.757C675.322 440.35 674.216 440.147 672.833 440.147H662.945V450.36H672.304ZM658.896 436.668H672.731C675.01 436.668 676.888 437 678.367 437.665C681.174 438.94 682.578 441.293 682.578 444.724C682.578 446.515 682.205 447.98 681.459 449.119C680.727 450.258 679.696 451.174 678.367 451.866C679.533 452.34 680.408 452.964 680.991 453.737C681.588 454.51 681.92 455.765 681.988 457.501L682.131 461.509C682.171 462.648 682.266 463.496 682.415 464.052C682.66 465.002 683.094 465.612 683.717 465.883V466.555H678.753C678.618 466.297 678.509 465.965 678.428 465.558C678.346 465.151 678.279 464.364 678.224 463.198L677.98 458.213C677.885 456.26 677.16 454.951 675.803 454.287C675.03 453.92 673.816 453.737 672.161 453.737H662.945V466.555H658.896V436.668ZM688.519 436.668H692.466V451.235L707.033 436.668H712.628L700.197 448.712L712.974 466.555H707.704L697.247 451.56L692.466 456.138V466.555H688.519V436.668ZM723.96 467.348C720.515 467.348 718.012 466.405 716.453 464.52C714.906 462.621 714.133 460.316 714.133 457.603H717.958C718.121 459.488 718.474 460.858 719.016 461.713C719.966 463.245 721.681 464.012 724.163 464.012C726.089 464.012 727.636 463.496 728.802 462.465C729.969 461.435 730.552 460.105 730.552 458.478C730.552 456.47 729.935 455.067 728.7 454.266C727.48 453.466 725.777 453.066 723.594 453.066C723.35 453.066 723.099 453.073 722.841 453.086C722.597 453.086 722.346 453.093 722.088 453.107V449.872C722.468 449.912 722.787 449.94 723.044 449.953C723.302 449.967 723.58 449.973 723.879 449.973C725.248 449.973 726.374 449.756 727.256 449.322C728.802 448.563 729.575 447.207 729.575 445.253C729.575 443.802 729.06 442.683 728.029 441.896C726.998 441.11 725.798 440.716 724.428 440.716C721.986 440.716 720.298 441.53 719.362 443.158C718.847 444.053 718.555 445.328 718.487 446.983H714.866C714.866 444.813 715.3 442.968 716.168 441.449C717.66 438.736 720.284 437.38 724.041 437.38C727.012 437.38 729.311 438.044 730.938 439.374C732.566 440.689 733.38 442.602 733.38 445.111C733.38 446.901 732.898 448.353 731.935 449.465C731.338 450.157 730.565 450.699 729.616 451.092C731.149 451.513 732.342 452.327 733.197 453.534C734.065 454.727 734.499 456.192 734.499 457.928C734.499 460.709 733.583 462.974 731.752 464.724C729.921 466.473 727.324 467.348 723.96 467.348ZM666.058 515.348C662.613 515.348 660.11 514.405 658.551 512.52C657.004 510.621 656.231 508.316 656.231 505.603H660.056C660.219 507.488 660.572 508.858 661.114 509.713C662.064 511.245 663.779 512.012 666.261 512.012C668.187 512.012 669.734 511.496 670.9 510.465C672.067 509.435 672.65 508.105 672.65 506.478C672.65 504.47 672.033 503.067 670.798 502.266C669.578 501.466 667.875 501.066 665.692 501.066C665.448 501.066 665.197 501.073 664.939 501.086C664.695 501.086 664.444 501.093 664.186 501.107V497.872C664.566 497.912 664.885 497.94 665.142 497.953C665.4 497.967 665.678 497.973 665.977 497.973C667.346 497.973 668.472 497.756 669.354 497.322C670.9 496.563 671.673 495.207 671.673 493.253C671.673 491.802 671.158 490.683 670.127 489.896C669.096 489.11 667.896 488.716 666.526 488.716C664.084 488.716 662.396 489.53 661.46 491.158C660.945 492.053 660.653 493.328 660.585 494.983H656.964C656.964 492.813 657.398 490.968 658.266 489.449C659.758 486.736 662.382 485.38 666.139 485.38C669.11 485.38 671.409 486.044 673.036 487.374C674.664 488.689 675.478 490.602 675.478 493.111C675.478 494.901 674.996 496.353 674.033 497.465C673.436 498.157 672.663 498.699 671.714 499.092C673.247 499.513 674.44 500.327 675.295 501.534C676.163 502.727 676.597 504.192 676.597 505.928C676.597 508.709 675.681 510.974 673.85 512.724C672.019 514.473 669.422 515.348 666.058 515.348ZM689.699 485.421C693.47 485.421 696.196 486.974 697.878 490.08C699.18 492.48 699.831 495.769 699.831 499.947C699.831 503.907 699.241 507.183 698.061 509.774C696.352 513.49 693.558 515.348 689.679 515.348C686.179 515.348 683.575 513.829 681.866 510.791C680.442 508.255 679.73 504.85 679.73 500.578C679.73 497.268 680.157 494.427 681.012 492.053C682.612 487.631 685.508 485.421 689.699 485.421ZM689.658 512.012C691.557 512.012 693.069 511.171 694.195 509.489C695.321 507.807 695.884 504.674 695.884 500.089C695.884 496.78 695.477 494.06 694.663 491.931C693.849 489.788 692.269 488.716 689.923 488.716C687.766 488.716 686.186 489.734 685.182 491.768C684.192 493.789 683.697 496.773 683.697 500.72C683.697 503.69 684.016 506.078 684.653 507.882C685.63 510.635 687.298 512.012 689.658 512.012ZM712.953 497.628C714.567 497.628 715.829 497.18 716.737 496.285C717.646 495.376 718.101 494.298 718.101 493.05C718.101 491.965 717.667 490.968 716.799 490.059C715.93 489.15 714.608 488.696 712.831 488.696C711.068 488.696 709.793 489.15 709.006 490.059C708.22 490.968 707.826 492.033 707.826 493.253C707.826 494.623 708.335 495.695 709.352 496.468C710.369 497.241 711.57 497.628 712.953 497.628ZM713.177 512.052C714.873 512.052 716.276 511.598 717.389 510.689C718.514 509.767 719.077 508.397 719.077 506.579C719.077 504.694 718.501 503.263 717.348 502.287C716.195 501.31 714.717 500.822 712.913 500.822C711.163 500.822 709.732 501.324 708.62 502.327C707.521 503.317 706.972 504.694 706.972 506.457C706.972 507.976 707.474 509.292 708.477 510.404C709.495 511.503 711.061 512.052 713.177 512.052ZM707.969 499.031C706.952 498.597 706.158 498.089 705.588 497.506C704.517 496.42 703.981 495.01 703.981 493.274C703.981 491.104 704.768 489.239 706.341 487.679C707.915 486.119 710.146 485.339 713.035 485.339C715.829 485.339 718.019 486.078 719.606 487.557C721.193 489.022 721.986 490.737 721.986 492.704C721.986 494.522 721.525 495.993 720.603 497.119C720.088 497.756 719.287 498.38 718.202 498.991C719.409 499.547 720.359 500.184 721.051 500.903C722.339 502.259 722.983 504.023 722.983 506.193C722.983 508.756 722.122 510.933 720.4 512.724C718.677 514.5 716.242 515.389 713.096 515.389C710.261 515.389 707.86 514.623 705.894 513.09C703.94 511.544 702.964 509.306 702.964 506.376C702.964 504.653 703.384 503.168 704.225 501.92C705.066 500.659 706.314 499.696 707.969 499.031Z" fill="#CCCCCC"/>
<path d="M535.637 588.514C536.903 588.514 537.903 588.261 538.635 587.755C539.376 587.248 539.747 586.335 539.747 585.015C539.747 583.595 539.232 582.628 538.201 582.112C537.649 581.841 536.912 581.705 535.99 581.705H529.398V588.514H535.637ZM526.699 579.386H535.922C537.441 579.386 538.694 579.607 539.679 580.051C541.551 580.901 542.487 582.469 542.487 584.757C542.487 585.951 542.238 586.927 541.741 587.687C541.253 588.446 540.566 589.057 539.679 589.518C540.457 589.834 541.04 590.25 541.429 590.766C541.827 591.281 542.048 592.117 542.094 593.275L542.189 595.947C542.216 596.706 542.279 597.272 542.378 597.642C542.541 598.275 542.831 598.682 543.247 598.863V599.311H539.937C539.847 599.139 539.774 598.917 539.72 598.646C539.666 598.375 539.621 597.85 539.584 597.073L539.422 593.75C539.358 592.447 538.875 591.575 537.97 591.132C537.455 590.888 536.646 590.766 535.543 590.766H529.398V599.311H526.699V579.386ZM555.047 578.843C558.564 578.843 561.168 579.974 562.859 582.234C564.179 583.998 564.839 586.254 564.839 589.002C564.839 591.977 564.084 594.45 562.574 596.422C560.802 598.736 558.275 599.894 554.992 599.894C551.927 599.894 549.517 598.881 547.763 596.856C546.199 594.902 545.417 592.434 545.417 589.45C545.417 586.755 546.086 584.45 547.424 582.533C549.142 580.073 551.683 578.843 555.047 578.843ZM555.318 597.479C557.696 597.479 559.414 596.63 560.472 594.93C561.539 593.221 562.072 591.258 562.072 589.043C562.072 586.701 561.458 584.816 560.228 583.387C559.007 581.958 557.334 581.244 555.209 581.244C553.148 581.244 551.466 581.954 550.164 583.374C548.862 584.784 548.211 586.868 548.211 589.626C548.211 591.833 548.767 593.695 549.879 595.214C551 596.724 552.813 597.479 555.318 597.479ZM576.463 578.843C578.986 578.843 580.944 579.508 582.336 580.837C583.729 582.166 584.502 583.677 584.655 585.367H582.024C581.726 584.083 581.129 583.066 580.234 582.316C579.348 581.565 578.1 581.19 576.49 581.19C574.528 581.19 572.941 581.882 571.73 583.265C570.527 584.64 569.926 586.751 569.926 589.599C569.926 591.932 570.468 593.826 571.553 595.282C572.647 596.729 574.275 597.452 576.436 597.452C578.425 597.452 579.94 596.688 580.98 595.16C581.531 594.355 581.943 593.297 582.214 591.986H584.845C584.61 594.084 583.833 595.843 582.512 597.262C580.93 598.971 578.796 599.826 576.111 599.826C573.796 599.826 571.852 599.125 570.278 597.724C568.208 595.87 567.172 593.008 567.172 589.138C567.172 586.199 567.95 583.79 569.505 581.909C571.187 579.865 573.506 578.843 576.463 578.843ZM588.141 579.386H590.773V589.097L600.484 579.386H604.214L595.927 587.415L604.444 599.311H600.932L593.96 589.314L590.773 592.366V599.311H588.141V579.386ZM614.658 579.386H623.623C625.395 579.386 626.824 579.888 627.909 580.891C628.994 581.886 629.537 583.288 629.537 585.096C629.537 586.651 629.053 588.008 628.085 589.165C627.118 590.314 625.63 590.888 623.623 590.888H617.357V599.311H614.658V579.386ZM626.81 585.11C626.81 583.645 626.268 582.65 625.183 582.126C624.586 581.845 623.768 581.705 622.728 581.705H617.357V588.609H622.728C623.94 588.609 624.921 588.351 625.671 587.836C626.431 587.321 626.81 586.412 626.81 585.11ZM632.602 584.852H635.084V599.311H632.602V584.852ZM632.602 579.386H635.084V582.153H632.602V579.386ZM648.607 592.882C648.67 594.012 648.937 594.93 649.407 595.635C650.302 596.955 651.88 597.615 654.141 597.615C655.153 597.615 656.076 597.47 656.908 597.181C658.517 596.62 659.322 595.617 659.322 594.17C659.322 593.085 658.983 592.312 658.305 591.851C657.617 591.399 656.541 591.005 655.077 590.671L652.377 590.06C650.614 589.662 649.366 589.224 648.634 588.745C647.368 587.913 646.735 586.669 646.735 585.015C646.735 583.224 647.354 581.755 648.593 580.607C649.832 579.458 651.586 578.884 653.856 578.884C655.945 578.884 657.717 579.39 659.173 580.403C660.637 581.407 661.37 583.016 661.37 585.232H658.834C658.698 584.165 658.409 583.346 657.966 582.777C657.143 581.737 655.746 581.217 653.774 581.217C652.183 581.217 651.039 581.552 650.343 582.221C649.647 582.89 649.299 583.667 649.299 584.554C649.299 585.53 649.705 586.245 650.519 586.697C651.053 586.986 652.26 587.348 654.141 587.782L656.935 588.419C658.282 588.727 659.322 589.147 660.054 589.681C661.32 590.612 661.953 591.964 661.953 593.736C661.953 595.942 661.148 597.52 659.539 598.47C657.938 599.419 656.076 599.894 653.951 599.894C651.473 599.894 649.534 599.261 648.132 597.995C646.731 596.738 646.043 595.034 646.07 592.882H648.607ZM527.242 616.784L531.121 628.611L535.176 616.784H537.848L532.369 631.311H529.765L524.407 616.784H527.242ZM540.805 617.557V615.686C542.568 615.514 543.798 615.229 544.494 614.831C545.191 614.424 545.711 613.47 546.054 611.969H547.98V631.311H545.376V617.557H540.805ZM555.983 628.354H558.817V631.311H555.983V628.354ZM562.208 631.311C562.299 629.638 562.642 628.182 563.239 626.943C563.845 625.704 565.02 624.579 566.765 623.566L569.37 622.06C570.536 621.382 571.354 620.803 571.825 620.324C572.566 619.574 572.937 618.715 572.937 617.747C572.937 616.617 572.598 615.722 571.919 615.062C571.241 614.393 570.337 614.058 569.207 614.058C567.534 614.058 566.377 614.691 565.735 615.957C565.391 616.635 565.201 617.575 565.165 618.778H562.683C562.71 617.087 563.022 615.708 563.619 614.641C564.677 612.76 566.544 611.82 569.22 611.82C571.445 611.82 573.068 612.421 574.09 613.624C575.12 614.827 575.636 616.165 575.636 617.639C575.636 619.194 575.089 620.523 573.995 621.626C573.362 622.268 572.227 623.046 570.59 623.959L568.732 624.99C567.846 625.478 567.15 625.944 566.643 626.387C565.739 627.174 565.169 628.046 564.934 629.005H575.541V631.311H562.208Z" fill="#F2F2F2"/>
</svg>
