<svg width="1580" height="1001" viewBox="0 0 1580 1001" fill="none" xmlns="http://www.w3.org/2000/svg">
<rect x="60.0605" y="150.5" width="1461.81" height="674.683" rx="53.9746" fill="#E49101"/>
<path fill-rule="evenodd" clip-rule="evenodd" d="M134.225 289.953C170.245 289.953 199.445 260.752 199.445 224.734C199.445 188.716 170.245 159.515 134.225 159.515C98.2053 159.515 69.0059 188.716 69.0059 224.734C69.0059 260.752 98.2053 289.953 134.225 289.953ZM134.225 193.249C151.614 193.249 165.71 207.344 165.71 224.734C165.71 242.124 151.614 256.219 134.225 256.219C116.837 256.219 102.74 242.124 102.74 224.734C102.74 207.344 116.837 193.249 134.225 193.249Z" fill="#FDE160"/>
<path fill-rule="evenodd" clip-rule="evenodd" d="M1445.4 289.953C1481.42 289.953 1510.62 260.752 1510.62 224.734C1510.62 188.716 1481.42 159.515 1445.4 159.515C1409.38 159.515 1380.18 188.716 1380.18 224.734C1380.18 260.752 1409.38 289.953 1445.4 289.953ZM1445.4 193.249C1462.79 193.249 1476.88 207.344 1476.88 224.734C1476.88 242.124 1462.79 256.219 1445.4 256.219C1428.01 256.219 1413.91 242.124 1413.91 224.734C1413.91 207.344 1428.01 193.249 1445.4 193.249Z" fill="#FDE160"/>
<path fill-rule="evenodd" clip-rule="evenodd" d="M134.225 816.194C170.245 816.194 199.445 786.992 199.445 750.974C199.445 714.956 170.245 685.755 134.225 685.755C98.2053 685.755 69.0059 714.956 69.0059 750.974C69.0059 786.992 98.2053 816.194 134.225 816.194ZM134.225 719.489C151.614 719.489 165.71 733.584 165.71 750.974C165.71 768.364 151.614 782.459 134.225 782.459C116.837 782.459 102.74 768.364 102.74 750.974C102.74 733.584 116.837 719.489 134.225 719.489Z" fill="#FDE160"/>
<path fill-rule="evenodd" clip-rule="evenodd" d="M1445.4 816.194C1481.42 816.194 1510.62 786.992 1510.62 750.974C1510.62 714.956 1481.42 685.755 1445.4 685.755C1409.38 685.755 1380.18 714.956 1380.18 750.974C1380.18 786.992 1409.38 816.194 1445.4 816.194ZM1445.4 719.489C1462.79 719.489 1476.88 733.584 1476.88 750.974C1476.88 768.364 1462.79 782.459 1445.4 782.459C1428.01 782.459 1413.91 768.364 1413.91 750.974C1413.91 733.584 1428.01 719.489 1445.4 719.489Z" fill="#FDE160"/>
<path d="M227.804 272.652C237.119 272.652 244.67 265.101 244.67 255.786C244.67 246.47 237.119 238.919 227.804 238.919C218.489 238.919 210.938 246.47 210.938 255.786C210.938 265.101 218.489 272.652 227.804 272.652Z" stroke="#F5B91B" stroke-width="0.793377"/>
<path d="M285.966 272.652C295.281 272.652 302.833 265.101 302.833 255.786C302.833 246.47 295.281 238.919 285.966 238.919C276.651 238.919 269.1 246.47 269.1 255.786C269.1 265.101 276.651 272.652 285.966 272.652Z" stroke="#F5B91B" stroke-width="0.793377"/>
<path d="M344.054 272.652C353.369 272.652 360.92 265.101 360.92 255.786C360.92 246.47 353.369 238.919 344.054 238.919C334.739 238.919 327.188 246.47 327.188 255.786C327.188 265.101 334.739 272.652 344.054 272.652Z" stroke="#F5B91B" stroke-width="0.793377"/>
<path d="M402.216 272.652C411.531 272.652 419.083 265.101 419.083 255.786C419.083 246.47 411.531 238.919 402.216 238.919C392.901 238.919 385.35 246.47 385.35 255.786C385.35 265.101 392.901 272.652 402.216 272.652Z" stroke="#F5B91B" stroke-width="0.793377"/>
<path d="M460.382 272.652C469.697 272.652 477.249 265.101 477.249 255.786C477.249 246.47 469.697 238.919 460.382 238.919C451.067 238.919 443.516 246.47 443.516 255.786C443.516 265.101 451.067 272.652 460.382 272.652Z" stroke="#F5B91B" stroke-width="0.793377"/>
<path d="M518.466 272.652C527.781 272.652 535.333 265.101 535.333 255.786C535.333 246.47 527.781 238.919 518.466 238.919C509.151 238.919 501.6 246.47 501.6 255.786C501.6 265.101 509.151 272.652 518.466 272.652Z" stroke="#F5B91B" stroke-width="0.793377"/>
<path d="M576.652 272.652C585.967 272.652 593.518 265.101 593.518 255.786C593.518 246.47 585.967 238.919 576.652 238.919C567.336 238.919 559.785 246.47 559.785 255.786C559.785 265.101 567.336 272.652 576.652 272.652Z" stroke="#F5B91B" stroke-width="0.793377"/>
<path d="M634.816 272.652C644.131 272.652 651.682 265.101 651.682 255.786C651.682 246.47 644.131 238.919 634.816 238.919C625.501 238.919 617.949 246.47 617.949 255.786C617.949 265.101 625.501 272.652 634.816 272.652Z" stroke="#F5B91B" stroke-width="0.793377"/>
<path d="M692.98 272.652C702.295 272.652 709.846 265.101 709.846 255.786C709.846 246.47 702.295 238.919 692.98 238.919C683.665 238.919 676.113 246.47 676.113 255.786C676.113 265.101 683.665 272.652 692.98 272.652Z" stroke="#F5B91B" stroke-width="0.793377"/>
<path d="M751.144 272.652C760.459 272.652 768.01 265.101 768.01 255.786C768.01 246.47 760.459 238.919 751.144 238.919C741.829 238.919 734.277 246.47 734.277 255.786C734.277 265.101 741.829 272.652 751.144 272.652Z" stroke="#F5B91B" stroke-width="0.793377"/>
<path d="M809.23 272.652C818.545 272.652 826.096 265.101 826.096 255.786C826.096 246.47 818.545 238.919 809.23 238.919C799.915 238.919 792.363 246.47 792.363 255.786C792.363 265.101 799.915 272.652 809.23 272.652Z" stroke="#F5B91B" stroke-width="0.793377"/>
<path d="M867.394 272.652C876.709 272.652 884.26 265.101 884.26 255.786C884.26 246.47 876.709 238.919 867.394 238.919C858.079 238.919 850.527 246.47 850.527 255.786C850.527 265.101 858.079 272.652 867.394 272.652Z" stroke="#F5B91B" stroke-width="0.793377"/>
<path d="M925.558 272.652C934.873 272.652 942.424 265.101 942.424 255.786C942.424 246.47 934.873 238.919 925.558 238.919C916.243 238.919 908.691 246.47 908.691 255.786C908.691 265.101 916.243 272.652 925.558 272.652Z" stroke="#F5B91B" stroke-width="0.793377"/>
<path d="M983.741 272.652C993.056 272.652 1000.61 265.101 1000.61 255.786C1000.61 246.47 993.056 238.919 983.741 238.919C974.426 238.919 966.875 246.47 966.875 255.786C966.875 265.101 974.426 272.652 983.741 272.652Z" stroke="#F5B91B" stroke-width="0.793377"/>
<path d="M1041.9 272.652C1051.22 272.652 1058.77 265.101 1058.77 255.786C1058.77 246.47 1051.22 238.919 1041.9 238.919C1032.59 238.919 1025.04 246.47 1025.04 255.786C1025.04 265.101 1032.59 272.652 1041.9 272.652Z" stroke="#F5B91B" stroke-width="0.793377"/>
<path d="M1099.99 272.652C1109.31 272.652 1116.86 265.101 1116.86 255.786C1116.86 246.47 1109.31 238.919 1099.99 238.919C1090.68 238.919 1083.12 246.47 1083.12 255.786C1083.12 265.101 1090.68 272.652 1099.99 272.652Z" stroke="#F5B91B" stroke-width="0.793377"/>
<path d="M1158.15 272.652C1167.47 272.652 1175.02 265.101 1175.02 255.786C1175.02 246.47 1167.47 238.919 1158.15 238.919C1148.84 238.919 1141.29 246.47 1141.29 255.786C1141.29 265.101 1148.84 272.652 1158.15 272.652Z" stroke="#F5B91B" stroke-width="0.793377"/>
<path d="M1216.32 272.652C1225.63 272.652 1233.19 265.101 1233.19 255.786C1233.19 246.47 1225.63 238.919 1216.32 238.919C1207 238.919 1199.45 246.47 1199.45 255.786C1199.45 265.101 1207 272.652 1216.32 272.652Z" stroke="#F5B91B" stroke-width="0.793377"/>
<path d="M1274.4 272.652C1283.72 272.652 1291.27 265.101 1291.27 255.786C1291.27 246.47 1283.72 238.919 1274.4 238.919C1265.09 238.919 1257.54 246.47 1257.54 255.786C1257.54 265.101 1265.09 272.652 1274.4 272.652Z" stroke="#F5B91B" stroke-width="0.793377"/>
<path d="M1332.57 272.652C1341.88 272.652 1349.44 265.101 1349.44 255.786C1349.44 246.47 1341.88 238.919 1332.57 238.919C1323.25 238.919 1315.7 246.47 1315.7 255.786C1315.7 265.101 1323.25 272.652 1332.57 272.652Z" stroke="#F5B91B" stroke-width="0.793377"/>
<path d="M1332.57 214.507C1341.88 214.507 1349.44 206.956 1349.44 197.641C1349.44 188.326 1341.88 180.774 1332.57 180.774C1323.25 180.774 1315.7 188.326 1315.7 197.641C1315.7 206.956 1323.25 214.507 1332.57 214.507Z" stroke="#F5B91B" stroke-width="0.793377"/>
<path d="M1274.4 214.507C1283.72 214.507 1291.27 206.956 1291.27 197.641C1291.27 188.326 1283.72 180.774 1274.4 180.774C1265.09 180.774 1257.54 188.326 1257.54 197.641C1257.54 206.956 1265.09 214.507 1274.4 214.507Z" stroke="#F5B91B" stroke-width="0.793377"/>
<path d="M1216.32 214.507C1225.63 214.507 1233.19 206.956 1233.19 197.641C1233.19 188.326 1225.63 180.774 1216.32 180.774C1207 180.774 1199.45 188.326 1199.45 197.641C1199.45 206.956 1207 214.507 1216.32 214.507Z" stroke="#F5B91B" stroke-width="0.793377"/>
<path d="M1158.15 214.507C1167.47 214.507 1175.02 206.956 1175.02 197.641C1175.02 188.326 1167.47 180.774 1158.15 180.774C1148.84 180.774 1141.29 188.326 1141.29 197.641C1141.29 206.956 1148.84 214.507 1158.15 214.507Z" stroke="#F5B91B" stroke-width="0.793377"/>
<path d="M1099.99 214.507C1109.31 214.507 1116.86 206.956 1116.86 197.641C1116.86 188.326 1109.31 180.774 1099.99 180.774C1090.68 180.774 1083.12 188.326 1083.12 197.641C1083.12 206.956 1090.68 214.507 1099.99 214.507Z" stroke="#F5B91B" stroke-width="0.793377"/>
<path d="M1041.9 214.507C1051.22 214.507 1058.77 206.956 1058.77 197.641C1058.77 188.326 1051.22 180.774 1041.9 180.774C1032.59 180.774 1025.04 188.326 1025.04 197.641C1025.04 206.956 1032.59 214.507 1041.9 214.507Z" stroke="#F5B91B" stroke-width="0.793377"/>
<path d="M983.741 214.507C993.056 214.507 1000.61 206.956 1000.61 197.641C1000.61 188.326 993.056 180.774 983.741 180.774C974.426 180.774 966.875 188.326 966.875 197.641C966.875 206.956 974.426 214.507 983.741 214.507Z" stroke="#F5B91B" stroke-width="0.793377"/>
<path d="M925.558 214.507C934.873 214.507 942.424 206.956 942.424 197.641C942.424 188.326 934.873 180.774 925.558 180.774C916.243 180.774 908.691 188.326 908.691 197.641C908.691 206.956 916.243 214.507 925.558 214.507Z" stroke="#F5B91B" stroke-width="0.793377"/>
<path d="M867.394 214.507C876.709 214.507 884.26 206.956 884.26 197.641C884.26 188.326 876.709 180.774 867.394 180.774C858.079 180.774 850.527 188.326 850.527 197.641C850.527 206.956 858.079 214.507 867.394 214.507Z" stroke="#F5B91B" stroke-width="0.793377"/>
<path d="M809.23 214.507C818.545 214.507 826.096 206.956 826.096 197.641C826.096 188.326 818.545 180.774 809.23 180.774C799.915 180.774 792.363 188.326 792.363 197.641C792.363 206.956 799.915 214.507 809.23 214.507Z" stroke="#F5B91B" stroke-width="0.793377"/>
<path d="M751.144 214.507C760.459 214.507 768.01 206.956 768.01 197.641C768.01 188.326 760.459 180.774 751.144 180.774C741.829 180.774 734.277 188.326 734.277 197.641C734.277 206.956 741.829 214.507 751.144 214.507Z" stroke="#F5B91B" stroke-width="0.793377"/>
<path d="M692.98 214.507C702.295 214.507 709.846 206.956 709.846 197.641C709.846 188.326 702.295 180.774 692.98 180.774C683.665 180.774 676.113 188.326 676.113 197.641C676.113 206.956 683.665 214.507 692.98 214.507Z" stroke="#F5B91B" stroke-width="0.793377"/>
<path d="M634.816 214.507C644.131 214.507 651.682 206.956 651.682 197.641C651.682 188.326 644.131 180.774 634.816 180.774C625.501 180.774 617.949 188.326 617.949 197.641C617.949 206.956 625.501 214.507 634.816 214.507Z" stroke="#F5B91B" stroke-width="0.793377"/>
<path d="M576.652 214.507C585.967 214.507 593.518 206.956 593.518 197.641C593.518 188.326 585.967 180.774 576.652 180.774C567.336 180.774 559.785 188.326 559.785 197.641C559.785 206.956 567.336 214.507 576.652 214.507Z" stroke="#F5B91B" stroke-width="0.793377"/>
<path d="M518.466 214.507C527.781 214.507 535.333 206.956 535.333 197.641C535.333 188.326 527.781 180.774 518.466 180.774C509.151 180.774 501.6 188.326 501.6 197.641C501.6 206.956 509.151 214.507 518.466 214.507Z" stroke="#F5B91B" stroke-width="0.793377"/>
<path d="M460.382 214.507C469.697 214.507 477.249 206.956 477.249 197.641C477.249 188.326 469.697 180.774 460.382 180.774C451.067 180.774 443.516 188.326 443.516 197.641C443.516 206.956 451.067 214.507 460.382 214.507Z" stroke="#F5B91B" stroke-width="0.793377"/>
<path d="M402.216 214.507C411.531 214.507 419.083 206.956 419.083 197.641C419.083 188.326 411.531 180.774 402.216 180.774C392.901 180.774 385.35 188.326 385.35 197.641C385.35 206.956 392.901 214.507 402.216 214.507Z" stroke="#F5B91B" stroke-width="0.793377"/>
<path d="M344.054 214.507C353.369 214.507 360.92 206.956 360.92 197.641C360.92 188.326 353.369 180.774 344.054 180.774C334.739 180.774 327.188 188.326 327.188 197.641C327.188 206.956 334.739 214.507 344.054 214.507Z" stroke="#F5B91B" stroke-width="0.793377"/>
<path d="M285.966 214.507C295.281 214.507 302.833 206.956 302.833 197.641C302.833 188.326 295.281 180.774 285.966 180.774C276.651 180.774 269.1 188.326 269.1 197.641C269.1 206.956 276.651 214.507 285.966 214.507Z" stroke="#F5B91B" stroke-width="0.793377"/>
<path d="M227.804 214.507C237.119 214.507 244.67 206.956 244.67 197.641C244.67 188.326 237.119 180.774 227.804 180.774C218.489 180.774 210.938 188.326 210.938 197.641C210.938 206.956 218.489 214.507 227.804 214.507Z" stroke="#F5B91B" stroke-width="0.793377"/>
<path d="M257.661 225.855V182.948L245.04 170.754H212.162L199.512 182.948V225.855" fill="#BE3836"/>
<path d="M257.661 225.851V268.757L245.04 280.952H212.162L199.512 268.757V225.851" fill="#EFEA3C"/>
<path d="M315.823 225.855V182.948L303.202 170.754H270.324L257.674 182.948V225.855" fill="#BE3836"/>
<path d="M315.823 225.851V268.757L303.202 280.952H270.324L257.674 268.757V225.851" fill="#69BE87"/>
<path d="M373.989 225.855V182.948L361.368 170.754H328.49L315.84 182.948V225.855" fill="#404041"/>
<path d="M373.989 225.851V268.757L361.368 280.952H328.49L315.84 268.757V225.851" fill="#69BE87"/>
<path d="M432.073 225.855V182.948L419.452 170.754H386.574L373.924 182.948V225.855" fill="#69BE87"/>
<path d="M432.073 225.851V268.757L419.452 280.952H386.574L373.924 268.757V225.851" fill="#69BE87"/>
<path d="M490.239 225.855V182.948L477.618 170.754H444.74L432.09 182.948V225.855" fill="#69BE87"/>
<path d="M490.239 225.851V268.757L477.618 280.952H444.74L432.09 268.757V225.851" fill="#404041"/>
<path d="M548.323 225.855V182.948L535.702 170.754H502.824L490.174 182.948V225.855" fill="#69BE87"/>
<path d="M548.323 225.851V268.757L535.702 280.952H502.824L490.174 268.757V225.851" fill="#69BE87"/>
<path d="M606.509 225.855V182.948L593.887 170.754H561.009L548.359 182.948V225.855" fill="#404041"/>
<path d="M606.509 225.851V268.757L593.887 280.952H561.009L548.359 268.757V225.851" fill="#69BE87"/>
<path d="M664.673 225.855V182.948L652.051 170.754H619.173L606.523 182.948V225.855" fill="#69BE87"/>
<path d="M664.673 225.851V268.757L652.051 280.952H619.173L606.523 268.757V225.851" fill="#69BE87"/>
<path d="M722.759 225.855V182.948L710.137 170.754H677.259L664.609 182.948V225.855" fill="#69BE87"/>
<path d="M722.759 225.851V268.757L710.137 280.952H677.259L664.609 268.757V225.851" fill="#EFEA3C"/>
<path d="M780.923 225.855V182.948L768.301 170.754H735.423L722.773 182.948V225.855" fill="#404041"/>
<path d="M780.923 225.851V268.757L768.301 280.952H735.423L722.773 268.757V225.851" fill="#69BE87"/>
<path d="M839.087 225.855V182.948L826.466 170.754H793.587L780.938 182.948V225.855" fill="#69BE87"/>
<path d="M839.087 225.851V268.757L826.466 280.952H793.587L780.938 268.757V225.851" fill="#69BE87"/>
<path d="M897.173 225.855V182.948L884.551 170.754H851.673L839.023 182.948V225.855" fill="#69BE87"/>
<path d="M897.173 225.851V268.757L884.551 280.952H851.673L839.023 268.757V225.851" fill="#69BE87"/>
<path d="M955.337 225.855V182.948L942.716 170.754H909.837L897.188 182.948V225.855" fill="#69BE87"/>
<path d="M955.337 225.851V268.757L942.716 280.952H909.837L897.188 268.757V225.851" fill="#404041"/>
<path d="M1013.5 225.855V182.948L1000.88 170.754H968.001L955.352 182.948V225.855" fill="#4DC0E6"/>
<path d="M1013.5 225.851V268.757L1000.88 280.952H968.001L955.352 268.757V225.851" fill="#4DC0E6"/>
<path d="M1071.59 225.851V268.757L1058.97 280.952H1026.09L1013.44 268.757V225.851" fill="#69BE87"/>
<path d="M1129.77 225.855V182.948L1117.15 170.754H1084.27L1071.62 182.948V225.855" fill="#69BE87"/>
<path d="M1129.77 225.851V268.757L1117.15 280.952H1084.27L1071.62 268.757V225.851" fill="#69BE87"/>
<path d="M1187.94 225.855V182.948L1175.32 170.754H1142.44L1129.79 182.948V225.855" fill="#404041"/>
<path d="M1187.94 225.851V268.757L1175.32 280.952H1142.44L1129.79 268.757V225.851" fill="#69BE87"/>
<path d="M1246.02 225.855V182.948L1233.4 170.754H1200.52L1187.87 182.948V225.855" fill="#69BE87"/>
<path d="M1246.02 225.851V268.757L1233.4 280.952H1200.52L1187.87 268.757V225.851" fill="#69BE87"/>
<path d="M1304.19 225.855V182.948L1291.57 170.754H1258.69L1246.04 182.948V225.855" fill="#69BE87"/>
<path d="M1304.19 225.851V268.757L1291.57 280.952H1258.69L1246.04 268.757V225.851" fill="#69BE87"/>
<path d="M1362.35 225.855V182.948L1349.73 170.754H1316.85L1304.2 182.948V225.855" fill="#69BE87"/>
<path d="M1362.35 225.851V268.757L1349.73 280.952H1316.85L1304.2 268.757V225.851" fill="#404041"/>
<path d="M232.748 192.463H223.203V202.007H232.748V192.463Z" fill="#8B8562"/>
<path d="M223.182 192.501L218.652 187.971V206.518L223.182 202.017V192.501Z" fill="#B6AD81"/>
<path d="M218.652 187.971H237.228L232.727 192.501H223.182L218.652 187.971Z" fill="#7F785B"/>
<path d="M237.236 187.971V206.518L232.734 202.017V192.501L237.236 187.971Z" fill="#5E5B43"/>
<path d="M237.228 206.496H218.652L223.182 201.994H232.727L237.228 206.496Z" fill="#988F6B"/>
<path d="M232.748 250.529H223.203V260.074H232.748V250.529Z" fill="#8B8562"/>
<path d="M223.182 250.529L218.652 246.027V264.575L223.182 260.045V250.529Z" fill="#B6AD81"/>
<path d="M218.652 246.027H237.228L232.727 250.529H223.182L218.652 246.027Z" fill="#7F785B"/>
<path d="M237.236 246.027V264.575L232.734 260.045V250.529L237.236 246.027Z" fill="#5E5B43"/>
<path d="M223.182 260.061H232.727L237.228 264.591H218.652L223.182 260.061Z" fill="#988F6B"/>
<path d="M290.794 192.443H281.25V201.988H290.794V192.443Z" fill="#8B8562"/>
<path d="M276.777 187.951V206.499L281.279 201.997V192.481L276.777 187.951Z" fill="#B6AD81"/>
<path d="M295.325 187.951L290.823 192.481H281.279L276.777 187.951H295.325Z" fill="#7F785B"/>
<path d="M295.283 206.499L290.781 201.997V192.481L295.283 187.951V206.499Z" fill="#5E5B43"/>
<path d="M276.777 206.497L281.279 201.995H290.823L295.325 206.497H276.777Z" fill="#988F6B"/>
<path d="M290.794 250.511H281.25V260.055H290.794V250.511Z" fill="#8B8562"/>
<path d="M276.777 246.017V264.564L281.279 260.034V250.518L276.777 246.017Z" fill="#B6AD81"/>
<path d="M295.325 246.017L290.823 250.518H281.279L276.777 246.017H295.325Z" fill="#7F785B"/>
<path d="M295.283 264.564L290.781 260.034V250.518L295.283 246.017V264.564Z" fill="#5E5B43"/>
<path d="M290.823 260.042L295.325 264.572H276.777L281.279 260.042H290.823Z" fill="#988F6B"/>
<path d="M349.019 192.443H339.475V201.988H349.019V192.443Z" fill="#8B8562"/>
<path d="M339.503 192.481L335.002 187.951V206.499L339.503 201.997V192.481Z" fill="#B6AD81"/>
<path d="M335.002 187.951H353.549L349.048 192.481H339.503L335.002 187.951Z" fill="#7F785B"/>
<path d="M353.507 187.951V206.499L349.006 201.997V192.481L353.507 187.951Z" fill="#5E5B43"/>
<path d="M353.549 206.497H335.002L339.503 201.995H349.048L353.549 206.497Z" fill="#988F6B"/>
<path d="M349.019 250.511H339.475V260.055H349.019V250.511Z" fill="#8B8562"/>
<path d="M339.503 250.518L335.002 246.017V264.564L339.503 260.034V250.518Z" fill="#B6AD81"/>
<path d="M335.002 246.017H353.549L349.048 250.518H339.503L335.002 246.017Z" fill="#7F785B"/>
<path d="M353.507 246.017V264.564L349.006 260.034V250.518L353.507 246.017Z" fill="#5E5B43"/>
<path d="M339.503 260.042H349.048L353.549 264.572H335.002L339.503 260.042Z" fill="#988F6B"/>
<path d="M407.144 192.443H397.6V201.988H407.144V192.443Z" fill="#8B8562"/>
<path d="M393.127 187.951V206.499L397.629 201.997V192.481L393.127 187.951Z" fill="#B6AD81"/>
<path d="M411.674 187.951L407.173 192.481H397.629L393.127 187.951H411.674Z" fill="#7F785B"/>
<path d="M411.632 206.499L407.131 201.997V192.481L411.632 187.951V206.499Z" fill="#5E5B43"/>
<path d="M393.127 206.497L397.629 201.995H407.173L411.674 206.497H393.127Z" fill="#988F6B"/>
<path d="M407.144 250.511H397.6V260.055H407.144V250.511Z" fill="#8B8562"/>
<path d="M393.127 246.017V264.564L397.629 260.034V250.518L393.127 246.017Z" fill="#B6AD81"/>
<path d="M411.674 246.017L407.173 250.518H397.629L393.127 246.017H411.674Z" fill="#7F785B"/>
<path d="M411.632 264.564L407.131 260.034V250.518L411.632 246.017V264.564Z" fill="#5E5B43"/>
<path d="M407.173 260.042L411.674 264.572H393.127L397.629 260.042H407.173Z" fill="#988F6B"/>
<path d="M465.269 192.443H455.725V201.988H465.269V192.443Z" fill="#8B8562"/>
<path d="M455.754 192.481L451.252 187.951V206.499L455.754 201.997V192.481Z" fill="#B6AD81"/>
<path d="M451.252 187.951H469.799L465.298 192.481H455.754L451.252 187.951Z" fill="#7F785B"/>
<path d="M469.757 187.951V206.499L465.256 201.997V192.481L469.757 187.951Z" fill="#5E5B43"/>
<path d="M469.799 206.497H451.252L455.754 201.995H465.298L469.799 206.497Z" fill="#988F6B"/>
<path d="M465.269 250.511H455.725V260.055H465.269V250.511Z" fill="#8B8562"/>
<path d="M455.754 250.518L451.252 246.017V264.564L455.754 260.034V250.518Z" fill="#B6AD81"/>
<path d="M451.252 246.017H469.799L465.298 250.518H455.754L451.252 246.017Z" fill="#7F785B"/>
<path d="M469.757 246.017V264.564L465.256 260.034V250.518L469.757 246.017Z" fill="#5E5B43"/>
<path d="M455.754 260.042H465.298L469.799 264.572H451.252L455.754 260.042Z" fill="#988F6B"/>
<path d="M523.472 192.443H513.928V201.988H523.472V192.443Z" fill="#8B8562"/>
<path d="M513.907 192.481L509.377 187.951V206.499L513.907 201.997V192.481Z" fill="#B6AD81"/>
<path d="M509.377 187.951H527.953L523.451 192.481H513.907L509.377 187.951Z" fill="#7F785B"/>
<path d="M527.961 187.951V206.499L523.459 201.997V192.481L527.961 187.951Z" fill="#5E5B43"/>
<path d="M527.953 206.497H509.377L513.907 201.995H523.451L527.953 206.497Z" fill="#988F6B"/>
<path d="M523.472 250.511H513.928V260.055H523.472V250.511Z" fill="#8B8562"/>
<path d="M513.907 250.518L509.377 246.017V264.564L513.907 260.034V250.518Z" fill="#B6AD81"/>
<path d="M509.377 246.017H527.953L523.451 250.518H513.907L509.377 246.017Z" fill="#7F785B"/>
<path d="M527.961 246.017V264.564L523.459 260.034V250.518L527.961 246.017Z" fill="#5E5B43"/>
<path d="M513.907 260.042H523.451L527.953 264.572H509.377L513.907 260.042Z" fill="#988F6B"/>
<path d="M581.537 192.443H571.992V201.988H581.537V192.443Z" fill="#8B8562"/>
<path d="M572.021 192.481L567.52 187.951V206.499L572.021 201.997V192.481Z" fill="#B6AD81"/>
<path d="M567.52 187.951H586.067L581.565 192.481H572.021L567.52 187.951Z" fill="#7F785B"/>
<path d="M586.025 187.951V206.499L581.523 201.997V192.481L586.025 187.951Z" fill="#5E5B43"/>
<path d="M586.067 206.497H567.52L572.021 201.995H581.565L586.067 206.497Z" fill="#988F6B"/>
<path d="M581.537 250.511H571.992V260.055H581.537V250.511Z" fill="#8B8562"/>
<path d="M572.021 250.518L567.52 246.017V264.564L572.021 260.034V250.518Z" fill="#B6AD81"/>
<path d="M567.52 246.017H586.067L581.565 250.518H572.021L567.52 246.017Z" fill="#7F785B"/>
<path d="M586.025 246.017V264.564L581.523 260.034V250.518L586.025 246.017Z" fill="#5E5B43"/>
<path d="M572.021 260.042H581.565L586.067 264.572H567.52L572.021 260.042Z" fill="#988F6B"/>
<path d="M639.74 192.443H630.195V201.988H639.74V192.443Z" fill="#8B8562"/>
<path d="M630.224 192.481L625.723 187.951V206.499L630.224 201.997V192.481Z" fill="#B6AD81"/>
<path d="M625.723 187.951H644.27L639.769 192.481H630.224L625.723 187.951Z" fill="#7F785B"/>
<path d="M644.228 187.951V206.499L639.727 201.997V192.481L644.228 187.951Z" fill="#5E5B43"/>
<path d="M644.27 206.497H625.723L630.224 201.995H639.769L644.27 206.497Z" fill="#988F6B"/>
<path d="M639.74 250.511H630.195V260.055H639.74V250.511Z" fill="#8B8562"/>
<path d="M630.224 250.518L625.723 246.017V264.564L630.224 260.034V250.518Z" fill="#B6AD81"/>
<path d="M625.723 246.017H644.27L639.769 250.518H630.224L625.723 246.017Z" fill="#7F785B"/>
<path d="M644.228 246.017V264.564L639.727 260.034V250.518L644.228 246.017Z" fill="#5E5B43"/>
<path d="M630.224 260.042H639.769L644.27 264.572H625.723L630.224 260.042Z" fill="#988F6B"/>
<path d="M697.865 192.443H688.32V201.988H697.865V192.443Z" fill="#8B8562"/>
<path d="M688.349 192.481L683.848 187.951V206.499L688.349 201.997V192.481Z" fill="#B6AD81"/>
<path d="M683.848 187.951H702.395L697.894 192.481H688.349L683.848 187.951Z" fill="#7F785B"/>
<path d="M702.353 187.951V206.499L697.852 201.997V192.481L702.353 187.951Z" fill="#5E5B43"/>
<path d="M702.395 206.497H683.848L688.349 201.995H697.894L702.395 206.497Z" fill="#988F6B"/>
<path d="M697.865 250.511H688.32V260.055H697.865V250.511Z" fill="#8B8562"/>
<path d="M688.349 250.518L683.848 246.017V264.564L688.349 260.034V250.518Z" fill="#B6AD81"/>
<path d="M683.848 246.017H702.395L697.894 250.518H688.349L683.848 246.017Z" fill="#7F785B"/>
<path d="M702.353 246.017V264.564L697.852 260.034V250.518L702.353 246.017Z" fill="#5E5B43"/>
<path d="M688.349 260.042H697.894L702.395 264.572H683.848L688.349 260.042Z" fill="#988F6B"/>
<path d="M756.089 192.443H746.545V201.988H756.089V192.443Z" fill="#8B8562"/>
<path d="M746.574 192.481L742.072 187.951V206.499L746.574 201.997V192.481Z" fill="#B6AD81"/>
<path d="M742.072 187.951H760.62L756.118 192.481H746.574L742.072 187.951Z" fill="#7F785B"/>
<path d="M760.578 187.951V206.499L756.076 201.997V192.481L760.578 187.951Z" fill="#5E5B43"/>
<path d="M760.62 206.497H742.072L746.574 201.995H756.118L760.62 206.497Z" fill="#988F6B"/>
<path d="M756.089 250.511H746.545V260.055H756.089V250.511Z" fill="#8B8562"/>
<path d="M746.574 250.518L742.072 246.017V264.564L746.574 260.034V250.518Z" fill="#B6AD81"/>
<path d="M742.072 246.017H760.62L756.118 250.518H746.574L742.072 246.017Z" fill="#7F785B"/>
<path d="M760.578 246.017V264.564L756.076 260.034V250.518L760.578 246.017Z" fill="#5E5B43"/>
<path d="M746.574 260.042H756.118L760.62 264.572H742.072L746.574 260.042Z" fill="#988F6B"/>
<path d="M814.21 192.443H804.666V201.988H814.21V192.443Z" fill="#8B8562"/>
<path d="M800.115 206.499L804.645 201.997V192.481L800.115 187.951V206.499Z" fill="#B6AD81"/>
<path d="M814.19 192.481H804.645L800.115 187.951H818.691L814.19 192.481Z" fill="#7F785B"/>
<path d="M814.197 201.997V192.481L818.699 187.951V206.499L814.197 201.997Z" fill="#5E5B43"/>
<path d="M804.645 201.995H814.19L818.691 206.497H800.115L804.645 201.995Z" fill="#988F6B"/>
<path d="M814.21 250.511H804.666V260.055H814.21V250.511Z" fill="#8B8562"/>
<path d="M800.115 264.564L804.645 260.034V250.518L800.115 246.017V264.564Z" fill="#B6AD81"/>
<path d="M814.19 250.518H804.645L800.115 246.017H818.691L814.19 250.518Z" fill="#7F785B"/>
<path d="M814.197 260.034V250.518L818.699 246.017V264.564L814.197 260.034Z" fill="#5E5B43"/>
<path d="M818.691 264.572H800.115L804.645 260.042H814.19L818.691 264.572Z" fill="#988F6B"/>
<path d="M872.339 192.443H862.795V201.988H872.339V192.443Z" fill="#8B8562"/>
<path d="M862.824 192.481L858.322 187.951V206.499L862.824 201.997V192.481Z" fill="#B6AD81"/>
<path d="M858.322 187.951H876.87L872.368 192.481H862.824L858.322 187.951Z" fill="#7F785B"/>
<path d="M876.828 187.951V206.499L872.326 201.997V192.481L876.828 187.951Z" fill="#5E5B43"/>
<path d="M876.87 206.497H858.322L862.824 201.995H872.368L876.87 206.497Z" fill="#988F6B"/>
<path d="M872.339 250.511H862.795V260.055H872.339V250.511Z" fill="#8B8562"/>
<path d="M862.824 250.518L858.322 246.017V264.564L862.824 260.034V250.518Z" fill="#B6AD81"/>
<path d="M858.322 246.017H876.87L872.368 250.518H862.824L858.322 246.017Z" fill="#7F785B"/>
<path d="M876.828 246.017V264.564L872.326 260.034V250.518L876.828 246.017Z" fill="#5E5B43"/>
<path d="M862.824 260.042H872.368L876.87 264.572H858.322L862.824 260.042Z" fill="#988F6B"/>
<path d="M930.464 192.443H920.92V201.988H930.464V192.443Z" fill="#8B8562"/>
<path d="M920.949 192.481L916.447 187.951V206.499L920.949 201.997V192.481Z" fill="#B6AD81"/>
<path d="M916.447 187.951H934.995L930.493 192.481H920.949L916.447 187.951Z" fill="#7F785B"/>
<path d="M934.953 187.951V206.499L930.451 201.997V192.481L934.953 187.951Z" fill="#5E5B43"/>
<path d="M934.995 206.497H916.447L920.949 201.995H930.493L934.995 206.497Z" fill="#988F6B"/>
<path d="M930.464 250.511H920.92V260.055H930.464V250.511Z" fill="#8B8562"/>
<path d="M920.949 250.518L916.447 246.017V264.564L920.949 260.034V250.518Z" fill="#B6AD81"/>
<path d="M916.447 246.017H934.995L930.493 250.518H920.949L916.447 246.017Z" fill="#7F785B"/>
<path d="M934.953 246.017V264.564L930.451 260.034V250.518L934.953 246.017Z" fill="#5E5B43"/>
<path d="M920.949 260.042H930.493L934.995 264.572H916.447L920.949 260.042Z" fill="#988F6B"/>
<path d="M988.685 192.443H979.141V201.988H988.685V192.443Z" fill="#8B8562"/>
<path d="M979.169 192.481L974.668 187.951V206.499L979.169 201.997V192.481Z" fill="#B6AD81"/>
<path d="M974.668 187.951H993.215L988.714 192.481H979.169L974.668 187.951Z" fill="#7F785B"/>
<path d="M993.173 187.951V206.499L988.672 201.997V192.481L993.173 187.951Z" fill="#5E5B43"/>
<path d="M993.215 206.497H974.668L979.169 201.995H988.714L993.215 206.497Z" fill="#988F6B"/>
<path d="M988.685 250.511H979.141V260.055H988.685V250.511Z" fill="#8B8562"/>
<path d="M979.169 250.518L974.668 246.017V264.564L979.169 260.034V250.518Z" fill="#B6AD81"/>
<path d="M974.668 246.017H993.215L988.714 250.518H979.169L974.668 246.017Z" fill="#7F785B"/>
<path d="M993.173 246.017V264.564L988.672 260.034V250.518L993.173 246.017Z" fill="#5E5B43"/>
<path d="M979.169 260.042H988.714L993.215 264.572H974.668L979.169 260.042Z" fill="#988F6B"/>
<path d="M1071.51 225.855V182.948L1058.89 170.754H1026.01L1013.36 182.948V225.855" fill="#404041"/>
<path d="M1046.77 192.463H1037.23V202.007H1046.77V192.463Z" fill="#8B8562"/>
<path d="M1032.65 187.971V206.518L1037.16 202.017V192.501L1032.65 187.971Z" fill="#B6AD81"/>
<path d="M1051.2 187.971L1046.7 192.501H1037.16L1032.65 187.971H1051.2Z" fill="#7F785B"/>
<path d="M1051.26 206.518L1046.76 202.017V192.501L1051.26 187.971V206.518Z" fill="#5E5B43"/>
<path d="M1032.65 206.496L1037.16 201.994H1046.7L1051.2 206.496H1032.65Z" fill="#988F6B"/>
<path d="M1046.79 250.52H1037.24V260.064H1046.79V250.52Z" fill="#8B8562"/>
<path d="M1037.2 250.509L1032.7 246.008V264.555L1037.2 260.025V250.509Z" fill="#B6AD81"/>
<path d="M1032.7 246.008H1051.24L1046.74 250.509H1037.2L1032.7 246.008Z" fill="#7F785B"/>
<path d="M1051.28 246.008V264.555L1046.78 260.025V250.509L1051.28 246.008Z" fill="#5E5B43"/>
<path d="M1037.2 260.051H1046.74L1051.24 264.581H1032.7L1037.2 260.051Z" fill="#988F6B"/>
<path d="M1105.01 192.443H1095.47V201.988H1105.01V192.443Z" fill="#8B8562"/>
<path d="M1095.45 192.481L1090.92 187.951V206.499L1095.45 201.997V192.481Z" fill="#B6AD81"/>
<path d="M1090.92 187.951H1109.49L1104.99 192.481H1095.45L1090.92 187.951Z" fill="#7F785B"/>
<path d="M1109.5 187.951V206.499L1105 201.997V192.481L1109.5 187.951Z" fill="#5E5B43"/>
<path d="M1109.49 206.497H1090.92L1095.45 201.995H1104.99L1109.49 206.497Z" fill="#988F6B"/>
<path d="M1105.01 250.511H1095.47V260.055H1105.01V250.511Z" fill="#8B8562"/>
<path d="M1095.45 250.518L1090.92 246.017V264.564L1095.45 260.034V250.518Z" fill="#B6AD81"/>
<path d="M1090.92 246.017H1109.49L1104.99 250.518H1095.45L1090.92 246.017Z" fill="#7F785B"/>
<path d="M1109.5 246.017V264.564L1105 260.034V250.518L1109.5 246.017Z" fill="#5E5B43"/>
<path d="M1095.45 260.042H1104.99L1109.49 264.572H1090.92L1095.45 260.042Z" fill="#988F6B"/>
<path d="M1163.06 192.443H1153.52V201.988H1163.06V192.443Z" fill="#8B8562"/>
<path d="M1153.52 192.481L1149.04 187.951V206.499L1153.52 201.997V192.481Z" fill="#B6AD81"/>
<path d="M1149.04 187.951H1167.59L1163.09 192.481H1153.52L1149.04 187.951Z" fill="#7F785B"/>
<path d="M1167.55 187.951V206.499L1163.05 201.997V192.481L1167.55 187.951Z" fill="#5E5B43"/>
<path d="M1167.59 206.497H1149.04L1153.52 201.995H1163.09L1167.59 206.497Z" fill="#988F6B"/>
<path d="M1163.06 250.511H1153.52V260.055H1163.06V250.511Z" fill="#8B8562"/>
<path d="M1153.52 250.518L1149.04 246.017V264.564L1153.52 260.034V250.518Z" fill="#B6AD81"/>
<path d="M1149.04 246.017H1167.59L1163.09 250.518H1153.52L1149.04 246.017Z" fill="#7F785B"/>
<path d="M1167.55 246.017V264.564L1163.05 260.034V250.518L1167.55 246.017Z" fill="#5E5B43"/>
<path d="M1153.52 260.042H1163.09L1167.59 264.572H1149.04L1153.52 260.042Z" fill="#988F6B"/>
<path d="M1221.36 192.443H1211.81V201.988H1221.36V192.443Z" fill="#8B8562"/>
<path d="M1211.79 192.481L1207.26 187.951V206.499L1211.79 201.997V192.481Z" fill="#B6AD81"/>
<path d="M1207.26 187.951H1225.81L1221.34 192.481H1211.79L1207.26 187.951Z" fill="#7F785B"/>
<path d="M1225.82 187.951V206.499L1221.35 201.997V192.481L1225.82 187.951Z" fill="#5E5B43"/>
<path d="M1225.81 206.497H1207.26L1211.79 201.995H1221.34L1225.81 206.497Z" fill="#988F6B"/>
<path d="M1221.36 250.511H1211.81V260.055H1221.36V250.511Z" fill="#8B8562"/>
<path d="M1211.79 250.518L1207.26 246.017V264.564L1211.79 260.034V250.518Z" fill="#B6AD81"/>
<path d="M1207.26 246.017H1225.81L1221.34 250.518H1211.79L1207.26 246.017Z" fill="#7F785B"/>
<path d="M1225.82 246.017V264.564L1221.35 260.034V250.518L1225.82 246.017Z" fill="#5E5B43"/>
<path d="M1211.79 260.042H1221.34L1225.81 264.572H1207.26L1211.79 260.042Z" fill="#988F6B"/>
<path d="M1279.41 192.443H1269.86V201.988H1279.41V192.443Z" fill="#8B8562"/>
<path d="M1269.86 192.481L1265.39 187.951V206.499L1269.86 201.997V192.481Z" fill="#B6AD81"/>
<path d="M1265.39 187.951H1283.94L1279.44 192.481H1269.86L1265.39 187.951Z" fill="#7F785B"/>
<path d="M1283.9 187.951V206.499L1279.39 201.997V192.481L1283.9 187.951Z" fill="#5E5B43"/>
<path d="M1283.94 206.497H1265.39L1269.86 201.995H1279.44L1283.94 206.497Z" fill="#988F6B"/>
<path d="M1279.41 250.511H1269.86V260.055H1279.41V250.511Z" fill="#8B8562"/>
<path d="M1269.86 250.518L1265.39 246.017V264.564L1269.86 260.034V250.518Z" fill="#B6AD81"/>
<path d="M1265.39 246.017H1283.94L1279.44 250.518H1269.86L1265.39 246.017Z" fill="#7F785B"/>
<path d="M1283.9 246.017V264.564L1279.39 260.034V250.518L1283.9 246.017Z" fill="#5E5B43"/>
<path d="M1269.86 260.042H1279.44L1283.94 264.572H1265.39L1269.86 260.042Z" fill="#988F6B"/>
<path d="M1337.61 192.443H1328.07V201.988H1337.61V192.443Z" fill="#8B8562"/>
<path d="M1328.05 192.481L1323.52 187.951V206.499L1328.05 201.997V192.481Z" fill="#B6AD81"/>
<path d="M1323.52 187.951H1342.06L1337.59 192.481H1328.05L1323.52 187.951Z" fill="#7F785B"/>
<path d="M1342.07 187.951V206.499L1337.6 201.997V192.481L1342.07 187.951Z" fill="#5E5B43"/>
<path d="M1342.06 206.497H1323.52L1328.05 201.995H1337.59L1342.06 206.497Z" fill="#988F6B"/>
<path d="M1337.61 250.511H1328.07V260.055H1337.61V250.511Z" fill="#8B8562"/>
<path d="M1328.05 250.518L1323.52 246.017V264.564L1328.05 260.034V250.518Z" fill="#B6AD81"/>
<path d="M1323.52 246.017H1342.06L1337.59 250.518H1328.05L1323.52 246.017Z" fill="#7F785B"/>
<path d="M1342.07 246.017V264.564L1337.6 260.034V250.518L1342.07 246.017Z" fill="#5E5B43"/>
<path d="M1328.05 260.042H1337.59L1342.06 264.572H1323.52L1328.05 260.042Z" fill="#988F6B"/>
<rect x="1051.82" y="447.365" width="168.671" height="296.86" fill="#464646"/>
<rect x="676.291" y="325.909" width="299.109" height="296.86" fill="#464646"/>
<rect x="260.254" y="373.146" width="240.637" height="238.388" fill="#655E58"/>
<path d="M1382.51 686.624L1387.35 686.624L1387.35 672.407L1382.51 672.407L1382.51 686.624Z" fill="#E4E2DF"/>
<path d="M1374.31 686.624L1379.14 686.624L1379.14 672.407L1374.31 672.407L1374.31 686.624Z" fill="#E4E2DF"/>
<path d="M1366.1 686.624L1370.94 686.624L1370.94 672.407L1366.1 672.407L1366.1 686.624Z" fill="#E4E2DF"/>
<path d="M1357.98 686.624L1362.81 686.624L1362.81 672.407L1357.98 672.407L1357.98 686.624Z" fill="#E4E2DF"/>
<path d="M1349.78 686.624L1354.61 686.624L1354.61 672.407L1349.78 672.407L1349.78 686.624Z" fill="#E4E2DF"/>
<path d="M1341.57 686.624L1346.41 686.624L1346.41 672.407L1341.57 672.407L1341.57 686.624Z" fill="#E4E2DF"/>
<path d="M1333.82 686.624L1338.65 686.624L1338.65 672.407L1333.82 672.407L1333.82 686.624Z" fill="#E4E2DF"/>
<path d="M1325.61 686.624L1330.45 686.624L1330.45 672.407L1325.62 672.407L1325.61 686.624Z" fill="#E4E2DF"/>
<path d="M1317.41 686.624L1322.25 686.624L1322.25 672.407L1317.41 672.407L1317.41 686.624Z" fill="#E4E2DF"/>
<path d="M1309.29 686.624L1314.12 686.624L1314.12 672.407L1309.29 672.407L1309.29 686.624Z" fill="#E4E2DF"/>
<path d="M1301.08 686.624L1305.92 686.624L1305.92 672.407L1301.08 672.407L1301.08 686.624Z" fill="#E4E2DF"/>
<path d="M1292.88 686.624L1297.72 686.624L1297.72 672.407L1292.88 672.407L1292.88 686.624Z" fill="#E4E2DF"/>
<path d="M1276.64 670.156L1276.64 674.992L1288.3 674.992L1288.3 670.156L1276.64 670.156Z" fill="#E4E2DF"/>
<path d="M1276.64 661.932L1276.64 666.769L1288.3 666.769L1288.3 661.932L1276.64 661.932Z" fill="#E4E2DF"/>
<path d="M1276.64 653.789L1276.64 658.625L1288.3 658.625L1288.3 653.789L1276.64 653.789Z" fill="#E4E2DF"/>
<path d="M1276.64 645.625L1276.64 650.461L1288.3 650.461L1288.3 645.625L1276.64 645.625Z" fill="#E4E2DF"/>
<path d="M1276.64 637.401L1276.64 642.237L1288.3 642.237L1288.3 637.401L1276.64 637.401Z" fill="#E4E2DF"/>
<path d="M1276.64 629.248L1276.64 634.084L1288.3 634.084L1288.3 629.248L1276.64 629.248Z" fill="#E4E2DF"/>
<path d="M1276.64 621.493L1276.64 626.329L1288.3 626.329L1288.3 621.493L1276.64 621.493Z" fill="#E4E2DF"/>
<path d="M1276.64 613.271L1276.64 618.107L1288.3 618.107L1288.3 613.271L1276.64 613.271Z" fill="#E4E2DF"/>
<path d="M1276.64 605.126L1276.64 609.962L1288.3 609.962L1288.3 605.126L1276.64 605.126Z" fill="#E4E2DF"/>
<path d="M1276.64 596.962L1276.64 601.798L1288.3 601.798L1288.3 596.962L1276.64 596.962Z" fill="#E4E2DF"/>
<path d="M1276.64 588.74L1276.64 593.576L1288.3 593.576L1288.3 588.74L1276.64 588.74Z" fill="#E4E2DF"/>
<path d="M1276.64 580.585L1276.64 585.421L1288.3 585.421L1288.3 580.585L1276.64 580.585Z" fill="#E4E2DF"/>
<path d="M1382.51 575.93L1387.35 575.93L1387.35 564.276L1382.51 564.276L1382.51 575.93Z" fill="#E4E2DF"/>
<path d="M1374.31 575.93L1379.14 575.93L1379.14 564.276L1374.31 564.276L1374.31 575.93Z" fill="#E4E2DF"/>
<path d="M1366.1 575.93L1370.94 575.93L1370.94 564.276L1366.1 564.276L1366.1 575.93Z" fill="#E4E2DF"/>
<path d="M1357.98 575.93L1362.81 575.93L1362.81 564.276L1357.98 564.276L1357.98 575.93Z" fill="#E4E2DF"/>
<path d="M1349.78 575.93L1354.61 575.93L1354.61 564.276L1349.78 564.276L1349.78 575.93Z" fill="#E4E2DF"/>
<path d="M1341.57 575.93L1346.41 575.93L1346.41 564.276L1341.57 564.276L1341.57 575.93Z" fill="#E4E2DF"/>
<path d="M1333.82 575.93L1338.65 575.93L1338.65 564.276L1333.82 564.276L1333.82 575.93Z" fill="#E4E2DF"/>
<path d="M1325.61 575.93L1330.45 575.93L1330.45 564.276L1325.62 564.276L1325.61 575.93Z" fill="#E4E2DF"/>
<path d="M1317.41 575.93L1322.25 575.93L1322.25 564.276L1317.41 564.276L1317.41 575.93Z" fill="#E4E2DF"/>
<path d="M1309.29 575.93L1314.12 575.93L1314.12 564.276L1309.29 564.276L1309.29 575.93Z" fill="#E4E2DF"/>
<path d="M1301.08 575.93L1305.92 575.93L1305.92 564.276L1301.08 564.276L1301.08 575.93Z" fill="#E4E2DF"/>
<path d="M1292.88 575.93L1297.72 575.93L1297.72 564.276L1292.88 564.276L1292.88 575.93Z" fill="#E4E2DF"/>
<path d="M1393.26 670.146L1393.26 674.982L1404.92 674.982L1404.92 670.146L1393.26 670.146Z" fill="#E4E2DF"/>
<path d="M1393.26 661.923L1393.26 666.759L1404.92 666.759L1404.92 661.923L1393.26 661.923Z" fill="#E4E2DF"/>
<path d="M1393.26 653.779L1393.26 658.615L1404.92 658.615L1404.92 653.779L1393.26 653.779Z" fill="#E4E2DF"/>
<path d="M1393.26 645.615L1393.26 650.451L1404.92 650.451L1404.92 645.615L1393.26 645.615Z" fill="#E4E2DF"/>
<path d="M1393.26 637.391L1393.26 642.228L1404.92 642.228L1404.92 637.391L1393.26 637.391Z" fill="#E4E2DF"/>
<path d="M1393.26 629.238L1393.26 634.074L1404.92 634.074L1404.92 629.238L1393.26 629.238Z" fill="#E4E2DF"/>
<path d="M1393.26 621.505L1393.26 626.341L1404.92 626.341L1404.92 621.505L1393.26 621.505Z" fill="#E4E2DF"/>
<path d="M1393.26 613.283L1393.26 618.119L1404.92 618.119L1404.92 613.283L1393.26 613.283Z" fill="#E4E2DF"/>
<path d="M1393.26 605.137L1393.26 609.974L1404.92 609.974L1404.92 605.137L1393.26 605.137Z" fill="#E4E2DF"/>
<path d="M1393.26 596.973L1393.26 601.81L1404.92 601.81L1404.92 596.973L1393.26 596.973Z" fill="#E4E2DF"/>
<path d="M1393.26 588.752L1393.26 593.588L1404.92 593.588L1404.92 588.752L1393.26 588.752Z" fill="#E4E2DF"/>
<path d="M1393.26 580.596L1393.26 585.433L1404.92 585.433L1404.92 580.596L1393.26 580.596Z" fill="#E4E2DF"/>
<rect x="1398.99" y="680.822" width="116.536" height="110.709" transform="rotate(-180 1398.99 680.822)" fill="#2E2E31"/>
<path d="M1330.58 850.502H1312.78C1307.45 850.502 1303.17 846.178 1303.17 840.888V826.564H1340.23V840.888C1340.23 846.178 1335.91 850.502 1330.58 850.502Z" fill="#E5D1B9"/>
<path d="M1352.57 786.652H1292.15V823.446H1352.57V786.652Z" fill="#1A191C"/>
<path d="M1356.92 768.957V822.739H1286.46V768.957H1281.21V828.839H1362.17V768.957H1356.92Z" fill="#CCCCCC"/>
<path d="M1301.28 790.108H1295.29V792.464H1301.28V790.108Z" fill="#CCCCCC"/>
<path d="M1349.09 790.108H1343.11V792.464H1349.09V790.108Z" fill="#CCCCCC"/>
<path opacity="0.94" d="M105.076 380.45L67.4609 380.45L67.4609 445.642L105.076 445.642L105.076 380.45Z" fill="#2A7FFF"/>
<path d="M70.5293 425.475L70.5293 423.389L81.9338 423.389C83.1112 423.389 84.1625 423.667 85.0877 424.222C86.0072 424.771 86.7333 425.548 87.266 426.551C87.793 427.555 88.0566 428.732 88.0566 430.084C88.0566 431.435 87.793 432.612 87.266 433.616C86.7333 434.62 86.0072 435.399 85.0877 435.954C84.1625 436.504 83.1112 436.778 81.9338 436.778L70.5293 436.778L70.5293 434.693L81.7656 434.693C82.6066 434.693 83.3551 434.508 84.0112 434.137C84.6616 433.767 85.1746 433.24 85.5503 432.556C85.9203 431.867 86.1053 431.042 86.1053 430.084C86.1053 429.125 85.9203 428.301 85.5503 427.611C85.1746 426.921 84.6616 426.394 84.0112 426.03C83.3551 425.66 82.6066 425.475 81.7656 425.475L70.5293 425.475Z" fill="white"/>
<path opacity="0.94" d="M105.044 374.239L67.3828 374.239L67.3828 380.452L105.044 380.452L105.044 374.239Z" fill="#C0C7C0"/>
<path opacity="0.94" d="M105.044 445.646L67.3828 445.646L67.3828 451.858L105.044 451.858L105.044 445.646Z" fill="#C0C7C0"/>
<path fill-rule="evenodd" clip-rule="evenodd" d="M298.498 730.714H280.51V809.427H318.742V779.644H327.737V809.427H377.214V779.644H384.006V809.427H422.238V730.714H399.7H384.006H377.214H327.737H318.742H298.498Z" fill="#DBDAD9"/>
<path d="M273.732 719.474H293.973V807.182C293.973 813.393 288.938 818.427 282.728 818.427H278.23C275.746 818.427 273.732 816.413 273.732 813.929V719.474Z" fill="#EEEEEE"/>
<path d="M428.926 719.474H408.685V807.182C408.685 813.393 413.72 818.427 419.93 818.427H424.428C426.912 818.427 428.926 816.413 428.926 813.929V719.474Z" fill="#EEEEEE"/>
<path d="M255.62 730.714H273.747C274.989 730.714 275.996 731.721 275.996 732.963V785.813C275.996 787.055 274.989 788.062 273.747 788.062H244.511C243.269 788.062 242.262 787.055 242.262 785.813V745.082C242.262 744.52 242.473 743.977 242.853 743.563L253.963 731.443C254.389 730.978 254.99 730.714 255.62 730.714Z" fill="#EEEEEE"/>
<rect width="22.4894" height="42.7299" rx="2.24894" transform="matrix(-1 0 0 1 274.844 744.2)" fill="#DED7CF"/>
<rect width="17.9915" height="40.481" rx="2.24894" transform="matrix(-1 0 0 1 272.6 746.456)" fill="#F8F8F8"/>
<path d="M447.036 730.714H428.909C427.667 730.714 426.66 731.721 426.66 732.963V785.813C426.66 787.055 427.667 788.062 428.909 788.062H458.145C459.387 788.062 460.394 787.055 460.394 785.813V745.082C460.394 744.52 460.183 743.977 459.803 743.563L448.694 731.443C448.268 730.978 447.666 730.714 447.036 730.714Z" fill="#EEEEEE"/>
<rect x="427.812" y="744.2" width="22.4894" height="42.7299" rx="2.24894" fill="#DED7CF"/>
<rect x="430.061" y="746.456" width="17.9915" height="40.481" rx="2.24894" fill="#F8F8F8"/>
<rect x="309.707" y="764.454" width="5.62236" height="35.9831" rx="2.81118" fill="#F8F8F8"/>
<rect x="338.967" y="764.454" width="5.62236" height="35.9831" rx="2.81118" fill="#F8F8F8"/>
<rect x="368.203" y="764.454" width="5.62236" height="35.9831" rx="2.81118" fill="#F8F8F8"/>
<rect x="397.461" y="764.454" width="5.62236" height="35.9831" rx="2.81118" fill="#F8F8F8"/>
<path d="M395.175 719.474H371.561V723.409C371.561 724.96 370.303 726.22 368.75 726.22C367.198 726.22 365.939 724.96 365.939 723.409V719.474H342.325V723.409C342.325 724.96 341.067 726.22 339.514 726.22C337.961 726.22 336.703 724.96 336.703 723.409V719.474H313.089V723.409C313.089 724.96 311.83 726.22 310.278 726.22C308.725 726.22 307.467 724.96 307.467 723.409V719.474H273.732V798.187H293.973V784.693H408.669V798.187H428.909V719.474H400.798V723.409C400.798 724.96 399.539 726.22 397.987 726.22C396.434 726.22 395.175 724.96 395.175 723.409V719.474Z" fill="#EEEEEE"/>
<path fill-rule="evenodd" clip-rule="evenodd" d="M548.146 730.714H530.158V809.427H568.39V779.644H577.384V809.427H626.86V779.644H633.655V809.427H671.887V730.714H649.348H633.655H626.86H577.384H568.39H548.146Z" fill="#DBDAD9"/>
<path d="M523.439 719.474H543.68V807.182C543.68 813.393 538.646 818.427 532.435 818.427H527.937C525.453 818.427 523.439 816.413 523.439 813.929V719.474Z" fill="#EEEEEE"/>
<path d="M678.557 719.474H658.316V807.182C658.316 813.393 663.351 818.427 669.561 818.427H674.059C676.543 818.427 678.557 816.413 678.557 813.929V719.474Z" fill="#EEEEEE"/>
<path d="M505.29 730.714H523.417C524.659 730.714 525.666 731.721 525.666 732.963V785.813C525.666 787.055 524.659 788.062 523.417 788.062H494.181C492.939 788.062 491.932 787.055 491.932 785.813V745.082C491.932 744.52 492.143 743.977 492.523 743.563L503.633 731.443C504.059 730.978 504.66 730.714 505.29 730.714Z" fill="#EEEEEE"/>
<rect width="22.4894" height="42.7299" rx="2.24894" transform="matrix(-1 0 0 1 524.514 744.2)" fill="#DED7CF"/>
<rect width="17.9915" height="40.481" rx="2.24894" transform="matrix(-1 0 0 1 522.27 746.456)" fill="#F8F8F8"/>
<path d="M696.706 730.714H678.579C677.337 730.714 676.33 731.721 676.33 732.963V785.813C676.33 787.055 677.337 788.062 678.579 788.062H707.815C709.057 788.062 710.064 787.055 710.064 785.813V745.082C710.064 744.52 709.853 743.977 709.473 743.563L698.364 731.443C697.938 730.978 697.336 730.714 696.706 730.714Z" fill="#EEEEEE"/>
<rect x="677.482" y="744.2" width="22.4894" height="42.7299" rx="2.24894" fill="#DED7CF"/>
<rect x="679.727" y="746.456" width="17.9915" height="40.481" rx="2.24894" fill="#F8F8F8"/>
<rect x="559.377" y="764.454" width="5.62236" height="35.9831" rx="2.81118" fill="#F8F8F8"/>
<rect x="588.633" y="764.454" width="5.62236" height="35.9831" rx="2.81118" fill="#F8F8F8"/>
<rect x="617.873" y="764.454" width="5.62236" height="35.9831" rx="2.81118" fill="#F8F8F8"/>
<rect x="647.131" y="764.454" width="5.62236" height="35.9831" rx="2.81118" fill="#F8F8F8"/>
<path d="M644.882 719.474H621.268V723.409C621.268 724.96 620.01 726.22 618.457 726.22C616.905 726.22 615.646 724.96 615.646 723.409V719.474H592.032V723.409C592.032 724.96 590.774 726.22 589.221 726.22C587.668 726.22 586.41 724.96 586.41 723.409V719.474H562.796V723.409C562.796 724.96 561.538 726.22 559.985 726.22C558.432 726.22 557.174 724.96 557.174 723.409V719.474H523.439V798.187H543.68V784.693H658.376V798.187H678.616V719.474H650.505V723.409C650.505 724.96 649.246 726.22 647.694 726.22C646.141 726.22 644.882 724.96 644.882 723.409V719.474Z" fill="#EEEEEE"/>
<path fill-rule="evenodd" clip-rule="evenodd" d="M1422.85 440.608L1422.85 478.84L1501.57 478.84L1501.57 440.608L1471.78 440.608L1471.78 431.613L1501.57 431.613L1501.57 382.137L1471.78 382.137L1471.78 375.393L1501.57 375.393L1501.57 337.161L1422.85 337.161L1422.85 359.639L1422.85 359.639L1422.85 440.608L1422.85 440.608Z" fill="#DBDAD9"/>
<path d="M1411.66 485.597L1411.66 465.356L1499.37 465.356C1505.58 465.356 1510.62 470.391 1510.62 476.601L1510.62 481.099C1510.62 483.583 1508.6 485.597 1506.12 485.597L1411.66 485.597Z" fill="#EEEEEE"/>
<path d="M1411.66 330.422L1411.66 350.662L1499.37 350.662C1505.58 350.662 1510.62 345.628 1510.62 339.418L1510.62 334.92C1510.62 332.436 1508.6 330.422 1506.12 330.422L1411.66 330.422Z" fill="#EEEEEE"/>
<path d="M1422.85 503.736L1422.85 485.609C1422.85 484.367 1423.86 483.36 1425.1 483.36L1477.95 483.36C1479.19 483.36 1480.2 484.367 1480.2 485.609L1480.2 514.846C1480.2 516.088 1479.19 517.094 1477.95 517.094L1437.22 517.094C1436.66 517.094 1436.12 516.884 1435.7 516.503L1423.58 505.394C1423.12 504.968 1422.85 504.366 1422.85 503.736Z" fill="#EEEEEE"/>
<rect width="22.4894" height="42.7299" rx="2.24894" transform="matrix(4.37114e-08 1 1 -4.37114e-08 1436.37 484.483)" fill="#DED7CF"/>
<rect width="17.9915" height="40.481" rx="2.24894" transform="matrix(4.37114e-08 1 1 -4.37114e-08 1438.6 486.74)" fill="#F8F8F8"/>
<path d="M1422.85 312.301L1422.85 330.428C1422.85 331.67 1423.86 332.677 1425.1 332.677L1477.95 332.677C1479.19 332.677 1480.2 331.67 1480.2 330.428L1480.2 301.192C1480.2 299.949 1479.19 298.943 1477.95 298.943L1437.22 298.943C1436.66 298.943 1436.12 299.154 1435.7 299.534L1423.58 310.643C1423.12 311.069 1422.85 311.671 1422.85 312.301Z" fill="#EEEEEE"/>
<rect x="1436.37" y="331.554" width="22.4894" height="42.7299" rx="2.24894" transform="rotate(-90 1436.37 331.554)" fill="#DED7CF"/>
<rect x="1438.6" y="329.299" width="17.9915" height="40.481" rx="2.24894" transform="rotate(-90 1438.6 329.299)" fill="#F8F8F8"/>
<rect x="1456.64" y="449.641" width="5.62236" height="35.9831" rx="2.81118" transform="rotate(-90 1456.64 449.641)" fill="#F8F8F8"/>
<rect x="1456.64" y="420.412" width="5.62236" height="35.9831" rx="2.81118" transform="rotate(-90 1456.64 420.412)" fill="#F8F8F8"/>
<rect x="1456.64" y="391.164" width="5.62236" height="35.9831" rx="2.81118" transform="rotate(-90 1456.64 391.164)" fill="#F8F8F8"/>
<rect x="1456.64" y="361.936" width="5.62236" height="35.9831" rx="2.81118" transform="rotate(-90 1456.64 361.936)" fill="#F8F8F8"/>
<path d="M1411.66 364.154L1411.66 387.768L1415.6 387.768C1417.15 387.768 1418.41 389.026 1418.41 390.579C1418.41 392.132 1417.15 393.39 1415.6 393.39L1411.66 393.39L1411.66 417.004L1415.6 417.004C1417.15 417.004 1418.41 418.262 1418.41 419.815C1418.41 421.368 1417.15 422.626 1415.6 422.626L1411.66 422.626L1411.66 446.24L1415.6 446.24C1417.15 446.24 1418.41 447.499 1418.41 449.051C1418.41 450.604 1417.15 451.863 1415.6 451.863L1411.66 451.863L1411.66 485.597L1490.38 485.597L1490.38 465.356L1476.88 465.356L1476.88 350.66L1490.38 350.66L1490.38 330.42L1411.66 330.42L1411.66 358.531L1415.6 358.531C1417.15 358.531 1418.41 359.79 1418.41 361.343C1418.41 362.895 1417.15 364.154 1415.6 364.154L1411.66 364.154Z" fill="#EEEEEE"/>
<path d="M66.877 591.312C66.877 590.07 67.8838 589.063 69.1259 589.063H123.101C124.343 589.063 125.349 590.07 125.349 591.312V634.042C125.349 641.495 119.308 647.536 111.856 647.536H69.1259C67.8838 647.536 66.877 646.529 66.877 645.287V591.312Z" fill="#D9D9D9"/>
<circle cx="96.088" cy="618.294" r="24.7384" fill="#D9D9D9"/>
<circle cx="96.088" cy="618.294" r="24.7384" stroke="#FFE55A" stroke-width="2.24894"/>
<circle cx="96.088" cy="618.294" r="24.7384" stroke="#FFE55A" stroke-width="2.24894"/>
<circle cx="96.088" cy="618.294" r="24.7384" stroke="#FFE55A" stroke-width="2.24894"/>
<circle cx="6.74683" cy="6.74683" r="6.74683" transform="matrix(1 0 0 -1 89.3398 625.05)" fill="#F3FF8D" stroke="#BFA82B" stroke-width="4.49789"/>
<rect x="1474.65" y="609.298" width="35.9831" height="58.4725" fill="#404041"/>
<path d="M1484.26 615.719C1484.81 616.657 1485.65 617.596 1486.74 617.596V617.596C1487.82 617.596 1488.66 616.657 1489.21 615.719C1489.89 614.567 1491.17 613.79 1492.64 613.79C1494.11 613.79 1495.39 614.567 1496.06 615.719C1496.61 616.657 1497.46 617.596 1498.54 617.596V617.596C1499.63 617.596 1500.47 616.657 1501.02 615.719C1501.7 614.567 1502.98 613.79 1504.45 613.79C1506.62 613.79 1508.38 615.492 1508.38 617.596V659.461C1508.38 661.565 1506.62 663.267 1504.45 663.267C1502.98 663.267 1501.7 662.49 1501.02 661.338C1500.47 660.4 1499.63 659.461 1498.54 659.461V659.461C1497.46 659.461 1496.61 660.4 1496.06 661.338C1495.39 662.49 1494.11 663.267 1492.64 663.267C1491.17 663.267 1489.89 662.49 1489.21 661.338C1488.66 660.4 1487.82 659.461 1486.74 659.461V659.461C1485.65 659.461 1484.81 660.4 1484.26 661.338C1483.58 662.49 1482.3 663.267 1480.83 663.267C1478.66 663.267 1476.9 661.565 1476.9 659.461V617.596C1476.9 615.492 1478.66 613.79 1480.83 613.79C1482.3 613.79 1483.58 614.567 1484.26 615.719Z" fill="#E5E014"/>
<circle cx="1493.79" cy="639.657" r="5.62236" fill="#1E1A1A"/>
<rect x="571.691" y="482.21" width="65.2193" height="49.4767" rx="1.12447" fill="#655E58" stroke="#CAB166" stroke-width="2.24894"/>
</svg>
