<svg width="1580" height="1000" viewBox="0 0 1580 1000" fill="none" xmlns="http://www.w3.org/2000/svg">
<rect x="1475.16" y="771.357" width="1237.93" height="571.354" rx="41.0888" transform="rotate(-180 1475.16 771.357)" fill="#076E50"/>
<path d="M395.854 303.359C403.651 303.359 409.971 297.039 409.971 289.243C409.971 281.447 403.651 275.127 395.854 275.127C388.058 275.127 381.738 281.447 381.738 289.243C381.738 297.039 388.058 303.359 395.854 303.359Z" stroke="#F5B91B" stroke-width="0.579809"/>
<path d="M444.468 303.359C452.264 303.359 458.584 297.039 458.584 289.243C458.584 281.447 452.264 275.127 444.468 275.127C436.672 275.127 430.352 281.447 430.352 289.243C430.352 297.039 436.672 303.359 444.468 303.359Z" stroke="#F5B91B" stroke-width="0.579809"/>
<path d="M493.159 303.359C500.955 303.359 507.275 297.039 507.275 289.243C507.275 281.447 500.955 275.127 493.159 275.127C485.363 275.127 479.043 281.447 479.043 289.243C479.043 297.039 485.363 303.359 493.159 303.359Z" stroke="#F5B91B" stroke-width="0.579809"/>
<path d="M541.909 303.359C549.705 303.359 556.025 297.039 556.025 289.243C556.025 281.447 549.705 275.127 541.909 275.127C534.113 275.127 527.793 281.447 527.793 289.243C527.793 297.039 534.113 303.359 541.909 303.359Z" stroke="#F5B91B" stroke-width="0.579809"/>
<path d="M590.522 303.359C598.319 303.359 604.639 297.039 604.639 289.243C604.639 281.447 598.319 275.127 590.522 275.127C582.726 275.127 576.406 281.447 576.406 289.243C576.406 297.039 582.726 303.359 590.522 303.359Z" stroke="#F5B91B" stroke-width="0.579809"/>
<path d="M639.136 303.359C646.932 303.359 653.252 297.039 653.252 289.243C653.252 281.447 646.932 275.127 639.136 275.127C631.34 275.127 625.02 281.447 625.02 289.243C625.02 297.039 631.34 303.359 639.136 303.359Z" stroke="#F5B91B" stroke-width="0.579809"/>
<path d="M687.808 303.359C695.604 303.359 701.924 297.039 701.924 289.243C701.924 281.447 695.604 275.127 687.808 275.127C680.011 275.127 673.691 281.447 673.691 289.243C673.691 297.039 680.011 303.359 687.808 303.359Z" stroke="#F5B91B" stroke-width="0.579809"/>
<path d="M736.421 303.359C744.217 303.359 750.537 297.039 750.537 289.243C750.537 281.447 744.217 275.127 736.421 275.127C728.625 275.127 722.305 281.447 722.305 289.243C722.305 297.039 728.625 303.359 736.421 303.359Z" stroke="#F5B91B" stroke-width="0.579809"/>
<path d="M785.112 303.359C792.908 303.359 799.228 297.039 799.228 289.243C799.228 281.447 792.908 275.127 785.112 275.127C777.316 275.127 770.996 281.447 770.996 289.243C770.996 297.039 777.316 303.359 785.112 303.359Z" stroke="#F5B91B" stroke-width="0.579809"/>
<path d="M833.726 303.359C841.522 303.359 847.842 297.039 847.842 289.243C847.842 281.447 841.522 275.127 833.726 275.127C825.929 275.127 819.609 281.447 819.609 289.243C819.609 297.039 825.929 303.359 833.726 303.359Z" stroke="#F5B91B" stroke-width="0.579809"/>
<path d="M882.476 303.359C890.272 303.359 896.592 297.039 896.592 289.243C896.592 281.447 890.272 275.127 882.476 275.127C874.68 275.127 868.359 281.447 868.359 289.243C868.359 297.039 874.68 303.359 882.476 303.359Z" stroke="#F5B91B" stroke-width="0.579809"/>
<path d="M931.089 303.359C938.885 303.359 945.205 297.039 945.205 289.243C945.205 281.447 938.885 275.127 931.089 275.127C923.293 275.127 916.973 281.447 916.973 289.243C916.973 297.039 923.293 303.359 931.089 303.359Z" stroke="#F5B91B" stroke-width="0.579809"/>
<path d="M979.839 303.359C987.635 303.359 993.955 297.039 993.955 289.243C993.955 281.447 987.635 275.127 979.839 275.127C972.043 275.127 965.723 281.447 965.723 289.243C965.723 297.039 972.043 303.359 979.839 303.359Z" stroke="#F5B91B" stroke-width="0.579809"/>
<path d="M1028.59 303.359C1036.38 303.359 1042.7 297.039 1042.7 289.243C1042.7 281.447 1036.38 275.127 1028.59 275.127C1020.79 275.127 1014.47 281.447 1014.47 289.243C1014.47 297.039 1020.79 303.359 1028.59 303.359Z" stroke="#F5B91B" stroke-width="0.579809"/>
<path d="M1077.2 303.359C1085 303.359 1091.32 297.039 1091.32 289.243C1091.32 281.447 1085 275.127 1077.2 275.127C1069.41 275.127 1063.09 281.447 1063.09 289.243C1063.09 297.039 1069.41 303.359 1077.2 303.359Z" stroke="#F5B91B" stroke-width="0.579809"/>
<path d="M1125.68 303.359C1133.47 303.359 1139.79 297.039 1139.79 289.243C1139.79 281.447 1133.47 275.127 1125.68 275.127C1117.88 275.127 1111.56 281.447 1111.56 289.243C1111.56 297.039 1117.88 303.359 1125.68 303.359Z" stroke="#F5B91B" stroke-width="0.579809"/>
<path d="M1174.57 303.359C1182.36 303.359 1188.68 297.039 1188.68 289.243C1188.68 281.447 1182.36 275.127 1174.57 275.127C1166.77 275.127 1160.45 281.447 1160.45 289.243C1160.45 297.039 1166.77 303.359 1174.57 303.359Z" stroke="#F5B91B" stroke-width="0.579809"/>
<path d="M1223.12 303.359C1230.92 303.359 1237.24 297.039 1237.24 289.243C1237.24 281.447 1230.92 275.127 1223.12 275.127C1215.32 275.127 1209 281.447 1209 289.243C1209 297.039 1215.32 303.359 1223.12 303.359Z" stroke="#F5B91B" stroke-width="0.579809"/>
<path d="M1271.79 303.359C1279.59 303.359 1285.91 297.039 1285.91 289.243C1285.91 281.447 1279.59 275.127 1271.79 275.127C1264 275.127 1257.68 281.447 1257.68 289.243C1257.68 297.039 1264 303.359 1271.79 303.359Z" stroke="#F5B91B" stroke-width="0.579809"/>
<path d="M1320.54 303.359C1328.34 303.359 1334.66 297.039 1334.66 289.243C1334.66 281.447 1328.34 275.127 1320.54 275.127C1312.75 275.127 1306.43 281.447 1306.43 289.243C1306.43 297.039 1312.75 303.359 1320.54 303.359Z" stroke="#F5B91B" stroke-width="0.579809"/>
<path d="M1320.54 254.707C1328.34 254.707 1334.66 248.387 1334.66 240.591C1334.66 232.795 1328.34 226.475 1320.54 226.475C1312.75 226.475 1306.43 232.795 1306.43 240.591C1306.43 248.387 1312.75 254.707 1320.54 254.707Z" stroke="#F5B91B" stroke-width="0.579809"/>
<path d="M1271.79 254.707C1279.59 254.707 1285.91 248.387 1285.91 240.591C1285.91 232.795 1279.59 226.475 1271.79 226.475C1264 226.475 1257.68 232.795 1257.68 240.591C1257.68 248.387 1264 254.707 1271.79 254.707Z" stroke="#F5B91B" stroke-width="0.579809"/>
<path d="M1223.12 254.707C1230.92 254.707 1237.24 248.387 1237.24 240.591C1237.24 232.795 1230.92 226.475 1223.12 226.475C1215.32 226.475 1209 232.795 1209 240.591C1209 248.387 1215.32 254.707 1223.12 254.707Z" stroke="#F5B91B" stroke-width="0.579809"/>
<path d="M1174.57 254.707C1182.36 254.707 1188.68 248.387 1188.68 240.591C1188.68 232.795 1182.36 226.475 1174.57 226.475C1166.77 226.475 1160.45 232.795 1160.45 240.591C1160.45 248.387 1166.77 254.707 1174.57 254.707Z" stroke="#F5B91B" stroke-width="0.579809"/>
<path d="M1125.68 254.707C1133.47 254.707 1139.79 248.387 1139.79 240.591C1139.79 232.795 1133.47 226.475 1125.68 226.475C1117.88 226.475 1111.56 232.795 1111.56 240.591C1111.56 248.387 1117.88 254.707 1125.68 254.707Z" stroke="#F5B91B" stroke-width="0.579809"/>
<path d="M1077.2 254.707C1085 254.707 1091.32 248.387 1091.32 240.591C1091.32 232.795 1085 226.475 1077.2 226.475C1069.41 226.475 1063.09 232.795 1063.09 240.591C1063.09 248.387 1069.41 254.707 1077.2 254.707Z" stroke="#F5B91B" stroke-width="0.579809"/>
<path d="M1028.59 254.707C1036.38 254.707 1042.7 248.387 1042.7 240.591C1042.7 232.795 1036.38 226.475 1028.59 226.475C1020.79 226.475 1014.47 232.795 1014.47 240.591C1014.47 248.387 1020.79 254.707 1028.59 254.707Z" stroke="#F5B91B" stroke-width="0.579809"/>
<path d="M979.839 254.707C987.635 254.707 993.955 248.387 993.955 240.591C993.955 232.795 987.635 226.475 979.839 226.475C972.043 226.475 965.723 232.795 965.723 240.591C965.723 248.387 972.043 254.707 979.839 254.707Z" stroke="#F5B91B" stroke-width="0.579809"/>
<path d="M931.089 254.707C938.885 254.707 945.205 248.387 945.205 240.591C945.205 232.795 938.885 226.475 931.089 226.475C923.293 226.475 916.973 232.795 916.973 240.591C916.973 248.387 923.293 254.707 931.089 254.707Z" stroke="#F5B91B" stroke-width="0.579809"/>
<path d="M882.476 254.707C890.272 254.707 896.592 248.387 896.592 240.591C896.592 232.795 890.272 226.475 882.476 226.475C874.68 226.475 868.359 232.795 868.359 240.591C868.359 248.387 874.68 254.707 882.476 254.707Z" stroke="#F5B91B" stroke-width="0.579809"/>
<path d="M833.726 254.707C841.522 254.707 847.842 248.387 847.842 240.591C847.842 232.795 841.522 226.475 833.726 226.475C825.929 226.475 819.609 232.795 819.609 240.591C819.609 248.387 825.929 254.707 833.726 254.707Z" stroke="#F5B91B" stroke-width="0.579809"/>
<path d="M785.112 254.707C792.908 254.707 799.228 248.387 799.228 240.591C799.228 232.795 792.908 226.475 785.112 226.475C777.316 226.475 770.996 232.795 770.996 240.591C770.996 248.387 777.316 254.707 785.112 254.707Z" stroke="#F5B91B" stroke-width="0.579809"/>
<path d="M736.421 254.707C744.217 254.707 750.537 248.387 750.537 240.591C750.537 232.795 744.217 226.475 736.421 226.475C728.625 226.475 722.305 232.795 722.305 240.591C722.305 248.387 728.625 254.707 736.421 254.707Z" stroke="#F5B91B" stroke-width="0.579809"/>
<path d="M687.808 254.707C695.604 254.707 701.924 248.387 701.924 240.591C701.924 232.795 695.604 226.475 687.808 226.475C680.011 226.475 673.691 232.795 673.691 240.591C673.691 248.387 680.011 254.707 687.808 254.707Z" stroke="#F5B91B" stroke-width="0.579809"/>
<path d="M639.136 254.707C646.932 254.707 653.252 248.387 653.252 240.591C653.252 232.795 646.932 226.475 639.136 226.475C631.34 226.475 625.02 232.795 625.02 240.591C625.02 248.387 631.34 254.707 639.136 254.707Z" stroke="#F5B91B" stroke-width="0.579809"/>
<path d="M590.522 254.707C598.319 254.707 604.639 248.387 604.639 240.591C604.639 232.795 598.319 226.475 590.522 226.475C582.726 226.475 576.406 232.795 576.406 240.591C576.406 248.387 582.726 254.707 590.522 254.707Z" stroke="#F5B91B" stroke-width="0.579809"/>
<path d="M541.909 254.707C549.705 254.707 556.025 248.387 556.025 240.591C556.025 232.795 549.705 226.475 541.909 226.475C534.113 226.475 527.793 232.795 527.793 240.591C527.793 248.387 534.113 254.707 541.909 254.707Z" stroke="#F5B91B" stroke-width="0.579809"/>
<path d="M493.159 254.707C500.955 254.707 507.275 248.387 507.275 240.591C507.275 232.795 500.955 226.475 493.159 226.475C485.363 226.475 479.043 232.795 479.043 240.591C479.043 248.387 485.363 254.707 493.159 254.707Z" stroke="#F5B91B" stroke-width="0.579809"/>
<path d="M444.468 254.707C452.264 254.707 458.584 248.387 458.584 240.591C458.584 232.795 452.264 226.475 444.468 226.475C436.672 226.475 430.352 232.795 430.352 240.591C430.352 248.387 436.672 254.707 444.468 254.707Z" stroke="#F5B91B" stroke-width="0.579809"/>
<path d="M395.854 254.707C403.651 254.707 409.971 248.387 409.971 240.591C409.971 232.795 403.651 226.475 395.854 226.475C388.058 226.475 381.738 232.795 381.738 240.591C381.738 248.387 388.058 254.707 395.854 254.707Z" stroke="#F5B91B" stroke-width="0.579809"/>
<path d="M420.933 264.153V228.243L410.37 218.037H382.853L372.266 228.243V264.153" fill="#BE3836"/>
<path d="M420.933 264.18V300.09L410.37 310.296H382.853L372.266 300.09V264.18" fill="#EFEA3C"/>
<path d="M469.546 264.153V228.243L458.983 218.037H431.466L420.879 228.243V264.153" fill="#BE3836"/>
<path d="M469.546 264.18V300.09L458.983 310.296H431.466L420.879 300.09V264.18" fill="#69BE87"/>
<path d="M518.238 264.153V228.243L507.675 218.037H480.157L469.57 228.243V264.153" fill="#404041"/>
<path d="M518.238 264.18V300.09L507.675 310.296H480.157L469.57 300.09V264.18" fill="#69BE87"/>
<path d="M566.988 264.153V228.243L556.425 218.037H528.907L518.32 228.243V264.153" fill="#69BE87"/>
<path d="M566.988 264.18V300.09L556.425 310.296H528.907L518.32 300.09V264.18" fill="#69BE87"/>
<path d="M615.601 264.153V228.243L605.038 218.037H577.521L566.934 228.243V264.153" fill="#69BE87"/>
<path d="M615.601 264.18V300.09L605.038 310.296H577.521L566.934 300.09V264.18" fill="#404041"/>
<path d="M664.214 264.153V228.243L653.651 218.037H626.134L615.547 228.243V264.153" fill="#69BE87"/>
<path d="M664.214 264.18V300.09L653.651 310.296H626.134L615.547 300.09V264.18" fill="#69BE87"/>
<path d="M712.886 264.153V228.243L702.323 218.037H674.806L664.219 228.243V264.153" fill="#404041"/>
<path d="M712.886 264.18V300.09L702.323 310.296H674.806L664.219 300.09V264.18" fill="#69BE87"/>
<path d="M761.5 264.153V228.243L750.936 218.037H723.419L712.832 228.243V264.153" fill="#69BE87"/>
<path d="M761.5 264.18V300.09L750.936 310.296H723.419L712.832 300.09V264.18" fill="#69BE87"/>
<path d="M810.191 264.153V228.243L799.628 218.037H772.111L761.523 228.243V264.153" fill="#69BE87"/>
<path d="M810.191 264.18V300.09L799.628 310.296H772.111L761.523 300.09V264.18" fill="#EFEA3C"/>
<path d="M858.804 264.153V228.243L848.241 218.037H820.724L810.137 228.243V264.153" fill="#404041"/>
<path d="M858.804 264.18V300.09L848.241 310.296H820.724L810.137 300.09V264.18" fill="#69BE87"/>
<path d="M907.554 264.153V228.243L896.991 218.037H869.474L858.887 228.243V264.153" fill="#69BE87"/>
<path d="M907.554 264.18V300.09L896.991 310.296H869.474L858.887 300.09V264.18" fill="#69BE87"/>
<path d="M956.167 264.153V228.243L945.604 218.037H918.087L907.5 228.243V264.153" fill="#69BE87"/>
<path d="M956.167 264.18V300.09L945.604 310.296H918.087L907.5 300.09V264.18" fill="#69BE87"/>
<path d="M1004.86 264.153V228.243L994.296 218.037H966.779L956.191 228.243V264.153" fill="#69BE87"/>
<path d="M1004.86 264.18V300.09L994.296 310.296H966.779L956.191 300.09V264.18" fill="#404041"/>
<path d="M1053.47 264.153V228.243L1042.91 218.037H1015.39L1004.8 228.243V264.153" fill="#4DC0E6"/>
<path d="M1053.47 264.18V300.09L1042.91 310.296H1015.39L1004.8 300.09V264.18" fill="#4DC0E6"/>
<path d="M1102.14 264.18V300.09L1091.58 310.296H1064.06L1053.48 300.09V264.18" fill="#69BE87"/>
<path d="M1150.76 264.153V228.243L1140.19 218.037H1112.68L1102.09 228.243V264.153" fill="#69BE87"/>
<path d="M1150.76 264.18V300.09L1140.19 310.296H1112.68L1102.09 300.09V264.18" fill="#69BE87"/>
<path d="M1199.51 264.153V228.243L1188.94 218.037H1161.43L1150.84 228.243V264.153" fill="#404041"/>
<path d="M1199.51 264.18V300.09L1188.94 310.296H1161.43L1150.84 300.09V264.18" fill="#69BE87"/>
<path d="M1248.14 264.153V228.243L1237.58 218.037H1210.06L1199.47 228.243V264.153" fill="#69BE87"/>
<path d="M1248.14 264.18V300.09L1237.58 310.296H1210.06L1199.47 300.09V264.18" fill="#69BE87"/>
<path d="M1296.81 264.153V228.243L1286.25 218.037H1258.73L1248.14 228.243V264.153" fill="#69BE87"/>
<path d="M1296.81 264.18V300.09L1286.25 310.296H1258.73L1248.14 300.09V264.18" fill="#69BE87"/>
<path d="M1345.43 264.153V228.243L1334.86 218.037H1307.34L1296.76 228.243V264.153" fill="#69BE87"/>
<path d="M1345.43 264.18V300.09L1334.86 310.296H1307.34L1296.76 300.09V264.18" fill="#404041"/>
<path d="M400.078 236.182H392.09V244.17H400.078V236.182Z" fill="#8B8562"/>
<path d="M392.053 236.223L388.262 232.432V247.955L392.053 244.187V236.223Z" fill="#B6AD81"/>
<path d="M388.262 232.432H403.809L400.041 236.223H392.053L388.262 232.432Z" fill="#7F785B"/>
<path d="M403.826 232.432V247.955L400.059 244.187V236.223L403.826 232.432Z" fill="#5E5B43"/>
<path d="M403.809 247.918H388.262L392.053 244.15H400.041L403.809 247.918Z" fill="#988F6B"/>
<path d="M400.078 284.795H392.09V292.783H400.078V284.795Z" fill="#8B8562"/>
<path d="M392.053 284.812L388.262 281.045V296.568L392.053 292.777V284.812Z" fill="#B6AD81"/>
<path d="M388.262 281.045H403.809L400.041 284.812H392.053L388.262 281.045Z" fill="#7F785B"/>
<path d="M403.826 281.045V296.568L400.059 292.777V284.812L403.826 281.045Z" fill="#5E5B43"/>
<path d="M392.053 292.764H400.041L403.809 296.555H388.262L392.053 292.764Z" fill="#988F6B"/>
<path d="M448.691 236.172H440.703V244.16H448.691V236.172Z" fill="#8B8562"/>
<path d="M437.012 232.422V247.945L440.779 244.177V236.213L437.012 232.422Z" fill="#B6AD81"/>
<path d="M452.535 232.422L448.767 236.213H440.779L437.012 232.422H452.535Z" fill="#7F785B"/>
<path d="M452.557 247.945L448.789 244.177V236.213L452.557 232.422V247.945Z" fill="#5E5B43"/>
<path d="M437.012 247.976L440.779 244.209H448.767L452.535 247.976H437.012Z" fill="#988F6B"/>
<path d="M448.691 284.785H440.703V292.773H448.691V284.785Z" fill="#8B8562"/>
<path d="M437.012 281.035V296.558L440.779 292.767V284.803L437.012 281.035Z" fill="#B6AD81"/>
<path d="M452.535 281.035L448.767 284.803H440.779L437.012 281.035H452.535Z" fill="#7F785B"/>
<path d="M452.557 296.558L448.789 292.767V284.803L452.557 281.035V296.558Z" fill="#5E5B43"/>
<path d="M448.767 292.754L452.535 296.545H437.012L440.779 292.754H448.767Z" fill="#988F6B"/>
<path d="M497.5 236.172H489.512V244.16H497.5V236.172Z" fill="#8B8562"/>
<path d="M489.588 236.213L485.82 232.422V247.945L489.588 244.177V236.213Z" fill="#B6AD81"/>
<path d="M485.82 232.422H501.343L497.576 236.213H489.588L485.82 232.422Z" fill="#7F785B"/>
<path d="M501.365 232.422V247.945L497.598 244.177V236.213L501.365 232.422Z" fill="#5E5B43"/>
<path d="M501.343 247.976H485.82L489.588 244.209H497.576L501.343 247.976Z" fill="#988F6B"/>
<path d="M497.5 284.785H489.512V292.773H497.5V284.785Z" fill="#8B8562"/>
<path d="M489.588 284.803L485.82 281.035V296.558L489.588 292.767V284.803Z" fill="#B6AD81"/>
<path d="M485.82 281.035H501.343L497.576 284.803H489.588L485.82 281.035Z" fill="#7F785B"/>
<path d="M501.365 281.035V296.558L497.598 292.767V284.803L501.365 281.035Z" fill="#5E5B43"/>
<path d="M489.588 292.754H497.576L501.343 296.545H485.82L489.588 292.754Z" fill="#988F6B"/>
<path d="M546.015 236.172H538.027V244.16H546.015V236.172Z" fill="#8B8562"/>
<path d="M534.336 232.422V247.945L538.103 244.177V236.213L534.336 232.422Z" fill="#B6AD81"/>
<path d="M549.859 232.422L546.092 236.213H538.103L534.336 232.422H549.859Z" fill="#7F785B"/>
<path d="M549.881 247.945L546.113 244.177V236.213L549.881 232.422V247.945Z" fill="#5E5B43"/>
<path d="M534.336 247.976L538.103 244.209H546.092L549.859 247.976H534.336Z" fill="#988F6B"/>
<path d="M546.015 284.785H538.027V292.773H546.015V284.785Z" fill="#8B8562"/>
<path d="M534.336 281.035V296.558L538.103 292.767V284.803L534.336 281.035Z" fill="#B6AD81"/>
<path d="M549.859 281.035L546.092 284.803H538.103L534.336 281.035H549.859Z" fill="#7F785B"/>
<path d="M549.881 296.558L546.113 292.767V284.803L549.881 281.035V296.558Z" fill="#5E5B43"/>
<path d="M546.092 292.754L549.859 296.545H534.336L538.103 292.754H546.092Z" fill="#988F6B"/>
<path d="M594.512 236.172H586.523V244.16H594.512V236.172Z" fill="#8B8562"/>
<path d="M586.6 236.213L582.832 232.422V247.945L586.6 244.177V236.213Z" fill="#B6AD81"/>
<path d="M582.832 232.422H598.355L594.588 236.213H586.6L582.832 232.422Z" fill="#7F785B"/>
<path d="M598.377 232.422V247.945L594.609 244.177V236.213L598.377 232.422Z" fill="#5E5B43"/>
<path d="M598.355 247.976H582.832L586.6 244.209H594.588L598.355 247.976Z" fill="#988F6B"/>
<path d="M594.512 284.785H586.523V292.773H594.512V284.785Z" fill="#8B8562"/>
<path d="M586.6 284.803L582.832 281.035V296.558L586.6 292.767V284.803Z" fill="#B6AD81"/>
<path d="M582.832 281.035H598.355L594.588 284.803H586.6L582.832 281.035Z" fill="#7F785B"/>
<path d="M598.377 281.035V296.558L594.609 292.767V284.803L598.377 281.035Z" fill="#5E5B43"/>
<path d="M586.6 292.754H594.588L598.355 296.545H582.832L586.6 292.754Z" fill="#988F6B"/>
<path d="M643.437 236.172H635.449V244.16H643.437V236.172Z" fill="#8B8562"/>
<path d="M635.432 236.213L631.641 232.422V247.945L635.432 244.177V236.213Z" fill="#B6AD81"/>
<path d="M631.641 232.422H647.188L643.42 236.213H635.432L631.641 232.422Z" fill="#7F785B"/>
<path d="M647.186 232.422V247.945L643.418 244.177V236.213L647.186 232.422Z" fill="#5E5B43"/>
<path d="M647.188 247.976H631.641L635.432 244.209H643.42L647.188 247.976Z" fill="#988F6B"/>
<path d="M643.437 284.785H635.449V292.773H643.437V284.785Z" fill="#8B8562"/>
<path d="M635.432 284.803L631.641 281.035V296.558L635.432 292.767V284.803Z" fill="#B6AD81"/>
<path d="M631.641 281.035H647.188L643.42 284.803H635.432L631.641 281.035Z" fill="#7F785B"/>
<path d="M647.186 281.035V296.558L643.418 292.767V284.803L647.186 281.035Z" fill="#5E5B43"/>
<path d="M635.432 292.754H643.42L647.188 296.545H631.641L635.432 292.754Z" fill="#988F6B"/>
<path d="M692.07 236.172H684.082V244.16H692.07V236.172Z" fill="#8B8562"/>
<path d="M684.158 236.213L680.391 232.422V247.945L684.158 244.177V236.213Z" fill="#B6AD81"/>
<path d="M680.391 232.422H695.914L692.146 236.213H684.158L680.391 232.422Z" fill="#7F785B"/>
<path d="M695.935 232.422V247.945L692.168 244.177V236.213L695.935 232.422Z" fill="#5E5B43"/>
<path d="M695.914 247.976H680.391L684.158 244.209H692.146L695.914 247.976Z" fill="#988F6B"/>
<path d="M692.07 284.785H684.082V292.773H692.07V284.785Z" fill="#8B8562"/>
<path d="M684.158 284.803L680.391 281.035V296.558L684.158 292.767V284.803Z" fill="#B6AD81"/>
<path d="M680.391 281.035H695.914L692.146 284.803H684.158L680.391 281.035Z" fill="#7F785B"/>
<path d="M695.935 281.035V296.558L692.168 292.767V284.803L695.935 281.035Z" fill="#5E5B43"/>
<path d="M684.158 292.754H692.146L695.914 296.545H680.391L684.158 292.754Z" fill="#988F6B"/>
<path d="M740.644 236.172H732.656V244.16H740.644V236.172Z" fill="#8B8562"/>
<path d="M732.732 236.213L728.965 232.422V247.945L732.732 244.177V236.213Z" fill="#B6AD81"/>
<path d="M728.965 232.422H744.488L740.72 236.213H732.732L728.965 232.422Z" fill="#7F785B"/>
<path d="M744.51 232.422V247.945L740.742 244.177V236.213L744.51 232.422Z" fill="#5E5B43"/>
<path d="M744.488 247.976H728.965L732.732 244.209H740.72L744.488 247.976Z" fill="#988F6B"/>
<path d="M740.644 284.785H732.656V292.773H740.644V284.785Z" fill="#8B8562"/>
<path d="M732.732 284.803L728.965 281.035V296.558L732.732 292.767V284.803Z" fill="#B6AD81"/>
<path d="M728.965 281.035H744.488L740.72 284.803H732.732L728.965 281.035Z" fill="#7F785B"/>
<path d="M744.51 281.035V296.558L740.742 292.767V284.803L744.51 281.035Z" fill="#5E5B43"/>
<path d="M732.732 292.754H740.72L744.488 296.545H728.965L732.732 292.754Z" fill="#988F6B"/>
<path d="M789.101 236.172H781.113V244.16H789.101V236.172Z" fill="#8B8562"/>
<path d="M781.189 236.213L777.422 232.422V247.945L781.189 244.177V236.213Z" fill="#B6AD81"/>
<path d="M777.422 232.422H792.945L789.178 236.213H781.189L777.422 232.422Z" fill="#7F785B"/>
<path d="M792.967 232.422V247.945L789.199 244.177V236.213L792.967 232.422Z" fill="#5E5B43"/>
<path d="M792.945 247.976H777.422L781.189 244.209H789.178L792.945 247.976Z" fill="#988F6B"/>
<path d="M789.101 284.785H781.113V292.773H789.101V284.785Z" fill="#8B8562"/>
<path d="M781.189 284.803L777.422 281.035V296.558L781.189 292.767V284.803Z" fill="#B6AD81"/>
<path d="M777.422 281.035H792.945L789.178 284.803H781.189L777.422 281.035Z" fill="#7F785B"/>
<path d="M792.967 281.035V296.558L789.199 292.767V284.803L792.967 281.035Z" fill="#5E5B43"/>
<path d="M781.189 292.754H789.178L792.945 296.545H777.422L781.189 292.754Z" fill="#988F6B"/>
<path d="M838.086 236.172H830.098V244.16H838.086V236.172Z" fill="#8B8562"/>
<path d="M830.174 236.213L826.406 232.422V247.945L830.174 244.177V236.213Z" fill="#B6AD81"/>
<path d="M826.406 232.422H841.929L838.162 236.213H830.174L826.406 232.422Z" fill="#7F785B"/>
<path d="M841.951 232.422V247.945L838.184 244.177V236.213L841.951 232.422Z" fill="#5E5B43"/>
<path d="M841.929 247.976H826.406L830.174 244.209H838.162L841.929 247.976Z" fill="#988F6B"/>
<path d="M838.086 284.785H830.098V292.773H838.086V284.785Z" fill="#8B8562"/>
<path d="M830.174 284.803L826.406 281.035V296.558L830.174 292.767V284.803Z" fill="#B6AD81"/>
<path d="M826.406 281.035H841.929L838.162 284.803H830.174L826.406 281.035Z" fill="#7F785B"/>
<path d="M841.951 281.035V296.558L838.184 292.767V284.803L841.951 281.035Z" fill="#5E5B43"/>
<path d="M830.174 292.754H838.162L841.929 296.545H826.406L830.174 292.754Z" fill="#988F6B"/>
<path d="M886.718 236.172H878.73V244.16H886.718V236.172Z" fill="#8B8562"/>
<path d="M874.922 247.945L878.713 244.177V236.213L874.922 232.422V247.945Z" fill="#B6AD81"/>
<path d="M886.701 236.213H878.713L874.922 232.422H890.469L886.701 236.213Z" fill="#7F785B"/>
<path d="M886.699 244.177V236.213L890.467 232.422V247.945L886.699 244.177Z" fill="#5E5B43"/>
<path d="M878.713 244.209H886.701L890.469 247.976H874.922L878.713 244.209Z" fill="#988F6B"/>
<path d="M886.718 284.785H878.73V292.773H886.718V284.785Z" fill="#8B8562"/>
<path d="M874.922 296.558L878.713 292.767V284.803L874.922 281.035V296.558Z" fill="#B6AD81"/>
<path d="M886.701 284.803H878.713L874.922 281.035H890.469L886.701 284.803Z" fill="#7F785B"/>
<path d="M886.699 292.767V284.803L890.467 281.035V296.558L886.699 292.767Z" fill="#5E5B43"/>
<path d="M890.469 296.545H874.922L878.713 292.754H886.701L890.469 296.545Z" fill="#988F6B"/>
<path d="M935.234 236.172H927.246V244.16H935.234V236.172Z" fill="#8B8562"/>
<path d="M927.322 236.213L923.555 232.422V247.945L927.322 244.177V236.213Z" fill="#B6AD81"/>
<path d="M923.555 232.422H939.078L935.31 236.213H927.322L923.555 232.422Z" fill="#7F785B"/>
<path d="M939.1 232.422V247.945L935.332 244.177V236.213L939.1 232.422Z" fill="#5E5B43"/>
<path d="M939.078 247.976H923.555L927.322 244.209H935.31L939.078 247.976Z" fill="#988F6B"/>
<path d="M935.234 284.785H927.246V292.773H935.234V284.785Z" fill="#8B8562"/>
<path d="M927.322 284.803L923.555 281.035V296.558L927.322 292.767V284.803Z" fill="#B6AD81"/>
<path d="M923.555 281.035H939.078L935.31 284.803H927.322L923.555 281.035Z" fill="#7F785B"/>
<path d="M939.1 281.035V296.558L935.332 292.767V284.803L939.1 281.035Z" fill="#5E5B43"/>
<path d="M927.322 292.754H935.31L939.078 296.545H923.555L927.322 292.754Z" fill="#988F6B"/>
<path d="M984.043 236.172H976.055V244.16H984.043V236.172Z" fill="#8B8562"/>
<path d="M976.131 236.213L972.363 232.422V247.945L976.131 244.177V236.213Z" fill="#B6AD81"/>
<path d="M972.363 232.422H987.886L984.119 236.213H976.131L972.363 232.422Z" fill="#7F785B"/>
<path d="M987.908 232.422V247.945L984.141 244.177V236.213L987.908 232.422Z" fill="#5E5B43"/>
<path d="M987.886 247.976H972.363L976.131 244.209H984.119L987.886 247.976Z" fill="#988F6B"/>
<path d="M984.043 284.785H976.055V292.773H984.043V284.785Z" fill="#8B8562"/>
<path d="M976.131 284.803L972.363 281.035V296.558L976.131 292.767V284.803Z" fill="#B6AD81"/>
<path d="M972.363 281.035H987.886L984.119 284.803H976.131L972.363 281.035Z" fill="#7F785B"/>
<path d="M987.908 281.035V296.558L984.141 292.767V284.803L987.908 281.035Z" fill="#5E5B43"/>
<path d="M976.131 292.754H984.119L987.886 296.545H972.363L976.131 292.754Z" fill="#988F6B"/>
<path d="M1032.68 236.172H1024.69V244.16H1032.68V236.172Z" fill="#8B8562"/>
<path d="M1024.76 236.213L1021 232.422V247.945L1024.76 244.177V236.213Z" fill="#B6AD81"/>
<path d="M1021 232.422H1036.52L1032.75 236.213H1024.76L1021 232.422Z" fill="#7F785B"/>
<path d="M1036.54 232.422V247.945L1032.77 244.177V236.213L1036.54 232.422Z" fill="#5E5B43"/>
<path d="M1036.52 247.976H1021L1024.76 244.209H1032.75L1036.52 247.976Z" fill="#988F6B"/>
<path d="M1032.68 284.785H1024.69V292.773H1032.68V284.785Z" fill="#8B8562"/>
<path d="M1024.76 284.803L1021 281.035V296.558L1024.76 292.767V284.803Z" fill="#B6AD81"/>
<path d="M1021 281.035H1036.52L1032.75 284.803H1024.76L1021 281.035Z" fill="#7F785B"/>
<path d="M1036.54 281.035V296.558L1032.77 292.767V284.803L1036.54 281.035Z" fill="#5E5B43"/>
<path d="M1024.76 292.754H1032.75L1036.52 296.545H1021L1024.76 292.754Z" fill="#988F6B"/>
<path d="M1102.1 264.153V228.243L1091.54 218.037H1064.02L1053.44 228.243V264.153" fill="#404041"/>
<path d="M1081.31 236.182H1073.32V244.17H1081.31V236.182Z" fill="#8B8562"/>
<path d="M1069.43 232.432V247.955L1073.2 244.187V236.223L1069.43 232.432Z" fill="#B6AD81"/>
<path d="M1084.96 232.432L1081.19 236.223H1073.2L1069.43 232.432H1084.96Z" fill="#7F785B"/>
<path d="M1085.19 247.955L1081.43 244.187V236.223L1085.19 232.432V247.955Z" fill="#5E5B43"/>
<path d="M1069.43 247.918L1073.2 244.15H1081.19L1084.96 247.918H1069.43Z" fill="#988F6B"/>
<path d="M1081.46 284.795H1073.48V292.783H1081.46V284.795Z" fill="#8B8562"/>
<path d="M1073.49 284.754L1069.73 280.986V296.509L1073.49 292.718V284.754Z" fill="#B6AD81"/>
<path d="M1069.73 280.986H1085.25L1081.48 284.754H1073.49L1069.73 280.986Z" fill="#7F785B"/>
<path d="M1085.21 280.986V296.509L1081.45 292.718V284.754L1085.21 280.986Z" fill="#5E5B43"/>
<path d="M1073.49 292.764H1081.48L1085.25 296.555H1069.73L1073.49 292.764Z" fill="#988F6B"/>
<path d="M1130.04 236.172H1122.05V244.16H1130.04V236.172Z" fill="#8B8562"/>
<path d="M1122.03 236.213L1118.24 232.422V247.945L1122.03 244.177V236.213Z" fill="#B6AD81"/>
<path d="M1118.24 232.422H1133.79L1130.02 236.213H1122.03L1118.24 232.422Z" fill="#7F785B"/>
<path d="M1133.79 232.422V247.945L1130.02 244.177V236.213L1133.79 232.422Z" fill="#5E5B43"/>
<path d="M1133.79 247.976H1118.24L1122.03 244.209H1130.02L1133.79 247.976Z" fill="#988F6B"/>
<path d="M1130.04 284.785H1122.05V292.773H1130.04V284.785Z" fill="#8B8562"/>
<path d="M1122.03 284.803L1118.24 281.035V296.558L1122.03 292.767V284.803Z" fill="#B6AD81"/>
<path d="M1118.24 281.035H1133.79L1130.02 284.803H1122.03L1118.24 281.035Z" fill="#7F785B"/>
<path d="M1133.79 281.035V296.558L1130.02 292.767V284.803L1133.79 281.035Z" fill="#5E5B43"/>
<path d="M1122.03 292.754H1130.02L1133.79 296.545H1118.24L1122.03 292.754Z" fill="#988F6B"/>
<path d="M1178.67 236.172H1170.68V244.16H1178.67V236.172Z" fill="#8B8562"/>
<path d="M1170.74 236.213L1166.99 232.422V247.945L1170.74 244.177V236.213Z" fill="#B6AD81"/>
<path d="M1166.99 232.422H1182.52L1178.75 236.213H1170.74L1166.99 232.422Z" fill="#7F785B"/>
<path d="M1182.54 232.422V247.945L1178.77 244.177V236.213L1182.54 232.422Z" fill="#5E5B43"/>
<path d="M1182.52 247.976H1166.99L1170.74 244.209H1178.75L1182.52 247.976Z" fill="#988F6B"/>
<path d="M1178.67 284.785H1170.68V292.773H1178.67V284.785Z" fill="#8B8562"/>
<path d="M1170.74 284.803L1166.99 281.035V296.558L1170.74 292.767V284.803Z" fill="#B6AD81"/>
<path d="M1166.99 281.035H1182.52L1178.75 284.803H1170.74L1166.99 281.035Z" fill="#7F785B"/>
<path d="M1182.54 281.035V296.558L1178.77 292.767V284.803L1182.54 281.035Z" fill="#5E5B43"/>
<path d="M1170.74 292.754H1178.75L1182.52 296.545H1166.99L1170.74 292.754Z" fill="#988F6B"/>
<path d="M1227.42 236.172H1219.43V244.16H1227.42V236.172Z" fill="#8B8562"/>
<path d="M1219.42 236.213L1215.62 232.422V247.945L1219.42 244.177V236.213Z" fill="#B6AD81"/>
<path d="M1215.62 232.422H1231.15L1227.4 236.213H1219.42L1215.62 232.422Z" fill="#7F785B"/>
<path d="M1231.15 232.422V247.945L1227.4 244.177V236.213L1231.15 232.422Z" fill="#5E5B43"/>
<path d="M1231.15 247.976H1215.62L1219.42 244.209H1227.4L1231.15 247.976Z" fill="#988F6B"/>
<path d="M1227.42 284.785H1219.43V292.773H1227.42V284.785Z" fill="#8B8562"/>
<path d="M1219.42 284.803L1215.62 281.035V296.558L1219.42 292.767V284.803Z" fill="#B6AD81"/>
<path d="M1215.62 281.035H1231.15L1227.4 284.803H1219.42L1215.62 281.035Z" fill="#7F785B"/>
<path d="M1231.15 281.035V296.558L1227.4 292.767V284.803L1231.15 281.035Z" fill="#5E5B43"/>
<path d="M1219.42 292.754H1227.4L1231.15 296.545H1215.62L1219.42 292.754Z" fill="#988F6B"/>
<path d="M1276.05 236.172H1268.07V244.16H1276.05V236.172Z" fill="#8B8562"/>
<path d="M1268.12 236.213L1264.38 232.422V247.945L1268.12 244.177V236.213Z" fill="#B6AD81"/>
<path d="M1264.38 232.422H1279.9L1276.13 236.213H1268.12L1264.38 232.422Z" fill="#7F785B"/>
<path d="M1279.92 232.422V247.945L1276.15 244.177V236.213L1279.92 232.422Z" fill="#5E5B43"/>
<path d="M1279.9 247.976H1264.38L1268.12 244.209H1276.13L1279.9 247.976Z" fill="#988F6B"/>
<path d="M1276.05 284.785H1268.07V292.773H1276.05V284.785Z" fill="#8B8562"/>
<path d="M1268.12 284.803L1264.38 281.035V296.558L1268.12 292.767V284.803Z" fill="#B6AD81"/>
<path d="M1264.38 281.035H1279.9L1276.13 284.803H1268.12L1264.38 281.035Z" fill="#7F785B"/>
<path d="M1279.92 281.035V296.558L1276.15 292.767V284.803L1279.92 281.035Z" fill="#5E5B43"/>
<path d="M1268.12 292.754H1276.13L1279.9 296.545H1264.38L1268.12 292.754Z" fill="#988F6B"/>
<path d="M1324.82 236.172H1316.84V244.16H1324.82V236.172Z" fill="#8B8562"/>
<path d="M1316.82 236.213L1313.03 232.422V247.945L1316.82 244.177V236.213Z" fill="#B6AD81"/>
<path d="M1313.03 232.422H1328.55L1324.81 236.213H1316.82L1313.03 232.422Z" fill="#7F785B"/>
<path d="M1328.55 232.422V247.945L1324.8 244.177V236.213L1328.55 232.422Z" fill="#5E5B43"/>
<path d="M1328.55 247.976H1313.03L1316.82 244.209H1324.81L1328.55 247.976Z" fill="#988F6B"/>
<path d="M1324.82 284.785H1316.84V292.773H1324.82V284.785Z" fill="#8B8562"/>
<path d="M1316.82 284.803L1313.03 281.035V296.558L1316.82 292.767V284.803Z" fill="#B6AD81"/>
<path d="M1313.03 281.035H1328.55L1324.81 284.803H1316.82L1313.03 281.035Z" fill="#7F785B"/>
<path d="M1328.55 281.035V296.558L1324.8 292.767V284.803L1328.55 281.035Z" fill="#5E5B43"/>
<path d="M1316.82 292.754H1324.81L1328.55 296.545H1313.03L1316.82 292.754Z" fill="#988F6B"/>
<circle cx="1404.57" cy="704.661" r="59.0399" transform="rotate(-180 1404.57 704.661)" fill="#EFD8BD"/>
<circle cx="1404.52" cy="704.665" r="28.5677" transform="rotate(-180 1404.52 704.665)" fill="white"/>
<circle cx="307.62" cy="704.661" r="59.0399" transform="rotate(-180 307.62 704.661)" fill="#EFD8BD"/>
<circle cx="307.565" cy="704.665" r="28.5677" transform="rotate(-180 307.565 704.665)" fill="white"/>
<circle cx="1404.57" cy="270.56" r="59.0399" transform="rotate(-180 1404.57 270.56)" fill="#EFD8BD"/>
<circle cx="1404.52" cy="270.563" r="28.5677" transform="rotate(-180 1404.52 270.563)" fill="white"/>
<circle cx="307.62" cy="270.56" r="59.0399" transform="rotate(-180 307.62 270.56)" fill="#EFD8BD"/>
<circle cx="307.565" cy="270.563" r="28.5677" transform="rotate(-180 307.565 270.563)" fill="white"/>
<rect x="909.453" y="676.162" width="268.536" height="293.295" transform="rotate(-180 909.453 676.162)" fill="#3A3A3D"/>
<rect x="1164.65" y="617.139" width="188.547" height="281.868" transform="rotate(-180 1164.65 617.139)" fill="#3A3A3D"/>
<rect x="1410.7" y="546.911" width="126.22" height="128.124" transform="rotate(-180 1410.7 546.911)" fill="#3A3A3D" stroke="#3A3A3D" stroke-width="3.28711"/>
<rect x="1402.79" y="556.221" width="3.80903" height="7.61806" transform="rotate(-180 1402.79 556.221)" fill="#3A3A3D"/>
<rect x="1397.11" y="556.221" width="3.80903" height="7.61806" transform="rotate(-180 1397.11 556.221)" fill="#3A3A3D"/>
<rect x="1391.41" y="556.221" width="3.80903" height="7.61806" transform="rotate(-180 1391.41 556.221)" fill="#3A3A3D"/>
<rect x="1385.59" y="556.221" width="3.80903" height="7.61806" transform="rotate(-180 1385.59 556.221)" fill="#3A3A3D"/>
<rect x="1379.96" y="556.221" width="3.80903" height="7.61806" transform="rotate(-180 1379.96 556.221)" fill="#3A3A3D"/>
<rect x="1374.2" y="556.221" width="3.80903" height="7.61806" transform="rotate(-180 1374.2 556.221)" fill="#3A3A3D"/>
<rect x="1368.52" y="556.221" width="3.80903" height="7.61806" transform="rotate(-180 1368.52 556.221)" fill="#3A3A3D"/>
<rect x="1362.75" y="556.221" width="3.80903" height="7.61806" transform="rotate(-180 1362.75 556.221)" fill="#3A3A3D"/>
<rect x="1357.05" y="556.221" width="3.80903" height="7.61806" transform="rotate(-180 1357.05 556.221)" fill="#3A3A3D"/>
<rect x="1351.43" y="556.221" width="3.80903" height="7.61806" transform="rotate(-180 1351.43 556.221)" fill="#3A3A3D"/>
<rect x="1345.66" y="556.221" width="3.80903" height="7.61806" transform="rotate(-180 1345.66 556.221)" fill="#3A3A3D"/>
<rect x="1339.98" y="556.221" width="3.80903" height="7.61806" transform="rotate(-180 1339.98 556.221)" fill="#3A3A3D"/>
<rect x="1334.3" y="556.221" width="3.80903" height="7.61806" transform="rotate(-180 1334.3 556.221)" fill="#3A3A3D"/>
<rect x="1328.54" y="556.221" width="3.80903" height="7.61806" transform="rotate(-180 1328.54 556.221)" fill="#3A3A3D"/>
<rect x="1322.77" y="556.221" width="3.80903" height="7.61806" transform="rotate(-180 1322.77 556.221)" fill="#3A3A3D"/>
<rect x="1317.07" y="556.221" width="3.80903" height="7.61806" transform="rotate(-180 1317.07 556.221)" fill="#3A3A3D"/>
<rect x="1311.39" y="556.221" width="3.80903" height="7.61806" transform="rotate(-180 1311.39 556.221)" fill="#3A3A3D"/>
<rect x="1305.57" y="556.221" width="3.80903" height="7.61806" transform="rotate(-180 1305.57 556.221)" fill="#3A3A3D"/>
<rect x="1299.94" y="556.221" width="3.80903" height="7.61806" transform="rotate(-180 1299.94 556.221)" fill="#3A3A3D"/>
<rect x="1402.79" y="417.188" width="3.80903" height="7.61806" transform="rotate(-180 1402.79 417.188)" fill="#3A3A3D"/>
<rect x="1397.11" y="417.188" width="3.80903" height="7.61806" transform="rotate(-180 1397.11 417.188)" fill="#3A3A3D"/>
<rect x="1391.41" y="417.188" width="3.80903" height="7.61806" transform="rotate(-180 1391.41 417.188)" fill="#3A3A3D"/>
<rect x="1385.59" y="417.188" width="3.80903" height="7.61806" transform="rotate(-180 1385.59 417.188)" fill="#3A3A3D"/>
<rect x="1379.96" y="417.188" width="3.80903" height="7.61806" transform="rotate(-180 1379.96 417.188)" fill="#3A3A3D"/>
<rect x="1374.2" y="417.188" width="3.80903" height="7.61806" transform="rotate(-180 1374.2 417.188)" fill="#3A3A3D"/>
<rect x="1368.52" y="417.188" width="3.80903" height="7.61806" transform="rotate(-180 1368.52 417.188)" fill="#3A3A3D"/>
<rect x="1362.75" y="417.188" width="3.80903" height="7.61806" transform="rotate(-180 1362.75 417.188)" fill="#3A3A3D"/>
<rect x="1357.05" y="417.188" width="3.80903" height="7.61806" transform="rotate(-180 1357.05 417.188)" fill="#3A3A3D"/>
<rect x="1351.43" y="417.188" width="3.80903" height="7.61806" transform="rotate(-180 1351.43 417.188)" fill="#3A3A3D"/>
<rect x="1345.66" y="417.188" width="3.80903" height="7.61806" transform="rotate(-180 1345.66 417.188)" fill="#3A3A3D"/>
<rect x="1339.98" y="417.188" width="3.80903" height="7.61806" transform="rotate(-180 1339.98 417.188)" fill="#3A3A3D"/>
<rect x="1334.3" y="417.188" width="3.80903" height="7.61806" transform="rotate(-180 1334.3 417.188)" fill="#3A3A3D"/>
<rect x="1328.54" y="417.188" width="3.80903" height="7.61806" transform="rotate(-180 1328.54 417.188)" fill="#3A3A3D"/>
<rect x="1322.77" y="417.188" width="3.80903" height="7.61806" transform="rotate(-180 1322.77 417.188)" fill="#3A3A3D"/>
<rect x="1317.07" y="417.188" width="3.80903" height="7.61806" transform="rotate(-180 1317.07 417.188)" fill="#3A3A3D"/>
<rect x="1311.39" y="417.188" width="3.80903" height="7.61806" transform="rotate(-180 1311.39 417.188)" fill="#3A3A3D"/>
<rect x="1305.57" y="417.188" width="3.80903" height="7.61806" transform="rotate(-180 1305.57 417.188)" fill="#3A3A3D"/>
<rect x="1299.94" y="417.188" width="3.80903" height="7.61806" transform="rotate(-180 1299.94 417.188)" fill="#3A3A3D"/>
<rect x="1275.06" y="537.129" width="3.80903" height="7.61806" transform="rotate(-90 1275.06 537.129)" fill="#3A3A3D"/>
<rect x="1275.06" y="531.436" width="3.80903" height="7.61806" transform="rotate(-90 1275.06 531.436)" fill="#3A3A3D"/>
<rect x="1275.06" y="525.713" width="3.80903" height="7.61806" transform="rotate(-90 1275.06 525.713)" fill="#3A3A3D"/>
<rect x="1275.06" y="519.99" width="3.80903" height="7.61806" transform="rotate(-90 1275.06 519.99)" fill="#3A3A3D"/>
<rect x="1275.06" y="514.258" width="3.80903" height="7.61806" transform="rotate(-90 1275.06 514.258)" fill="#3A3A3D"/>
<rect x="1275.06" y="508.564" width="3.80903" height="7.61806" transform="rotate(-90 1275.06 508.564)" fill="#3A3A3D"/>
<rect x="1275.06" y="502.881" width="3.80903" height="7.61806" transform="rotate(-90 1275.06 502.881)" fill="#3A3A3D"/>
<rect x="1275.06" y="497.119" width="3.80903" height="7.61806" transform="rotate(-90 1275.06 497.119)" fill="#3A3A3D"/>
<rect x="1275.06" y="491.426" width="3.80903" height="7.61806" transform="rotate(-90 1275.06 491.426)" fill="#3A3A3D"/>
<rect x="1275.06" y="485.703" width="3.80903" height="7.61806" transform="rotate(-90 1275.06 485.703)" fill="#3A3A3D"/>
<rect x="1275.06" y="480.01" width="3.80903" height="7.61806" transform="rotate(-90 1275.06 480.01)" fill="#3A3A3D"/>
<rect x="1275.06" y="474.316" width="3.80903" height="7.61806" transform="rotate(-90 1275.06 474.316)" fill="#3A3A3D"/>
<rect x="1275.06" y="468.555" width="3.80903" height="7.61806" transform="rotate(-90 1275.06 468.555)" fill="#3A3A3D"/>
<rect x="1275.06" y="462.832" width="3.80903" height="7.61806" transform="rotate(-90 1275.06 462.832)" fill="#3A3A3D"/>
<rect x="1275.06" y="457.139" width="3.80903" height="7.61806" transform="rotate(-90 1275.06 457.139)" fill="#3A3A3D"/>
<rect x="1275.06" y="451.445" width="3.80903" height="7.61806" transform="rotate(-90 1275.06 451.445)" fill="#3A3A3D"/>
<rect x="1275.06" y="445.693" width="3.80903" height="7.61806" transform="rotate(-90 1275.06 445.693)" fill="#3A3A3D"/>
<rect x="1275.06" y="440.029" width="3.80903" height="7.61806" transform="rotate(-90 1275.06 440.029)" fill="#3A3A3D"/>
<rect x="1275.06" y="434.277" width="3.80903" height="7.61806" transform="rotate(-90 1275.06 434.277)" fill="#3A3A3D"/>
<rect x="1412.29" y="537.129" width="3.80903" height="7.61806" transform="rotate(-90 1412.29 537.129)" fill="#3A3A3D"/>
<rect x="1412.29" y="531.436" width="3.80903" height="7.61806" transform="rotate(-90 1412.29 531.436)" fill="#3A3A3D"/>
<rect x="1412.29" y="525.713" width="3.80903" height="7.61806" transform="rotate(-90 1412.29 525.713)" fill="#3A3A3D"/>
<rect x="1412.29" y="519.99" width="3.80903" height="7.61806" transform="rotate(-90 1412.29 519.99)" fill="#3A3A3D"/>
<rect x="1412.29" y="514.258" width="3.80903" height="7.61806" transform="rotate(-90 1412.29 514.258)" fill="#3A3A3D"/>
<rect x="1412.29" y="508.564" width="3.80903" height="7.61806" transform="rotate(-90 1412.29 508.564)" fill="#3A3A3D"/>
<rect x="1412.29" y="502.881" width="3.80903" height="7.61806" transform="rotate(-90 1412.29 502.881)" fill="#3A3A3D"/>
<rect x="1412.29" y="497.119" width="3.80903" height="7.61806" transform="rotate(-90 1412.29 497.119)" fill="#3A3A3D"/>
<rect x="1412.29" y="491.426" width="3.80903" height="7.61806" transform="rotate(-90 1412.29 491.426)" fill="#3A3A3D"/>
<rect x="1412.29" y="485.703" width="3.80903" height="7.61806" transform="rotate(-90 1412.29 485.703)" fill="#3A3A3D"/>
<rect x="1412.29" y="480.01" width="3.80903" height="7.61806" transform="rotate(-90 1412.29 480.01)" fill="#3A3A3D"/>
<rect x="1412.29" y="474.316" width="3.80903" height="7.61806" transform="rotate(-90 1412.29 474.316)" fill="#3A3A3D"/>
<rect x="1412.29" y="468.555" width="3.80903" height="7.61806" transform="rotate(-90 1412.29 468.555)" fill="#3A3A3D"/>
<rect x="1412.29" y="462.832" width="3.80903" height="7.61806" transform="rotate(-90 1412.29 462.832)" fill="#3A3A3D"/>
<rect x="1412.29" y="457.139" width="3.80903" height="7.61806" transform="rotate(-90 1412.29 457.139)" fill="#3A3A3D"/>
<rect x="1412.29" y="451.445" width="3.80903" height="7.61806" transform="rotate(-90 1412.29 451.445)" fill="#3A3A3D"/>
<rect x="1412.29" y="445.693" width="3.80903" height="7.61806" transform="rotate(-90 1412.29 445.693)" fill="#3A3A3D"/>
<rect x="1412.29" y="440.029" width="3.80903" height="7.61806" transform="rotate(-90 1412.29 440.029)" fill="#3A3A3D"/>
<rect x="1412.29" y="434.277" width="3.80903" height="7.61806" transform="rotate(-90 1412.29 434.277)" fill="#3A3A3D"/>
<rect x="564.931" y="477.938" width="80.3216" height="81.5336" transform="rotate(-180 564.931 477.938)" fill="#3A3A3D" stroke="#3A3A3D" stroke-width="2.09179"/>
<rect x="559.824" y="483.828" width="2.42392" height="4.84785" transform="rotate(-180 559.824 483.828)" fill="#3A3A3D"/>
<rect x="556.211" y="483.828" width="2.42392" height="4.84785" transform="rotate(-180 556.211 483.828)" fill="#3A3A3D"/>
<rect x="552.461" y="483.828" width="2.42392" height="4.84785" transform="rotate(-180 552.461 483.828)" fill="#3A3A3D"/>
<rect x="548.984" y="483.828" width="2.42392" height="4.84785" transform="rotate(-180 548.984 483.828)" fill="#3A3A3D"/>
<rect x="545.352" y="483.828" width="2.42392" height="4.84785" transform="rotate(-180 545.352 483.828)" fill="#3A3A3D"/>
<rect x="541.602" y="483.828" width="2.42392" height="4.84785" transform="rotate(-180 541.602 483.828)" fill="#3A3A3D"/>
<rect x="537.988" y="483.828" width="2.42392" height="4.84785" transform="rotate(-180 537.988 483.828)" fill="#3A3A3D"/>
<rect x="534.316" y="483.828" width="2.42392" height="4.84785" transform="rotate(-180 534.316 483.828)" fill="#3A3A3D"/>
<rect x="530.703" y="483.828" width="2.42392" height="4.84785" transform="rotate(-180 530.703 483.828)" fill="#3A3A3D"/>
<rect x="527.148" y="483.828" width="2.42392" height="4.84785" transform="rotate(-180 527.148 483.828)" fill="#3A3A3D"/>
<rect x="523.535" y="483.828" width="2.42392" height="4.84785" transform="rotate(-180 523.535 483.828)" fill="#3A3A3D"/>
<rect x="519.785" y="483.828" width="2.42392" height="4.84785" transform="rotate(-180 519.785 483.828)" fill="#3A3A3D"/>
<rect x="516.094" y="483.828" width="2.42392" height="4.84785" transform="rotate(-180 516.094 483.828)" fill="#3A3A3D"/>
<rect x="512.48" y="483.828" width="2.42392" height="4.84785" transform="rotate(-180 512.48 483.828)" fill="#3A3A3D"/>
<rect x="509.062" y="483.828" width="2.42392" height="4.84785" transform="rotate(-180 509.062 483.828)" fill="#3A3A3D"/>
<rect x="505.312" y="483.828" width="2.42392" height="4.84785" transform="rotate(-180 505.312 483.828)" fill="#3A3A3D"/>
<rect x="501.641" y="483.828" width="2.42392" height="4.84785" transform="rotate(-180 501.641 483.828)" fill="#3A3A3D"/>
<rect x="498.008" y="483.828" width="2.42392" height="4.84785" transform="rotate(-180 498.008 483.828)" fill="#3A3A3D"/>
<rect x="494.395" y="483.828" width="2.42392" height="4.84785" transform="rotate(-180 494.395 483.828)" fill="#3A3A3D"/>
<rect x="559.824" y="395.361" width="2.42392" height="4.84785" transform="rotate(-180 559.824 395.361)" fill="#3A3A3D"/>
<rect x="556.211" y="395.361" width="2.42392" height="4.84785" transform="rotate(-180 556.211 395.361)" fill="#3A3A3D"/>
<rect x="552.461" y="395.361" width="2.42392" height="4.84785" transform="rotate(-180 552.461 395.361)" fill="#3A3A3D"/>
<rect x="548.984" y="395.361" width="2.42392" height="4.84785" transform="rotate(-180 548.984 395.361)" fill="#3A3A3D"/>
<rect x="545.352" y="395.361" width="2.42392" height="4.84785" transform="rotate(-180 545.352 395.361)" fill="#3A3A3D"/>
<rect x="541.602" y="395.361" width="2.42392" height="4.84785" transform="rotate(-180 541.602 395.361)" fill="#3A3A3D"/>
<rect x="537.988" y="395.361" width="2.42392" height="4.84785" transform="rotate(-180 537.988 395.361)" fill="#3A3A3D"/>
<rect x="534.316" y="395.361" width="2.42392" height="4.84785" transform="rotate(-180 534.316 395.361)" fill="#3A3A3D"/>
<rect x="530.703" y="395.361" width="2.42392" height="4.84785" transform="rotate(-180 530.703 395.361)" fill="#3A3A3D"/>
<rect x="527.148" y="395.361" width="2.42392" height="4.84785" transform="rotate(-180 527.148 395.361)" fill="#3A3A3D"/>
<rect x="523.535" y="395.361" width="2.42392" height="4.84785" transform="rotate(-180 523.535 395.361)" fill="#3A3A3D"/>
<rect x="519.785" y="395.361" width="2.42392" height="4.84785" transform="rotate(-180 519.785 395.361)" fill="#3A3A3D"/>
<rect x="516.094" y="395.361" width="2.42392" height="4.84785" transform="rotate(-180 516.094 395.361)" fill="#3A3A3D"/>
<rect x="512.48" y="395.361" width="2.42392" height="4.84785" transform="rotate(-180 512.48 395.361)" fill="#3A3A3D"/>
<rect x="509.062" y="395.361" width="2.42392" height="4.84785" transform="rotate(-180 509.062 395.361)" fill="#3A3A3D"/>
<rect x="505.312" y="395.361" width="2.42392" height="4.84785" transform="rotate(-180 505.312 395.361)" fill="#3A3A3D"/>
<rect x="501.641" y="395.361" width="2.42392" height="4.84785" transform="rotate(-180 501.641 395.361)" fill="#3A3A3D"/>
<rect x="498.008" y="395.361" width="2.42392" height="4.84785" transform="rotate(-180 498.008 395.361)" fill="#3A3A3D"/>
<rect x="494.395" y="395.361" width="2.42392" height="4.84785" transform="rotate(-180 494.395 395.361)" fill="#3A3A3D"/>
<rect x="478.672" y="471.768" width="2.42392" height="4.84785" transform="rotate(-90 478.672 471.768)" fill="#3A3A3D"/>
<rect x="478.672" y="468.086" width="2.42392" height="4.84785" transform="rotate(-90 478.672 468.086)" fill="#3A3A3D"/>
<rect x="478.672" y="464.531" width="2.42392" height="4.84785" transform="rotate(-90 478.672 464.531)" fill="#3A3A3D"/>
<rect x="478.672" y="460.85" width="2.42392" height="4.84785" transform="rotate(-90 478.672 460.85)" fill="#3A3A3D"/>
<rect x="478.672" y="457.207" width="2.42392" height="4.84785" transform="rotate(-90 478.672 457.207)" fill="#3A3A3D"/>
<rect x="478.672" y="453.623" width="2.42392" height="4.84785" transform="rotate(-90 478.672 453.623)" fill="#3A3A3D"/>
<rect x="478.672" y="449.902" width="2.42392" height="4.84785" transform="rotate(-90 478.672 449.902)" fill="#3A3A3D"/>
<rect x="478.672" y="446.387" width="2.42392" height="4.84785" transform="rotate(-90 478.672 446.387)" fill="#3A3A3D"/>
<rect x="478.672" y="442.676" width="2.42392" height="4.84785" transform="rotate(-90 478.672 442.676)" fill="#3A3A3D"/>
<rect x="478.672" y="439.053" width="2.42392" height="4.84785" transform="rotate(-90 478.672 439.053)" fill="#3A3A3D"/>
<rect x="478.672" y="435.41" width="2.42392" height="4.84785" transform="rotate(-90 478.672 435.41)" fill="#3A3A3D"/>
<rect x="478.672" y="431.758" width="2.42392" height="4.84785" transform="rotate(-90 478.672 431.758)" fill="#3A3A3D"/>
<rect x="478.672" y="428.145" width="2.42392" height="4.84785" transform="rotate(-90 478.672 428.145)" fill="#3A3A3D"/>
<rect x="478.672" y="424.521" width="2.42392" height="4.84785" transform="rotate(-90 478.672 424.521)" fill="#3A3A3D"/>
<rect x="478.672" y="420.879" width="2.42392" height="4.84785" transform="rotate(-90 478.672 420.879)" fill="#3A3A3D"/>
<rect x="478.672" y="417.227" width="2.42392" height="4.84785" transform="rotate(-90 478.672 417.227)" fill="#3A3A3D"/>
<rect x="478.672" y="413.613" width="2.42392" height="4.84785" transform="rotate(-90 478.672 413.613)" fill="#3A3A3D"/>
<rect x="478.672" y="409.932" width="2.42392" height="4.84785" transform="rotate(-90 478.672 409.932)" fill="#3A3A3D"/>
<rect x="478.672" y="406.348" width="2.42392" height="4.84785" transform="rotate(-90 478.672 406.348)" fill="#3A3A3D"/>
<rect x="565.859" y="471.768" width="2.42392" height="4.84785" transform="rotate(-90 565.859 471.768)" fill="#3A3A3D"/>
<rect x="565.859" y="468.086" width="2.42392" height="4.84785" transform="rotate(-90 565.859 468.086)" fill="#3A3A3D"/>
<rect x="565.859" y="464.531" width="2.42392" height="4.84785" transform="rotate(-90 565.859 464.531)" fill="#3A3A3D"/>
<rect x="565.859" y="460.85" width="2.42392" height="4.84785" transform="rotate(-90 565.859 460.85)" fill="#3A3A3D"/>
<rect x="565.859" y="457.207" width="2.42392" height="4.84785" transform="rotate(-90 565.859 457.207)" fill="#3A3A3D"/>
<rect x="565.859" y="453.623" width="2.42392" height="4.84785" transform="rotate(-90 565.859 453.623)" fill="#3A3A3D"/>
<rect x="565.859" y="449.902" width="2.42392" height="4.84785" transform="rotate(-90 565.859 449.902)" fill="#3A3A3D"/>
<rect x="565.859" y="446.387" width="2.42392" height="4.84785" transform="rotate(-90 565.859 446.387)" fill="#3A3A3D"/>
<rect x="565.859" y="442.676" width="2.42392" height="4.84785" transform="rotate(-90 565.859 442.676)" fill="#3A3A3D"/>
<rect x="565.859" y="439.053" width="2.42392" height="4.84785" transform="rotate(-90 565.859 439.053)" fill="#3A3A3D"/>
<rect x="565.859" y="435.41" width="2.42392" height="4.84785" transform="rotate(-90 565.859 435.41)" fill="#3A3A3D"/>
<rect x="565.859" y="431.758" width="2.42392" height="4.84785" transform="rotate(-90 565.859 431.758)" fill="#3A3A3D"/>
<rect x="565.859" y="428.145" width="2.42392" height="4.84785" transform="rotate(-90 565.859 428.145)" fill="#3A3A3D"/>
<rect x="565.859" y="424.521" width="2.42392" height="4.84785" transform="rotate(-90 565.859 424.521)" fill="#3A3A3D"/>
<rect x="565.859" y="420.879" width="2.42392" height="4.84785" transform="rotate(-90 565.859 420.879)" fill="#3A3A3D"/>
<rect x="565.859" y="417.227" width="2.42392" height="4.84785" transform="rotate(-90 565.859 417.227)" fill="#3A3A3D"/>
<rect x="565.859" y="413.613" width="2.42392" height="4.84785" transform="rotate(-90 565.859 413.613)" fill="#3A3A3D"/>
<rect x="565.859" y="409.932" width="2.42392" height="4.84785" transform="rotate(-90 565.859 409.932)" fill="#3A3A3D"/>
<rect x="565.859" y="406.348" width="2.42392" height="4.84785" transform="rotate(-90 565.859 406.348)" fill="#3A3A3D"/>
<rect x="867.598" y="759.941" width="38.0903" height="32.3767" transform="rotate(-180 867.598 759.941)" fill="#3A3A3D"/>
<rect x="675.215" y="748.516" width="47.6129" height="47.6129" transform="rotate(-180 675.215 748.516)" fill="#3A3A3D"/>
<path d="M1241.58 659.19L1241.58 648.945L1234.51 648.945L1234.51 659.19L1241.58 659.19Z" fill="#666666"/>
<path d="M1228.05 659.287L1228.05 649.043L1220.97 649.043L1220.97 659.287L1228.05 659.287Z" fill="#666666"/>
<path d="M1213.26 659.19L1213.26 648.945L1206.19 648.945L1206.19 659.19L1213.26 659.19Z" fill="#666666"/>
<path d="M1312.56 659.522L1312.56 649.277L1305.49 649.277L1305.49 659.522L1312.56 659.522Z" fill="#666666"/>
<path d="M1328.03 659.053L1328.03 648.809L1320.95 648.809L1320.95 659.053L1328.03 659.053Z" fill="#666666"/>
<path d="M1255.51 659.453L1255.51 649.209L1248.44 649.209L1248.44 659.453L1255.51 659.453Z" fill="#666666"/>
<path d="M1269.24 659.151L1269.24 648.906L1262.17 648.906L1262.17 659.151L1269.24 659.151Z" fill="#666666"/>
<path d="M1283.22 659.053L1283.22 648.809L1276.15 648.809L1276.15 659.053L1283.22 659.053Z" fill="#666666"/>
<path d="M1297.03 659.317L1297.03 649.072L1289.96 649.072L1289.96 659.317L1297.03 659.317Z" fill="#666666"/>
<path opacity="0.94" d="M1346.91 744.93L1346.91 719.785L1339.84 719.785L1339.84 744.93L1346.91 744.93Z" fill="#666666"/>
<path d="M1194.9 787.363L1194.9 656.748L1337.04 656.748L1337.04 787.363L1194.9 787.363Z" fill="#B3B3B3"/>
<path d="M1347.38 697.088L1347.38 671.943L1340.31 671.943L1340.31 697.088L1347.38 697.088Z" fill="#666666"/>
<path d="M1193.24 697.02L1193.24 671.875L1186.17 671.875L1186.17 697.02L1193.24 697.02Z" fill="#666666"/>
<path d="M1315.47 657.647L1315.47 669.986L1302.92 669.986L1302.92 657.647L1299.5 657.647L1299.5 661.837L1234.71 661.837L1234.71 657.646L1230.6 657.646L1230.6 669.986L1218.05 669.986L1218.05 657.646L1192.5 657.646L1192.5 788.261L1341.71 788.261L1341.71 657.647L1315.47 657.647Z" fill="#E6E6E6"/>
<path d="M1192.7 744.461L1192.7 719.316L1185.62 719.316L1185.62 744.462L1192.7 744.461Z" fill="#666666"/>
<path opacity="0.94" d="M1203.61 786.498L1203.61 652.158L1193.8 652.158L1193.8 786.498L1203.61 786.498Z" fill="#F2F2F2"/>
<path opacity="0.94" d="M1342.42 792.353L1342.42 652.891L1337.63 652.891L1337.63 792.353L1342.42 792.353Z" fill="#999999"/>
<path opacity="0.94" d="M1197.52 780.557L1337.6 780.557C1340.57 780.557 1342.62 782.885 1342.62 785.679L1342.62 785.912C1342.62 788.938 1340.34 791.034 1337.6 791.034L1197.52 791.034C1194.55 791.034 1192.5 788.706 1192.5 785.912L1192.5 785.679C1192.5 782.885 1194.78 780.557 1197.52 780.557Z" fill="#B3B3B3"/>
<path opacity="0.94" d="M1223.96 784.621L1223.96 780.43L1221.91 780.43L1221.91 784.621L1223.96 784.621Z" fill="#DECD87"/>
<path opacity="0.94" d="M1325.21 784.679L1325.21 780.488L1323.16 780.488L1323.16 784.679L1325.21 784.679Z" fill="#DECD87"/>
<path opacity="0.94" d="M1212.05 784.445L1212.05 780.254L1210 780.254L1210 784.445L1212.05 784.445Z" fill="#DECD87"/>
<path opacity="0.94" d="M1235.29 784.552L1235.29 780.361L1233.24 780.361L1233.24 784.552L1235.29 784.552Z" fill="#DECD87"/>
<path opacity="0.94" d="M1246.27 784.816L1246.27 780.625L1244.22 780.625L1244.22 784.816L1246.27 784.816Z" fill="#DECD87"/>
<path opacity="0.94" d="M1256.78 784.581L1256.78 780.391L1254.72 780.391L1254.72 784.581L1256.78 784.581Z" fill="#DECD87"/>
<path opacity="0.94" d="M1267.03 784.621L1267.03 780.43L1264.98 780.43L1264.98 784.621L1267.03 784.621Z" fill="#DECD87"/>
<path opacity="0.94" d="M1277.6 784.552L1277.6 780.361L1275.54 780.361L1275.54 784.552L1277.6 784.552Z" fill="#DECD87"/>
<path opacity="0.94" d="M1289.53 784.816L1289.53 780.625L1287.48 780.625L1287.48 784.816L1289.53 784.816Z" fill="#DECD87"/>
<path opacity="0.94" d="M1301.78 784.347L1301.78 780.156L1299.72 780.156L1299.72 784.347L1301.78 784.347Z" fill="#DECD87"/>
<path opacity="0.94" d="M1314.51 784.679L1314.51 780.488L1312.46 780.488L1312.46 784.679L1314.51 784.679Z" fill="#DECD87"/>
<path opacity="0.94" d="M1217.81 791.417L1217.81 787.227L1215.76 787.227L1215.76 791.417L1217.81 791.417Z" fill="#DECD87"/>
<path opacity="0.94" d="M1229.26 791.417L1229.26 787.227L1227.2 787.227L1227.2 791.417L1229.26 791.417Z" fill="#DECD87"/>
<path opacity="0.94" d="M1241.05 791.515L1241.05 787.324L1239 787.324L1239 791.515L1241.05 791.515Z" fill="#DECD87"/>
<path opacity="0.94" d="M1251.37 791.515L1251.37 787.324L1249.31 787.324L1249.31 791.515L1251.37 791.515Z" fill="#DECD87"/>
<path opacity="0.94" d="M1261.74 791.476L1261.74 787.285L1259.68 787.285L1259.68 791.476L1261.74 791.476Z" fill="#DECD87"/>
<path opacity="0.94" d="M1272.52 791.613L1272.52 787.422L1270.47 787.422L1270.47 791.613L1272.52 791.613Z" fill="#DECD87"/>
<path opacity="0.94" d="M1283.83 791.681L1283.83 787.49L1281.77 787.49L1281.77 791.681L1283.83 791.681Z" fill="#DECD87"/>
<path opacity="0.94" d="M1295.96 791.749L1295.96 787.559L1293.9 787.559L1293.9 791.749L1295.96 791.749Z" fill="#DECD87"/>
<path opacity="0.94" d="M1308.34 791.515L1308.34 787.324L1306.29 787.324L1306.29 791.515L1308.34 791.515Z" fill="#DECD87"/>
<path opacity="0.94" d="M1332.52 791.515L1332.52 787.324L1330.47 787.324L1330.47 791.515L1332.52 791.515Z" fill="#DECD87"/>
<path opacity="0.94" d="M1319.86 791.476L1319.86 787.285L1317.81 787.285L1317.81 791.476L1319.86 791.476Z" fill="#DECD87"/>
<path opacity="0.94" d="M1205.9 791.681L1205.9 787.49L1203.85 787.49L1203.85 791.681L1205.9 791.681Z" fill="#DECD87"/>
<path d="M501.536 663.262L506.953 663.262L506.953 654.918L501.536 654.918L501.536 663.262Z" fill="#4E4D4D"/>
<path d="M494.505 663.262L499.922 663.262L499.922 654.918L494.505 654.918L494.505 663.262Z" fill="#4E4D4D"/>
<path d="M487.337 663.262L492.754 663.262L492.754 654.918L487.337 654.918L487.337 663.262Z" fill="#4E4D4D"/>
<path d="M480.169 663.262L485.586 663.262L485.586 654.918L480.169 654.918L480.169 663.262Z" fill="#4E4D4D"/>
<path d="M473.001 663.262L478.418 663.262L478.418 654.918L473.001 654.918L473.001 663.262Z" fill="#4E4D4D"/>
<path d="M465.97 663.262L471.387 663.262L471.387 654.918L465.97 654.918L465.97 663.262Z" fill="#4E4D4D"/>
<path d="M458.821 663.262L464.238 663.262L464.238 654.918L458.821 654.918L458.821 663.262Z" fill="#4E4D4D"/>
<path d="M451.712 663.262L457.129 663.262L457.129 654.918L451.712 654.918L451.712 663.262Z" fill="#4E4D4D"/>
<path d="M444.622 663.262L450.039 663.262L450.039 654.918L444.622 654.918L444.622 663.262Z" fill="#4E4D4D"/>
<path d="M437.454 663.027L442.871 663.027L442.871 654.684L437.454 654.684L437.454 663.027Z" fill="#4E4D4D"/>
<path d="M416.269 794.268L526.602 794.268L526.602 662.765L416.269 662.765L416.269 794.268Z" fill="#B4B3B3"/>
<path d="M416.883 784.795L526.406 784.795L526.406 671.723L416.883 671.723L416.883 784.795Z" fill="#B6371E"/>
<path d="M481.465 698.809L506.309 698.809L506.309 672.595L481.465 672.595L481.465 674.837L499.709 676.891L499.709 695.135L481.776 696.692L481.465 698.809Z" fill="#404041"/>
<path d="M460.781 672.595L435.938 672.595L435.938 698.809L460.781 698.809L460.781 696.567L442.475 694.45L442.475 676.207L460.408 674.65L460.781 672.595Z" fill="#404041"/>
<path d="M490.37 767.852L501.328 767.852L501.328 765.672L490.37 765.672L490.37 767.852Z" fill="#666767"/>
<path d="M511.367 714.785C511.367 713.042 509.624 712.98 509.624 712.98L507.88 712.98C505.888 713.167 505.701 714.785 505.701 714.785L500.035 771.197C499.91 772.38 498.914 773.314 497.731 773.314L493.497 773.314C492.314 773.314 491.318 772.442 491.194 771.197L485.527 714.848C485.216 712.98 483.348 712.917 483.348 712.917L481.605 712.917C479.737 713.042 479.861 714.723 479.861 714.723L487.333 781.844C487.458 783.09 488.516 784.023 489.761 784.023L501.467 784.023C502.712 784.023 503.771 783.09 503.958 781.844L511.367 714.785Z" fill="#404041"/>
<path d="M439.901 767.852L450.859 767.852L450.859 765.672L439.901 765.672L439.901 767.852Z" fill="#666767"/>
<path d="M460.898 714.785C460.898 713.042 459.155 712.98 459.155 712.98L457.412 712.98C455.419 713.167 455.232 714.785 455.232 714.785L449.566 771.197C449.442 772.38 448.446 773.314 447.262 773.314L443.029 773.314C441.846 773.314 440.849 772.442 440.725 771.197L435.059 714.848C434.747 712.98 432.879 712.917 432.879 712.917L431.136 712.917C429.268 713.042 429.393 714.723 429.393 714.723L436.864 781.844C436.989 783.09 438.047 784.023 439.293 784.023L450.998 784.023C452.244 784.023 453.302 783.09 453.489 781.844L460.898 714.785Z" fill="#404041"/>
<path d="M947.808 799.961L1107.13 799.961L1107.13 653.313L1090.83 653.313L1087.21 658.745L967.723 658.745L964.102 653.313L947.808 653.313L947.808 799.961Z" fill="#E6E6E6"/>
<path d="M1012.07 700.391L1046.47 700.391C1047.38 700.391 1049.19 699.847 1049.19 697.675C1049.19 695.502 1047.38 694.356 1046.47 694.054L1036.51 694.054C1035.31 693.752 1032.89 692.244 1032.89 688.623C1032.89 685.002 1034.7 682.889 1035.61 682.286L1081.78 682.286C1082.68 682.286 1084.49 681.562 1084.49 678.665C1084.49 675.768 1082.68 674.441 1081.78 674.139L976.77 674.139C975.864 674.441 974.054 675.768 974.054 678.665C974.054 681.562 975.864 682.286 976.77 682.286L1022.94 682.286C1023.54 682.588 1024.75 684.096 1024.75 687.717C1024.75 691.338 1023.54 693.451 1022.94 694.054L1012.07 694.054C1011.17 694.356 1009.36 695.502 1009.36 697.675C1009.36 699.847 1011.17 700.391 1012.07 700.391Z" fill="#3A3A3D"/>
<rect x="958.633" y="799.971" width="10.8628" height="146.648" transform="rotate(-180 958.633 799.971)" fill="#D9D9D9"/>
<rect x="1107.09" y="799.971" width="10.8628" height="146.648" transform="rotate(-180 1107.09 799.971)" fill="#D9D9D9"/>
<rect x="1078.18" y="676.836" width="3.62093" height="2.7157" transform="rotate(-180 1078.18 676.836)" fill="#E3BFA7"/>
<rect x="1070.96" y="676.836" width="3.62093" height="2.7157" transform="rotate(-180 1070.96 676.836)" fill="#E3BFA7"/>
<rect x="1063.71" y="676.836" width="3.62093" height="2.7157" transform="rotate(-180 1063.71 676.836)" fill="#E3BFA7"/>
<rect x="1056.48" y="676.836" width="3.62093" height="2.7157" transform="rotate(-180 1056.48 676.836)" fill="#E3BFA7"/>
<rect x="1049.18" y="676.836" width="3.62093" height="2.7157" transform="rotate(-180 1049.18 676.836)" fill="#E3BFA7"/>
<rect x="1041.95" y="676.836" width="3.62093" height="2.7157" transform="rotate(-180 1041.95 676.836)" fill="#E3BFA7"/>
<rect x="1034.73" y="676.836" width="3.62093" height="2.7157" transform="rotate(-180 1034.73 676.836)" fill="#E3BFA7"/>
<rect x="1027.5" y="676.836" width="3.62093" height="2.7157" transform="rotate(-180 1027.5 676.836)" fill="#E3BFA7"/>
<rect x="1020.25" y="676.836" width="3.62093" height="2.7157" transform="rotate(-180 1020.25 676.836)" fill="#E3BFA7"/>
<rect x="1013.03" y="676.836" width="3.62093" height="2.7157" transform="rotate(-180 1013.03 676.836)" fill="#E3BFA7"/>
<rect x="1005.72" y="676.836" width="3.62093" height="2.7157" transform="rotate(-180 1005.72 676.836)" fill="#E3BFA7"/>
<rect x="998.496" y="676.836" width="3.62093" height="2.7157" transform="rotate(-180 998.496 676.836)" fill="#E3BFA7"/>
<rect x="991.27" y="676.836" width="3.62093" height="2.7157" transform="rotate(-180 991.27 676.836)" fill="#E3BFA7"/>
<rect x="984.023" y="676.836" width="3.62093" height="2.7157" transform="rotate(-180 984.023 676.836)" fill="#E3BFA7"/>
<rect x="100" y="438.154" width="97.1302" height="99.0347" fill="#17171A"/>
<path d="M105.714 329.57C102.558 329.57 100 332.128 100 335.284L100 445.746H183.799L183.799 527.64H100L100 638.102C100 641.257 102.558 643.815 105.714 643.815H391.391C394.546 643.815 397.104 641.257 397.104 638.102L397.104 335.284C397.104 332.128 394.546 329.57 391.391 329.57L105.714 329.57Z" fill="#E6E6E6"/>
<path opacity="0.94" d="M105.028 339.376L392.146 339.375C394.855 339.375 397.051 337.179 397.051 334.47C397.051 331.761 394.855 329.565 392.146 329.565L105.028 329.565C102.318 329.565 100.122 331.761 100.122 334.47C100.122 337.18 102.319 339.376 105.028 339.376Z" fill="#F2F2F2"/>
<path opacity="0.94" d="M105.028 644.093L392.146 644.092C394.855 644.092 397.051 641.896 397.051 639.187C397.051 636.477 394.855 634.281 392.146 634.281L105.028 634.282C102.318 634.282 100.122 636.478 100.122 639.187C100.122 641.896 102.319 644.093 105.028 644.093Z" fill="#F2F2F2"/>
<path opacity="0.94" d="M100 334.299L100 440.952C100 443.581 102.132 445.713 104.761 445.713C107.391 445.713 109.523 443.581 109.523 440.952L109.523 334.299C109.523 331.669 107.391 329.538 104.761 329.538C102.132 329.538 100 331.669 100 334.299Z" fill="#F2F2F2"/>
<path opacity="0.94" d="M391.348 511.438L391.348 614.282C391.348 615.86 392.627 617.139 394.204 617.139C395.782 617.139 397.061 615.86 397.061 614.282L397.061 511.438C397.061 509.86 395.782 508.581 394.204 508.581C392.627 508.581 391.348 509.86 391.348 511.438Z" fill="#1A1A1A"/>
<path opacity="0.94" d="M391.348 360.979L391.348 463.823C391.348 465.401 392.627 466.68 394.204 466.68C395.782 466.68 397.061 465.401 397.061 463.823L397.061 360.979C397.061 359.401 395.782 358.122 394.204 358.122C392.627 358.122 391.348 359.401 391.348 360.979Z" fill="#1A1A1A"/>
<path opacity="0.94" d="M100 532.414L100 639.067C100 641.696 102.132 643.828 104.761 643.828C107.391 643.828 109.523 641.696 109.523 639.067L109.523 532.414C109.523 529.785 107.391 527.653 104.761 527.653C102.132 527.653 100 529.785 100 532.414Z" fill="#F2F2F2"/>
<rect x="149.512" y="455.254" width="24.7587" height="7.61806" fill="url(#paint0_linear_4400_19210)"/>
<rect x="149.512" y="474.307" width="24.7587" height="7.61806" fill="url(#paint1_linear_4400_19210)"/>
<rect x="149.512" y="493.359" width="24.7587" height="7.61806" fill="url(#paint2_linear_4400_19210)"/>
<rect x="149.512" y="512.373" width="24.7587" height="7.61806" fill="url(#paint3_linear_4400_19210)"/>
<defs>
<linearGradient id="paint0_linear_4400_19210" x1="175.223" y1="458.279" x2="148.559" y2="458.279" gradientUnits="userSpaceOnUse">
<stop stop-color="#DCB683" stop-opacity="0"/>
<stop offset="1" stop-color="#F5AF51"/>
</linearGradient>
<linearGradient id="paint1_linear_4400_19210" x1="175.223" y1="477.331" x2="148.559" y2="477.331" gradientUnits="userSpaceOnUse">
<stop stop-color="#DCB683" stop-opacity="0"/>
<stop offset="1" stop-color="#F5AF51"/>
</linearGradient>
<linearGradient id="paint2_linear_4400_19210" x1="175.223" y1="496.384" x2="148.559" y2="496.384" gradientUnits="userSpaceOnUse">
<stop stop-color="#DCB683" stop-opacity="0"/>
<stop offset="1" stop-color="#F5AF51"/>
</linearGradient>
<linearGradient id="paint3_linear_4400_19210" x1="175.223" y1="515.398" x2="148.559" y2="515.398" gradientUnits="userSpaceOnUse">
<stop stop-color="#DCB683" stop-opacity="0"/>
<stop offset="1" stop-color="#F5AF51"/>
</linearGradient>
</defs>
</svg>
