<svg width="1580" height="1000" viewBox="0 0 1580 1000" fill="none" xmlns="http://www.w3.org/2000/svg">
<rect x="1408.06" y="771.435" width="1238.09" height="571.428" rx="55.5556" transform="rotate(-180 1408.06 771.435)" fill="#076E50"/>
<path d="M328.962 303.353C336.759 303.353 343.08 297.033 343.08 289.235C343.08 281.438 336.759 275.117 328.962 275.117C321.165 275.117 314.844 281.438 314.844 289.235C314.844 297.033 321.165 303.353 328.962 303.353Z" stroke="#F5B91B" stroke-width="0.783951"/>
<path d="M377.653 303.353C385.45 303.353 391.771 297.033 391.771 289.235C391.771 281.438 385.45 275.117 377.653 275.117C369.856 275.117 363.535 281.438 363.535 289.235C363.535 297.033 369.856 303.353 377.653 303.353Z" stroke="#F5B91B" stroke-width="0.783951"/>
<path d="M426.266 303.353C434.064 303.353 440.385 297.033 440.385 289.235C440.385 281.438 434.064 275.117 426.266 275.117C418.469 275.117 412.148 281.438 412.148 289.235C412.148 297.033 418.469 303.353 426.266 303.353Z" stroke="#F5B91B" stroke-width="0.783951"/>
<path d="M474.938 303.353C482.736 303.353 489.056 297.033 489.056 289.235C489.056 281.438 482.736 275.117 474.938 275.117C467.141 275.117 460.82 281.438 460.82 289.235C460.82 297.033 467.141 303.353 474.938 303.353Z" stroke="#F5B91B" stroke-width="0.783951"/>
<path d="M523.63 303.353C531.427 303.353 537.748 297.033 537.748 289.235C537.748 281.438 531.427 275.117 523.63 275.117C515.833 275.117 509.512 281.438 509.512 289.235C509.512 297.033 515.833 303.353 523.63 303.353Z" stroke="#F5B91B" stroke-width="0.783951"/>
<path d="M572.302 303.353C580.099 303.353 586.42 297.033 586.42 289.235C586.42 281.438 580.099 275.117 572.302 275.117C564.505 275.117 558.184 281.438 558.184 289.235C558.184 297.033 564.505 303.353 572.302 303.353Z" stroke="#F5B91B" stroke-width="0.783951"/>
<path d="M620.993 303.353C628.79 303.353 635.111 297.033 635.111 289.235C635.111 281.438 628.79 275.117 620.993 275.117C613.196 275.117 606.875 281.438 606.875 289.235C606.875 297.033 613.196 303.353 620.993 303.353Z" stroke="#F5B91B" stroke-width="0.783951"/>
<path d="M669.684 303.353C677.482 303.353 683.803 297.033 683.803 289.235C683.803 281.438 677.482 275.117 669.684 275.117C661.887 275.117 655.566 281.438 655.566 289.235C655.566 297.033 661.887 303.353 669.684 303.353Z" stroke="#F5B91B" stroke-width="0.783951"/>
<path d="M718.298 303.353C726.095 303.353 732.416 297.033 732.416 289.235C732.416 281.438 726.095 275.117 718.298 275.117C710.501 275.117 704.18 281.438 704.18 289.235C704.18 297.033 710.501 303.353 718.298 303.353Z" stroke="#F5B91B" stroke-width="0.783951"/>
<path d="M766.97 303.353C774.767 303.353 781.088 297.033 781.088 289.235C781.088 281.438 774.767 275.117 766.97 275.117C759.172 275.117 752.852 281.438 752.852 289.235C752.852 297.033 759.172 303.353 766.97 303.353Z" stroke="#F5B91B" stroke-width="0.783951"/>
<path d="M815.661 303.353C823.458 303.353 829.779 297.033 829.779 289.235C829.779 281.438 823.458 275.117 815.661 275.117C807.864 275.117 801.543 281.438 801.543 289.235C801.543 297.033 807.864 303.353 815.661 303.353Z" stroke="#F5B91B" stroke-width="0.783951"/>
<path d="M864.333 303.353C872.13 303.353 878.451 297.033 878.451 289.235C878.451 281.438 872.13 275.117 864.333 275.117C856.536 275.117 850.215 281.438 850.215 289.235C850.215 297.033 856.536 303.353 864.333 303.353Z" stroke="#F5B91B" stroke-width="0.783951"/>
<path d="M913.024 303.353C920.822 303.353 927.142 297.033 927.142 289.235C927.142 281.438 920.822 275.117 913.024 275.117C905.227 275.117 898.906 281.438 898.906 289.235C898.906 297.033 905.227 303.353 913.024 303.353Z" stroke="#F5B91B" stroke-width="0.783951"/>
<path d="M961.716 303.353C969.513 303.353 975.834 297.033 975.834 289.235C975.834 281.438 969.513 275.117 961.716 275.117C953.918 275.117 947.598 281.438 947.598 289.235C947.598 297.033 953.918 303.353 961.716 303.353Z" stroke="#F5B91B" stroke-width="0.783951"/>
<path d="M1010.39 303.353C1018.18 303.353 1024.51 297.033 1024.51 289.235C1024.51 281.438 1018.18 275.117 1010.39 275.117C1002.59 275.117 996.27 281.438 996.27 289.235C996.27 297.033 1002.59 303.353 1010.39 303.353Z" stroke="#F5B91B" stroke-width="0.783951"/>
<path d="M1059 303.353C1066.8 303.353 1073.12 297.033 1073.12 289.235C1073.12 281.438 1066.8 275.117 1059 275.117C1051.2 275.117 1044.88 281.438 1044.88 289.235C1044.88 297.033 1051.2 303.353 1059 303.353Z" stroke="#F5B91B" stroke-width="0.783951"/>
<path d="M1107.75 303.353C1115.55 303.353 1121.87 297.033 1121.87 289.235C1121.87 281.438 1115.55 275.117 1107.75 275.117C1099.95 275.117 1093.63 281.438 1093.63 289.235C1093.63 297.033 1099.95 303.353 1107.75 303.353Z" stroke="#F5B91B" stroke-width="0.783951"/>
<path d="M1156.36 303.353C1164.16 303.353 1170.48 297.033 1170.48 289.235C1170.48 281.438 1164.16 275.117 1156.36 275.117C1148.57 275.117 1142.25 281.438 1142.25 289.235C1142.25 297.033 1148.57 303.353 1156.36 303.353Z" stroke="#F5B91B" stroke-width="0.783951"/>
<path d="M1205.06 303.353C1212.85 303.353 1219.17 297.033 1219.17 289.235C1219.17 281.438 1212.85 275.117 1205.06 275.117C1197.26 275.117 1190.94 281.438 1190.94 289.235C1190.94 297.033 1197.26 303.353 1205.06 303.353Z" stroke="#F5B91B" stroke-width="0.783951"/>
<path d="M1253.75 303.353C1261.54 303.353 1267.87 297.033 1267.87 289.235C1267.87 281.438 1261.54 275.117 1253.75 275.117C1245.95 275.117 1239.63 281.438 1239.63 289.235C1239.63 297.033 1245.95 303.353 1253.75 303.353Z" stroke="#F5B91B" stroke-width="0.783951"/>
<path d="M1253.75 254.672C1261.54 254.672 1267.87 248.351 1267.87 240.554C1267.87 232.756 1261.54 226.436 1253.75 226.436C1245.95 226.436 1239.63 232.756 1239.63 240.554C1239.63 248.351 1245.95 254.672 1253.75 254.672Z" stroke="#F5B91B" stroke-width="0.783951"/>
<path d="M1205.06 254.672C1212.85 254.672 1219.17 248.351 1219.17 240.554C1219.17 232.756 1212.85 226.436 1205.06 226.436C1197.26 226.436 1190.94 232.756 1190.94 240.554C1190.94 248.351 1197.26 254.672 1205.06 254.672Z" stroke="#F5B91B" stroke-width="0.783951"/>
<path d="M1156.36 254.672C1164.16 254.672 1170.48 248.351 1170.48 240.554C1170.48 232.756 1164.16 226.436 1156.36 226.436C1148.57 226.436 1142.25 232.756 1142.25 240.554C1142.25 248.351 1148.57 254.672 1156.36 254.672Z" stroke="#F5B91B" stroke-width="0.783951"/>
<path d="M1107.75 254.672C1115.55 254.672 1121.87 248.351 1121.87 240.554C1121.87 232.756 1115.55 226.436 1107.75 226.436C1099.95 226.436 1093.63 232.756 1093.63 240.554C1093.63 248.351 1099.95 254.672 1107.75 254.672Z" stroke="#F5B91B" stroke-width="0.783951"/>
<path d="M1059 254.672C1066.8 254.672 1073.12 248.351 1073.12 240.554C1073.12 232.756 1066.8 226.436 1059 226.436C1051.2 226.436 1044.88 232.756 1044.88 240.554C1044.88 248.351 1051.2 254.672 1059 254.672Z" stroke="#F5B91B" stroke-width="0.783951"/>
<path d="M1010.39 254.672C1018.18 254.672 1024.51 248.351 1024.51 240.554C1024.51 232.756 1018.18 226.436 1010.39 226.436C1002.59 226.436 996.27 232.756 996.27 240.554C996.27 248.351 1002.59 254.672 1010.39 254.672Z" stroke="#F5B91B" stroke-width="0.783951"/>
<path d="M961.716 254.672C969.513 254.672 975.834 248.351 975.834 240.554C975.834 232.756 969.513 226.436 961.716 226.436C953.918 226.436 947.598 232.756 947.598 240.554C947.598 248.351 953.918 254.672 961.716 254.672Z" stroke="#F5B91B" stroke-width="0.783951"/>
<path d="M913.024 254.672C920.822 254.672 927.142 248.351 927.142 240.554C927.142 232.756 920.822 226.436 913.024 226.436C905.227 226.436 898.906 232.756 898.906 240.554C898.906 248.351 905.227 254.672 913.024 254.672Z" stroke="#F5B91B" stroke-width="0.783951"/>
<path d="M864.333 254.672C872.13 254.672 878.451 248.351 878.451 240.554C878.451 232.756 872.13 226.436 864.333 226.436C856.536 226.436 850.215 232.756 850.215 240.554C850.215 248.351 856.536 254.672 864.333 254.672Z" stroke="#F5B91B" stroke-width="0.783951"/>
<path d="M815.661 254.672C823.458 254.672 829.779 248.351 829.779 240.554C829.779 232.756 823.458 226.436 815.661 226.436C807.864 226.436 801.543 232.756 801.543 240.554C801.543 248.351 807.864 254.672 815.661 254.672Z" stroke="#F5B91B" stroke-width="0.783951"/>
<path d="M766.97 254.672C774.767 254.672 781.088 248.351 781.088 240.554C781.088 232.756 774.767 226.436 766.97 226.436C759.172 226.436 752.852 232.756 752.852 240.554C752.852 248.351 759.172 254.672 766.97 254.672Z" stroke="#F5B91B" stroke-width="0.783951"/>
<path d="M718.298 254.672C726.095 254.672 732.416 248.351 732.416 240.554C732.416 232.756 726.095 226.436 718.298 226.436C710.501 226.436 704.18 232.756 704.18 240.554C704.18 248.351 710.501 254.672 718.298 254.672Z" stroke="#F5B91B" stroke-width="0.783951"/>
<path d="M669.684 254.672C677.482 254.672 683.803 248.351 683.803 240.554C683.803 232.756 677.482 226.436 669.684 226.436C661.887 226.436 655.566 232.756 655.566 240.554C655.566 248.351 661.887 254.672 669.684 254.672Z" stroke="#F5B91B" stroke-width="0.783951"/>
<path d="M620.993 254.672C628.79 254.672 635.111 248.351 635.111 240.554C635.111 232.756 628.79 226.436 620.993 226.436C613.196 226.436 606.875 232.756 606.875 240.554C606.875 248.351 613.196 254.672 620.993 254.672Z" stroke="#F5B91B" stroke-width="0.783951"/>
<path d="M572.302 254.672C580.099 254.672 586.42 248.351 586.42 240.554C586.42 232.756 580.099 226.436 572.302 226.436C564.505 226.436 558.184 232.756 558.184 240.554C558.184 248.351 564.505 254.672 572.302 254.672Z" stroke="#F5B91B" stroke-width="0.783951"/>
<path d="M523.63 254.672C531.427 254.672 537.748 248.351 537.748 240.554C537.748 232.756 531.427 226.436 523.63 226.436C515.833 226.436 509.512 232.756 509.512 240.554C509.512 248.351 515.833 254.672 523.63 254.672Z" stroke="#F5B91B" stroke-width="0.783951"/>
<path d="M474.938 254.672C482.736 254.672 489.056 248.351 489.056 240.554C489.056 232.756 482.736 226.436 474.938 226.436C467.141 226.436 460.82 232.756 460.82 240.554C460.82 248.351 467.141 254.672 474.938 254.672Z" stroke="#F5B91B" stroke-width="0.783951"/>
<path d="M426.266 254.672C434.064 254.672 440.385 248.351 440.385 240.554C440.385 232.756 434.064 226.436 426.266 226.436C418.469 226.436 412.148 232.756 412.148 240.554C412.148 248.351 418.469 254.672 426.266 254.672Z" stroke="#F5B91B" stroke-width="0.783951"/>
<path d="M377.653 254.672C385.45 254.672 391.771 248.351 391.771 240.554C391.771 232.756 385.45 226.436 377.653 226.436C369.856 226.436 363.535 232.756 363.535 240.554C363.535 248.351 369.856 254.672 377.653 254.672Z" stroke="#F5B91B" stroke-width="0.783951"/>
<path d="M328.962 254.672C336.759 254.672 343.08 248.351 343.08 240.554C343.08 232.756 336.759 226.436 328.962 226.436C321.165 226.436 314.844 232.756 314.844 240.554C314.844 248.351 321.165 254.672 328.962 254.672Z" stroke="#F5B91B" stroke-width="0.783951"/>
<path d="M354.006 264.168V228.253L343.441 218.046H315.921L305.332 228.253V264.168" fill="#BE3836"/>
<path d="M354.006 264.188V300.104L343.441 310.311H315.921L305.332 300.104V264.188" fill="#EFEA3C"/>
<path d="M402.697 264.168V228.253L392.133 218.046H364.612L354.023 228.253V264.168" fill="#BE3836"/>
<path d="M402.697 264.188V300.104L392.133 310.311H364.612L354.023 300.104V264.188" fill="#69BE87"/>
<path d="M451.369 264.168V228.253L440.805 218.046H413.284L402.695 228.253V264.168" fill="#404041"/>
<path d="M451.369 264.188V300.104L440.805 310.311H413.284L402.695 300.104V264.188" fill="#69BE87"/>
<path d="M499.982 264.168V228.253L489.418 218.046H461.897L451.309 228.253V264.168" fill="#69BE87"/>
<path d="M499.982 264.188V300.104L489.418 310.311H461.897L451.309 300.104V264.188" fill="#69BE87"/>
<path d="M548.674 264.168V228.253L538.109 218.046H510.589L500 228.253V264.168" fill="#69BE87"/>
<path d="M548.674 264.188V300.104L538.109 310.311H510.589L500 300.104V264.188" fill="#404041"/>
<path d="M597.346 264.168V228.253L586.781 218.046H559.26L548.672 228.253V264.168" fill="#69BE87"/>
<path d="M597.346 264.188V300.104L586.781 310.311H559.26L548.672 300.104V264.188" fill="#69BE87"/>
<path d="M645.978 264.168V228.253L635.414 218.046H607.893L597.305 228.253V264.168" fill="#404041"/>
<path d="M645.978 264.188V300.104L635.414 310.311H607.893L597.305 300.104V264.188" fill="#69BE87"/>
<path d="M694.65 264.168V228.253L684.086 218.046H656.565L645.977 228.253V264.168" fill="#69BE87"/>
<path d="M694.65 264.188V300.104L684.086 310.311H656.565L645.977 300.104V264.188" fill="#69BE87"/>
<path d="M743.342 264.168V228.253L732.777 218.046H705.257L694.668 228.253V264.168" fill="#69BE87"/>
<path d="M743.342 264.188V300.104L732.777 310.311H705.257L694.668 300.104V264.188" fill="#EFEA3C"/>
<path d="M792.014 264.168V228.253L781.449 218.046H753.928L743.34 228.253V264.168" fill="#404041"/>
<path d="M792.014 264.188V300.104L781.449 310.311H753.928L743.34 300.104V264.188" fill="#69BE87"/>
<path d="M840.705 264.168V228.253L830.141 218.046H802.62L792.031 228.253V264.168" fill="#69BE87"/>
<path d="M840.705 264.188V300.104L830.141 310.311H802.62L792.031 300.104V264.188" fill="#69BE87"/>
<path d="M889.316 264.168V228.253L878.752 218.046H851.231L840.643 228.253V264.168" fill="#69BE87"/>
<path d="M889.316 264.188V300.104L878.752 310.311H851.231L840.643 300.104V264.188" fill="#69BE87"/>
<path d="M938.01 264.168V228.253L927.445 218.046H899.924L889.336 228.253V264.168" fill="#69BE87"/>
<path d="M938.01 264.188V300.104L927.445 310.311H899.924L889.336 300.104V264.188" fill="#404041"/>
<path d="M986.682 264.168V228.253L976.117 218.046H948.596L938.008 228.253V264.168" fill="#4DC0E6"/>
<path d="M986.682 264.188V300.104L976.117 310.311H948.596L938.008 300.104V264.188" fill="#4DC0E6"/>
<path d="M1035.29 264.188V300.104L1024.73 310.311H997.209L986.621 300.104V264.188" fill="#69BE87"/>
<path d="M1083.99 264.168V228.253L1073.42 218.046H1045.9L1035.31 228.253V264.168" fill="#69BE87"/>
<path d="M1083.99 264.188V300.104L1073.42 310.311H1045.9L1035.31 300.104V264.188" fill="#69BE87"/>
<path d="M1132.66 264.168V228.253L1122.09 218.046H1094.57L1083.98 228.253V264.168" fill="#404041"/>
<path d="M1132.66 264.188V300.104L1122.09 310.311H1094.57L1083.98 300.104V264.188" fill="#69BE87"/>
<path d="M1181.29 264.168V228.253L1170.73 218.046H1143.21L1132.62 228.253V264.168" fill="#69BE87"/>
<path d="M1181.29 264.188V300.104L1170.73 310.311H1143.21L1132.62 300.104V264.188" fill="#69BE87"/>
<path d="M1229.96 264.168V228.253L1219.4 218.046H1191.88L1181.29 228.253V264.168" fill="#69BE87"/>
<path d="M1229.96 264.188V300.104L1219.4 310.311H1191.88L1181.29 300.104V264.188" fill="#69BE87"/>
<path d="M1278.65 264.168V228.253L1268.09 218.046H1240.57L1229.98 228.253V264.168" fill="#69BE87"/>
<path d="M1278.65 264.188V300.104L1268.09 310.311H1240.57L1229.98 300.104V264.188" fill="#404041"/>
<path d="M333.145 236.229H325.156V244.219H333.145V236.229Z" fill="#8B8562"/>
<path d="M325.12 236.232L321.328 232.44V247.965L325.12 244.198V236.232Z" fill="#B6AD81"/>
<path d="M321.328 232.44H336.877L333.109 236.232H325.12L321.328 232.44Z" fill="#7F785B"/>
<path d="M336.893 232.44V247.965L333.125 244.198V236.232L336.893 232.44Z" fill="#5E5B43"/>
<path d="M336.877 247.966H321.328L325.12 244.198H333.109L336.877 247.966Z" fill="#988F6B"/>
<path d="M333.145 284.813H325.156V292.803H333.145V284.813Z" fill="#8B8562"/>
<path d="M325.12 284.831L321.328 281.063V296.589L325.12 292.797V284.831Z" fill="#B6AD81"/>
<path d="M321.328 281.063H336.877L333.109 284.831H325.12L321.328 281.063Z" fill="#7F785B"/>
<path d="M336.893 281.063V296.589L333.125 292.797V284.831L336.893 281.063Z" fill="#5E5B43"/>
<path d="M325.12 292.782H333.109L336.877 296.574H321.328L325.12 292.782Z" fill="#988F6B"/>
<path d="M381.759 236.182H373.77V244.171H381.759V236.182Z" fill="#8B8562"/>
<path d="M370.02 232.432V247.957L373.787 244.189V236.223L370.02 232.432Z" fill="#B6AD81"/>
<path d="M385.545 232.432L381.777 236.223H373.787L370.02 232.432H385.545Z" fill="#7F785B"/>
<path d="M385.565 247.957L381.797 244.189V236.223L385.565 232.432V247.957Z" fill="#5E5B43"/>
<path d="M370.02 247.948L373.787 244.18H381.777L385.545 247.948H370.02Z" fill="#988F6B"/>
<path d="M381.759 284.795H373.77V292.784H381.759V284.795Z" fill="#8B8562"/>
<path d="M370.02 281.045V296.57L373.787 292.778V284.813L370.02 281.045Z" fill="#B6AD81"/>
<path d="M385.545 281.045L381.777 284.813H373.787L370.02 281.045H385.545Z" fill="#7F785B"/>
<path d="M385.565 296.57L381.797 292.778V284.813L385.565 281.045V296.57Z" fill="#5E5B43"/>
<path d="M381.777 292.764L385.545 296.556H370.02L373.787 292.764H381.777Z" fill="#988F6B"/>
<path d="M430.509 236.182H422.52V244.171H430.509V236.182Z" fill="#8B8562"/>
<path d="M422.537 236.223L418.77 232.432V247.957L422.537 244.189V236.223Z" fill="#B6AD81"/>
<path d="M418.77 232.432H434.295L430.527 236.223H422.537L418.77 232.432Z" fill="#7F785B"/>
<path d="M434.315 232.432V247.957L430.547 244.189V236.223L434.315 232.432Z" fill="#5E5B43"/>
<path d="M434.295 247.948H418.77L422.537 244.18H430.527L434.295 247.948Z" fill="#988F6B"/>
<path d="M430.509 284.795H422.52V292.784H430.509V284.795Z" fill="#8B8562"/>
<path d="M422.537 284.813L418.77 281.045V296.57L422.537 292.778V284.813Z" fill="#B6AD81"/>
<path d="M418.77 281.045H434.295L430.527 284.813H422.537L418.77 281.045Z" fill="#7F785B"/>
<path d="M434.315 281.045V296.57L430.547 292.778V284.813L434.315 281.045Z" fill="#5E5B43"/>
<path d="M422.537 292.764H430.527L434.295 296.556H418.77L422.537 292.764Z" fill="#988F6B"/>
<path d="M479.063 236.182H471.074V244.171H479.063V236.182Z" fill="#8B8562"/>
<path d="M467.324 232.432V247.957L471.092 244.189V236.223L467.324 232.432Z" fill="#B6AD81"/>
<path d="M482.849 232.432L479.081 236.223H471.092L467.324 232.432H482.849Z" fill="#7F785B"/>
<path d="M482.87 247.957L479.102 244.189V236.223L482.87 232.432V247.957Z" fill="#5E5B43"/>
<path d="M467.324 247.948L471.092 244.18H479.081L482.849 247.948H467.324Z" fill="#988F6B"/>
<path d="M479.063 284.795H471.074V292.784H479.063V284.795Z" fill="#8B8562"/>
<path d="M467.324 281.045V296.57L471.092 292.778V284.813L467.324 281.045Z" fill="#B6AD81"/>
<path d="M482.849 281.045L479.081 284.813H471.092L467.324 281.045H482.849Z" fill="#7F785B"/>
<path d="M482.87 296.57L479.102 292.778V284.813L482.87 281.045V296.57Z" fill="#5E5B43"/>
<path d="M479.081 292.764L482.849 296.556H467.324L471.092 292.764H479.081Z" fill="#988F6B"/>
<path d="M527.755 236.182H519.766V244.171H527.755V236.182Z" fill="#8B8562"/>
<path d="M519.784 236.223L516.016 232.432V247.957L519.784 244.189V236.223Z" fill="#B6AD81"/>
<path d="M516.016 232.432H531.541L527.773 236.223H519.784L516.016 232.432Z" fill="#7F785B"/>
<path d="M531.561 232.432V247.957L527.793 244.189V236.223L531.561 232.432Z" fill="#5E5B43"/>
<path d="M531.541 247.948H516.016L519.784 244.18H527.773L531.541 247.948Z" fill="#988F6B"/>
<path d="M527.755 284.795H519.766V292.784H527.755V284.795Z" fill="#8B8562"/>
<path d="M519.784 284.813L516.016 281.045V296.57L519.784 292.778V284.813Z" fill="#B6AD81"/>
<path d="M516.016 281.045H531.541L527.773 284.813H519.784L516.016 281.045Z" fill="#7F785B"/>
<path d="M531.561 281.045V296.57L527.793 292.778V284.813L531.561 281.045Z" fill="#5E5B43"/>
<path d="M519.784 292.764H527.773L531.541 296.556H516.016L519.784 292.764Z" fill="#988F6B"/>
<path d="M576.466 236.182H568.477V244.171H576.466V236.182Z" fill="#8B8562"/>
<path d="M568.46 236.223L564.668 232.432V247.957L568.46 244.189V236.223Z" fill="#B6AD81"/>
<path d="M564.668 232.432H580.217L576.449 236.223H568.46L564.668 232.432Z" fill="#7F785B"/>
<path d="M580.213 232.432V247.957L576.445 244.189V236.223L580.213 232.432Z" fill="#5E5B43"/>
<path d="M580.217 247.948H564.668L568.46 244.18H576.449L580.217 247.948Z" fill="#988F6B"/>
<path d="M576.466 284.795H568.477V292.784H576.466V284.795Z" fill="#8B8562"/>
<path d="M568.46 284.813L564.668 281.045V296.57L568.46 292.778V284.813Z" fill="#B6AD81"/>
<path d="M564.668 281.045H580.217L576.449 284.813H568.46L564.668 281.045Z" fill="#7F785B"/>
<path d="M580.213 281.045V296.57L576.445 292.778V284.813L580.213 281.045Z" fill="#5E5B43"/>
<path d="M568.46 292.764H576.449L580.217 296.556H564.668L568.46 292.764Z" fill="#988F6B"/>
<path d="M625.157 236.182H617.168V244.171H625.157V236.182Z" fill="#8B8562"/>
<path d="M617.186 236.223L613.418 232.432V247.957L617.186 244.189V236.223Z" fill="#B6AD81"/>
<path d="M613.418 232.432H628.943L625.175 236.223H617.186L613.418 232.432Z" fill="#7F785B"/>
<path d="M628.963 232.432V247.957L625.195 244.189V236.223L628.963 232.432Z" fill="#5E5B43"/>
<path d="M628.943 247.948H613.418L617.186 244.18H625.175L628.943 247.948Z" fill="#988F6B"/>
<path d="M625.157 284.795H617.168V292.784H625.157V284.795Z" fill="#8B8562"/>
<path d="M617.186 284.813L613.418 281.045V296.57L617.186 292.778V284.813Z" fill="#B6AD81"/>
<path d="M613.418 281.045H628.943L625.175 284.813H617.186L613.418 281.045Z" fill="#7F785B"/>
<path d="M628.963 281.045V296.57L625.195 292.778V284.813L628.963 281.045Z" fill="#5E5B43"/>
<path d="M617.186 292.764H625.175L628.943 296.556H613.418L617.186 292.764Z" fill="#988F6B"/>
<path d="M673.848 236.182H665.859V244.171H673.848V236.182Z" fill="#8B8562"/>
<path d="M665.877 236.223L662.109 232.432V247.957L665.877 244.189V236.223Z" fill="#B6AD81"/>
<path d="M662.109 232.432H677.634L673.866 236.223H665.877L662.109 232.432Z" fill="#7F785B"/>
<path d="M677.655 232.432V247.957L673.887 244.189V236.223L677.655 232.432Z" fill="#5E5B43"/>
<path d="M677.634 247.948H662.109L665.877 244.18H673.866L677.634 247.948Z" fill="#988F6B"/>
<path d="M673.848 284.795H665.859V292.784H673.848V284.795Z" fill="#8B8562"/>
<path d="M665.877 284.813L662.109 281.045V296.57L665.877 292.778V284.813Z" fill="#B6AD81"/>
<path d="M662.109 281.045H677.634L673.866 284.813H665.877L662.109 281.045Z" fill="#7F785B"/>
<path d="M677.655 281.045V296.57L673.887 292.778V284.813L677.655 281.045Z" fill="#5E5B43"/>
<path d="M665.877 292.764H673.866L677.634 296.556H662.109L665.877 292.764Z" fill="#988F6B"/>
<path d="M722.403 236.182H714.414V244.171H722.403V236.182Z" fill="#8B8562"/>
<path d="M714.432 236.223L710.664 232.432V247.957L714.432 244.189V236.223Z" fill="#B6AD81"/>
<path d="M710.664 232.432H726.189L722.421 236.223H714.432L710.664 232.432Z" fill="#7F785B"/>
<path d="M726.209 232.432V247.957L722.441 244.189V236.223L726.209 232.432Z" fill="#5E5B43"/>
<path d="M726.189 247.948H710.664L714.432 244.18H722.421L726.189 247.948Z" fill="#988F6B"/>
<path d="M722.403 284.795H714.414V292.784H722.403V284.795Z" fill="#8B8562"/>
<path d="M714.432 284.813L710.664 281.045V296.57L714.432 292.778V284.813Z" fill="#B6AD81"/>
<path d="M710.664 281.045H726.189L722.421 284.813H714.432L710.664 281.045Z" fill="#7F785B"/>
<path d="M726.209 281.045V296.57L722.441 292.778V284.813L726.209 281.045Z" fill="#5E5B43"/>
<path d="M714.432 292.764H722.421L726.189 296.556H710.664L714.432 292.764Z" fill="#988F6B"/>
<path d="M771.153 236.182H763.164V244.171H771.153V236.182Z" fill="#8B8562"/>
<path d="M763.182 236.223L759.414 232.432V247.957L763.182 244.189V236.223Z" fill="#B6AD81"/>
<path d="M759.414 232.432H774.939L771.171 236.223H763.182L759.414 232.432Z" fill="#7F785B"/>
<path d="M774.959 232.432V247.957L771.191 244.189V236.223L774.959 232.432Z" fill="#5E5B43"/>
<path d="M774.939 247.948H759.414L763.182 244.18H771.171L774.939 247.948Z" fill="#988F6B"/>
<path d="M771.153 284.795H763.164V292.784H771.153V284.795Z" fill="#8B8562"/>
<path d="M763.182 284.813L759.414 281.045V296.57L763.182 292.778V284.813Z" fill="#B6AD81"/>
<path d="M759.414 281.045H774.939L771.171 284.813H763.182L759.414 281.045Z" fill="#7F785B"/>
<path d="M774.959 281.045V296.57L771.191 292.778V284.813L774.959 281.045Z" fill="#5E5B43"/>
<path d="M763.182 292.764H771.171L774.939 296.556H759.414L763.182 292.764Z" fill="#988F6B"/>
<path d="M819.845 236.182H811.855V244.171H819.845V236.182Z" fill="#8B8562"/>
<path d="M808.047 247.957L811.839 244.189V236.223L808.047 232.432V247.957Z" fill="#B6AD81"/>
<path d="M819.828 236.223H811.839L808.047 232.432H823.596L819.828 236.223Z" fill="#7F785B"/>
<path d="M819.824 244.189V236.223L823.592 232.432V247.957L819.824 244.189Z" fill="#5E5B43"/>
<path d="M811.839 244.18H819.828L823.596 247.948H808.047L811.839 244.18Z" fill="#988F6B"/>
<path d="M819.845 284.795H811.855V292.784H819.845V284.795Z" fill="#8B8562"/>
<path d="M808.047 296.57L811.839 292.778V284.813L808.047 281.045V296.57Z" fill="#B6AD81"/>
<path d="M819.828 284.813H811.839L808.047 281.045H823.596L819.828 284.813Z" fill="#7F785B"/>
<path d="M819.824 292.778V284.813L823.592 281.045V296.57L819.824 292.778Z" fill="#5E5B43"/>
<path d="M823.596 296.556H808.047L811.839 292.764H819.828L823.596 296.556Z" fill="#988F6B"/>
<path d="M868.497 236.182H860.508V244.171H868.497V236.182Z" fill="#8B8562"/>
<path d="M860.526 236.223L856.758 232.432V247.957L860.526 244.189V236.223Z" fill="#B6AD81"/>
<path d="M856.758 232.432H872.283L868.515 236.223H860.526L856.758 232.432Z" fill="#7F785B"/>
<path d="M872.303 232.432V247.957L868.535 244.189V236.223L872.303 232.432Z" fill="#5E5B43"/>
<path d="M872.283 247.948H856.758L860.526 244.18H868.515L872.283 247.948Z" fill="#988F6B"/>
<path d="M868.497 284.795H860.508V292.784H868.497V284.795Z" fill="#8B8562"/>
<path d="M860.526 284.813L856.758 281.045V296.57L860.526 292.778V284.813Z" fill="#B6AD81"/>
<path d="M856.758 281.045H872.283L868.515 284.813H860.526L856.758 281.045Z" fill="#7F785B"/>
<path d="M872.303 281.045V296.57L868.535 292.778V284.813L872.303 281.045Z" fill="#5E5B43"/>
<path d="M860.526 292.764H868.515L872.283 296.556H856.758L860.526 292.764Z" fill="#988F6B"/>
<path d="M917.188 236.182H909.199V244.171H917.188V236.182Z" fill="#8B8562"/>
<path d="M909.217 236.223L905.449 232.432V247.957L909.217 244.189V236.223Z" fill="#B6AD81"/>
<path d="M905.449 232.432H920.974L917.206 236.223H909.217L905.449 232.432Z" fill="#7F785B"/>
<path d="M920.995 232.432V247.957L917.227 244.189V236.223L920.995 232.432Z" fill="#5E5B43"/>
<path d="M920.974 247.948H905.449L909.217 244.18H917.206L920.974 247.948Z" fill="#988F6B"/>
<path d="M917.188 284.795H909.199V292.784H917.188V284.795Z" fill="#8B8562"/>
<path d="M909.217 284.813L905.449 281.045V296.57L909.217 292.778V284.813Z" fill="#B6AD81"/>
<path d="M905.449 281.045H920.974L917.206 284.813H909.217L905.449 281.045Z" fill="#7F785B"/>
<path d="M920.995 281.045V296.57L917.227 292.778V284.813L920.995 281.045Z" fill="#5E5B43"/>
<path d="M909.217 292.764H917.206L920.974 296.556H905.449L909.217 292.764Z" fill="#988F6B"/>
<path d="M965.88 236.182H957.891V244.171H965.88V236.182Z" fill="#8B8562"/>
<path d="M957.909 236.223L954.141 232.432V247.957L957.909 244.189V236.223Z" fill="#B6AD81"/>
<path d="M954.141 232.432H969.666L965.898 236.223H957.909L954.141 232.432Z" fill="#7F785B"/>
<path d="M969.686 232.432V247.957L965.918 244.189V236.223L969.686 232.432Z" fill="#5E5B43"/>
<path d="M969.666 247.948H954.141L957.909 244.18H965.898L969.666 247.948Z" fill="#988F6B"/>
<path d="M965.88 284.795H957.891V292.784H965.88V284.795Z" fill="#8B8562"/>
<path d="M957.909 284.813L954.141 281.045V296.57L957.909 292.778V284.813Z" fill="#B6AD81"/>
<path d="M954.141 281.045H969.666L965.898 284.813H957.909L954.141 281.045Z" fill="#7F785B"/>
<path d="M969.686 281.045V296.57L965.918 292.778V284.813L969.686 281.045Z" fill="#5E5B43"/>
<path d="M957.909 292.764H965.898L969.666 296.556H954.141L957.909 292.764Z" fill="#988F6B"/>
<path d="M1035.31 264.168V228.253L1024.75 218.046H997.229L986.641 228.253V264.168" fill="#404041"/>
<path d="M1014.59 236.229H1006.6V244.219H1014.59V236.229Z" fill="#8B8562"/>
<path d="M1002.77 232.44V247.965L1006.54 244.198V236.232L1002.77 232.44Z" fill="#B6AD81"/>
<path d="M1018.3 232.44L1014.53 236.232H1006.54L1002.77 232.44H1018.3Z" fill="#7F785B"/>
<path d="M1018.34 247.965L1014.57 244.198V236.232L1018.34 232.44V247.965Z" fill="#5E5B43"/>
<path d="M1002.77 247.966L1006.54 244.198H1014.53L1018.3 247.966H1002.77Z" fill="#988F6B"/>
<path d="M1014.53 284.813H1006.54V292.803H1014.53V284.813Z" fill="#8B8562"/>
<path d="M1006.56 284.831L1002.79 281.063V296.589L1006.56 292.797V284.831Z" fill="#B6AD81"/>
<path d="M1002.79 281.063H1018.32L1014.55 284.831H1006.56L1002.79 281.063Z" fill="#7F785B"/>
<path d="M1018.34 281.063V296.589L1014.57 292.797V284.831L1018.34 281.063Z" fill="#5E5B43"/>
<path d="M1006.56 292.782H1014.55L1018.32 296.574H1002.79L1006.56 292.782Z" fill="#988F6B"/>
<path d="M1063.18 236.182H1055.2V244.171H1063.18V236.182Z" fill="#8B8562"/>
<path d="M1055.18 236.223L1051.39 232.432V247.957L1055.18 244.189V236.223Z" fill="#B6AD81"/>
<path d="M1051.39 232.432H1066.94L1063.17 236.223H1055.18L1051.39 232.432Z" fill="#7F785B"/>
<path d="M1066.93 232.432V247.957L1063.16 244.189V236.223L1066.93 232.432Z" fill="#5E5B43"/>
<path d="M1066.94 247.948H1051.39L1055.18 244.18H1063.17L1066.94 247.948Z" fill="#988F6B"/>
<path d="M1063.18 284.795H1055.2V292.784H1063.18V284.795Z" fill="#8B8562"/>
<path d="M1055.18 284.813L1051.39 281.045V296.57L1055.18 292.778V284.813Z" fill="#B6AD81"/>
<path d="M1051.39 281.045H1066.94L1063.17 284.813H1055.18L1051.39 281.045Z" fill="#7F785B"/>
<path d="M1066.93 281.045V296.57L1063.16 292.778V284.813L1066.93 281.045Z" fill="#5E5B43"/>
<path d="M1055.18 292.764H1063.17L1066.94 296.556H1051.39L1055.18 292.764Z" fill="#988F6B"/>
<path d="M1111.82 236.182H1103.83V244.171H1111.82V236.182Z" fill="#8B8562"/>
<path d="M1103.82 236.223L1100.08 232.432V247.957L1103.82 244.189V236.223Z" fill="#B6AD81"/>
<path d="M1100.08 232.432H1115.6L1111.84 236.223H1103.82L1100.08 232.432Z" fill="#7F785B"/>
<path d="M1115.62 232.432V247.957L1111.86 244.189V236.223L1115.62 232.432Z" fill="#5E5B43"/>
<path d="M1115.6 247.948H1100.08L1103.82 244.18H1111.84L1115.6 247.948Z" fill="#988F6B"/>
<path d="M1111.82 284.795H1103.83V292.784H1111.82V284.795Z" fill="#8B8562"/>
<path d="M1103.82 284.813L1100.08 281.045V296.57L1103.82 292.778V284.813Z" fill="#B6AD81"/>
<path d="M1100.08 281.045H1115.6L1111.84 284.813H1103.82L1100.08 281.045Z" fill="#7F785B"/>
<path d="M1115.62 281.045V296.57L1111.86 292.778V284.813L1115.62 281.045Z" fill="#5E5B43"/>
<path d="M1103.82 292.764H1111.84L1115.6 296.556H1100.08L1103.82 292.764Z" fill="#988F6B"/>
<path d="M1160.59 236.182H1152.6V244.171H1160.59V236.182Z" fill="#8B8562"/>
<path d="M1152.58 236.223L1148.79 232.432V247.957L1152.58 244.189V236.223Z" fill="#B6AD81"/>
<path d="M1148.79 232.432H1164.31L1160.57 236.223H1152.58L1148.79 232.432Z" fill="#7F785B"/>
<path d="M1164.31 232.432V247.957L1160.57 244.189V236.223L1164.31 232.432Z" fill="#5E5B43"/>
<path d="M1164.31 247.948H1148.79L1152.58 244.18H1160.57L1164.31 247.948Z" fill="#988F6B"/>
<path d="M1160.59 284.795H1152.6V292.784H1160.59V284.795Z" fill="#8B8562"/>
<path d="M1152.58 284.813L1148.79 281.045V296.57L1152.58 292.778V284.813Z" fill="#B6AD81"/>
<path d="M1148.79 281.045H1164.31L1160.57 284.813H1152.58L1148.79 281.045Z" fill="#7F785B"/>
<path d="M1164.31 281.045V296.57L1160.57 292.778V284.813L1164.31 281.045Z" fill="#5E5B43"/>
<path d="M1152.58 292.764H1160.57L1164.31 296.556H1148.79L1152.58 292.764Z" fill="#988F6B"/>
<path d="M1209.22 236.182H1201.23V244.171H1209.22V236.182Z" fill="#8B8562"/>
<path d="M1201.22 236.223L1197.48 232.432V247.957L1201.22 244.189V236.223Z" fill="#B6AD81"/>
<path d="M1197.48 232.432H1213.01L1209.24 236.223H1201.22L1197.48 232.432Z" fill="#7F785B"/>
<path d="M1213.03 232.432V247.957L1209.26 244.189V236.223L1213.03 232.432Z" fill="#5E5B43"/>
<path d="M1213.01 247.948H1197.48L1201.22 244.18H1209.24L1213.01 247.948Z" fill="#988F6B"/>
<path d="M1209.22 284.795H1201.23V292.784H1209.22V284.795Z" fill="#8B8562"/>
<path d="M1201.22 284.813L1197.48 281.045V296.57L1201.22 292.778V284.813Z" fill="#B6AD81"/>
<path d="M1197.48 281.045H1213.01L1209.24 284.813H1201.22L1197.48 281.045Z" fill="#7F785B"/>
<path d="M1213.03 281.045V296.57L1209.26 292.778V284.813L1213.03 281.045Z" fill="#5E5B43"/>
<path d="M1201.22 292.764H1209.24L1213.01 296.556H1197.48L1201.22 292.764Z" fill="#988F6B"/>
<path d="M1257.97 236.182H1249.98V244.171H1257.97V236.182Z" fill="#8B8562"/>
<path d="M1249.96 236.223L1246.17 232.432V247.957L1249.96 244.189V236.223Z" fill="#B6AD81"/>
<path d="M1246.17 232.432H1261.7L1257.95 236.223H1249.96L1246.17 232.432Z" fill="#7F785B"/>
<path d="M1261.69 232.432V247.957L1257.95 244.189V236.223L1261.69 232.432Z" fill="#5E5B43"/>
<path d="M1261.7 247.948H1246.17L1249.96 244.18H1257.95L1261.7 247.948Z" fill="#988F6B"/>
<path d="M1257.97 284.795H1249.98V292.784H1257.97V284.795Z" fill="#8B8562"/>
<path d="M1249.96 284.813L1246.17 281.045V296.57L1249.96 292.778V284.813Z" fill="#B6AD81"/>
<path d="M1246.17 281.045H1261.7L1257.95 284.813H1249.96L1246.17 281.045Z" fill="#7F785B"/>
<path d="M1261.69 281.045V296.57L1257.95 292.778V284.813L1261.69 281.045Z" fill="#5E5B43"/>
<path d="M1249.96 292.764H1257.95L1261.7 296.556H1246.17L1249.96 292.764Z" fill="#988F6B"/>
<circle cx="1337.57" cy="704.771" r="59.0476" transform="rotate(-180 1337.57 704.771)" fill="#EFD8BD"/>
<circle cx="1337.58" cy="704.778" r="28.5714" transform="rotate(-180 1337.58 704.778)" fill="white"/>
<circle cx="240.406" cy="704.771" r="59.0476" transform="rotate(-180 240.406 704.771)" fill="#EFD8BD"/>
<circle cx="240.413" cy="704.778" r="28.5714" transform="rotate(-180 240.413 704.778)" fill="white"/>
<circle cx="1337.57" cy="270.503" r="59.0476" transform="rotate(-180 1337.57 270.503)" fill="#EFD8BD"/>
<circle cx="1337.58" cy="270.511" r="28.5714" transform="rotate(-180 1337.58 270.511)" fill="white"/>
<circle cx="240.406" cy="270.502" r="59.0476" transform="rotate(-180 240.406 270.502)" fill="#EFD8BD"/>
<circle cx="240.413" cy="270.51" r="28.5714" transform="rotate(-180 240.413 270.51)" fill="white"/>
<rect x="842.342" y="676.182" width="268.571" height="293.333" transform="rotate(-180 842.342 676.182)" fill="#3A3A3D"/>
<rect x="526.15" y="563.818" width="201.905" height="205.714" transform="rotate(-180 526.15 563.818)" fill="#3A3A3D"/>
<rect x="1080.47" y="617.158" width="188.571" height="281.905" transform="rotate(-180 1080.47 617.158)" fill="#3A3A3D"/>
<path d="M179.307 582.483L179.307 537.679C179.307 536.451 180.688 535.224 182.069 535.224L226.26 535.224C227.641 535.224 229.021 536.451 229.021 537.679L229.021 582.483C229.021 583.711 227.641 584.938 226.26 584.938L182.069 584.938C179.998 584.938 179.307 583.711 179.307 582.483ZM182.069 538.292L182.069 582.483L225.569 582.483L225.569 538.292L182.069 538.292Z" fill="#FFFAE8"/>
<path d="M179.307 582.483L179.307 537.679C179.307 536.451 180.688 535.224 182.069 535.224L226.26 535.224C227.641 535.224 229.021 536.451 229.021 537.679L229.021 582.483C229.021 583.711 227.641 584.938 226.26 584.938L182.069 584.938C179.998 584.938 179.307 583.711 179.307 582.483ZM182.069 538.292L182.069 582.483L225.569 582.483L225.569 538.292L182.069 538.292Z" fill="#FFF4D9" fill-opacity="0.2"/>
<rect x="227.146" y="582.831" width="45.7143" height="45.7143" transform="rotate(-180 227.146 582.831)" fill="white"/>
<rect x="221.385" y="590.468" width="34.2857" height="5.71428" transform="rotate(-180 221.385 590.468)" fill="#FFFAE8"/>
<rect x="221.385" y="535.224" width="34.2857" height="5.71428" transform="rotate(-180 221.385 535.224)" fill="#FFFAE8"/>
<circle cx="204.29" cy="560.004" r="16.8254" transform="rotate(-180 204.29 560.004)" stroke="#ECD7BC" stroke-width="4.44445"/>
<circle cx="4.7619" cy="4.7619" r="2.53968" transform="matrix(-1 -8.74228e-08 -8.74228e-08 1 208.064 556.181)" stroke="#BE813A" stroke-width="4.44445"/>
<rect x="1342.87" y="546.371" width="125.079" height="126.984" transform="rotate(-180 1342.87 546.371)" fill="#3A3A3D" stroke="#3A3A3D" stroke-width="4.44445"/>
<rect x="1335.6" y="556.229" width="3.80952" height="7.61905" transform="rotate(-180 1335.6 556.229)" fill="#3A3A3D"/>
<rect x="1329.92" y="556.229" width="3.80952" height="7.61905" transform="rotate(-180 1329.92 556.229)" fill="#3A3A3D"/>
<rect x="1324.16" y="556.229" width="3.80952" height="7.61905" transform="rotate(-180 1324.16 556.229)" fill="#3A3A3D"/>
<rect x="1318.46" y="556.229" width="3.80952" height="7.61905" transform="rotate(-180 1318.46 556.229)" fill="#3A3A3D"/>
<rect x="1312.77" y="556.229" width="3.80952" height="7.61905" transform="rotate(-180 1312.77 556.229)" fill="#3A3A3D"/>
<rect x="1307.01" y="556.229" width="3.80952" height="7.61905" transform="rotate(-180 1307.01 556.229)" fill="#3A3A3D"/>
<rect x="1301.33" y="556.229" width="3.80952" height="7.61905" transform="rotate(-180 1301.33 556.229)" fill="#3A3A3D"/>
<rect x="1295.62" y="556.229" width="3.80952" height="7.61905" transform="rotate(-180 1295.62 556.229)" fill="#3A3A3D"/>
<rect x="1289.86" y="556.229" width="3.80952" height="7.61905" transform="rotate(-180 1289.86 556.229)" fill="#3A3A3D"/>
<rect x="1284.18" y="556.229" width="3.80952" height="7.61905" transform="rotate(-180 1284.18 556.229)" fill="#3A3A3D"/>
<rect x="1278.47" y="556.229" width="3.80952" height="7.61905" transform="rotate(-180 1278.47 556.229)" fill="#3A3A3D"/>
<rect x="1272.73" y="556.229" width="3.80952" height="7.61905" transform="rotate(-180 1272.73 556.229)" fill="#3A3A3D"/>
<rect x="1267.03" y="556.229" width="3.80952" height="7.61905" transform="rotate(-180 1267.03 556.229)" fill="#3A3A3D"/>
<rect x="1261.35" y="556.229" width="3.80952" height="7.61905" transform="rotate(-180 1261.35 556.229)" fill="#3A3A3D"/>
<rect x="1255.58" y="556.229" width="3.80952" height="7.61905" transform="rotate(-180 1255.58 556.229)" fill="#3A3A3D"/>
<rect x="1249.88" y="556.229" width="3.80952" height="7.61905" transform="rotate(-180 1249.88 556.229)" fill="#3A3A3D"/>
<rect x="1244.2" y="556.229" width="3.80952" height="7.61905" transform="rotate(-180 1244.2 556.229)" fill="#3A3A3D"/>
<rect x="1238.44" y="556.229" width="3.80952" height="7.61905" transform="rotate(-180 1238.44 556.229)" fill="#3A3A3D"/>
<rect x="1232.75" y="556.229" width="3.80952" height="7.61905" transform="rotate(-180 1232.75 556.229)" fill="#3A3A3D"/>
<rect x="1335.6" y="417.187" width="3.80952" height="7.61905" transform="rotate(-180 1335.6 417.187)" fill="#3A3A3D"/>
<rect x="1329.92" y="417.187" width="3.80952" height="7.61905" transform="rotate(-180 1329.92 417.187)" fill="#3A3A3D"/>
<rect x="1324.16" y="417.187" width="3.80952" height="7.61905" transform="rotate(-180 1324.16 417.187)" fill="#3A3A3D"/>
<rect x="1318.46" y="417.187" width="3.80952" height="7.61905" transform="rotate(-180 1318.46 417.187)" fill="#3A3A3D"/>
<rect x="1312.77" y="417.187" width="3.80952" height="7.61905" transform="rotate(-180 1312.77 417.187)" fill="#3A3A3D"/>
<rect x="1307.01" y="417.187" width="3.80952" height="7.61905" transform="rotate(-180 1307.01 417.187)" fill="#3A3A3D"/>
<rect x="1301.33" y="417.187" width="3.80952" height="7.61905" transform="rotate(-180 1301.33 417.187)" fill="#3A3A3D"/>
<rect x="1295.62" y="417.187" width="3.80952" height="7.61905" transform="rotate(-180 1295.62 417.187)" fill="#3A3A3D"/>
<rect x="1289.86" y="417.187" width="3.80952" height="7.61905" transform="rotate(-180 1289.86 417.187)" fill="#3A3A3D"/>
<rect x="1284.18" y="417.187" width="3.80952" height="7.61905" transform="rotate(-180 1284.18 417.187)" fill="#3A3A3D"/>
<rect x="1278.47" y="417.187" width="3.80952" height="7.61905" transform="rotate(-180 1278.47 417.187)" fill="#3A3A3D"/>
<rect x="1272.73" y="417.187" width="3.80952" height="7.61905" transform="rotate(-180 1272.73 417.187)" fill="#3A3A3D"/>
<rect x="1267.03" y="417.187" width="3.80952" height="7.61905" transform="rotate(-180 1267.03 417.187)" fill="#3A3A3D"/>
<rect x="1261.35" y="417.187" width="3.80952" height="7.61905" transform="rotate(-180 1261.35 417.187)" fill="#3A3A3D"/>
<rect x="1255.58" y="417.187" width="3.80952" height="7.61905" transform="rotate(-180 1255.58 417.187)" fill="#3A3A3D"/>
<rect x="1249.88" y="417.187" width="3.80952" height="7.61905" transform="rotate(-180 1249.88 417.187)" fill="#3A3A3D"/>
<rect x="1244.2" y="417.187" width="3.80952" height="7.61905" transform="rotate(-180 1244.2 417.187)" fill="#3A3A3D"/>
<rect x="1238.44" y="417.187" width="3.80952" height="7.61905" transform="rotate(-180 1238.44 417.187)" fill="#3A3A3D"/>
<rect x="1232.75" y="417.187" width="3.80952" height="7.61905" transform="rotate(-180 1232.75 417.187)" fill="#3A3A3D"/>
<rect x="1207.91" y="537.187" width="3.80952" height="7.61905" transform="rotate(-90 1207.91 537.187)" fill="#3A3A3D"/>
<rect x="1207.91" y="531.464" width="3.80952" height="7.61905" transform="rotate(-90 1207.91 531.464)" fill="#3A3A3D"/>
<rect x="1207.91" y="525.771" width="3.80952" height="7.61905" transform="rotate(-90 1207.91 525.771)" fill="#3A3A3D"/>
<rect x="1207.91" y="520.048" width="3.80952" height="7.61905" transform="rotate(-90 1207.91 520.048)" fill="#3A3A3D"/>
<rect x="1207.91" y="514.315" width="3.80952" height="7.61905" transform="rotate(-90 1207.91 514.315)" fill="#3A3A3D"/>
<rect x="1207.91" y="508.622" width="3.80952" height="7.61905" transform="rotate(-90 1207.91 508.622)" fill="#3A3A3D"/>
<rect x="1207.91" y="502.899" width="3.80952" height="7.61905" transform="rotate(-90 1207.91 502.899)" fill="#3A3A3D"/>
<rect x="1207.91" y="497.177" width="3.80952" height="7.61905" transform="rotate(-90 1207.91 497.177)" fill="#3A3A3D"/>
<rect x="1207.91" y="491.483" width="3.80952" height="7.61905" transform="rotate(-90 1207.91 491.483)" fill="#3A3A3D"/>
<rect x="1207.91" y="485.761" width="3.80952" height="7.61905" transform="rotate(-90 1207.91 485.761)" fill="#3A3A3D"/>
<rect x="1207.91" y="480.028" width="3.80952" height="7.61905" transform="rotate(-90 1207.91 480.028)" fill="#3A3A3D"/>
<rect x="1207.91" y="474.345" width="3.80952" height="7.61905" transform="rotate(-90 1207.91 474.345)" fill="#3A3A3D"/>
<rect x="1207.91" y="468.612" width="3.80952" height="7.61905" transform="rotate(-90 1207.91 468.612)" fill="#3A3A3D"/>
<rect x="1207.91" y="462.89" width="3.80952" height="7.61905" transform="rotate(-90 1207.91 462.89)" fill="#3A3A3D"/>
<rect x="1207.91" y="457.196" width="3.80952" height="7.61905" transform="rotate(-90 1207.91 457.196)" fill="#3A3A3D"/>
<rect x="1207.91" y="451.474" width="3.80952" height="7.61905" transform="rotate(-90 1207.91 451.474)" fill="#3A3A3D"/>
<rect x="1207.91" y="445.751" width="3.80952" height="7.61905" transform="rotate(-90 1207.91 445.751)" fill="#3A3A3D"/>
<rect x="1207.91" y="440.058" width="3.80952" height="7.61905" transform="rotate(-90 1207.91 440.058)" fill="#3A3A3D"/>
<rect x="1207.91" y="434.325" width="3.80952" height="7.61905" transform="rotate(-90 1207.91 434.325)" fill="#3A3A3D"/>
<rect x="1345.1" y="537.187" width="3.80952" height="7.61905" transform="rotate(-90 1345.1 537.187)" fill="#3A3A3D"/>
<rect x="1345.1" y="531.464" width="3.80952" height="7.61905" transform="rotate(-90 1345.1 531.464)" fill="#3A3A3D"/>
<rect x="1345.1" y="525.771" width="3.80952" height="7.61905" transform="rotate(-90 1345.1 525.771)" fill="#3A3A3D"/>
<rect x="1345.1" y="520.048" width="3.80952" height="7.61905" transform="rotate(-90 1345.1 520.048)" fill="#3A3A3D"/>
<rect x="1345.1" y="514.315" width="3.80952" height="7.61905" transform="rotate(-90 1345.1 514.315)" fill="#3A3A3D"/>
<rect x="1345.1" y="508.622" width="3.80952" height="7.61905" transform="rotate(-90 1345.1 508.622)" fill="#3A3A3D"/>
<rect x="1345.1" y="502.899" width="3.80952" height="7.61905" transform="rotate(-90 1345.1 502.899)" fill="#3A3A3D"/>
<rect x="1345.1" y="497.177" width="3.80952" height="7.61905" transform="rotate(-90 1345.1 497.177)" fill="#3A3A3D"/>
<rect x="1345.1" y="491.483" width="3.80952" height="7.61905" transform="rotate(-90 1345.1 491.483)" fill="#3A3A3D"/>
<rect x="1345.1" y="485.761" width="3.80952" height="7.61905" transform="rotate(-90 1345.1 485.761)" fill="#3A3A3D"/>
<rect x="1345.1" y="480.028" width="3.80952" height="7.61905" transform="rotate(-90 1345.1 480.028)" fill="#3A3A3D"/>
<rect x="1345.1" y="474.345" width="3.80952" height="7.61905" transform="rotate(-90 1345.1 474.345)" fill="#3A3A3D"/>
<rect x="1345.1" y="468.612" width="3.80952" height="7.61905" transform="rotate(-90 1345.1 468.612)" fill="#3A3A3D"/>
<rect x="1345.1" y="462.89" width="3.80952" height="7.61905" transform="rotate(-90 1345.1 462.89)" fill="#3A3A3D"/>
<rect x="1345.1" y="457.196" width="3.80952" height="7.61905" transform="rotate(-90 1345.1 457.196)" fill="#3A3A3D"/>
<rect x="1345.1" y="451.474" width="3.80952" height="7.61905" transform="rotate(-90 1345.1 451.474)" fill="#3A3A3D"/>
<rect x="1345.1" y="445.751" width="3.80952" height="7.61905" transform="rotate(-90 1345.1 445.751)" fill="#3A3A3D"/>
<rect x="1345.1" y="440.058" width="3.80952" height="7.61905" transform="rotate(-90 1345.1 440.058)" fill="#3A3A3D"/>
<rect x="1345.1" y="434.325" width="3.80952" height="7.61905" transform="rotate(-90 1345.1 434.325)" fill="#3A3A3D"/>
<rect x="800.428" y="759.99" width="38.0952" height="32.3809" transform="rotate(-180 800.428 759.99)" fill="#3A3A3D"/>
<rect x="608.045" y="748.573" width="47.619" height="47.619" transform="rotate(-180 608.045 748.573)" fill="#3A3A3D"/>
<rect x="221.404" y="432.411" width="30.4762" height="62.8571" rx="4.44445" transform="rotate(-180 221.404 432.411)" fill="#1864AE"/>
<rect x="219.529" y="430.507" width="26.6667" height="7.61905" transform="rotate(-180 219.529 430.507)" fill="white"/>
<rect x="219.529" y="379.071" width="26.6667" height="7.61905" transform="rotate(-180 219.529 379.071)" fill="white"/>
<path d="M196.619 416.88L208.101 416.88C209.425 416.88 210.417 416.611 211.079 416.073C211.723 415.536 212.045 414.637 212.045 413.376C212.045 412.116 211.723 411.216 211.079 410.679C210.417 410.141 209.425 409.872 208.101 409.872L196.619 409.872L196.619 405.757L207.672 405.757C209.049 405.757 210.248 405.896 211.267 406.174C212.269 406.434 213.1 406.869 213.762 407.481C214.406 408.093 214.889 408.881 215.211 409.845C215.515 410.809 215.667 411.986 215.667 413.376C215.667 414.766 215.515 415.944 215.211 416.908C214.889 417.871 214.406 418.659 213.762 419.271C213.1 419.883 212.269 420.328 211.267 420.606C210.248 420.865 209.049 420.995 207.672 420.995L196.619 420.995L196.619 416.88Z" fill="white"/>
<path d="M1174.59 659.268L1174.59 649.022L1167.52 649.022L1167.52 659.268L1174.59 659.268Z" fill="#666666"/>
<path d="M1160.99 659.307L1160.99 649.062L1153.92 649.062L1153.92 659.307L1160.99 659.307Z" fill="#666666"/>
<path d="M1146.21 659.268L1146.21 649.022L1139.14 649.022L1139.14 659.268L1146.21 659.268Z" fill="#666666"/>
<path d="M1245.51 659.571L1245.51 649.325L1238.43 649.325L1238.43 659.571L1245.51 659.571Z" fill="#666666"/>
<path d="M1260.97 659.102L1260.97 648.856L1253.9 648.856L1253.9 659.102L1260.97 659.102Z" fill="#666666"/>
<path d="M1188.46 659.502L1188.46 649.257L1181.38 649.257L1181.38 659.502L1188.46 659.502Z" fill="#666666"/>
<path d="M1202.19 659.2L1202.19 648.954L1195.11 648.954L1195.11 659.2L1202.19 659.2Z" fill="#666666"/>
<path d="M1216.25 659.102L1216.25 648.856L1209.17 648.856L1209.17 659.102L1216.25 659.102Z" fill="#666666"/>
<path d="M1230.04 659.366L1230.04 649.12L1222.96 649.12L1222.96 659.366L1230.04 659.366Z" fill="#666666"/>
<path opacity="0.94" d="M1279.94 744.991L1279.94 719.843L1272.87 719.843L1272.87 744.991L1279.94 744.991Z" fill="#666666"/>
<path d="M1127.85 787.388L1127.85 656.757L1270.01 656.757L1270.01 787.389L1127.85 787.388Z" fill="#B3B3B3"/>
<path d="M1280.47 697.14L1280.47 671.991L1273.39 671.991L1273.39 697.14L1280.47 697.14Z" fill="#666666"/>
<path d="M1126.19 697.071L1126.19 671.923L1119.12 671.923L1119.12 697.071L1126.19 697.071Z" fill="#666666"/>
<path d="M1248.36 657.694L1248.36 670.036L1235.81 670.036L1235.81 657.694L1232.39 657.694L1232.39 661.886L1167.58 661.886L1167.58 657.694L1163.48 657.694L1163.48 670.036L1150.93 670.036L1150.93 657.694L1125.37 657.694L1125.37 788.326L1274.6 788.326L1274.6 657.694L1248.36 657.694Z" fill="#E6E6E6"/>
<path d="M1125.64 744.522L1125.64 719.374L1118.57 719.374L1118.57 744.522L1125.64 744.522Z" fill="#666666"/>
<path opacity="0.94" d="M1136.5 786.563L1136.5 652.206L1126.69 652.206L1126.69 786.563L1136.5 786.563Z" fill="#F2F2F2"/>
<path opacity="0.94" d="M1275.37 792.389L1275.37 652.909L1270.58 652.909L1270.58 792.389L1275.37 792.389Z" fill="#999999"/>
<path opacity="0.94" d="M1130.39 780.644L1270.49 780.644C1273.46 780.644 1275.51 782.972 1275.51 785.766L1275.51 785.999C1275.51 789.026 1273.23 791.122 1270.49 791.122L1130.39 791.122C1127.42 791.122 1125.37 788.793 1125.37 785.999L1125.37 785.766C1125.37 782.972 1127.65 780.644 1130.39 780.644Z" fill="#B3B3B3"/>
<path opacity="0.94" d="M1156.99 784.698L1156.99 780.507L1154.94 780.507L1154.94 784.698L1156.99 784.698Z" fill="#DECD87"/>
<path opacity="0.94" d="M1258.16 784.737L1258.16 780.546L1256.11 780.546L1256.11 784.737L1258.16 784.737Z" fill="#DECD87"/>
<path opacity="0.94" d="M1145 784.532L1145 780.341L1142.94 780.341L1142.94 784.532L1145 784.532Z" fill="#DECD87"/>
<path opacity="0.94" d="M1168.24 784.602L1168.24 780.41L1166.19 780.41L1166.19 784.602L1168.24 784.602Z" fill="#DECD87"/>
<path opacity="0.94" d="M1179.22 784.864L1179.22 780.673L1177.16 780.673L1177.16 784.864L1179.22 784.864Z" fill="#DECD87"/>
<path opacity="0.94" d="M1189.72 784.63L1189.72 780.438L1187.67 780.438L1187.67 784.63L1189.72 784.63Z" fill="#DECD87"/>
<path opacity="0.94" d="M1199.98 784.698L1199.98 780.507L1197.93 780.507L1197.93 784.698L1199.98 784.698Z" fill="#DECD87"/>
<path opacity="0.94" d="M1210.57 784.602L1210.57 780.41L1208.51 780.41L1208.51 784.602L1210.57 784.602Z" fill="#DECD87"/>
<path opacity="0.94" d="M1222.48 784.864L1222.48 780.673L1220.42 780.673L1220.42 784.864L1222.48 784.864Z" fill="#DECD87"/>
<path opacity="0.94" d="M1234.67 784.435L1234.67 780.243L1232.61 780.243L1232.61 784.435L1234.67 784.435Z" fill="#DECD87"/>
<path opacity="0.94" d="M1247.46 784.737L1247.46 780.546L1245.41 780.546L1245.41 784.737L1247.46 784.737Z" fill="#DECD87"/>
<path opacity="0.94" d="M1150.76 791.495L1150.76 787.304L1148.71 787.304L1148.71 791.495L1150.76 791.495Z" fill="#DECD87"/>
<path opacity="0.94" d="M1162.21 791.466L1162.21 787.274L1160.15 787.274L1160.15 791.466L1162.21 791.466Z" fill="#DECD87"/>
<path opacity="0.94" d="M1174 791.593L1174 787.401L1171.95 787.401L1171.95 791.593L1174 791.593Z" fill="#DECD87"/>
<path opacity="0.94" d="M1184.31 791.593L1184.31 787.401L1182.26 787.401L1182.26 791.593L1184.31 791.593Z" fill="#DECD87"/>
<path opacity="0.94" d="M1194.74 791.563L1194.74 787.372L1192.69 787.372L1192.69 791.563L1194.74 791.563Z" fill="#DECD87"/>
<path opacity="0.94" d="M1205.53 791.7L1205.53 787.509L1203.47 787.509L1203.47 791.7L1205.53 791.7Z" fill="#DECD87"/>
<path opacity="0.94" d="M1216.85 791.729L1216.85 787.538L1214.8 787.538L1214.8 791.729L1216.85 791.729Z" fill="#DECD87"/>
<path opacity="0.94" d="M1228.96 791.799L1228.96 787.607L1226.91 787.607L1226.91 791.799L1228.96 791.799Z" fill="#DECD87"/>
<path opacity="0.94" d="M1241.29 791.593L1241.29 787.401L1239.23 787.401L1239.23 791.593L1241.29 791.593Z" fill="#DECD87"/>
<path opacity="0.94" d="M1265.47 791.593L1265.47 787.401L1263.41 787.401L1263.41 791.593L1265.47 791.593Z" fill="#DECD87"/>
<path opacity="0.94" d="M1252.81 791.563L1252.81 787.372L1250.76 787.372L1250.76 791.563L1252.81 791.563Z" fill="#DECD87"/>
<path opacity="0.94" d="M1138.85 791.729L1138.85 787.538L1136.79 787.538L1136.79 791.729L1138.85 791.729Z" fill="#DECD87"/>
<path d="M434.385 663.311L439.803 663.311L439.803 654.966L434.385 654.966L434.385 663.311Z" fill="#4E4D4D"/>
<path d="M427.295 663.311L432.713 663.311L432.713 654.966L427.295 654.966L427.295 663.311Z" fill="#4E4D4D"/>
<path d="M420.127 663.311L425.545 663.311L425.545 654.966L420.127 654.966L420.127 663.311Z" fill="#4E4D4D"/>
<path d="M413.018 663.311L418.436 663.311L418.436 654.966L413.018 654.966L413.018 663.311Z" fill="#4E4D4D"/>
<path d="M405.928 663.311L411.346 663.311L411.346 654.966L405.928 654.966L405.928 663.311Z" fill="#4E4D4D"/>
<path d="M398.76 663.311L404.178 663.311L404.178 654.966L398.76 654.966L398.76 663.311Z" fill="#4E4D4D"/>
<path d="M391.67 663.311L397.088 663.311L397.088 654.966L391.67 654.966L391.67 663.311Z" fill="#4E4D4D"/>
<path d="M384.561 663.311L389.979 663.311L389.979 654.966L384.561 654.966L384.561 663.311Z" fill="#4E4D4D"/>
<path d="M377.393 663.311L382.811 663.311L382.811 654.966L377.393 654.966L377.393 663.311Z" fill="#4E4D4D"/>
<path d="M370.303 663.105L375.721 663.105L375.721 654.761L370.303 654.761L370.303 663.105Z" fill="#4E4D4D"/>
<path d="M349.182 794.316L459.529 794.316L459.529 662.797L349.182 662.797L349.182 794.316Z" fill="#B4B3B3"/>
<path d="M349.797 784.844L459.334 784.844L459.334 671.757L349.797 671.757L349.797 784.844Z" fill="#B6371E"/>
<path d="M414.389 698.857L439.236 698.857L439.236 672.641L414.389 672.641L414.389 674.882L432.635 676.937L432.635 695.183L414.701 696.74L414.389 698.857Z" fill="#404041"/>
<path d="M393.709 672.641L368.862 672.641L368.862 698.857L393.709 698.857L393.709 696.616L375.401 694.498L375.401 676.252L393.335 674.696L393.709 672.641Z" fill="#404041"/>
<path d="M423.179 767.96L434.139 767.96L434.139 765.78L423.179 765.78L423.179 767.96Z" fill="#666767"/>
<path d="M444.256 714.855C444.256 713.112 442.512 713.05 442.512 713.05L440.769 713.05C438.776 713.236 438.589 714.855 438.589 714.855L432.922 771.274C432.798 772.458 431.801 773.392 430.618 773.392L426.384 773.392C425.2 773.392 424.204 772.52 424.08 771.274L418.413 714.918C418.101 713.05 416.233 712.987 416.233 712.987L414.49 712.987C412.621 713.112 412.746 714.793 412.746 714.793L420.219 781.923C420.343 783.169 421.402 784.103 422.647 784.103L434.355 784.103C435.6 784.103 436.659 783.169 436.845 781.923L444.256 714.855Z" fill="#404041"/>
<path d="M372.612 767.96L383.572 767.96L383.572 765.78L372.612 765.78L372.612 767.96Z" fill="#666767"/>
<path d="M393.689 714.855C393.689 713.112 391.946 713.05 391.946 713.05L390.202 713.05C388.209 713.236 388.023 714.855 388.023 714.855L382.356 771.274C382.231 772.458 381.235 773.392 380.052 773.392L375.817 773.392C374.634 773.392 373.638 772.52 373.513 771.274L367.846 714.918C367.535 713.05 365.667 712.987 365.667 712.987L363.923 712.987C362.055 713.112 362.18 714.793 362.18 714.793L369.652 781.923C369.777 783.169 370.835 784.103 372.081 784.103L383.788 784.103C385.034 784.103 386.092 783.169 386.279 781.923L393.689 714.855Z" fill="#404041"/>
<path d="M880.715 800L1040.06 800L1040.06 653.333L1023.76 653.333L1020.14 658.765L900.633 658.765L897.011 653.333L880.715 653.333L880.715 800Z" fill="#E6E6E6"/>
<path d="M944.992 700.42L979.395 700.42C980.301 700.42 982.111 699.877 982.111 697.704C982.111 695.531 980.301 694.384 979.395 694.082L969.436 694.082C968.229 693.781 965.815 692.272 965.815 688.65C965.815 685.029 967.626 682.916 968.531 682.313L1014.7 682.313C1015.61 682.313 1017.42 681.589 1017.42 678.692C1017.42 675.794 1015.61 674.467 1014.7 674.165L909.683 674.165C908.778 674.467 906.967 675.794 906.967 678.692C906.967 681.589 908.778 682.313 909.683 682.313L955.856 682.313C956.46 682.615 957.667 684.124 957.667 687.745C957.667 691.366 956.46 693.479 955.856 694.082L944.992 694.082C944.087 694.384 942.276 695.531 942.276 697.704C942.276 699.877 944.087 700.42 944.992 700.42Z" fill="#3A3A3D"/>
<rect x="891.541" y="800" width="10.8642" height="146.667" transform="rotate(-180 891.541 800)" fill="#D9D9D9"/>
<rect x="1040.08" y="800" width="10.8642" height="146.667" transform="rotate(-180 1040.08 800)" fill="#D9D9D9"/>
<rect x="1011.05" y="676.864" width="3.6214" height="2.71605" transform="rotate(-180 1011.05 676.864)" fill="#E3BFA7"/>
<rect x="1003.83" y="676.864" width="3.6214" height="2.71605" transform="rotate(-180 1003.83 676.864)" fill="#E3BFA7"/>
<rect x="996.58" y="676.864" width="3.6214" height="2.71605" transform="rotate(-180 996.58 676.864)" fill="#E3BFA7"/>
<rect x="989.354" y="676.864" width="3.6214" height="2.71605" transform="rotate(-180 989.354 676.864)" fill="#E3BFA7"/>
<rect x="982.049" y="676.864" width="3.6214" height="2.71605" transform="rotate(-180 982.049 676.864)" fill="#E3BFA7"/>
<rect x="974.822" y="676.864" width="3.6214" height="2.71605" transform="rotate(-180 974.822 676.864)" fill="#E3BFA7"/>
<rect x="967.596" y="676.864" width="3.6214" height="2.71605" transform="rotate(-180 967.596 676.864)" fill="#E3BFA7"/>
<rect x="960.369" y="676.864" width="3.6214" height="2.71605" transform="rotate(-180 960.369 676.864)" fill="#E3BFA7"/>
<rect x="953.123" y="676.864" width="3.6214" height="2.71605" transform="rotate(-180 953.123 676.864)" fill="#E3BFA7"/>
<rect x="945.896" y="676.864" width="3.6214" height="2.71605" transform="rotate(-180 945.896 676.864)" fill="#E3BFA7"/>
<rect x="938.592" y="676.864" width="3.6214" height="2.71605" transform="rotate(-180 938.592 676.864)" fill="#E3BFA7"/>
<rect x="931.365" y="676.864" width="3.6214" height="2.71605" transform="rotate(-180 931.365 676.864)" fill="#E3BFA7"/>
<rect x="924.139" y="676.864" width="3.6214" height="2.71605" transform="rotate(-180 924.139 676.864)" fill="#E3BFA7"/>
<rect x="916.893" y="676.864" width="3.6214" height="2.71605" transform="rotate(-180 916.893 676.864)" fill="#E3BFA7"/>
</svg>
