<svg width="1580" height="1001" viewBox="0 0 1580 1001" fill="none" xmlns="http://www.w3.org/2000/svg">
<path d="M633.483 667.165H566.816V700.793H633.483V667.165Z" fill="white"/>
<path d="M615.777 700.793H582.148V717.312H615.777V700.793Z" fill="#596764"/>
<path d="M775.085 667.165H708.418V700.793H775.085V667.165Z" fill="white"/>
<path d="M764.449 700.207H730.82V716.726H764.449V700.207Z" fill="#596764"/>
<path fill-rule="evenodd" clip-rule="evenodd" d="M289.528 200.5H1293.07C1314.9 200.5 1332.6 218.199 1332.6 240.028V746.223C1332.6 768.052 1314.9 785.751 1293.07 785.751H289.528C267.699 785.751 250 768.052 250 746.223V240.028C250.59 218.199 268.289 200.5 289.528 200.5Z" fill="#008066"/>
<path fill-rule="evenodd" clip-rule="evenodd" d="M311.95 243.565C311.95 253.594 303.691 261.854 293.661 262.444C283.632 262.444 274.782 254.774 274.192 244.745C273.602 234.715 281.272 225.865 291.301 225.276C301.331 224.686 310.18 231.765 311.36 241.795" fill="white"/>
<path d="M293.06 201.682C270.051 201.682 251.172 220.561 251.172 243.57C251.172 266.578 270.051 285.458 293.06 285.458C316.069 285.458 334.948 266.578 334.948 243.57C334.948 220.561 316.069 201.682 293.06 201.682ZM293.06 262.449C283.03 262.449 274.771 254.189 274.771 244.16C274.771 234.13 283.03 225.87 293.06 225.87C303.089 225.87 311.349 234.13 311.349 244.16C311.349 254.189 303.089 262.449 293.06 262.449Z" fill="#B8AF82"/>
<path d="M293.079 702.111C270.07 702.111 251.191 720.99 251.191 743.999C251.191 767.008 270.07 785.887 293.079 785.887C316.088 785.887 334.967 767.008 334.967 743.999C334.967 720.99 316.088 702.111 293.079 702.111ZM293.079 762.878C283.05 762.878 274.79 754.619 274.79 744.589C274.79 734.56 283.05 726.3 293.079 726.3C303.109 726.3 311.368 734.56 311.368 744.589C311.368 754.619 303.109 762.878 293.079 762.878Z" fill="#B8AF82"/>
<path fill-rule="evenodd" clip-rule="evenodd" d="M311.95 744.453C311.95 754.483 303.691 762.742 293.661 763.332C283.632 763.332 274.782 755.663 274.192 745.633C273.602 735.604 281.272 726.754 291.301 726.164C301.331 725.574 310.18 732.654 311.36 742.683" fill="white"/>
<path d="M1289.52 701.384C1266.52 701.384 1247.64 720.263 1247.64 743.272C1247.64 766.281 1266.52 785.16 1289.52 785.16C1312.53 785.16 1331.41 766.281 1331.41 743.272C1330.82 720.263 1312.53 701.384 1289.52 701.384ZM1289.52 761.561C1279.5 761.561 1271.24 753.301 1271.24 743.272C1271.24 733.242 1279.5 724.983 1289.52 724.983C1299.55 724.983 1307.81 733.242 1307.81 743.272C1307.81 753.301 1299.55 761.561 1289.52 761.561Z" fill="#B8AF82"/>
<path fill-rule="evenodd" clip-rule="evenodd" d="M1307.81 743.271C1307.81 753.3 1299.55 761.56 1289.52 762.15C1279.49 762.74 1270.64 754.48 1270.05 744.451C1269.46 734.421 1277.13 725.572 1287.16 724.982C1297.19 724.392 1306.04 731.471 1307.22 741.501" fill="white"/>
<path d="M1289.52 202.272C1266.52 202.272 1247.64 221.152 1247.64 244.16C1247.64 267.169 1266.52 286.048 1289.52 286.048C1312.53 286.048 1331.41 267.169 1331.41 244.16C1331.41 220.562 1313.12 202.272 1289.52 202.272ZM1289.52 262.45C1279.5 262.45 1271.24 254.19 1271.24 244.16C1271.24 234.131 1279.5 225.871 1289.52 225.871C1299.55 225.871 1307.81 234.131 1307.81 244.16C1308.4 254.19 1300.14 262.45 1289.52 262.45Z" fill="#B8AF82"/>
<path fill-rule="evenodd" clip-rule="evenodd" d="M1308.42 244.155C1308.42 254.185 1300.16 262.445 1290.13 263.035C1280.1 263.035 1271.25 255.365 1270.66 245.335C1270.07 235.306 1277.74 226.456 1287.77 225.866C1297.8 225.276 1306.65 232.356 1307.83 242.386" fill="white"/>
<path d="M412.14 269.432V238.004L402.982 229.055H379.255L370.098 238.004V269.432" fill="#3C4442"/>
<path d="M412.14 269.431V300.858L402.982 309.808H379.255L370.098 300.858V269.431" fill="#3C4442"/>
<path d="M454.386 269.432V238.004L445.228 229.055H421.501L412.344 238.004V269.432" fill="#404040"/>
<path d="M454.386 269.431V300.858L445.228 309.808H421.501L412.344 300.858V269.431" fill="#3C4442"/>
<path d="M496.437 269.432V238.004L487.279 229.055H463.552L454.395 238.004V269.432" fill="#404040"/>
<path d="M496.437 269.431V300.858L487.279 309.808H463.552L454.395 300.858V269.431" fill="#3C4442"/>
<path d="M538.676 269.432V238.004L529.518 229.055H505.583L496.426 238.004V269.432" fill="#3C4442"/>
<path d="M538.676 269.431V300.858L529.518 309.808H505.583L496.426 300.858V269.431" fill="#3C4442"/>
<path d="M580.733 269.432V238.004L571.576 229.055H547.849L538.691 238.004V269.432" fill="#3C4442"/>
<path d="M580.733 269.431V300.858L571.576 309.808H547.849L538.691 300.858V269.431" fill="#404040"/>
<path d="M622.979 269.432V238.004L613.822 229.055H590.095L580.938 238.004V269.432" fill="#3C4442"/>
<path d="M622.979 269.431V300.858L613.822 309.808H590.095L580.938 300.858V269.431" fill="#3C4442"/>
<path d="M665.011 269.432V238.004L655.853 229.055H632.126L622.969 238.004V269.432" fill="#404040"/>
<path d="M665.011 269.431V300.858L655.853 309.808H632.126L622.969 300.858V269.431" fill="#3C4442"/>
<path d="M707.27 269.432V238.004L698.112 229.055H674.177L665.02 238.004V269.432" fill="#3C4442"/>
<path d="M707.27 269.431V300.858L698.112 309.808H674.177L665.02 300.858V269.431" fill="#3C4442"/>
<path d="M749.308 269.432V238.004L740.15 229.055H716.423L707.266 238.004V269.432" fill="#3C4442"/>
<path d="M749.308 269.431V300.858L740.15 309.808H716.423L707.266 300.858V269.431" fill="#3C4442"/>
<path d="M791.567 269.432V238.004L782.409 229.055H758.474L749.316 238.004V269.432" fill="#404040"/>
<path d="M791.567 269.431V300.858L782.409 309.808H758.474L749.316 300.858V269.431" fill="#3C4442"/>
<path d="M833.604 269.432V238.004L824.447 229.055H800.72L791.562 238.004V269.432" fill="#3C4442"/>
<path d="M833.604 269.431V300.858L824.447 309.808H800.72L791.562 300.858V269.431" fill="#3C4442"/>
<path d="M875.844 269.432V238.004L866.686 229.055H842.751L833.594 238.004V269.432" fill="#3C4442"/>
<path d="M875.844 269.431V300.858L866.686 309.808H842.751L833.594 300.858V269.431" fill="#3C4442"/>
<path d="M917.901 269.432V238.004L908.744 229.055H885.017L875.859 238.004V269.432" fill="#3C4442"/>
<path d="M917.901 269.431V300.858L908.744 309.808H885.017L875.859 300.858V269.431" fill="#404040"/>
<path d="M960.147 269.432V238.004L950.99 229.055H927.263L918.105 238.004V269.432" fill="#3C4442"/>
<path d="M960.147 269.431V300.858L950.99 309.808H927.263L918.105 300.858V269.431" fill="#3C4442"/>
<path d="M1002.18 269.432V238.004L993.021 229.055H969.294L960.137 238.004V269.432" fill="#404040"/>
<path d="M1002.18 269.431V300.858L993.021 309.808H969.294L960.137 300.858V269.431" fill="#3C4442"/>
<path d="M1044.44 269.432V238.004L1035.28 229.055H1011.35L1002.19 238.004V269.432" fill="#3C4442"/>
<path d="M1044.44 269.431V300.858L1035.28 309.808H1011.35L1002.19 300.858V269.431" fill="#3C4442"/>
<path d="M1086.48 269.432V238.004L1077.32 229.055H1053.59L1044.43 238.004V269.432" fill="#404040"/>
<path d="M1086.48 269.431V300.858L1077.32 309.808H1053.59L1044.43 300.858V269.431" fill="#3C4442"/>
<path d="M1128.72 269.432V238.004L1119.56 229.055H1095.84L1086.68 238.004V269.432" fill="#3C4442"/>
<path d="M1128.72 269.431V300.858L1119.56 309.808H1095.84L1086.68 300.858V269.431" fill="#3C4442"/>
<path d="M1170.77 269.432V238.004L1161.61 229.055H1137.89L1128.73 238.004V269.432" fill="#3C4442"/>
<path d="M1170.77 269.431V300.858L1161.61 309.808H1137.89L1128.73 300.858V269.431" fill="#3C4442"/>
<path d="M1213.01 269.432V238.004L1203.85 229.055H1179.92L1170.76 238.004V269.432" fill="#3C4442"/>
<path d="M1213.01 269.431V300.858L1203.85 309.808H1179.92L1170.76 300.858V269.431" fill="#404040"/>
<path d="M394.036 245.08H387.168V251.948H394.036V245.08Z" fill="#8C8663"/>
<path d="M383.828 241.75V255.278L387.158 251.948V245.08L383.828 241.75Z" fill="#B8AF82"/>
<path d="M397.356 241.75L394.026 245.08H387.158L383.828 241.75H397.356Z" fill="#80795B"/>
<path d="M397.373 255.278L394.043 251.948V245.08L397.373 241.75V255.278Z" fill="#5E5B43"/>
<path d="M383.828 255.28L387.158 251.95H394.026L397.356 255.28H383.828Z" fill="#9A916C"/>
<path d="M394.036 287.331H387.168V294.407H394.036V287.331Z" fill="#8C8663"/>
<path d="M383.828 284.211V297.739L387.158 294.409V287.541L383.828 284.211Z" fill="#B8AF82"/>
<path d="M397.356 284.211L394.026 287.541H387.158L383.828 284.211H397.356Z" fill="#80795B"/>
<path d="M397.373 297.739L394.043 294.409V287.541L397.373 284.211V297.739Z" fill="#5E5B43"/>
<path d="M394.026 294.406L397.356 297.736H383.828L387.158 294.406H394.026Z" fill="#9A916C"/>
<path d="M436.282 245.08H429.414V251.948H436.282V245.08Z" fill="#8C8663"/>
<path d="M429.424 251.948V245.08L426.094 241.75V255.278L429.424 251.948Z" fill="#B8AF82"/>
<path d="M429.424 245.08L426.094 241.75H439.622L436.292 245.08H429.424Z" fill="#80795B"/>
<path d="M436.289 245.08L439.619 241.75V255.278L436.289 251.948V245.08Z" fill="#5E5B43"/>
<path d="M436.292 251.945L439.622 255.275H426.094L429.424 251.945H436.292Z" fill="#9A916C"/>
<path d="M436.282 287.331H429.414V294.407H436.282V287.331Z" fill="#8C8663"/>
<path d="M429.424 294.409V287.541L426.094 284.211V297.739L429.424 294.409Z" fill="#B8AF82"/>
<path d="M429.424 287.541L426.094 284.211H439.622L436.292 287.541H429.424Z" fill="#80795B"/>
<path d="M436.289 287.541L439.619 284.211V297.739L436.289 294.409V287.541Z" fill="#5E5B43"/>
<path d="M426.094 297.736L429.424 294.406H436.292L439.622 297.736H426.094Z" fill="#9A916C"/>
<path d="M478.333 245.08H471.465V251.948H478.333V245.08Z" fill="#8C8663"/>
<path d="M471.462 251.948V245.08L468.34 241.75V255.278L471.462 251.948Z" fill="#B8AF82"/>
<path d="M471.462 245.08L468.34 241.75H481.66L478.538 245.08H471.462Z" fill="#80795B"/>
<path d="M478.535 245.08L481.657 241.75V255.278L478.535 251.948V245.08Z" fill="#5E5B43"/>
<path d="M478.538 251.945L481.66 255.275H468.34L471.462 251.945H478.538Z" fill="#9A916C"/>
<path d="M478.333 287.331H471.465V294.407H478.333V287.331Z" fill="#8C8663"/>
<path d="M471.462 294.409V287.541L468.34 284.211V297.739L471.462 294.409Z" fill="#B8AF82"/>
<path d="M471.462 287.541L468.34 284.211H481.66L478.538 287.541H471.462Z" fill="#80795B"/>
<path d="M478.535 287.541L481.657 284.211V297.739L478.535 294.409V287.541Z" fill="#5E5B43"/>
<path d="M468.34 297.736L471.462 294.406H478.538L481.66 297.736H468.34Z" fill="#9A916C"/>
<path d="M520.579 245.08H513.711V251.948H520.579V245.08Z" fill="#8C8663"/>
<path d="M513.701 251.948V245.08L510.371 241.75V255.278L513.701 251.948Z" fill="#B8AF82"/>
<path d="M513.701 245.08L510.371 241.75H523.899L520.569 245.08H513.701Z" fill="#80795B"/>
<path d="M520.566 245.08L523.896 241.75V255.278L520.566 251.948V245.08Z" fill="#5E5B43"/>
<path d="M520.569 251.945L523.899 255.275H510.371L513.701 251.945H520.569Z" fill="#9A916C"/>
<path d="M520.579 287.331H513.711V294.407H520.579V287.331Z" fill="#8C8663"/>
<path d="M513.701 294.409V287.541L510.371 284.211V297.739L513.701 294.409Z" fill="#B8AF82"/>
<path d="M513.701 287.541L510.371 284.211H523.899L520.569 287.541H513.701Z" fill="#80795B"/>
<path d="M520.566 287.541L523.896 284.211V297.739L520.566 294.409V287.541Z" fill="#5E5B43"/>
<path d="M510.371 297.736L513.701 294.406H520.569L523.899 297.736H510.371Z" fill="#9A916C"/>
<path d="M562.61 245.08H555.742V251.948H562.61V245.08Z" fill="#8C8663"/>
<path d="M555.739 251.948V245.08L552.617 241.75V255.278L555.739 251.948Z" fill="#B8AF82"/>
<path d="M555.739 245.08L552.617 241.75H565.937L562.815 245.08H555.739Z" fill="#80795B"/>
<path d="M562.812 245.08L565.934 241.75V255.278L562.812 251.948V245.08Z" fill="#5E5B43"/>
<path d="M562.815 251.945L565.937 255.275H552.617L555.739 251.945H562.815Z" fill="#9A916C"/>
<path d="M562.61 287.331H555.742V294.407H562.61V287.331Z" fill="#8C8663"/>
<path d="M555.739 294.409V287.541L552.617 284.211V297.739L555.739 294.409Z" fill="#B8AF82"/>
<path d="M555.739 287.541L552.617 284.211H565.937L562.815 287.541H555.739Z" fill="#80795B"/>
<path d="M562.812 287.541L565.934 284.211V297.739L562.812 294.409V287.541Z" fill="#5E5B43"/>
<path d="M552.617 297.736L555.739 294.406H562.815L565.937 297.736H552.617Z" fill="#9A916C"/>
<path d="M604.857 245.08H597.988V251.948H604.857V245.08Z" fill="#8C8663"/>
<path d="M597.998 251.948V245.08L594.668 241.75V255.278L597.998 251.948Z" fill="#B8AF82"/>
<path d="M597.998 245.08L594.668 241.75H608.196L604.866 245.08H597.998Z" fill="#80795B"/>
<path d="M604.863 245.08L608.193 241.75V255.278L604.863 251.948V245.08Z" fill="#5E5B43"/>
<path d="M604.866 251.945L608.196 255.275H594.668L597.998 251.945H604.866Z" fill="#9A916C"/>
<path d="M604.857 287.331H597.988V294.407H604.857V287.331Z" fill="#8C8663"/>
<path d="M597.998 294.409V287.541L594.668 284.211V297.739L597.998 294.409Z" fill="#B8AF82"/>
<path d="M597.998 287.541L594.668 284.211H608.196L604.866 287.541H597.998Z" fill="#80795B"/>
<path d="M604.863 287.541L608.193 284.211V297.739L604.863 294.409V287.541Z" fill="#5E5B43"/>
<path d="M594.668 297.736L597.998 294.406H604.866L608.196 297.736H594.668Z" fill="#9A916C"/>
<path d="M646.907 245.08H640.039V251.948H646.907V245.08Z" fill="#8C8663"/>
<path d="M636.914 241.75V255.278L640.036 251.948V245.08L636.914 241.75Z" fill="#B8AF82"/>
<path d="M650.234 241.75L647.112 245.08H640.036L636.914 241.75H650.234Z" fill="#80795B"/>
<path d="M650.231 255.278L647.109 251.948V245.08L650.231 241.75V255.278Z" fill="#5E5B43"/>
<path d="M636.914 255.275L640.036 251.945H647.112L650.234 255.275H636.914Z" fill="#9A916C"/>
<path d="M646.907 287.331H640.039V294.407H646.907V287.331Z" fill="#8C8663"/>
<path d="M636.914 284.211V297.739L640.036 294.409V287.541L636.914 284.211Z" fill="#B8AF82"/>
<path d="M650.234 284.211L647.112 287.541H640.036L636.914 284.211H650.234Z" fill="#80795B"/>
<path d="M650.231 297.739L647.109 294.409V287.541L650.231 284.211V297.739Z" fill="#5E5B43"/>
<path d="M647.112 294.406L650.234 297.736H636.914L640.036 294.406H647.112Z" fill="#9A916C"/>
<path d="M689.173 245.08H682.305V251.948H689.173V245.08Z" fill="#8C8663"/>
<path d="M678.965 241.75V255.278L682.295 251.948V245.08L678.965 241.75Z" fill="#B8AF82"/>
<path d="M692.493 241.75L689.163 245.08H682.295L678.965 241.75H692.493Z" fill="#80795B"/>
<path d="M692.49 255.278L689.16 251.948V245.08L692.49 241.75V255.278Z" fill="#5E5B43"/>
<path d="M678.965 255.275L682.295 251.945H689.163L692.493 255.275H678.965Z" fill="#9A916C"/>
<path d="M689.173 287.331H682.305V294.407H689.173V287.331Z" fill="#8C8663"/>
<path d="M678.965 284.211V297.739L682.295 294.409V287.541L678.965 284.211Z" fill="#B8AF82"/>
<path d="M692.493 284.211L689.163 287.541H682.295L678.965 284.211H692.493Z" fill="#80795B"/>
<path d="M692.49 297.739L689.16 294.409V287.541L692.49 284.211V297.739Z" fill="#5E5B43"/>
<path d="M689.163 294.406L692.493 297.736H678.965L682.295 294.406H689.163Z" fill="#9A916C"/>
<path d="M731.204 245.08H724.336V251.948H731.204V245.08Z" fill="#8C8663"/>
<path d="M724.333 251.948V245.08L721.211 241.75V255.278L724.333 251.948Z" fill="#B8AF82"/>
<path d="M724.333 245.08L721.211 241.75H734.531L731.409 245.08H724.333Z" fill="#80795B"/>
<path d="M731.406 245.08L734.528 241.75V255.278L731.406 251.948V245.08Z" fill="#5E5B43"/>
<path d="M731.409 251.945L734.531 255.275H721.211L724.333 251.945H731.409Z" fill="#9A916C"/>
<path d="M731.204 287.331H724.336V294.407H731.204V287.331Z" fill="#8C8663"/>
<path d="M724.333 294.409V287.541L721.211 284.211V297.739L724.333 294.409Z" fill="#B8AF82"/>
<path d="M724.333 287.541L721.211 284.211H734.531L731.409 287.541H724.333Z" fill="#80795B"/>
<path d="M731.406 287.541L734.528 284.211V297.739L731.406 294.409V287.541Z" fill="#5E5B43"/>
<path d="M721.211 297.736L724.333 294.406H731.409L734.531 297.736H721.211Z" fill="#9A916C"/>
<path d="M773.45 245.08H766.582V251.948H773.45V245.08Z" fill="#8C8663"/>
<path d="M766.592 251.948V245.08L763.262 241.75V255.278L766.592 251.948Z" fill="#B8AF82"/>
<path d="M766.592 245.08L763.262 241.75H776.79L773.46 245.08H766.592Z" fill="#80795B"/>
<path d="M773.457 245.08L776.787 241.75V255.278L773.457 251.948V245.08Z" fill="#5E5B43"/>
<path d="M773.46 251.945L776.79 255.275H763.262L766.592 251.945H773.46Z" fill="#9A916C"/>
<path d="M773.45 287.331H766.582V294.407H773.45V287.331Z" fill="#8C8663"/>
<path d="M766.592 294.409V287.541L763.262 284.211V297.739L766.592 294.409Z" fill="#B8AF82"/>
<path d="M766.592 287.541L763.262 284.211H776.79L773.46 287.541H766.592Z" fill="#80795B"/>
<path d="M773.457 287.541L776.787 284.211V297.739L773.457 294.409V287.541Z" fill="#5E5B43"/>
<path d="M763.262 297.736L766.592 294.406H773.46L776.79 297.736H763.262Z" fill="#9A916C"/>
<path d="M815.696 245.08H808.828V251.948H815.696V245.08Z" fill="#8C8663"/>
<path d="M808.838 251.948V245.08L805.508 241.75V255.278L808.838 251.948Z" fill="#B8AF82"/>
<path d="M808.838 245.08L805.508 241.75H818.828L815.706 245.08H808.838Z" fill="#80795B"/>
<path d="M815.703 245.08L818.825 241.75V255.278L815.703 251.948V245.08Z" fill="#5E5B43"/>
<path d="M815.706 251.95L818.828 255.28H805.508L808.838 251.95H815.706Z" fill="#9A916C"/>
<path d="M815.696 287.331H808.828V294.407H815.696V287.331Z" fill="#8C8663"/>
<path d="M808.838 294.409V287.541L805.508 284.211V297.739L808.838 294.409Z" fill="#B8AF82"/>
<path d="M808.838 287.541L805.508 284.211H818.828L815.706 287.541H808.838Z" fill="#80795B"/>
<path d="M815.703 287.541L818.825 284.211V297.739L815.703 294.409V287.541Z" fill="#5E5B43"/>
<path d="M805.508 297.736L808.838 294.406H815.706L818.828 297.736H805.508Z" fill="#9A916C"/>
<path d="M857.747 245.08H850.879V251.948H857.747V245.08Z" fill="#8C8663"/>
<path d="M850.869 251.948V245.08L847.539 241.75V255.278L850.869 251.948Z" fill="#B8AF82"/>
<path d="M850.869 245.08L847.539 241.75H861.067L857.737 245.08H850.869Z" fill="#80795B"/>
<path d="M857.734 245.08L861.064 241.75V255.278L857.734 251.948V245.08Z" fill="#5E5B43"/>
<path d="M857.737 251.945L861.067 255.275H847.539L850.869 251.945H857.737Z" fill="#9A916C"/>
<path d="M857.747 287.331H850.879V294.407H857.747V287.331Z" fill="#8C8663"/>
<path d="M850.869 294.409V287.541L847.539 284.211V297.739L850.869 294.409Z" fill="#B8AF82"/>
<path d="M850.869 287.541L847.539 284.211H861.067L857.737 287.541H850.869Z" fill="#80795B"/>
<path d="M857.734 287.541L861.064 284.211V297.739L857.734 294.409V287.541Z" fill="#5E5B43"/>
<path d="M847.539 297.736L850.869 294.406H857.737L861.067 297.736H847.539Z" fill="#9A916C"/>
<path d="M899.974 245.08H893.105V251.948H899.974V245.08Z" fill="#8C8663"/>
<path d="M893.115 251.948V245.08L889.785 241.75V255.278L893.115 251.948Z" fill="#B8AF82"/>
<path d="M893.115 245.08L889.785 241.75H903.314L899.983 245.08H893.115Z" fill="#80795B"/>
<path d="M899.98 245.08L903.311 241.75V255.278L899.98 251.948V245.08Z" fill="#5E5B43"/>
<path d="M899.983 251.945L903.314 255.275H889.785L893.115 251.945H899.983Z" fill="#9A916C"/>
<path d="M899.974 287.331H893.105V294.407H899.974V287.331Z" fill="#8C8663"/>
<path d="M893.115 294.409V287.541L889.785 284.211V297.739L893.115 294.409Z" fill="#B8AF82"/>
<path d="M893.115 287.541L889.785 284.211H903.314L899.983 287.541H893.115Z" fill="#80795B"/>
<path d="M899.98 287.541L903.311 284.211V297.739L899.98 294.409V287.541Z" fill="#5E5B43"/>
<path d="M889.785 297.736L893.115 294.406H899.983L903.314 297.736H889.785Z" fill="#9A916C"/>
<path d="M942.025 245.08H935.156V251.948H942.025V245.08Z" fill="#8C8663"/>
<path d="M935.166 251.948V245.08L931.836 241.75V255.278L935.166 251.948Z" fill="#B8AF82"/>
<path d="M935.166 245.08L931.836 241.75H945.364L942.034 245.08H935.166Z" fill="#80795B"/>
<path d="M942.031 245.08L945.361 241.75V255.278L942.031 251.948V245.08Z" fill="#5E5B43"/>
<path d="M942.034 251.945L945.364 255.275H931.836L935.166 251.945H942.034Z" fill="#9A916C"/>
<path d="M942.025 287.331H935.156V294.407H942.025V287.331Z" fill="#8C8663"/>
<path d="M935.166 294.409V287.541L931.836 284.211V297.739L935.166 294.409Z" fill="#B8AF82"/>
<path d="M935.166 287.541L931.836 284.211H945.364L942.034 287.541H935.166Z" fill="#80795B"/>
<path d="M942.031 287.541L945.361 284.211V297.739L942.031 294.409V287.541Z" fill="#5E5B43"/>
<path d="M931.836 297.736L935.166 294.406H942.034L945.364 297.736H931.836Z" fill="#9A916C"/>
<path d="M984.29 245.08H977.422V251.948H984.29V245.08Z" fill="#8C8663"/>
<path d="M977.412 251.948V245.08L974.082 241.75V255.278L977.412 251.948Z" fill="#B8AF82"/>
<path d="M977.412 245.08L974.082 241.75H987.61L984.28 245.08H977.412Z" fill="#80795B"/>
<path d="M984.277 245.08L987.607 241.75V255.278L984.277 251.948V245.08Z" fill="#5E5B43"/>
<path d="M984.28 251.945L987.61 255.275H974.082L977.412 251.945H984.28Z" fill="#9A916C"/>
<path d="M984.29 287.331H977.422V294.407H984.29V287.331Z" fill="#8C8663"/>
<path d="M977.412 294.409V287.541L974.082 284.211V297.739L977.412 294.409Z" fill="#B8AF82"/>
<path d="M977.412 287.541L974.082 284.211H987.61L984.28 287.541H977.412Z" fill="#80795B"/>
<path d="M984.277 287.541L987.607 284.211V297.739L984.277 294.409V287.541Z" fill="#5E5B43"/>
<path d="M974.082 297.736L977.412 294.406H984.28L987.61 297.736H974.082Z" fill="#9A916C"/>
<path d="M1026.34 245.08H1019.47V251.948H1026.34V245.08Z" fill="#8C8663"/>
<path d="M1019.47 251.948V245.08L1016.35 241.75V255.278L1019.47 251.948Z" fill="#B8AF82"/>
<path d="M1019.47 245.08L1016.35 241.75H1029.67L1026.55 245.08H1019.47Z" fill="#80795B"/>
<path d="M1026.54 245.08L1029.66 241.75V255.278L1026.54 251.948V245.08Z" fill="#5E5B43"/>
<path d="M1026.55 251.945L1029.67 255.275H1016.35L1019.47 251.945H1026.55Z" fill="#9A916C"/>
<path d="M1026.34 287.331H1019.47V294.407H1026.34V287.331Z" fill="#8C8663"/>
<path d="M1019.47 294.409V287.541L1016.35 284.211V297.739L1019.47 294.409Z" fill="#B8AF82"/>
<path d="M1019.47 287.541L1016.35 284.211H1029.67L1026.55 287.541H1019.47Z" fill="#80795B"/>
<path d="M1026.54 287.541L1029.66 284.211V297.739L1026.54 294.409V287.541Z" fill="#5E5B43"/>
<path d="M1016.35 297.736L1019.47 294.406H1026.55L1029.67 297.736H1016.35Z" fill="#9A916C"/>
<path d="M1068.59 245.08H1061.72V251.948H1068.59V245.08Z" fill="#8C8663"/>
<path d="M1061.71 251.948V245.08L1058.38 241.75V255.278L1061.71 251.948Z" fill="#B8AF82"/>
<path d="M1061.71 245.08L1058.38 241.75H1071.91L1068.58 245.08H1061.71Z" fill="#80795B"/>
<path d="M1068.57 245.08L1071.9 241.75V255.278L1068.57 251.948V245.08Z" fill="#5E5B43"/>
<path d="M1068.58 251.945L1071.91 255.275H1058.38L1061.71 251.945H1068.58Z" fill="#9A916C"/>
<path d="M1068.59 287.331H1061.72V294.407H1068.59V287.331Z" fill="#8C8663"/>
<path d="M1061.71 294.409V287.541L1058.38 284.211V297.739L1061.71 294.409Z" fill="#B8AF82"/>
<path d="M1061.71 287.541L1058.38 284.211H1071.91L1068.58 287.541H1061.71Z" fill="#80795B"/>
<path d="M1068.57 287.541L1071.9 284.211V297.739L1068.57 294.409V287.541Z" fill="#5E5B43"/>
<path d="M1058.38 297.736L1061.71 294.406H1068.58L1071.91 297.736H1058.38Z" fill="#9A916C"/>
<path d="M1110.62 245.08H1103.75V251.948H1110.62V245.08Z" fill="#8C8663"/>
<path d="M1103.75 251.948V245.08L1100.62 241.75V255.278L1103.75 251.948Z" fill="#B8AF82"/>
<path d="M1103.75 245.08L1100.62 241.75H1113.95L1110.82 245.08H1103.75Z" fill="#80795B"/>
<path d="M1110.82 245.08L1113.94 241.75V255.278L1110.82 251.948V245.08Z" fill="#5E5B43"/>
<path d="M1110.82 251.945L1113.95 255.275H1100.62L1103.75 251.945H1110.82Z" fill="#9A916C"/>
<path d="M1110.62 287.331H1103.75V294.407H1110.62V287.331Z" fill="#8C8663"/>
<path d="M1103.75 294.409V287.541L1100.62 284.211V297.739L1103.75 294.409Z" fill="#B8AF82"/>
<path d="M1103.75 287.541L1100.62 284.211H1113.95L1110.82 287.541H1103.75Z" fill="#80795B"/>
<path d="M1110.82 287.541L1113.94 284.211V297.739L1110.82 294.409V287.541Z" fill="#5E5B43"/>
<path d="M1100.62 297.736L1103.75 294.406H1110.82L1113.95 297.736H1100.62Z" fill="#9A916C"/>
<path d="M1152.86 245.08H1146V251.948H1152.86V245.08Z" fill="#8C8663"/>
<path d="M1142.68 255.278L1146.01 251.948V245.08L1142.68 241.75V255.278Z" fill="#B8AF82"/>
<path d="M1152.87 245.08H1146.01L1142.68 241.75H1156.2L1152.87 245.08Z" fill="#80795B"/>
<path d="M1152.87 251.948V245.08L1156.2 241.75V255.278L1152.87 251.948Z" fill="#5E5B43"/>
<path d="M1146.01 251.945H1152.87L1156.2 255.275H1142.68L1146.01 251.945Z" fill="#9A916C"/>
<path d="M1152.86 287.331H1146V294.407H1152.86V287.331Z" fill="#8C8663"/>
<path d="M1142.68 297.739L1146.01 294.409V287.541L1142.68 284.211V297.739Z" fill="#B8AF82"/>
<path d="M1152.87 287.541H1146.01L1142.68 284.211H1156.2L1152.87 287.541Z" fill="#80795B"/>
<path d="M1152.87 294.409V287.541L1156.2 284.211V297.739L1152.87 294.409Z" fill="#5E5B43"/>
<path d="M1156.2 297.736H1142.68L1146.01 294.406H1152.87L1156.2 297.736Z" fill="#9A916C"/>
<path d="M1194.92 245.08H1188.05V251.948H1194.92V245.08Z" fill="#8C8663"/>
<path d="M1184.92 255.278L1188.04 251.948V245.08L1184.92 241.75V255.278Z" fill="#B8AF82"/>
<path d="M1195.12 245.08H1188.04L1184.92 241.75H1198.24L1195.12 245.08Z" fill="#80795B"/>
<path d="M1195.12 251.948V245.08L1198.24 241.75V255.278L1195.12 251.948Z" fill="#5E5B43"/>
<path d="M1188.04 251.945H1195.12L1198.24 255.275H1184.92L1188.04 251.945Z" fill="#9A916C"/>
<path d="M1194.92 287.331H1188.05V294.407H1194.92V287.331Z" fill="#8C8663"/>
<path d="M1184.92 297.739L1188.04 294.409V287.541L1184.92 284.211V297.739Z" fill="#B8AF82"/>
<path d="M1195.12 287.541H1188.04L1184.92 284.211H1198.24L1195.12 287.541Z" fill="#80795B"/>
<path d="M1195.12 294.409V287.541L1198.24 284.211V297.739L1195.12 294.409Z" fill="#5E5B43"/>
<path d="M1198.24 297.736H1184.92L1188.04 294.406H1195.12L1198.24 297.736Z" fill="#9A916C"/>
<path opacity="0.94" d="M783.328 349.763H550.879V617.61H783.328V349.763Z" fill="#404040"/>
<path opacity="0.94" d="M1038.2 352.712H872.422V603.45H1038.2V352.712Z" fill="#404040"/>
<path opacity="0.94" d="M1095.43 624.099H1126.7C1126.7 624.099 1127.29 624.099 1127.29 624.689V655.368C1127.29 655.368 1127.29 655.958 1126.7 655.958H1095.43C1095.43 655.958 1094.84 655.958 1094.84 655.368L1095.43 624.099Z" fill="#404040"/>
<path d="M1150.45 676.55H1143.79V684.521H1150.45V676.55Z" fill="#666666"/>
<path d="M1144.37 676.55H1143.79V683.697H1144.37V676.55Z" fill="#999999"/>
<path d="M1138.28 676.55H1131.62V684.521H1138.28V676.55Z" fill="#666666"/>
<path d="M1124.96 676.55H1118.3V684.521H1124.96V676.55Z" fill="#666666"/>
<path d="M1118.29 676.55H1117.71V683.697H1118.29V676.55Z" fill="#999999"/>
<path d="M1214.16 676.55H1207.5V684.521H1214.16V676.55Z" fill="#666666"/>
<path d="M1207.49 676.55H1206.91V683.697H1207.49V676.55Z" fill="#999999"/>
<path d="M1227.77 676.55H1221.11V684.521H1227.77V676.55Z" fill="#666666"/>
<path d="M1221.11 676.55H1220.53V683.697H1221.11V676.55Z" fill="#999999"/>
<path d="M1162.89 676.55H1156.23V684.521H1162.89V676.55Z" fill="#666666"/>
<path d="M1156.81 676.55H1156.23V683.697H1156.81V676.55Z" fill="#999999"/>
<path d="M1175.35 676.55H1168.69V684.521H1175.35V676.55Z" fill="#666666"/>
<path d="M1169.27 676.55H1168.69V683.697H1169.27V676.55Z" fill="#999999"/>
<path d="M1187.79 676.55H1181.13V684.521H1187.79V676.55Z" fill="#666666"/>
<path d="M1181.71 676.55H1181.13V683.697H1181.71V676.55Z" fill="#999999"/>
<path d="M1200.25 676.55H1193.59V684.521H1200.25V676.55Z" fill="#666666"/>
<path d="M1194.17 676.55H1193.59V683.697H1194.17V676.55Z" fill="#999999"/>
<path d="M1108.46 682.873H1235.88V792.823H1108.46V682.873Z" fill="#B3B3B3"/>
<path d="M1206.04 682.873H1140.88V783.752H1206.04V682.873Z" fill="#333333"/>
<path d="M1216.47 683.698V694.143H1205.18V683.698H1201.99V687.272H1144.07V683.698H1140.31V694.143H1129.3V683.698H1106.13V793.648H1239.93V683.698H1216.47ZM1132.49 771.383L1135.96 775.232L1141.18 774.682L1138.28 768.909C1135.38 766.985 1137.7 770.284 1124.09 764.511C1120.32 762.862 1142.04 776.331 1138.57 764.511L1140.31 755.715L1142.33 733.451L1140.31 726.579L1132.78 758.739C1136.25 760.388 1138.86 760.663 1138.86 764.511C1138.86 768.36 1135.96 769.459 1132.49 771.383ZM1213 770.009L1211.84 770.284C1208.94 768.36 1214.16 773.582 1214.16 770.009C1214.16 766.161 1213.29 770.009 1210.39 763.962L1210.1 765.611L1211.84 766.161C1215.31 767.81 1210.1 762.587 1210.1 766.71C1210.1 770.559 1216.47 768.36 1213 770.009Z" fill="#E6E6E6"/>
<path opacity="0.94" d="M1116.57 682.873H1107.01V787.875H1116.57V682.873Z" fill="#F2F2F2"/>
<path d="M1153.31 683.049H1129.12V697.798H1153.31V683.049Z" fill="#B3B3B3"/>
<path d="M1218.8 683.049H1194.61V697.798H1218.8V683.049Z" fill="#B3B3B3"/>
<path d="M1194.6 683.049H1153.3V688.949H1194.6V683.049Z" fill="#E6E6E6"/>
<path fill-rule="evenodd" clip-rule="evenodd" d="M1153.9 706.057H1159.21C1160.39 706.057 1161.57 707.237 1161.57 708.417C1161.57 709.596 1160.39 710.776 1159.21 710.776H1153.9C1152.72 710.776 1151.54 709.596 1151.54 708.417C1151.54 706.647 1152.13 706.057 1153.9 706.057Z" fill="#B5C3BB"/>
<path fill-rule="evenodd" clip-rule="evenodd" d="M1188.71 706.057H1194.02C1195.2 706.057 1196.38 707.237 1196.38 708.417C1196.38 709.596 1195.2 710.776 1194.02 710.776H1188.71C1187.53 710.776 1186.35 709.596 1186.35 708.417C1186.35 706.647 1187.53 706.057 1188.71 706.057Z" fill="#B5C3BB"/>
<path d="M492.494 718.493H410.488V788.7H492.494V718.493Z" fill="white"/>
<path opacity="0.94" d="M402.406 788.854H495.469C497.382 788.854 498.656 790.79 498.656 793.21C498.656 795.63 497.382 797.565 495.469 797.565H402.406C400.494 797.565 399.219 795.63 399.219 793.21C399.219 790.79 400.494 788.854 402.406 788.854Z" fill="#B3B3B3"/>
<path opacity="0.94" d="M408.787 680.935H399.863V791.273H408.787V680.935Z" fill="#F2F2F2"/>
<path opacity="0.94" d="M487.837 795.48H486.562V797.416H487.837V795.48Z" fill="#DECD87"/>
<path opacity="0.94" d="M479.537 795.48H478.262V797.416H479.537V795.48Z" fill="#DECD87"/>
<path opacity="0.94" d="M470.611 795.964H469.336V797.9H470.611V795.964Z" fill="#DECD87"/>
<path opacity="0.94" d="M462.974 795.48H461.699V797.416H462.974V795.48Z" fill="#DECD87"/>
<path opacity="0.94" d="M455.318 795.48H454.043V797.416H455.318V795.48Z" fill="#DECD87"/>
<path opacity="0.94" d="M448.306 795.48H447.031V797.416H448.306V795.48Z" fill="#DECD87"/>
<path opacity="0.94" d="M440.65 795.48H439.375V797.416H440.65V795.48Z" fill="#DECD87"/>
<path opacity="0.94" d="M433.013 795.48H431.738V797.416H433.013V795.48Z" fill="#DECD87"/>
<path opacity="0.94" d="M424.732 795.48H423.457V797.416H424.732V795.48Z" fill="#DECD87"/>
<path opacity="0.94" d="M491.646 792.092H490.371V794.028H491.646V792.092Z" fill="#DECD87"/>
<path opacity="0.94" d="M483.365 792.092H482.09V794.028H483.365V792.092Z" fill="#DECD87"/>
<path opacity="0.94" d="M474.439 792.092H473.164V794.028H474.439V792.092Z" fill="#DECD87"/>
<path opacity="0.94" d="M466.158 792.092H464.883V794.028H466.158V792.092Z" fill="#DECD87"/>
<path opacity="0.94" d="M458.501 792.092H457.227V794.028H458.501V792.092Z" fill="#DECD87"/>
<path opacity="0.94" d="M451.49 792.092H450.215V794.028H451.49V792.092Z" fill="#DECD87"/>
<path opacity="0.94" d="M444.478 792.092H443.203V794.028H444.478V792.092Z" fill="#DECD87"/>
<path opacity="0.94" d="M436.841 792.092H435.566V794.028H436.841V792.092Z" fill="#DECD87"/>
<path opacity="0.94" d="M420.904 792.092H419.629V794.028H420.904V792.092Z" fill="#DECD87"/>
<path opacity="0.94" d="M429.185 792.092H427.91V794.028H429.185V792.092Z" fill="#DECD87"/>
<path opacity="0.94" d="M408.15 795.964H406.875V797.9H408.15V795.964Z" fill="#DECD87"/>
<path opacity="0.94" d="M416.431 795.964H415.156V797.9H416.431V795.964Z" fill="#DECD87"/>
<path opacity="0.94" d="M411.333 792.092H410.059V794.028H411.333V792.092Z" fill="#DECD87"/>
<path d="M405.059 681.071V788.506H408.883V792.378H495.572V788.506H499.397V681.555H405.059V681.071ZM436.292 781.247C436.292 782.215 435.017 782.699 434.38 782.699H422.906C421.632 782.699 420.994 782.215 420.994 781.247L413.983 723.658C413.983 722.69 414.62 722.206 415.895 722.206H417.807C419.082 722.206 419.719 722.69 419.719 723.658L424.819 772.052C424.819 773.02 425.456 773.504 426.731 773.504H431.193C432.468 773.504 433.105 773.02 433.105 772.052L438.204 723.658C438.204 722.69 438.842 722.206 440.117 722.206H442.029C443.304 722.206 443.941 722.69 443.941 723.658L436.292 781.247ZM483.461 781.247C483.461 782.215 482.187 782.699 481.549 782.699H470.076C468.801 782.699 468.163 782.215 468.163 781.247L461.152 723.658C461.152 722.69 461.789 722.206 463.064 722.206H464.976C466.251 722.206 466.888 722.69 466.888 723.658L471.988 772.052C471.988 773.02 472.625 773.504 473.9 773.504H478.362C479.637 773.504 480.274 773.02 480.274 772.052L485.374 723.658C485.374 722.69 486.011 722.206 487.286 722.206H489.198C490.473 722.206 491.11 722.69 491.11 723.658L483.461 781.247Z" fill="#D6D3D3"/>
<path opacity="0.94" d="M499.64 681.164H494.141V792.935H499.64V681.164Z" fill="#999999"/>
<path d="M416.898 711.062H439.316V706.932H416.898V711.062Z" fill="#B3B3B3"/>
<path d="M416.898 694.543H439.316V690.413H416.898V694.543Z" fill="#B3B3B3"/>
<path d="M416.901 709.88H421.621V691.001H416.901V709.88Z" fill="#B3B3B3"/>
<path d="M462.913 694.543H485.332V690.413H462.913V694.543Z" fill="#B3B3B3"/>
<path d="M462.913 711.062H485.332V706.932H462.913V711.062Z" fill="#B3B3B3"/>
<path d="M480.612 711.062H485.332V692.182H480.612V711.062Z" fill="#B3B3B3"/>
<path d="M933.609 677.727H927.48V685.698H933.609V677.727Z" fill="#666666"/>
<path d="M928.013 677.727H927.48V684.873H928.013V677.727Z" fill="#999999"/>
<path d="M922.163 677.727H916.035V685.698H922.163V677.727Z" fill="#666666"/>
<path d="M909.898 677.453H903.77V685.425H909.898V677.453Z" fill="#666666"/>
<path d="M903.775 677.453H903.242V684.6H903.775V677.453Z" fill="#999999"/>
<path d="M991.968 677.727H985.84V685.698H991.968V677.727Z" fill="#666666"/>
<path d="M985.845 677.727H985.312V684.873H985.845V677.727Z" fill="#999999"/>
<path d="M1004.49 677.727H998.359V685.698H1004.49V677.727Z" fill="#666666"/>
<path d="M998.365 677.727H997.832V684.873H998.365V677.727Z" fill="#999999"/>
<path d="M945.073 677.727H938.945V685.698H945.073V677.727Z" fill="#666666"/>
<path d="M939.478 677.727H938.945V684.873H939.478V677.727Z" fill="#999999"/>
<path d="M956.538 677.727H950.41V685.698H956.538V677.727Z" fill="#666666"/>
<path d="M950.943 677.727H950.41V684.873H950.943V677.727Z" fill="#999999"/>
<path d="M967.984 677.727H961.855V685.698H967.984V677.727Z" fill="#666666"/>
<path d="M962.388 677.727H961.855V684.873H962.388V677.727Z" fill="#999999"/>
<path d="M979.448 677.727H973.32V685.698H979.448V677.727Z" fill="#666666"/>
<path d="M973.853 677.727H973.32V684.873H973.853V677.727Z" fill="#999999"/>
<path opacity="0.94" d="M1020.48 737.648H1014.36V757.439H1020.48V737.648Z" fill="#666666"/>
<path d="M894.98 683.776H1012.21V793.726H894.98V683.776Z" fill="#B3B3B3"/>
<path d="M1020.74 697.243H1014.61V717.034H1020.74V697.243Z" fill="#666666"/>
<path d="M893.394 697.517H887.266V717.308H893.394V697.517Z" fill="#666666"/>
<path d="M984.499 683.776H924.551V784.655H984.499V683.776Z" fill="#333333"/>
<path d="M994.09 684.602V695.047H983.966V684.602H981.035V688.175H927.481V684.602H924.018V695.047H913.893V684.602H892.578V794.552H1015.67V684.602H994.09ZM916.824 772.287L920.021 776.135L924.817 775.585L922.153 769.813C919.488 767.889 921.62 771.187 909.097 765.415C905.634 763.766 925.616 777.234 922.419 765.415L924.018 756.619L925.883 734.354L924.018 727.482L917.09 759.642C920.288 761.292 922.685 761.567 922.685 765.415C922.685 769.263 920.021 770.637 916.824 772.287ZM991.16 770.912L990.094 771.187C987.429 769.263 992.225 774.486 992.225 770.912C992.225 767.064 991.426 770.912 988.762 764.865L988.495 766.514L990.094 767.064C993.291 768.713 988.495 763.491 988.495 767.614C988.495 771.462 994.09 769.263 991.16 770.912Z" fill="#E6E6E6"/>
<path d="M893.12 737.375H886.992V757.166H893.12V737.375Z" fill="#666666"/>
<path opacity="0.94" d="M902.171 683.776H893.379V788.779H902.171V683.776Z" fill="#F2F2F2"/>
<path fill-rule="evenodd" clip-rule="evenodd" d="M923.758 695.856H929.068C929.658 695.856 930.248 696.446 930.248 697.036V699.396C930.248 699.986 929.658 700.576 929.068 700.576H923.758C923.168 700.576 922.578 699.986 922.578 699.396V697.036C922.578 696.446 923.168 695.856 923.758 695.856Z" fill="#666666"/>
<path fill-rule="evenodd" clip-rule="evenodd" d="M934.383 695.856H939.693C940.283 695.856 940.873 696.446 940.873 697.036V699.396C940.873 699.986 940.283 700.576 939.693 700.576H934.383C933.793 700.576 933.203 699.986 933.203 699.396V697.036C933.203 696.446 933.793 695.856 934.383 695.856Z" fill="#666666"/>
<path fill-rule="evenodd" clip-rule="evenodd" d="M944.989 695.856H950.298C950.888 695.856 951.478 696.446 951.478 697.036V699.396C951.478 699.986 950.888 700.576 950.298 700.576H944.989C944.399 700.576 943.809 699.986 943.809 699.396V697.036C943.809 696.446 944.399 695.856 944.989 695.856Z" fill="#666666"/>
<path fill-rule="evenodd" clip-rule="evenodd" d="M956.903 695.856H962.212C962.802 695.856 963.392 696.446 963.392 697.036V699.396C963.392 699.986 962.802 700.576 962.212 700.576H956.903C956.313 700.576 955.723 699.986 955.723 699.396V697.036C955.723 696.446 956.313 695.856 956.903 695.856Z" fill="#666666"/>
<path fill-rule="evenodd" clip-rule="evenodd" d="M967.528 695.856H972.837C973.427 695.856 974.017 696.446 974.017 697.036V699.396C974.017 699.986 973.427 700.576 972.837 700.576H967.528C966.938 700.576 966.348 699.986 966.348 699.396V697.036C966.938 696.446 966.938 695.856 967.528 695.856Z" fill="#666666"/>
<path fill-rule="evenodd" clip-rule="evenodd" d="M978.739 695.856H984.048C984.638 695.856 985.228 696.446 985.228 697.036V699.396C985.228 699.986 984.638 700.576 984.048 700.576H978.739C978.149 700.576 977.559 699.986 977.559 699.396V697.036C977.559 696.446 978.149 695.856 978.739 695.856Z" fill="#666666"/>
<path fill-rule="evenodd" clip-rule="evenodd" d="M968.004 714.733H973.314C974.494 714.733 975.674 715.913 975.674 717.093C975.674 718.273 974.494 719.453 973.314 719.453H968.004C966.824 719.453 965.645 718.273 965.645 717.093C965.645 715.913 966.824 714.733 968.004 714.733Z" fill="#B5C3BB"/>
<path fill-rule="evenodd" clip-rule="evenodd" d="M942.028 714.367H947.338C948.518 714.367 949.697 715.547 949.697 716.727C949.697 717.907 948.518 719.087 947.338 719.087H942.028C940.848 719.087 939.668 717.907 939.668 716.727C939.668 715.547 940.848 714.367 942.028 714.367Z" fill="#B5C3BB"/>
<path fill-rule="evenodd" clip-rule="evenodd" d="M576.849 754.484H638.206C639.386 754.484 640.566 755.664 640.566 757.434V785.753C640.566 786.933 639.386 788.703 638.206 788.703H576.849C575.669 788.703 574.489 787.523 574.489 785.753V757.434C573.899 755.664 575.079 754.484 576.849 754.484Z" fill="#E4E4F1"/>
<path fill-rule="evenodd" clip-rule="evenodd" d="M594.555 786.931H616.384C616.384 786.931 616.974 786.931 616.974 787.521V799.91C616.974 799.91 616.974 800.5 616.384 800.5H594.555C594.555 800.5 593.965 800.5 593.965 799.91L594.555 786.931Z" fill="#0D0D1F"/>
<path fill-rule="evenodd" clip-rule="evenodd" d="M703.102 754.484H764.459C765.639 754.484 766.819 755.664 766.819 757.434V785.753C766.819 786.933 765.639 788.703 764.459 788.703H703.102C701.922 788.703 700.742 787.523 700.742 785.753V757.434C700.742 755.664 701.922 754.484 703.102 754.484Z" fill="#E4E4F1"/>
<path fill-rule="evenodd" clip-rule="evenodd" d="M725.512 786.931H747.341C747.341 786.931 747.931 786.931 747.931 787.521V799.91C747.931 799.91 747.931 800.5 747.341 800.5H725.512C725.512 800.5 724.922 800.5 724.922 799.91L725.512 786.931C724.922 786.931 724.922 786.931 725.512 786.931Z" fill="#0D0D1F"/>
<path d="M370.964 576.701H366.738V556.842C366.738 551.687 370.637 547.494 375.408 547.494H382.442C384.323 547.494 385.85 549.125 385.85 551.163V555.065H375.381C374.481 555.065 373.745 555.852 373.745 556.812V573.643C373.8 575.332 372.545 576.701 370.964 576.701Z" fill="white"/>
<path d="M434.844 576.701H426.365C421.567 576.701 417.695 572.508 417.695 567.354V556.842C417.695 551.687 421.594 547.494 426.365 547.494H430.209C432.091 547.494 433.617 549.125 433.617 551.163V555.065H426.365C425.465 555.065 424.729 555.852 424.729 556.812V567.324C424.729 568.285 425.465 569.072 426.365 569.072H434.844C435.744 569.072 436.48 568.285 436.48 567.324V534.1H440.106C441.987 534.1 443.514 535.73 443.514 537.769V567.354C443.541 572.508 439.643 576.701 434.844 576.701Z" fill="white"/>
<path d="M454.801 548.404C455.864 549.831 460.362 555.975 461.317 557.256L456.982 561.916C454.392 559.702 449.103 555.218 446.485 552.976C446.458 552.947 446.458 552.918 446.485 552.889L451.12 547.909C452.102 546.832 453.737 546.948 454.61 548.142L454.801 548.404Z" fill="white"/>
<path d="M448.751 568.959C450.087 567.823 455.785 562.989 456.985 561.941L461.319 566.6C459.711 568.784 456.794 572.773 454.585 575.744C453.713 576.937 452.077 577.025 451.096 575.947L446.406 570.91L448.751 568.959Z" fill="white"/>
<path d="M467.844 575.48C466.781 574.053 462.282 567.909 461.328 566.628L465.663 561.969C468.253 564.182 473.542 568.666 476.16 570.908C476.187 570.937 476.187 570.967 476.16 570.996L471.525 575.975C470.543 577.052 468.907 576.936 468.035 575.742L467.844 575.48Z" fill="white"/>
<path d="M473.877 554.927C472.541 556.063 466.843 560.926 465.644 561.945L461.309 557.286C462.917 555.102 465.807 551.171 467.988 548.201C468.915 546.949 470.524 546.861 471.587 547.968L476.222 552.947L473.877 554.927Z" fill="white"/>
<path d="M495.196 547.504H483.091C481.209 547.504 479.683 549.135 479.683 551.173V555.075H495.196C496.095 555.075 496.832 555.861 496.832 556.822V567.334C496.832 568.295 496.095 569.081 495.196 569.081H487.044C485.953 569.081 485.081 568.149 485.081 566.985C485.081 565.82 485.953 564.888 487.044 564.888H493.969V562.034C493.969 560.52 492.824 559.297 491.406 559.297H486.117C481.646 559.297 478.047 563.199 478.047 568.004C478.047 572.809 481.673 576.71 486.117 576.71H495.196C499.994 576.71 503.866 572.517 503.866 567.363V556.851C503.866 551.697 499.994 547.504 495.196 547.504Z" fill="white"/>
<path d="M404.707 547.504H392.602C390.721 547.504 389.194 549.135 389.194 551.173V555.075H404.707C405.607 555.075 406.343 555.861 406.343 556.822V567.334C406.343 568.295 405.607 569.081 404.707 569.081H396.556C395.465 569.081 394.593 568.149 394.593 566.985C394.593 565.82 395.465 564.888 396.556 564.888H403.481V562.034C403.481 560.52 402.335 559.297 400.918 559.297H395.629C391.157 559.297 387.559 563.199 387.559 568.004C387.559 572.809 391.185 576.71 395.629 576.71H404.707C409.506 576.71 413.377 572.517 413.377 567.363V556.851C413.377 551.697 409.479 547.504 404.707 547.504Z" fill="white"/>
<path opacity="0.94" d="M1103.08 366.281H1272.4C1273.58 366.281 1274.76 367.461 1274.76 368.641V537.373C1274.76 538.553 1273.58 539.733 1272.4 539.733H1103.08C1101.9 539.733 1100.72 538.553 1100.72 537.373V369.231C1100.72 367.461 1101.9 366.281 1103.08 366.281Z" fill="#C0C7C0"/>
<path d="M1120.42 360.476H1112.6V367.454H1120.42V360.476Z" fill="#D6D6D6"/>
<path d="M1134.38 360.778H1126.56V367.757H1134.38V360.778Z" fill="#D6D6D6"/>
<path d="M1148.35 360.778H1140.53V367.757H1148.35V360.778Z" fill="#D6D6D6"/>
<path d="M1162.55 360.476H1154.73V367.454H1162.55V360.476Z" fill="#D6D6D6"/>
<path d="M1176.51 360.778H1168.69V367.757H1176.51V360.778Z" fill="#D6D6D6"/>
<path d="M1189.91 360.778H1182.09V367.757H1189.91V360.778Z" fill="#D6D6D6"/>
<path d="M1204.99 360.476H1197.17V367.454H1204.99V360.476Z" fill="#D6D6D6"/>
<path d="M1218.95 360.778H1211.13V367.757H1218.95V360.778Z" fill="#D6D6D6"/>
<path d="M1232.92 360.778H1225.1V367.757H1232.92V360.778Z" fill="#D6D6D6"/>
<path d="M1247.2 360.475H1239.38V367.454H1247.2V360.475Z" fill="#D6D6D6"/>
<path d="M1261.16 360.475H1253.34V367.454H1261.16V360.475Z" fill="#D6D6D6"/>
<path d="M1120.38 538.932H1112.56V545.91H1120.38V538.932Z" fill="#D6D6D6"/>
<path d="M1134.34 539.234H1126.53V546.213H1134.34V539.234Z" fill="#D6D6D6"/>
<path d="M1148.31 539.234H1140.49V546.213H1148.31V539.234Z" fill="#D6D6D6"/>
<path d="M1161.94 538.932H1154.12V545.91H1161.94V538.932Z" fill="#D6D6D6"/>
<path d="M1176.45 539.234H1168.63V546.213H1176.45V539.234Z" fill="#D6D6D6"/>
<path d="M1189.87 539.234H1182.05V546.213H1189.87V539.234Z" fill="#D6D6D6"/>
<path d="M1204.95 538.932H1197.13V545.91H1204.95V538.932Z" fill="#D6D6D6"/>
<path d="M1218.91 539.234H1211.1V546.213H1218.91V539.234Z" fill="#D6D6D6"/>
<path d="M1232.88 539.234H1225.06V546.213H1232.88V539.234Z" fill="#D6D6D6"/>
<path d="M1247.16 538.932H1239.34V545.91H1247.16V538.932Z" fill="#D6D6D6"/>
<path d="M1260.56 538.932H1252.74V545.91H1260.56V538.932Z" fill="#D6D6D6"/>
<path d="M1096.2 528.371L1099.85 528.371L1099.85 513.85L1096.2 513.85L1096.2 528.371Z" fill="#D6D6D6"/>
<path d="M1096.15 514.151L1099.79 514.151L1099.79 499.63L1096.15 499.63L1096.15 514.151Z" fill="#D6D6D6"/>
<path d="M1096.34 500.387L1099.98 500.387L1099.98 485.866L1096.34 485.866L1096.34 500.387Z" fill="#D6D6D6"/>
<path d="M1096.03 486.535L1099.67 486.535L1099.67 472.014L1096.03 472.014L1096.03 486.535Z" fill="#D6D6D6"/>
<path d="M1096.3 472.315L1099.94 472.315L1099.94 457.794L1096.3 457.794L1096.3 472.315Z" fill="#D6D6D6"/>
<path d="M1096.18 458.551L1099.82 458.551L1099.82 444.03L1096.18 444.03L1096.18 458.551Z" fill="#D6D6D6"/>
<path d="M1095.89 443.79L1099.53 443.79L1099.53 429.269L1095.89 429.269L1095.89 443.79Z" fill="#D6D6D6"/>
<path d="M1096.17 429.571L1099.81 429.571L1099.81 415.05L1096.17 415.05L1096.17 429.571Z" fill="#D6D6D6"/>
<path d="M1096.36 415.807L1100 415.807L1100 401.286L1096.36 401.286L1096.36 415.807Z" fill="#D6D6D6"/>
<path d="M1096.15 401.676L1099.79 401.676L1099.79 387.155L1096.15 387.155L1096.15 401.676Z" fill="#D6D6D6"/>
<path d="M1096.05 387.912L1099.69 387.912L1099.69 373.391L1096.05 373.391L1096.05 387.912Z" fill="#D6D6D6"/>
<path d="M1275.79 528.566L1279.44 528.566L1279.44 514.045L1275.79 514.045L1275.79 528.566Z" fill="#D6D6D6"/>
<path d="M1275.74 514.347L1279.38 514.347L1279.38 499.826L1275.74 499.826L1275.74 514.347Z" fill="#D6D6D6"/>
<path d="M1275.93 500.583L1279.57 500.583L1279.57 486.062L1275.93 486.062L1275.93 500.583Z" fill="#D6D6D6"/>
<path d="M1275.62 486.73L1279.26 486.73L1279.26 472.209L1275.62 472.209L1275.62 486.73Z" fill="#D6D6D6"/>
<path d="M1275.89 472.511L1279.53 472.511L1279.53 457.99L1275.89 457.99L1275.89 472.511Z" fill="#D6D6D6"/>
<path d="M1275.78 458.747L1279.42 458.747L1279.42 444.226L1275.78 444.226L1275.78 458.747Z" fill="#D6D6D6"/>
<path d="M1275.79 443.985L1279.44 443.985L1279.44 429.464L1275.79 429.464L1275.79 443.985Z" fill="#D6D6D6"/>
<path d="M1275.74 429.766L1279.38 429.766L1279.38 415.245L1275.74 415.245L1275.74 429.766Z" fill="#D6D6D6"/>
<path d="M1275.93 416.002L1279.57 416.002L1279.57 401.481L1275.93 401.481L1275.93 416.002Z" fill="#D6D6D6"/>
<path d="M1275.74 401.872L1279.38 401.872L1279.38 387.351L1275.74 387.351L1275.74 401.872Z" fill="#D6D6D6"/>
<path d="M1275.64 388.111L1279.28 388.111L1279.28 373.59L1275.64 373.59L1275.64 388.111Z" fill="#D6D6D6"/>
<path opacity="0.94" fill-rule="evenodd" clip-rule="evenodd" d="M308.988 366.282V349.763H261.201V366.282H254.121V597.551H261.791V612.89H307.219V597.551H297.779V366.282H308.988Z" fill="#404040"/>
<path d="M320.781 391.062H286.562V395.191H320.781V391.062Z" fill="#B8AF82"/>
<path d="M320.781 375.134H286.562V379.264H320.781V375.134Z" fill="#B8AF82"/>
<path d="M320.781 406.989H286.562V411.119H320.781V406.989Z" fill="#B8AF82"/>
<path d="M320.781 422.917H286.562V427.047H320.781V422.917Z" fill="#B8AF82"/>
<path d="M320.781 438.85H286.562V442.98H320.781V438.85Z" fill="#B8AF82"/>
<path d="M320.781 454.778H286.562V458.908H320.781V454.778Z" fill="#B8AF82"/>
<path d="M320.781 470.706H286.562V474.835H320.781V470.706Z" fill="#B8AF82"/>
<path d="M320.781 486.637H286.562V490.767H320.781V486.637Z" fill="#B8AF82"/>
<path d="M320.781 503.156H286.562V507.286H320.781V503.156Z" fill="#B8AF82"/>
<path d="M320.781 519.084H286.562V523.214H320.781V519.084Z" fill="#B8AF82"/>
<path d="M320.781 535.012H286.562V539.141H320.781V535.012Z" fill="#B8AF82"/>
<path d="M320.781 550.944H286.562V555.074H320.781V550.944Z" fill="#B8AF82"/>
<path d="M320.781 566.872H286.562V571.002H320.781V566.872Z" fill="#B8AF82"/>
<path d="M320.781 582.8H286.562V586.93H320.781V582.8Z" fill="#B8AF82"/>
<g opacity="0.94">
<path d="M297.775 609.938H308.984V352.711H297.775V609.938Z" fill="black"/>
</g>
<path d="M321.393 629.997H274.785V691.354H321.393V629.997Z" fill="white"/>
<path opacity="0.94" d="M321.392 635.896H297.793V637.665H321.392V635.896Z" fill="#404040"/>
<path opacity="0.94" d="M321.392 684.274H297.793V686.044H321.392V684.274Z" fill="#404040"/>
</svg>
