<svg width="1580" height="1000" viewBox="0 0 1580 1000" fill="none" xmlns="http://www.w3.org/2000/svg">
<path d="M607.49 694.458H529.707V733.693H607.49V694.458Z" fill="white"/>
<path d="M586.853 733.73H547.617V753.004H586.853V733.73Z" fill="#596764"/>
<path d="M772.626 694.492H694.844V733.728H772.626V694.492Z" fill="white"/>
<path d="M760.193 733.047H720.957V752.32H760.193V733.047Z" fill="#596764"/>
<path fill-rule="evenodd" clip-rule="evenodd" d="M206.119 150H1376.99C1402.46 150 1423.11 170.65 1423.11 196.119V786.716C1423.11 812.185 1402.46 832.835 1376.99 832.835H206.119C180.65 832.835 160 812.185 160 786.716V196.119C160.688 170.65 181.339 150 206.119 150Z" fill="#008066"/>
<path fill-rule="evenodd" clip-rule="evenodd" d="M232.333 200.26C232.333 211.962 222.696 221.599 210.995 222.287C199.293 222.287 188.968 213.339 188.279 201.637C187.591 189.935 196.539 179.61 208.241 178.922C219.943 178.234 230.268 186.494 231.645 198.195" fill="white"/>
<path d="M210.337 151.455C183.492 151.455 161.465 173.482 161.465 200.327C161.465 227.173 183.492 249.2 210.337 249.2C237.182 249.2 259.209 227.173 259.209 200.327C259.209 173.482 237.182 151.455 210.337 151.455ZM210.337 222.354C198.635 222.354 188.999 212.718 188.999 201.016C188.999 189.314 198.635 179.677 210.337 179.677C222.039 179.677 231.676 189.314 231.676 201.016C231.676 212.718 222.039 222.354 210.337 222.354Z" fill="#B8AF82"/>
<path d="M210.337 735.234C183.492 735.234 161.465 757.261 161.465 784.107C161.465 810.952 183.492 832.979 210.337 832.979C237.182 832.979 259.209 810.952 259.209 784.107C259.209 757.261 237.182 735.234 210.337 735.234ZM210.337 806.134C198.635 806.134 188.999 796.497 188.999 784.795C188.999 773.093 198.635 763.456 210.337 763.456C222.039 763.456 231.676 773.093 231.676 784.795C231.676 796.497 222.039 806.134 210.337 806.134Z" fill="#B8AF82"/>
<path fill-rule="evenodd" clip-rule="evenodd" d="M232.333 784.675C232.333 796.376 222.696 806.013 210.995 806.701C199.293 806.701 188.968 797.753 188.279 786.051C187.591 774.349 196.539 764.024 208.241 763.336C219.943 762.648 230.268 770.908 231.645 782.609" fill="white"/>
<path d="M1372.84 734.448C1345.99 734.448 1323.96 756.475 1323.96 783.321C1323.96 810.166 1345.99 832.193 1372.84 832.193C1399.68 832.193 1421.71 810.166 1421.71 783.321C1421.02 756.475 1399.68 734.448 1372.84 734.448ZM1372.84 804.659C1361.14 804.659 1351.5 795.022 1351.5 783.321C1351.5 771.619 1361.14 761.982 1372.84 761.982C1384.54 761.982 1394.18 771.619 1394.18 783.321C1394.18 795.022 1384.54 804.659 1372.84 804.659Z" fill="#B8AF82"/>
<path fill-rule="evenodd" clip-rule="evenodd" d="M1394.17 783.273C1394.17 794.975 1384.53 804.612 1372.83 805.3C1361.13 805.988 1350.8 796.352 1350.12 784.65C1349.43 772.948 1358.38 762.623 1370.08 761.935C1381.78 761.246 1392.1 769.506 1393.48 781.208" fill="white"/>
<path d="M1372.84 152.119C1345.99 152.119 1323.96 174.146 1323.96 200.991C1323.96 227.837 1345.99 249.864 1372.84 249.864C1399.68 249.864 1421.71 227.837 1421.71 200.991C1421.71 173.458 1400.37 152.119 1372.84 152.119ZM1372.84 222.33C1361.14 222.33 1351.5 212.693 1351.5 200.991C1351.5 189.29 1361.14 179.653 1372.84 179.653C1384.54 179.653 1394.18 189.29 1394.18 200.991C1394.86 212.693 1385.23 222.33 1372.84 222.33Z" fill="#B8AF82"/>
<path fill-rule="evenodd" clip-rule="evenodd" d="M1394.85 200.978C1394.85 212.68 1385.22 222.317 1373.51 223.005C1361.81 223.005 1351.49 214.057 1350.8 202.355C1350.11 190.653 1359.06 180.328 1370.76 179.64C1382.46 178.951 1392.79 187.211 1394.16 198.913" fill="white"/>
<path d="M349.208 230.469V193.801L338.524 183.359H310.841L300.156 193.801V230.469" fill="#3C4442"/>
<path d="M349.208 230.459V267.127L338.524 277.568H310.841L300.156 267.127V230.459" fill="#3C4442"/>
<path d="M398.505 230.469V193.801L387.821 183.359H360.138L349.453 193.801V230.469" fill="#404040"/>
<path d="M398.505 230.459V267.127L387.821 277.568H360.138L349.453 267.127V230.459" fill="#3C4442"/>
<path d="M447.587 230.469V193.801L436.903 183.359H409.22L398.535 193.801V230.469" fill="#404040"/>
<path d="M447.587 230.459V267.127L436.903 277.568H409.22L398.535 267.127V230.459" fill="#3C4442"/>
<path d="M496.912 230.469V193.801L486.227 183.359H458.302L447.617 193.801V230.469" fill="#3C4442"/>
<path d="M496.912 230.459V267.127L486.227 277.568H458.302L447.617 267.127V230.459" fill="#3C4442"/>
<path d="M545.888 230.469V193.801L535.203 183.359H507.521L496.836 193.801V230.469" fill="#3C4442"/>
<path d="M545.888 230.459V267.127L535.203 277.568H507.521L496.836 267.127V230.459" fill="#404040"/>
<path d="M595.243 230.469V193.801L584.559 183.359H556.876L546.191 193.801V230.469" fill="#3C4442"/>
<path d="M595.243 230.459V267.127L584.559 277.568H556.876L546.191 267.127V230.459" fill="#3C4442"/>
<path d="M644.325 230.469V193.801L633.641 183.359H605.958L595.273 193.801V230.469" fill="#404040"/>
<path d="M644.325 230.459V267.127L633.641 277.568H605.958L595.273 267.127V230.459" fill="#3C4442"/>
<path d="M693.514 230.469V193.801L682.829 183.359H654.903L644.219 193.801V230.469" fill="#3C4442"/>
<path d="M693.514 230.459V267.127L682.829 277.568H654.903L644.219 267.127V230.459" fill="#3C4442"/>
<path d="M742.548 230.469V193.801L731.863 183.359H704.181L693.496 193.801V230.469" fill="#3C4442"/>
<path d="M742.548 230.459V267.127L731.863 277.568H704.181L693.496 267.127V230.459" fill="#3C4442"/>
<path d="M791.951 230.469V193.801L781.266 183.359H753.341L742.656 193.801V230.469" fill="#404040"/>
<path d="M791.951 230.459V267.127L781.266 277.568H753.341L742.656 267.127V230.459" fill="#3C4442"/>
<path d="M840.927 230.469V193.801L830.242 183.359H802.56L791.875 193.801V230.469" fill="#3C4442"/>
<path d="M840.927 230.459V267.127L830.242 277.568H802.56L791.875 267.127V230.459" fill="#3C4442"/>
<path d="M890.252 230.469V193.801L879.567 183.359H851.642L840.957 193.801V230.469" fill="#3C4442"/>
<path d="M890.252 230.459V267.127L879.567 277.568H851.642L840.957 267.127V230.459" fill="#3C4442"/>
<path d="M939.365 230.469V193.801L928.68 183.359H900.997L890.312 193.801V230.469" fill="#3C4442"/>
<path d="M939.365 230.459V267.127L928.68 277.568H900.997L890.312 267.127V230.459" fill="#404040"/>
<path d="M988.583 230.469V193.801L977.899 183.359H950.216L939.531 193.801V230.469" fill="#3C4442"/>
<path d="M988.583 230.459V267.127L977.899 277.568H950.216L939.531 267.127V230.459" fill="#3C4442"/>
<path d="M1037.67 230.469V193.801L1026.98 183.359H999.298L988.613 193.801V230.469" fill="#404040"/>
<path d="M1037.67 230.459V267.127L1026.98 277.568H999.298L988.613 267.127V230.459" fill="#3C4442"/>
<path d="M1086.93 230.469V193.801L1076.25 183.359H1048.32L1037.64 193.801V230.469" fill="#3C4442"/>
<path d="M1086.93 230.459V267.127L1076.25 277.568H1048.32L1037.64 267.127V230.459" fill="#3C4442"/>
<path d="M1136.04 230.469V193.801L1125.36 183.359H1097.68L1086.99 193.801V230.469" fill="#404040"/>
<path d="M1136.04 230.459V267.127L1125.36 277.568H1097.68L1086.99 267.127V230.459" fill="#3C4442"/>
<path d="M1185.32 230.469V193.801L1174.64 183.359H1146.95L1136.27 193.801V230.469" fill="#3C4442"/>
<path d="M1185.32 230.459V267.127L1174.64 277.568H1146.95L1136.27 267.127V230.459" fill="#3C4442"/>
<path d="M1234.27 230.469V193.801L1223.58 183.359H1195.9L1185.21 193.801V230.469" fill="#3C4442"/>
<path d="M1234.27 230.459V267.127L1223.58 277.568H1195.9L1185.21 267.127V230.459" fill="#3C4442"/>
<path d="M1283.59 230.469V193.801L1272.91 183.359H1244.98L1234.3 193.801V230.469" fill="#3C4442"/>
<path d="M1283.59 230.459V267.127L1272.91 277.568H1244.98L1234.3 267.127V230.459" fill="#404040"/>
<path d="M328.131 202.056H320.117V210.069H328.131V202.056Z" fill="#8C8663"/>
<path d="M316.152 198.125V213.909L320.038 210.024V202.01L316.152 198.125Z" fill="#B8AF82"/>
<path d="M331.936 198.125L328.051 202.01H320.038L316.152 198.125H331.936Z" fill="#80795B"/>
<path d="M331.932 213.909L328.047 210.024V202.01L331.932 198.125V213.909Z" fill="#5E5B43"/>
<path d="M316.152 213.939L320.038 210.054H328.051L331.936 213.939H316.152Z" fill="#9A916C"/>
<path d="M328.131 251.343H320.117V259.599H328.131V251.343Z" fill="#8C8663"/>
<path d="M316.152 247.72V263.504L320.038 259.618V251.605L316.152 247.72Z" fill="#B8AF82"/>
<path d="M331.936 247.72L328.051 251.605H320.038L316.152 247.72H331.936Z" fill="#80795B"/>
<path d="M331.932 263.504L328.047 259.618V251.605L331.932 247.72V263.504Z" fill="#5E5B43"/>
<path d="M328.051 259.614L331.936 263.5H316.152L320.038 259.614H328.051Z" fill="#9A916C"/>
<path d="M377.388 202.021H369.375V210.035H377.388V202.021Z" fill="#8C8663"/>
<path d="M369.432 210.024V202.01L365.547 198.125V213.909L369.432 210.024Z" fill="#B8AF82"/>
<path d="M369.432 202.01L365.547 198.125H381.331L377.446 202.01H369.432Z" fill="#80795B"/>
<path d="M377.441 202.01L381.327 198.125V213.909L377.441 210.024V202.01Z" fill="#5E5B43"/>
<path d="M377.446 209.985L381.331 213.871H365.547L369.432 209.985H377.446Z" fill="#9A916C"/>
<path d="M377.388 251.343H369.375V259.599H377.388V251.343Z" fill="#8C8663"/>
<path d="M369.432 259.516V251.502L365.547 247.617V263.401L369.432 259.516Z" fill="#B8AF82"/>
<path d="M369.432 251.502L365.547 247.617H381.331L377.446 251.502H369.432Z" fill="#80795B"/>
<path d="M377.441 251.502L381.327 247.617V263.401L377.441 259.516V251.502Z" fill="#5E5B43"/>
<path d="M365.547 263.465L369.432 259.58H377.446L381.331 263.465H365.547Z" fill="#9A916C"/>
<path d="M426.412 202.021H418.398V210.035H426.412V202.021Z" fill="#8C8663"/>
<path d="M418.408 210.024V202.01L414.766 198.125V213.909L418.408 210.024Z" fill="#B8AF82"/>
<path d="M418.408 202.01L414.766 198.125H430.307L426.664 202.01H418.408Z" fill="#80795B"/>
<path d="M426.66 202.01L430.303 198.125V213.909L426.66 210.024V202.01Z" fill="#5E5B43"/>
<path d="M426.664 209.985L430.307 213.871H414.766L418.408 209.985H426.664Z" fill="#9A916C"/>
<path d="M426.412 251.343H418.398V259.599H426.412V251.343Z" fill="#8C8663"/>
<path d="M418.408 259.516V251.502L414.766 247.617V263.401L418.408 259.516Z" fill="#B8AF82"/>
<path d="M418.408 251.502L414.766 247.617H430.307L426.664 251.502H418.408Z" fill="#80795B"/>
<path d="M426.66 251.502L430.303 247.617V263.401L426.66 259.516V251.502Z" fill="#5E5B43"/>
<path d="M414.766 263.465L418.408 259.58H426.664L430.307 263.465H414.766Z" fill="#9A916C"/>
<path d="M475.572 202.021H467.559V210.035H475.572V202.021Z" fill="#8C8663"/>
<path d="M467.616 210.024V202.01L463.73 198.125V213.909L467.616 210.024Z" fill="#B8AF82"/>
<path d="M467.616 202.01L463.73 198.125H479.515L475.629 202.01H467.616Z" fill="#80795B"/>
<path d="M475.625 202.01L479.51 198.125V213.909L475.625 210.024V202.01Z" fill="#5E5B43"/>
<path d="M475.629 209.985L479.515 213.871H463.73L467.616 209.985H475.629Z" fill="#9A916C"/>
<path d="M475.572 251.343H467.559V259.599H475.572V251.343Z" fill="#8C8663"/>
<path d="M467.616 259.516V251.502L463.73 247.617V263.401L467.616 259.516Z" fill="#B8AF82"/>
<path d="M467.616 251.502L463.73 247.617H479.515L475.629 251.502H467.616Z" fill="#80795B"/>
<path d="M475.625 251.502L479.51 247.617V263.401L475.625 259.516V251.502Z" fill="#5E5B43"/>
<path d="M463.73 263.465L467.616 259.58H475.629L479.515 263.465H463.73Z" fill="#9A916C"/>
<path d="M524.791 202.021H516.777V210.035H524.791V202.021Z" fill="#8C8663"/>
<path d="M516.787 210.024V202.01L513.145 198.125V213.909L516.787 210.024Z" fill="#B8AF82"/>
<path d="M516.787 202.01L513.145 198.125H528.686L525.043 202.01H516.787Z" fill="#80795B"/>
<path d="M525.039 202.01L528.682 198.125V213.909L525.039 210.024V202.01Z" fill="#5E5B43"/>
<path d="M525.043 209.985L528.686 213.871H513.145L516.787 209.985H525.043Z" fill="#9A916C"/>
<path d="M524.791 251.343H516.777V259.599H524.791V251.343Z" fill="#8C8663"/>
<path d="M516.787 259.516V251.502L513.145 247.617V263.401L516.787 259.516Z" fill="#B8AF82"/>
<path d="M516.787 251.502L513.145 247.617H528.686L525.043 251.502H516.787Z" fill="#80795B"/>
<path d="M525.039 251.502L528.682 247.617V263.401L525.039 259.516V251.502Z" fill="#5E5B43"/>
<path d="M513.145 263.465L516.787 259.58H525.043L528.686 263.465H513.145Z" fill="#9A916C"/>
<path d="M574.01 202.021H565.996V210.035H574.01V202.021Z" fill="#8C8663"/>
<path d="M566.053 210.024V202.01L562.168 198.125V213.909L566.053 210.024Z" fill="#B8AF82"/>
<path d="M566.053 202.01L562.168 198.125H577.952L574.067 202.01H566.053Z" fill="#80795B"/>
<path d="M574.062 202.01L577.948 198.125V213.909L574.062 210.024V202.01Z" fill="#5E5B43"/>
<path d="M574.067 209.985L577.952 213.871H562.168L566.053 209.985H574.067Z" fill="#9A916C"/>
<path d="M574.01 251.343H565.996V259.599H574.01V251.343Z" fill="#8C8663"/>
<path d="M566.053 259.516V251.502L562.168 247.617V263.401L566.053 259.516Z" fill="#B8AF82"/>
<path d="M566.053 251.502L562.168 247.617H577.952L574.067 251.502H566.053Z" fill="#80795B"/>
<path d="M574.062 251.502L577.948 247.617V263.401L574.062 259.516V251.502Z" fill="#5E5B43"/>
<path d="M562.168 263.465L566.053 259.58H574.067L577.952 263.465H562.168Z" fill="#9A916C"/>
<path d="M623.228 202.021H615.215V210.035H623.228V202.021Z" fill="#8C8663"/>
<path d="M611.582 198.125V213.909L615.225 210.024V202.01L611.582 198.125Z" fill="#B8AF82"/>
<path d="M627.123 198.125L623.481 202.01H615.225L611.582 198.125H627.123Z" fill="#80795B"/>
<path d="M627.119 213.909L623.477 210.024V202.01L627.119 198.125V213.909Z" fill="#5E5B43"/>
<path d="M611.582 213.871L615.225 209.985H623.481L627.123 213.871H611.582Z" fill="#9A916C"/>
<path d="M623.228 251.343H615.215V259.599H623.228V251.343Z" fill="#8C8663"/>
<path d="M611.582 247.617V263.401L615.225 259.516V251.502L611.582 247.617Z" fill="#B8AF82"/>
<path d="M627.123 247.617L623.481 251.502H615.225L611.582 247.617H627.123Z" fill="#80795B"/>
<path d="M627.119 263.401L623.477 259.516V251.502L627.119 247.617V263.401Z" fill="#5E5B43"/>
<path d="M623.481 259.58L627.123 263.465H611.582L615.225 259.58H623.481Z" fill="#9A916C"/>
<path d="M672.467 202.021H664.453V210.035H672.467V202.021Z" fill="#8C8663"/>
<path d="M660.625 198.125V213.909L664.51 210.024V202.01L660.625 198.125Z" fill="#B8AF82"/>
<path d="M676.409 198.125L672.524 202.01H664.51L660.625 198.125H676.409Z" fill="#80795B"/>
<path d="M676.405 213.909L672.52 210.024V202.01L676.405 198.125V213.909Z" fill="#5E5B43"/>
<path d="M660.625 213.871L664.51 209.985H672.524L676.409 213.871H660.625Z" fill="#9A916C"/>
<path d="M672.467 251.343H664.453V259.599H672.467V251.343Z" fill="#8C8663"/>
<path d="M660.625 247.617V263.401L664.51 259.516V251.502L660.625 247.617Z" fill="#B8AF82"/>
<path d="M676.409 247.617L672.524 251.502H664.51L660.625 247.617H676.409Z" fill="#80795B"/>
<path d="M676.405 263.401L672.52 259.516V251.502L676.405 247.617V263.401Z" fill="#5E5B43"/>
<path d="M672.524 259.58L676.409 263.465H660.625L664.51 259.58H672.524Z" fill="#9A916C"/>
<path d="M721.431 202.021H713.418V210.035H721.431V202.021Z" fill="#8C8663"/>
<path d="M713.428 210.024V202.01L709.785 198.125V213.909L713.428 210.024Z" fill="#B8AF82"/>
<path d="M713.428 202.01L709.785 198.125H725.326L721.684 202.01H713.428Z" fill="#80795B"/>
<path d="M721.68 202.01L725.322 198.125V213.909L721.68 210.024V202.01Z" fill="#5E5B43"/>
<path d="M721.684 209.985L725.326 213.871H709.785L713.428 209.985H721.684Z" fill="#9A916C"/>
<path d="M721.431 251.343H713.418V259.599H721.431V251.343Z" fill="#8C8663"/>
<path d="M713.428 259.516V251.502L709.785 247.617V263.401L713.428 259.516Z" fill="#B8AF82"/>
<path d="M713.428 251.502L709.785 247.617H725.326L721.684 251.502H713.428Z" fill="#80795B"/>
<path d="M721.68 251.502L725.322 247.617V263.401L721.68 259.516V251.502Z" fill="#5E5B43"/>
<path d="M709.785 263.465L713.428 259.58H721.684L725.326 263.465H709.785Z" fill="#9A916C"/>
<path d="M770.67 202.021H762.656V210.035H770.67V202.021Z" fill="#8C8663"/>
<path d="M762.713 210.024V202.01L758.828 198.125V213.909L762.713 210.024Z" fill="#B8AF82"/>
<path d="M762.713 202.01L758.828 198.125H774.612L770.727 202.01H762.713Z" fill="#80795B"/>
<path d="M770.723 202.01L774.608 198.125V213.909L770.723 210.024V202.01Z" fill="#5E5B43"/>
<path d="M770.727 209.985L774.612 213.871H758.828L762.713 209.985H770.727Z" fill="#9A916C"/>
<path d="M770.67 251.343H762.656V259.599H770.67V251.343Z" fill="#8C8663"/>
<path d="M762.713 259.516V251.502L758.828 247.617V263.401L762.713 259.516Z" fill="#B8AF82"/>
<path d="M762.713 251.502L758.828 247.617H774.612L770.727 251.502H762.713Z" fill="#80795B"/>
<path d="M770.723 251.502L774.608 247.617V263.401L770.723 259.516V251.502Z" fill="#5E5B43"/>
<path d="M758.828 263.465L762.713 259.58H770.727L774.612 263.465H758.828Z" fill="#9A916C"/>
<path d="M819.888 202.021H811.875V210.035H819.888V202.021Z" fill="#8C8663"/>
<path d="M811.932 210.024V202.01L808.047 198.125V213.909L811.932 210.024Z" fill="#B8AF82"/>
<path d="M811.932 202.01L808.047 198.125H823.588L819.946 202.01H811.932Z" fill="#80795B"/>
<path d="M819.941 202.01L823.584 198.125V213.909L819.941 210.024V202.01Z" fill="#5E5B43"/>
<path d="M819.946 209.985L823.588 213.871H808.047L811.932 209.985H819.946Z" fill="#9A916C"/>
<path d="M819.888 251.343H811.875V259.599H819.888V251.343Z" fill="#8C8663"/>
<path d="M811.932 259.516V251.502L808.047 247.617V263.401L811.932 259.516Z" fill="#B8AF82"/>
<path d="M811.932 251.502L808.047 247.617H823.588L819.946 251.502H811.932Z" fill="#80795B"/>
<path d="M819.941 251.502L823.584 247.617V263.401L819.941 259.516V251.502Z" fill="#5E5B43"/>
<path d="M808.047 263.465L811.932 259.58H819.946L823.588 263.465H808.047Z" fill="#9A916C"/>
<path d="M869.049 202.021H861.035V210.035H869.049V202.021Z" fill="#8C8663"/>
<path d="M861.092 210.024V202.01L857.207 198.125V213.909L861.092 210.024Z" fill="#B8AF82"/>
<path d="M861.092 202.01L857.207 198.125H872.991L869.106 202.01H861.092Z" fill="#80795B"/>
<path d="M869.102 202.01L872.987 198.125V213.909L869.102 210.024V202.01Z" fill="#5E5B43"/>
<path d="M869.106 209.985L872.991 213.871H857.207L861.092 209.985H869.106Z" fill="#9A916C"/>
<path d="M869.049 251.343H861.035V259.599H869.049V251.343Z" fill="#8C8663"/>
<path d="M861.092 259.516V251.502L857.207 247.617V263.401L861.092 259.516Z" fill="#B8AF82"/>
<path d="M861.092 251.502L857.207 247.617H872.991L869.106 251.502H861.092Z" fill="#80795B"/>
<path d="M869.102 251.502L872.987 247.617V263.401L869.102 259.516V251.502Z" fill="#5E5B43"/>
<path d="M857.207 263.465L861.092 259.58H869.106L872.991 263.465H857.207Z" fill="#9A916C"/>
<path d="M918.385 202.021H910.371V210.035H918.385V202.021Z" fill="#8C8663"/>
<path d="M910.428 210.024V202.01L906.543 198.125V213.909L910.428 210.024Z" fill="#B8AF82"/>
<path d="M910.428 202.01L906.543 198.125H922.327L918.442 202.01H910.428Z" fill="#80795B"/>
<path d="M918.438 202.01L922.323 198.125V213.909L918.438 210.024V202.01Z" fill="#5E5B43"/>
<path d="M918.442 209.985L922.327 213.871H906.543L910.428 209.985H918.442Z" fill="#9A916C"/>
<path d="M918.385 251.343H910.371V259.599H918.385V251.343Z" fill="#8C8663"/>
<path d="M910.428 259.516V251.502L906.543 247.617V263.401L910.428 259.516Z" fill="#B8AF82"/>
<path d="M910.428 251.502L906.543 247.617H922.327L918.442 251.502H910.428Z" fill="#80795B"/>
<path d="M918.438 251.502L922.323 247.617V263.401L918.438 259.516V251.502Z" fill="#5E5B43"/>
<path d="M906.543 263.465L910.428 259.58H918.442L922.327 263.465H906.543Z" fill="#9A916C"/>
<path d="M967.232 202.021H959.219V210.035H967.232V202.021Z" fill="#8C8663"/>
<path d="M959.276 210.024V202.01L955.391 198.125V213.909L959.276 210.024Z" fill="#B8AF82"/>
<path d="M959.276 202.01L955.391 198.125H971.175L967.289 202.01H959.276Z" fill="#80795B"/>
<path d="M967.285 202.01L971.17 198.125V213.909L967.285 210.024V202.01Z" fill="#5E5B43"/>
<path d="M967.289 209.985L971.175 213.871H955.391L959.276 209.985H967.289Z" fill="#9A916C"/>
<path d="M967.232 251.343H959.219V259.599H967.232V251.343Z" fill="#8C8663"/>
<path d="M959.276 259.516V251.502L955.391 247.617V263.401L959.276 259.516Z" fill="#B8AF82"/>
<path d="M959.276 251.502L955.391 247.617H971.175L967.289 251.502H959.276Z" fill="#80795B"/>
<path d="M967.285 251.502L971.17 247.617V263.401L967.285 259.516V251.502Z" fill="#5E5B43"/>
<path d="M955.391 263.465L959.276 259.58H967.289L971.175 263.465H955.391Z" fill="#9A916C"/>
<path d="M1016.7 202.021H1008.69V210.035H1016.7V202.021Z" fill="#8C8663"/>
<path d="M1008.75 210.024V202.01L1004.86 198.125V213.909L1008.75 210.024Z" fill="#B8AF82"/>
<path d="M1008.75 202.01L1004.86 198.125H1020.65L1016.76 202.01H1008.75Z" fill="#80795B"/>
<path d="M1016.76 202.01L1020.64 198.125V213.909L1016.76 210.024V202.01Z" fill="#5E5B43"/>
<path d="M1016.76 209.985L1020.65 213.871H1004.86L1008.75 209.985H1016.76Z" fill="#9A916C"/>
<path d="M1016.7 251.343H1008.69V259.599H1016.7V251.343Z" fill="#8C8663"/>
<path d="M1008.75 259.516V251.502L1004.86 247.617V263.401L1008.75 259.516Z" fill="#B8AF82"/>
<path d="M1008.75 251.502L1004.86 247.617H1020.65L1016.76 251.502H1008.75Z" fill="#80795B"/>
<path d="M1016.76 251.502L1020.64 247.617V263.401L1016.76 259.516V251.502Z" fill="#5E5B43"/>
<path d="M1004.86 263.465L1008.75 259.58H1016.76L1020.65 263.465H1004.86Z" fill="#9A916C"/>
<path d="M1065.85 202.021H1057.83V210.035H1065.85V202.021Z" fill="#8C8663"/>
<path d="M1057.84 210.024V202.01L1054.2 198.125V213.909L1057.84 210.024Z" fill="#B8AF82"/>
<path d="M1057.84 202.01L1054.2 198.125H1069.74L1066.1 202.01H1057.84Z" fill="#80795B"/>
<path d="M1066.09 202.01L1069.74 198.125V213.909L1066.09 210.024V202.01Z" fill="#5E5B43"/>
<path d="M1066.1 209.985L1069.74 213.871H1054.2L1057.84 209.985H1066.1Z" fill="#9A916C"/>
<path d="M1065.85 251.343H1057.83V259.599H1065.85V251.343Z" fill="#8C8663"/>
<path d="M1057.84 259.516V251.502L1054.2 247.617V263.401L1057.84 259.516Z" fill="#B8AF82"/>
<path d="M1057.84 251.502L1054.2 247.617H1069.74L1066.1 251.502H1057.84Z" fill="#80795B"/>
<path d="M1066.09 251.502L1069.74 247.617V263.401L1066.09 259.516V251.502Z" fill="#5E5B43"/>
<path d="M1054.2 263.465L1057.84 259.58H1066.1L1069.74 263.465H1054.2Z" fill="#9A916C"/>
<path d="M1115.14 202.021H1107.13V210.035H1115.14V202.021Z" fill="#8C8663"/>
<path d="M1107.19 210.024V202.01L1103.3 198.125V213.909L1107.19 210.024Z" fill="#B8AF82"/>
<path d="M1107.19 202.01L1103.3 198.125H1119.08L1115.2 202.01H1107.19Z" fill="#80795B"/>
<path d="M1115.2 202.01L1119.08 198.125V213.909L1115.2 210.024V202.01Z" fill="#5E5B43"/>
<path d="M1115.2 209.985L1119.08 213.871H1103.3L1107.19 209.985H1115.2Z" fill="#9A916C"/>
<path d="M1115.14 251.343H1107.13V259.599H1115.14V251.343Z" fill="#8C8663"/>
<path d="M1107.19 259.516V251.502L1103.3 247.617V263.401L1107.19 259.516Z" fill="#B8AF82"/>
<path d="M1107.19 251.502L1103.3 247.617H1119.08L1115.2 251.502H1107.19Z" fill="#80795B"/>
<path d="M1115.2 251.502L1119.08 247.617V263.401L1115.2 259.516V251.502Z" fill="#5E5B43"/>
<path d="M1103.3 263.465L1107.19 259.58H1115.2L1119.08 263.465H1103.3Z" fill="#9A916C"/>
<path d="M1164.17 202.021H1156.15V210.035H1164.17V202.021Z" fill="#8C8663"/>
<path d="M1156.16 210.024V202.01L1152.52 198.125V213.909L1156.16 210.024Z" fill="#B8AF82"/>
<path d="M1156.16 202.01L1152.52 198.125H1168.06L1164.42 202.01H1156.16Z" fill="#80795B"/>
<path d="M1164.41 202.01L1168.06 198.125V213.909L1164.41 210.024V202.01Z" fill="#5E5B43"/>
<path d="M1164.42 209.985L1168.06 213.871H1152.52L1156.16 209.985H1164.42Z" fill="#9A916C"/>
<path d="M1164.17 251.343H1156.15V259.599H1164.17V251.343Z" fill="#8C8663"/>
<path d="M1156.16 259.516V251.502L1152.52 247.617V263.401L1156.16 259.516Z" fill="#B8AF82"/>
<path d="M1156.16 251.502L1152.52 247.617H1168.06L1164.42 251.502H1156.16Z" fill="#80795B"/>
<path d="M1164.41 251.502L1168.06 247.617V263.401L1164.41 259.516V251.502Z" fill="#5E5B43"/>
<path d="M1152.52 263.465L1156.16 259.58H1164.42L1168.06 263.465H1152.52Z" fill="#9A916C"/>
<path d="M1213.33 202.021H1205.31V210.035H1213.33V202.021Z" fill="#8C8663"/>
<path d="M1201.48 213.909L1205.37 210.024V202.01L1201.48 198.125V213.909Z" fill="#B8AF82"/>
<path d="M1213.38 202.01H1205.37L1201.48 198.125H1217.27L1213.38 202.01Z" fill="#80795B"/>
<path d="M1213.38 210.024V202.01L1217.26 198.125V213.909L1213.38 210.024Z" fill="#5E5B43"/>
<path d="M1205.37 209.985H1213.38L1217.27 213.871H1201.48L1205.37 209.985Z" fill="#9A916C"/>
<path d="M1213.33 251.343H1205.31V259.599H1213.33V251.343Z" fill="#8C8663"/>
<path d="M1201.48 263.401L1205.37 259.516V251.502L1201.48 247.617V263.401Z" fill="#B8AF82"/>
<path d="M1213.38 251.502H1205.37L1201.48 247.617H1217.27L1213.38 251.502Z" fill="#80795B"/>
<path d="M1213.38 259.516V251.502L1217.26 247.617V263.401L1213.38 259.516Z" fill="#5E5B43"/>
<path d="M1217.27 263.465H1201.48L1205.37 259.58H1213.38L1217.27 263.465Z" fill="#9A916C"/>
<path d="M1262.54 202.021H1254.53V210.035H1262.54V202.021Z" fill="#8C8663"/>
<path d="M1250.9 213.909L1254.54 210.024V202.01L1250.9 198.125V213.909Z" fill="#B8AF82"/>
<path d="M1262.8 202.01H1254.54L1250.9 198.125H1266.44L1262.8 202.01Z" fill="#80795B"/>
<path d="M1262.79 210.024V202.01L1266.44 198.125V213.909L1262.79 210.024Z" fill="#5E5B43"/>
<path d="M1254.54 209.985H1262.8L1266.44 213.871H1250.9L1254.54 209.985Z" fill="#9A916C"/>
<path d="M1262.54 251.343H1254.53V259.599H1262.54V251.343Z" fill="#8C8663"/>
<path d="M1250.9 263.401L1254.54 259.516V251.502L1250.9 247.617V263.401Z" fill="#B8AF82"/>
<path d="M1262.8 251.502H1254.54L1250.9 247.617H1266.44L1262.8 251.502Z" fill="#80795B"/>
<path d="M1262.79 259.516V251.502L1266.44 247.617V263.401L1262.79 259.516Z" fill="#5E5B43"/>
<path d="M1266.44 263.465H1250.9L1254.54 259.58H1262.8L1266.44 263.465Z" fill="#9A916C"/>
<path opacity="0.94" d="M782.242 324.185H511.035V636.692H782.242V324.185Z" fill="#404040"/>
<path opacity="0.94" d="M1079.62 327.637H886.191V620.182H1079.62V327.637Z" fill="#404040"/>
<path opacity="0.94" d="M1146.45 644.214H1182.93C1182.93 644.214 1183.62 644.214 1183.62 644.902V680.696C1183.62 680.696 1183.62 681.384 1182.93 681.384H1146.45C1146.45 681.384 1145.76 681.384 1145.76 680.696L1146.45 644.214Z" fill="#404040"/>
<path d="M1210.49 705.449H1202.71V714.75H1210.49V705.449Z" fill="#666666"/>
<path d="M1203.39 705.449H1202.71V713.788H1203.39V705.449Z" fill="#999999"/>
<path d="M1196.35 705.449H1188.57V714.75H1196.35V705.449Z" fill="#666666"/>
<path d="M1180.82 705.449H1173.05V714.75H1180.82V705.449Z" fill="#666666"/>
<path d="M1173.04 705.449H1172.36V713.788H1173.04V705.449Z" fill="#999999"/>
<path d="M1284.86 705.449H1277.09V714.75H1284.86V705.449Z" fill="#666666"/>
<path d="M1277.08 705.449H1276.41V713.788H1277.08V705.449Z" fill="#999999"/>
<path d="M1300.72 705.449H1292.95V714.75H1300.72V705.449Z" fill="#666666"/>
<path d="M1292.94 705.449H1292.27V713.788H1292.94V705.449Z" fill="#999999"/>
<path d="M1225.12 705.449H1217.34V714.75H1225.12V705.449Z" fill="#666666"/>
<path d="M1218.02 705.449H1217.34V713.788H1218.02V705.449Z" fill="#999999"/>
<path d="M1239.55 705.449H1231.78V714.75H1239.55V705.449Z" fill="#666666"/>
<path d="M1232.45 705.449H1231.78V713.788H1232.45V705.449Z" fill="#999999"/>
<path d="M1254.1 705.449H1246.33V714.75H1254.1V705.449Z" fill="#666666"/>
<path d="M1247 705.449H1246.33V713.788H1247V705.449Z" fill="#999999"/>
<path d="M1268.67 705.449H1260.9V714.75H1268.67V705.449Z" fill="#666666"/>
<path d="M1261.57 705.449H1260.9V713.788H1261.57V705.449Z" fill="#999999"/>
<path d="M1161.56 712.832H1310.24V841.115H1161.56V712.832Z" fill="#B3B3B3"/>
<path d="M1275.46 712.832H1199.43V830.532H1275.46V712.832Z" fill="#333333"/>
<path d="M1287.57 713.755V725.942H1274.39V713.755H1270.67V717.924H1203.09V713.755H1198.7V725.942H1185.86V713.755H1158.83V842.038H1314.94V713.755H1287.57ZM1189.58 816.06L1193.63 820.55L1199.71 819.909L1196.33 813.174C1192.96 810.929 1195.66 814.778 1179.78 808.043C1175.38 806.119 1200.73 821.833 1196.67 808.043L1198.7 797.78L1201.06 771.803L1198.7 763.785L1189.91 801.308C1193.97 803.232 1197.01 803.553 1197.01 808.043C1197.01 812.533 1193.63 813.815 1189.58 816.06ZM1283.51 814.457L1282.16 814.778C1278.78 812.533 1284.86 818.626 1284.86 814.457C1284.86 809.967 1283.85 814.457 1280.47 807.401L1280.13 809.326L1282.16 809.967C1286.21 811.891 1280.13 805.798 1280.13 810.608C1280.13 815.098 1287.57 812.533 1283.51 814.457Z" fill="#E6E6E6"/>
<path opacity="0.94" d="M1171.01 712.832H1159.86V835.342H1171.01V712.832Z" fill="#F2F2F2"/>
<path d="M1213.91 712.988H1185.68V730.197H1213.91V712.988Z" fill="#B3B3B3"/>
<path d="M1290.33 712.988H1262.11V730.197H1290.33V712.988Z" fill="#B3B3B3"/>
<path d="M1262.11 712.988H1213.93V719.872H1262.11V712.988Z" fill="#E6E6E6"/>
<path fill-rule="evenodd" clip-rule="evenodd" d="M1214.63 739.819H1220.82C1222.2 739.819 1223.58 741.196 1223.58 742.573C1223.58 743.949 1222.2 745.326 1220.82 745.326H1214.63C1213.25 745.326 1211.88 743.949 1211.88 742.573C1211.88 740.508 1212.56 739.819 1214.63 739.819Z" fill="#B5C3BB"/>
<path fill-rule="evenodd" clip-rule="evenodd" d="M1255.23 739.819H1261.43C1262.81 739.819 1264.18 741.196 1264.18 742.573C1264.18 743.949 1262.81 745.326 1261.43 745.326H1255.23C1253.86 745.326 1252.48 743.949 1252.48 742.573C1252.48 740.508 1253.86 739.819 1255.23 739.819Z" fill="#B5C3BB"/>
<path d="M442.965 754.409H347.285V836.322H442.965V754.409Z" fill="white"/>
<path opacity="0.94" d="M337.683 836.465H446.264C448.495 836.465 449.983 838.723 449.983 841.547C449.983 844.37 448.495 846.628 446.264 846.628H337.683C335.452 846.628 333.965 844.37 333.965 841.547C333.965 838.723 335.452 836.465 337.683 836.465Z" fill="#B3B3B3"/>
<path opacity="0.94" d="M345.138 710.62H334.727V839.357H345.138V710.62Z" fill="#F2F2F2"/>
<path opacity="0.94" d="M437.288 844.253H435.801V846.512H437.288V844.253Z" fill="#DECD87"/>
<path opacity="0.94" d="M427.659 844.253H426.172V846.512H427.659V844.253Z" fill="#DECD87"/>
<path opacity="0.94" d="M417.191 844.868H415.703V847.127H417.191V844.868Z" fill="#DECD87"/>
<path opacity="0.94" d="M408.304 844.253H406.816V846.512H408.304V844.253Z" fill="#DECD87"/>
<path opacity="0.94" d="M399.417 844.253H397.93V846.512H399.417V844.253Z" fill="#DECD87"/>
<path opacity="0.94" d="M391.155 844.253H389.668V846.512H391.155V844.253Z" fill="#DECD87"/>
<path opacity="0.94" d="M382.269 844.253H380.781V846.512H382.269V844.253Z" fill="#DECD87"/>
<path opacity="0.94" d="M373.304 844.253H371.816V846.512H373.304V844.253Z" fill="#DECD87"/>
<path opacity="0.94" d="M363.675 844.253H362.188V846.512H363.675V844.253Z" fill="#DECD87"/>
<path opacity="0.94" d="M441.741 840.322H440.254V842.581H441.741V840.322Z" fill="#DECD87"/>
<path opacity="0.94" d="M432.171 840.322H430.684V842.581H432.171V840.322Z" fill="#DECD87"/>
<path opacity="0.94" d="M421.702 840.322H420.215V842.581H421.702V840.322Z" fill="#DECD87"/>
<path opacity="0.94" d="M411.995 840.322H410.508V842.581H411.995V840.322Z" fill="#DECD87"/>
<path opacity="0.94" d="M403.05 840.322H401.562V842.581H403.05V840.322Z" fill="#DECD87"/>
<path opacity="0.94" d="M394.905 840.322H393.418V842.581H394.905V840.322Z" fill="#DECD87"/>
<path opacity="0.94" d="M386.644 840.322H385.156V842.581H386.644V840.322Z" fill="#DECD87"/>
<path opacity="0.94" d="M377.757 840.322H376.27V842.581H377.757V840.322Z" fill="#DECD87"/>
<path opacity="0.94" d="M359.163 840.322H357.676V842.581H359.163V840.322Z" fill="#DECD87"/>
<path opacity="0.94" d="M368.87 840.322H367.383V842.581H368.87V840.322Z" fill="#DECD87"/>
<path opacity="0.94" d="M344.319 844.868H342.832V847.127H344.319V844.868Z" fill="#DECD87"/>
<path opacity="0.94" d="M353.968 844.868H352.48V847.127H353.968V844.868Z" fill="#DECD87"/>
<path opacity="0.94" d="M348.148 840.322H346.66V842.581H348.148V840.322Z" fill="#DECD87"/>
<path d="M340.801 710.806V836.154H345.263V840.671H446.407V836.154H450.869V711.37H340.801V710.806ZM377.242 827.685C377.242 828.814 375.755 829.379 375.011 829.379H361.624C360.137 829.379 359.393 828.814 359.393 827.685L351.213 760.493C351.213 759.364 351.956 758.8 353.444 758.8H355.675C357.162 758.8 357.906 759.364 357.906 760.493L363.856 816.957C363.856 818.086 364.599 818.651 366.087 818.651H371.293C372.78 818.651 373.524 818.086 373.524 816.957L379.473 760.493C379.473 759.364 380.217 758.8 381.705 758.8H383.936C385.423 758.8 386.167 759.364 386.167 760.493L377.242 827.685ZM432.276 827.685C432.276 828.814 430.789 829.379 430.045 829.379H416.659C415.171 829.379 414.427 828.814 414.427 827.685L406.247 760.493C406.247 759.364 406.99 758.8 408.478 758.8H410.709C412.196 758.8 412.94 759.364 412.94 760.493L418.89 816.957C418.89 818.086 419.633 818.651 421.121 818.651H426.327C427.814 818.651 428.558 818.086 428.558 816.957L434.507 760.493C434.507 759.364 435.251 758.8 436.739 758.8H438.97C440.457 758.8 441.201 759.364 441.201 760.493L432.276 827.685Z" fill="#D6D3D3"/>
<path opacity="0.94" d="M451.24 710.859H444.824V841.267H451.24V710.859Z" fill="#999999"/>
<path d="M354.8 745.825H380.957V741.007H354.8V745.825Z" fill="#B3B3B3"/>
<path d="M354.8 726.582H380.957V721.764H354.8V726.582Z" fill="#B3B3B3"/>
<path d="M354.747 744.458H360.254V722.431H354.747V744.458Z" fill="#B3B3B3"/>
<path d="M408.472 726.582H434.629V721.764H408.472V726.582Z" fill="#B3B3B3"/>
<path d="M408.472 745.825H434.629V741.007H408.472V745.825Z" fill="#B3B3B3"/>
<path d="M429.122 745.825H434.629V723.798H429.122V745.825Z" fill="#B3B3B3"/>
<path d="M957.56 706.768H950.41V716.068H957.56V706.768Z" fill="#666666"/>
<path d="M951.032 706.768H950.41V715.106H951.032V706.768Z" fill="#999999"/>
<path d="M944.22 706.768H937.07V716.068H944.22V706.768Z" fill="#666666"/>
<path d="M929.806 706.46H922.656V715.76H929.806V706.46Z" fill="#666666"/>
<path d="M922.79 706.46H922.168V714.798H922.79V706.46Z" fill="#999999"/>
<path d="M1025.65 706.768H1018.5V716.068H1025.65V706.768Z" fill="#666666"/>
<path d="M1018.49 706.768H1017.87V715.106H1018.49V706.768Z" fill="#999999"/>
<path d="M1040.2 706.768H1033.05V716.068H1040.2V706.768Z" fill="#666666"/>
<path d="M1033.12 706.768H1032.5V715.106H1033.12V706.768Z" fill="#999999"/>
<path d="M970.958 706.768H963.809V716.068H970.958V706.768Z" fill="#666666"/>
<path d="M964.43 706.768H963.809V715.106H964.43V706.768Z" fill="#999999"/>
<path d="M984.279 706.768H977.129V716.068H984.279V706.768Z" fill="#666666"/>
<path d="M977.751 706.768H977.129V715.106H977.751V706.768Z" fill="#999999"/>
<path d="M997.677 706.768H990.527V716.068H997.677V706.768Z" fill="#666666"/>
<path d="M991.149 706.768H990.527V715.106H991.149V706.768Z" fill="#999999"/>
<path d="M1011.08 706.768H1003.93V716.068H1011.08V706.768Z" fill="#666666"/>
<path d="M1004.55 706.768H1003.93V715.106H1004.55V706.768Z" fill="#999999"/>
<path opacity="0.94" d="M1058.87 776.699H1051.72V799.79H1058.87V776.699Z" fill="#666666"/>
<path d="M912.461 713.843H1049.24V842.126H912.461V713.843Z" fill="#B3B3B3"/>
<path d="M1059.28 729.531H1052.13V752.622H1059.28V729.531Z" fill="#666666"/>
<path d="M910.724 729.839H903.574V752.93H910.724V729.839Z" fill="#666666"/>
<path d="M1016.94 713.843H946.992V831.542H1016.94V713.843Z" fill="#333333"/>
<path d="M1028.16 714.766V726.953H1016.35V714.766H1012.93V718.935H950.449V714.766H946.408V726.953H934.595V714.766H909.727V843.048H1053.34V714.766H1028.16ZM938.015 817.071L941.745 821.561L947.341 820.92L944.232 814.185C941.124 811.94 943.61 815.788 929 809.053C924.959 807.129 948.273 822.844 944.543 809.053L946.408 798.791L948.584 772.814L946.408 764.796L938.326 802.319C942.056 804.243 944.854 804.564 944.854 809.053C944.854 813.543 941.745 815.147 938.015 817.071ZM1024.75 815.468L1023.5 815.788C1020.39 813.543 1025.99 819.637 1025.99 815.468C1025.99 810.978 1025.06 815.468 1021.95 808.412L1021.64 810.336L1023.5 810.978C1027.23 812.902 1021.64 806.809 1021.64 811.619C1021.64 816.109 1028.16 813.543 1024.75 815.468Z" fill="#E6E6E6"/>
<path d="M910.314 776.357H903.164V799.448H910.314V776.357Z" fill="#666666"/>
<path opacity="0.94" d="M920.883 713.843H910.625V836.353H920.883V713.843Z" fill="#F2F2F2"/>
<path fill-rule="evenodd" clip-rule="evenodd" d="M945.927 727.9H952.123C952.811 727.9 953.499 728.589 953.499 729.277V732.03C953.499 732.719 952.811 733.407 952.123 733.407H945.927C945.239 733.407 944.551 732.719 944.551 732.03V729.277C944.551 728.589 945.239 727.9 945.927 727.9Z" fill="#666666"/>
<path fill-rule="evenodd" clip-rule="evenodd" d="M958.369 727.9H964.564C965.252 727.9 965.941 728.589 965.941 729.277V732.03C965.941 732.719 965.252 733.407 964.564 733.407H958.369C957.681 733.407 956.992 732.719 956.992 732.03V729.277C956.992 728.589 957.681 727.9 958.369 727.9Z" fill="#666666"/>
<path fill-rule="evenodd" clip-rule="evenodd" d="M970.674 727.9H976.869C977.557 727.9 978.245 728.589 978.245 729.277V732.03C978.245 732.719 977.557 733.407 976.869 733.407H970.674C969.985 733.407 969.297 732.719 969.297 732.03V729.277C969.297 728.589 969.985 727.9 970.674 727.9Z" fill="#666666"/>
<path fill-rule="evenodd" clip-rule="evenodd" d="M984.58 727.9H990.775C991.463 727.9 992.152 728.589 992.152 729.277V732.03C992.152 732.719 991.463 733.407 990.775 733.407H984.58C983.892 733.407 983.203 732.719 983.203 732.03V729.277C983.203 728.589 983.892 727.9 984.58 727.9Z" fill="#666666"/>
<path fill-rule="evenodd" clip-rule="evenodd" d="M997.021 727.9H1003.22C1003.9 727.9 1004.59 728.589 1004.59 729.277V732.03C1004.59 732.719 1003.9 733.407 1003.22 733.407H997.021C996.333 733.407 995.645 732.719 995.645 732.03V729.277C996.333 728.589 996.333 727.9 997.021 727.9Z" fill="#666666"/>
<path fill-rule="evenodd" clip-rule="evenodd" d="M1010.01 727.9H1016.2C1016.89 727.9 1017.58 728.589 1017.58 729.277V732.03C1017.58 732.719 1016.89 733.407 1016.2 733.407H1010.01C1009.32 733.407 1008.63 732.719 1008.63 732.03V729.277C1008.63 728.589 1009.32 727.9 1010.01 727.9Z" fill="#666666"/>
<path fill-rule="evenodd" clip-rule="evenodd" d="M997.578 749.951H1003.77C1005.15 749.951 1006.53 751.328 1006.53 752.705C1006.53 754.081 1005.15 755.458 1003.77 755.458H997.578C996.201 755.458 994.824 754.081 994.824 752.705C994.824 751.328 996.201 749.951 997.578 749.951Z" fill="#B5C3BB"/>
<path fill-rule="evenodd" clip-rule="evenodd" d="M967.382 749.57H973.577C974.954 749.57 976.331 750.947 976.331 752.324C976.331 753.7 974.954 755.077 973.577 755.077H967.382C966.006 755.077 964.629 753.7 964.629 752.324C964.629 750.947 966.006 749.57 967.382 749.57Z" fill="#B5C3BB"/>
<path fill-rule="evenodd" clip-rule="evenodd" d="M541.331 796.328H612.918C614.295 796.328 615.672 797.705 615.672 799.77V832.81C615.672 834.187 614.295 836.252 612.918 836.252H541.331C539.954 836.252 538.577 834.875 538.577 832.81V799.77C537.889 797.705 539.266 796.328 541.331 796.328Z" fill="#E4E4F1"/>
<path fill-rule="evenodd" clip-rule="evenodd" d="M561.997 834.165H587.466C587.466 834.165 588.154 834.165 588.154 834.853V849.309C588.154 849.309 588.154 849.997 587.466 849.997H561.997C561.997 849.997 561.309 849.997 561.309 849.309L561.997 834.165Z" fill="#0D0D1F"/>
<path fill-rule="evenodd" clip-rule="evenodd" d="M688.691 796.328H760.278C761.655 796.328 763.032 797.705 763.032 799.77V832.81C763.032 834.187 761.655 836.252 760.278 836.252H688.691C687.314 836.252 685.938 834.875 685.938 832.81V799.77C685.938 797.705 687.314 796.328 688.691 796.328Z" fill="#E4E4F1"/>
<path fill-rule="evenodd" clip-rule="evenodd" d="M714.868 834.165H740.337C740.337 834.165 741.025 834.165 741.025 834.853V849.309C741.025 849.309 741.025 849.997 740.337 849.997H714.868C714.868 849.997 714.18 849.997 714.18 849.309L714.868 834.165C714.18 834.165 714.18 834.165 714.868 834.165Z" fill="#0D0D1F"/>
<path d="M301.161 589.111H296.23V565.941C296.23 559.927 300.779 555.035 306.346 555.035H314.553C316.748 555.035 318.529 556.938 318.529 559.316V563.868H306.314C305.264 563.868 304.406 564.786 304.406 565.907V585.544C304.469 587.515 303.006 589.111 301.161 589.111Z" fill="white"/>
<path d="M375.672 589.111H365.78C360.181 589.111 355.664 584.219 355.664 578.206V565.941C355.664 559.927 360.213 555.035 365.78 555.035H370.265C372.46 555.035 374.241 556.938 374.241 559.316V563.868H365.78C364.73 563.868 363.871 564.786 363.871 565.907V578.172C363.871 579.293 364.73 580.21 365.78 580.21H375.672C376.722 580.21 377.581 579.293 377.581 578.172V539.407H381.811C384.006 539.407 385.788 541.31 385.788 543.688V578.206C385.82 584.219 381.271 589.111 375.672 589.111Z" fill="white"/>
<path d="M398.925 556.023C400.166 557.688 405.414 564.856 406.527 566.351L401.47 571.787C398.448 569.205 392.277 563.973 389.223 561.357C389.191 561.323 389.191 561.289 389.223 561.255L394.631 555.446C395.776 554.188 397.684 554.324 398.702 555.717L398.925 556.023Z" fill="white"/>
<path d="M391.935 580.079C393.494 578.754 400.142 573.114 401.541 571.891L406.599 577.327C404.722 579.875 401.319 584.529 398.742 587.995C397.724 589.388 395.816 589.489 394.67 588.232L389.199 582.355L391.935 580.079Z" fill="white"/>
<path d="M414.126 587.67C412.885 586.005 407.637 578.837 406.523 577.342L411.581 571.906C414.603 574.488 420.774 579.72 423.828 582.336C423.86 582.37 423.86 582.404 423.828 582.438L418.42 588.248C417.275 589.505 415.366 589.369 414.349 587.976L414.126 587.67Z" fill="white"/>
<path d="M421.188 563.599C419.629 564.924 412.981 570.598 411.581 571.787L406.523 566.351C408.4 563.803 411.772 559.217 414.317 555.751C415.398 554.29 417.275 554.188 418.516 555.479L423.923 561.289L421.188 563.599Z" fill="white"/>
<path d="M445.965 555.035H431.842C429.647 555.035 427.866 556.938 427.866 559.316V563.868H445.965C447.015 563.868 447.874 564.786 447.874 565.907V578.172C447.874 579.293 447.015 580.21 445.965 580.21H436.454C435.182 580.21 434.164 579.123 434.164 577.764C434.164 576.405 435.182 575.318 436.454 575.318H444.534V571.988C444.534 570.222 443.198 568.795 441.544 568.795H435.373C430.156 568.795 425.957 573.347 425.957 578.953C425.957 584.559 430.188 589.111 435.373 589.111H445.965C451.564 589.111 456.081 584.219 456.081 578.206V565.941C456.081 559.927 451.564 555.035 445.965 555.035Z" fill="white"/>
<path d="M340.477 555.035H326.354C324.159 555.035 322.377 556.938 322.377 559.316V563.868H340.477C341.527 563.868 342.386 564.786 342.386 565.907V578.172C342.386 579.293 341.527 580.21 340.477 580.21H330.966C329.694 580.21 328.676 579.123 328.676 577.764C328.676 576.405 329.694 575.318 330.966 575.318H339.046V571.988C339.046 570.222 337.71 568.795 336.055 568.795H329.884C324.668 568.795 320.469 573.347 320.469 578.953C320.469 584.559 324.699 589.111 329.884 589.111H340.477C346.075 589.111 350.592 584.219 350.592 578.206V565.941C350.592 559.927 346.044 555.035 340.477 555.035Z" fill="white"/>
<path opacity="0.94" d="M1155.37 343.452H1352.92C1354.3 343.452 1355.68 344.829 1355.68 346.206V543.071C1355.68 544.448 1354.3 545.825 1352.92 545.825H1155.37C1153.99 545.825 1152.62 544.448 1152.62 543.071V346.894C1152.62 344.829 1153.99 343.452 1155.37 343.452Z" fill="#C0C7C0"/>
<path d="M1175.49 336.528H1166.37V344.67H1175.49V336.528Z" fill="#D6D6D6"/>
<path d="M1191.76 336.904H1182.64V345.046H1191.76V336.904Z" fill="#D6D6D6"/>
<path d="M1208.11 336.904H1198.98V345.046H1208.11V336.904Z" fill="#D6D6D6"/>
<path d="M1224.71 336.528H1215.59V344.67H1224.71V336.528Z" fill="#D6D6D6"/>
<path d="M1240.98 336.904H1231.86V345.046H1240.98V336.904Z" fill="#D6D6D6"/>
<path d="M1256.64 336.904H1247.52V345.046H1256.64V336.904Z" fill="#D6D6D6"/>
<path d="M1274.18 336.528H1265.06V344.67H1274.18V336.528Z" fill="#D6D6D6"/>
<path d="M1290.45 336.904H1281.33V345.046H1290.45V336.904Z" fill="#D6D6D6"/>
<path d="M1306.8 336.904H1297.68V345.046H1306.8V336.904Z" fill="#D6D6D6"/>
<path d="M1323.5 336.533H1314.38V344.675H1323.5V336.533Z" fill="#D6D6D6"/>
<path d="M1339.71 336.533H1330.59V344.675H1339.71V336.533Z" fill="#D6D6D6"/>
<path d="M1175.33 544.912H1166.21V553.054H1175.33V544.912Z" fill="#D6D6D6"/>
<path d="M1191.6 545.288H1182.48V553.43H1191.6V545.288Z" fill="#D6D6D6"/>
<path d="M1207.95 545.288H1198.83V553.43H1207.95V545.288Z" fill="#D6D6D6"/>
<path d="M1223.75 544.912H1214.63V553.054H1223.75V544.912Z" fill="#D6D6D6"/>
<path d="M1240.7 545.288H1231.58V553.43H1240.7V545.288Z" fill="#D6D6D6"/>
<path d="M1256.37 545.288H1247.25V553.43H1256.37V545.288Z" fill="#D6D6D6"/>
<path d="M1274.01 544.912H1264.88V553.054H1274.01V544.912Z" fill="#D6D6D6"/>
<path d="M1290.28 545.288H1281.15V553.43H1290.28V545.288Z" fill="#D6D6D6"/>
<path d="M1306.62 545.288H1297.5V553.43H1306.62V545.288Z" fill="#D6D6D6"/>
<path d="M1323.32 544.917H1314.2V553.059H1323.32V544.917Z" fill="#D6D6D6"/>
<path d="M1338.91 544.917H1329.79V553.059H1338.91V544.917Z" fill="#D6D6D6"/>
<path d="M1147.12 532.51L1151.37 532.51L1151.37 515.568L1147.12 515.568L1147.12 532.51Z" fill="#D6D6D6"/>
<path d="M1147.06 515.864L1151.31 515.864L1151.31 498.922L1147.06 498.922L1147.06 515.864Z" fill="#D6D6D6"/>
<path d="M1147.26 499.902L1151.5 499.902L1151.5 482.96L1147.26 482.96L1147.26 499.902Z" fill="#D6D6D6"/>
<path d="M1147 483.682L1151.25 483.682L1151.25 466.74L1147 466.74L1147 483.682Z" fill="#D6D6D6"/>
<path d="M1147.33 467.036L1151.58 467.036L1151.58 450.094L1147.33 450.094L1147.33 467.036Z" fill="#D6D6D6"/>
<path d="M1147.14 451.074L1151.39 451.074L1151.39 434.132L1147.14 434.132L1147.14 451.074Z" fill="#D6D6D6"/>
<path d="M1146.75 433.853L1151 433.853L1151 416.91L1146.75 416.91L1146.75 433.853Z" fill="#D6D6D6"/>
<path d="M1147.08 417.207L1151.33 417.207L1151.33 400.265L1147.08 400.265L1147.08 417.207Z" fill="#D6D6D6"/>
<path d="M1147.29 401.245L1151.54 401.245L1151.54 384.303L1147.29 384.303L1147.29 401.245Z" fill="#D6D6D6"/>
<path d="M1147.12 384.663L1151.37 384.663L1151.37 367.721L1147.12 367.721L1147.12 384.663Z" fill="#D6D6D6"/>
<path d="M1146.9 368.667L1151.15 368.667L1151.15 351.725L1146.9 351.725L1146.9 368.667Z" fill="#D6D6D6"/>
<path d="M1356.79 532.817L1361.04 532.817L1361.04 515.875L1356.79 515.875L1356.79 532.817Z" fill="#D6D6D6"/>
<path d="M1356.73 516.172L1360.98 516.172L1360.98 499.23L1356.73 499.23L1356.73 516.172Z" fill="#D6D6D6"/>
<path d="M1356.92 500.21L1361.17 500.21L1361.17 483.268L1356.92 483.268L1356.92 500.21Z" fill="#D6D6D6"/>
<path d="M1356.55 483.96L1360.8 483.96L1360.8 467.018L1356.55 467.018L1356.55 483.96Z" fill="#D6D6D6"/>
<path d="M1356.88 467.314L1361.13 467.314L1361.13 450.372L1356.88 450.372L1356.88 467.314Z" fill="#D6D6D6"/>
<path d="M1356.69 451.353L1360.94 451.353L1360.94 434.41L1356.69 434.41L1356.69 451.353Z" fill="#D6D6D6"/>
<path d="M1356.79 434.16L1361.04 434.16L1361.04 417.218L1356.79 417.218L1356.79 434.16Z" fill="#D6D6D6"/>
<path d="M1356.73 417.515L1360.98 417.515L1360.98 400.573L1356.73 400.573L1356.73 417.515Z" fill="#D6D6D6"/>
<path d="M1356.92 401.553L1361.17 401.553L1361.17 384.611L1356.92 384.611L1356.92 401.553Z" fill="#D6D6D6"/>
<path d="M1356.73 384.946L1360.98 384.946L1360.98 368.004L1356.73 368.004L1356.73 384.946Z" fill="#D6D6D6"/>
<path d="M1356.59 368.916L1360.84 368.916L1360.84 351.974L1356.59 351.974L1356.59 368.916Z" fill="#D6D6D6"/>
<path opacity="0.94" fill-rule="evenodd" clip-rule="evenodd" d="M228.82 343.458V324.185H173.065V343.458H164.805V613.288H173.753V631.185H226.755V613.288H215.742V343.458H228.82Z" fill="#404040"/>
<path d="M242.541 372.378H202.617V377.196H242.541V372.378Z" fill="#B8AF82"/>
<path d="M242.541 353.784H202.617V358.603H242.541V353.784Z" fill="#B8AF82"/>
<path d="M242.541 390.972H202.617V395.79H242.541V390.972Z" fill="#B8AF82"/>
<path d="M242.541 409.531H202.617V414.35H242.541V409.531Z" fill="#B8AF82"/>
<path d="M242.541 428.125H202.617V432.943H242.541V428.125Z" fill="#B8AF82"/>
<path d="M242.541 446.685H202.617V451.503H242.541V446.685Z" fill="#B8AF82"/>
<path d="M242.541 465.278H202.617V470.097H242.541V465.278Z" fill="#B8AF82"/>
<path d="M242.541 483.911H202.617V488.73H242.541V483.911Z" fill="#B8AF82"/>
<path d="M242.541 503.154H202.617V507.973H242.541V503.154Z" fill="#B8AF82"/>
<path d="M242.541 521.748H202.617V526.566H242.541V521.748Z" fill="#B8AF82"/>
<path d="M242.541 540.308H202.617V545.126H242.541V540.308Z" fill="#B8AF82"/>
<path d="M242.541 558.901H202.617V563.72H242.541V558.901Z" fill="#B8AF82"/>
<path d="M242.541 577.461H202.617V582.279H242.541V577.461Z" fill="#B8AF82"/>
<path d="M242.541 596.055H202.617V600.873H242.541V596.055Z" fill="#B8AF82"/>
<g opacity="0.94">
<path d="M215.73 627.783H228.809V327.666H215.73V627.783Z" fill="black"/>
</g>
<path d="M243.246 651.167H188.867V722.755H243.246V651.167Z" fill="white"/>
<path opacity="0.94" d="M243.198 658.037H215.664V660.102H243.198V658.037Z" fill="#404040"/>
<path opacity="0.94" d="M243.198 714.502H215.664V716.567H243.198V714.502Z" fill="#404040"/>
</svg>
